G04 Layer_Color=16711935*
%FSLAX25Y25*%
%MOIN*%
G70*
G01*
G75*
%ADD12C,0.01000*%
G36*
X37760Y-20383D02*
X37810D01*
X37871Y-20394D01*
X37943Y-20400D01*
X38020Y-20416D01*
X38104Y-20433D01*
X38198Y-20461D01*
X38292Y-20489D01*
X38387Y-20527D01*
X38481Y-20572D01*
X38581Y-20627D01*
X38675Y-20688D01*
X38764Y-20761D01*
X38847Y-20844D01*
X38853Y-20849D01*
X38864Y-20860D01*
X38881Y-20883D01*
X38903Y-20910D01*
X38931Y-20944D01*
X38964Y-20988D01*
X38997Y-21038D01*
X39031Y-21093D01*
X39097Y-21216D01*
X39158Y-21360D01*
X39180Y-21438D01*
X39197Y-21521D01*
X39208Y-21604D01*
X39214Y-21693D01*
Y-21698D01*
Y-21721D01*
X39208Y-21759D01*
X39203Y-21804D01*
X39191Y-21859D01*
X39175Y-21926D01*
X39153Y-22004D01*
X39119Y-22081D01*
X39081Y-22165D01*
X39036Y-22253D01*
X38975Y-22342D01*
X38903Y-22431D01*
X38820Y-22520D01*
X38720Y-22609D01*
X38603Y-22692D01*
X38475Y-22770D01*
X38481D01*
X38498Y-22775D01*
X38520Y-22781D01*
X38548Y-22792D01*
X38587Y-22803D01*
X38631Y-22819D01*
X38725Y-22858D01*
X38842Y-22914D01*
X38958Y-22992D01*
X39069Y-23080D01*
X39125Y-23136D01*
X39175Y-23197D01*
X39180Y-23202D01*
X39186Y-23214D01*
X39197Y-23230D01*
X39219Y-23252D01*
X39236Y-23286D01*
X39258Y-23325D01*
X39286Y-23369D01*
X39308Y-23419D01*
X39358Y-23536D01*
X39402Y-23669D01*
X39430Y-23824D01*
X39436Y-23907D01*
X39441Y-23991D01*
Y-23996D01*
Y-24018D01*
X39436Y-24057D01*
Y-24102D01*
X39425Y-24163D01*
X39413Y-24229D01*
X39402Y-24301D01*
X39380Y-24385D01*
X39352Y-24473D01*
X39319Y-24568D01*
X39280Y-24662D01*
X39230Y-24757D01*
X39175Y-24856D01*
X39108Y-24951D01*
X39036Y-25045D01*
X38947Y-25139D01*
X38942Y-25145D01*
X38925Y-25162D01*
X38897Y-25184D01*
X38859Y-25212D01*
X38809Y-25250D01*
X38753Y-25289D01*
X38686Y-25334D01*
X38609Y-25372D01*
X38526Y-25417D01*
X38431Y-25461D01*
X38326Y-25500D01*
X38220Y-25539D01*
X38104Y-25567D01*
X37982Y-25589D01*
X37848Y-25606D01*
X37715Y-25611D01*
X37682D01*
X37649Y-25606D01*
X37599D01*
X37543Y-25600D01*
X37471Y-25589D01*
X37393Y-25578D01*
X37310Y-25561D01*
X37221Y-25539D01*
X37127Y-25511D01*
X37032Y-25484D01*
X36938Y-25445D01*
X36838Y-25395D01*
X36744Y-25345D01*
X36650Y-25284D01*
X36561Y-25212D01*
X36555Y-25206D01*
X36539Y-25195D01*
X36516Y-25173D01*
X36489Y-25139D01*
X36455Y-25101D01*
X36411Y-25051D01*
X36372Y-24995D01*
X36322Y-24928D01*
X36278Y-24856D01*
X36233Y-24779D01*
X36189Y-24695D01*
X36145Y-24601D01*
X36111Y-24501D01*
X36078Y-24396D01*
X36050Y-24279D01*
X36033Y-24163D01*
X36983Y-24046D01*
Y-24052D01*
Y-24063D01*
X36988Y-24079D01*
X36994Y-24107D01*
X37005Y-24174D01*
X37032Y-24251D01*
X37060Y-24346D01*
X37105Y-24435D01*
X37160Y-24529D01*
X37227Y-24607D01*
X37238Y-24612D01*
X37260Y-24634D01*
X37304Y-24668D01*
X37360Y-24701D01*
X37432Y-24734D01*
X37515Y-24768D01*
X37610Y-24790D01*
X37710Y-24795D01*
X37737D01*
X37760Y-24790D01*
X37815Y-24784D01*
X37887Y-24768D01*
X37971Y-24740D01*
X38054Y-24701D01*
X38142Y-24645D01*
X38226Y-24568D01*
X38237Y-24557D01*
X38259Y-24523D01*
X38292Y-24473D01*
X38331Y-24401D01*
X38370Y-24313D01*
X38403Y-24207D01*
X38426Y-24085D01*
X38437Y-23946D01*
Y-23941D01*
Y-23930D01*
Y-23913D01*
X38431Y-23885D01*
Y-23852D01*
X38426Y-23819D01*
X38414Y-23735D01*
X38387Y-23641D01*
X38353Y-23541D01*
X38304Y-23447D01*
X38237Y-23358D01*
X38226Y-23347D01*
X38204Y-23325D01*
X38159Y-23286D01*
X38104Y-23247D01*
X38032Y-23208D01*
X37948Y-23169D01*
X37854Y-23147D01*
X37749Y-23136D01*
X37715D01*
X37676Y-23141D01*
X37621Y-23147D01*
X37554Y-23153D01*
X37482Y-23169D01*
X37393Y-23186D01*
X37299Y-23214D01*
X37404Y-22414D01*
X37471D01*
X37504Y-22409D01*
X37543D01*
X37632Y-22398D01*
X37732Y-22381D01*
X37832Y-22348D01*
X37926Y-22303D01*
X38015Y-22248D01*
X38026Y-22237D01*
X38048Y-22215D01*
X38081Y-22176D01*
X38126Y-22120D01*
X38165Y-22048D01*
X38198Y-21965D01*
X38220Y-21870D01*
X38231Y-21759D01*
Y-21754D01*
Y-21748D01*
Y-21715D01*
X38226Y-21671D01*
X38215Y-21610D01*
X38192Y-21549D01*
X38165Y-21476D01*
X38126Y-21410D01*
X38076Y-21349D01*
X38070Y-21343D01*
X38048Y-21327D01*
X38015Y-21299D01*
X37965Y-21271D01*
X37904Y-21243D01*
X37837Y-21216D01*
X37754Y-21199D01*
X37660Y-21193D01*
X37615D01*
X37571Y-21204D01*
X37510Y-21216D01*
X37443Y-21238D01*
X37371Y-21265D01*
X37299Y-21310D01*
X37227Y-21371D01*
X37221Y-21376D01*
X37199Y-21404D01*
X37171Y-21443D01*
X37132Y-21499D01*
X37094Y-21571D01*
X37060Y-21654D01*
X37032Y-21759D01*
X37010Y-21876D01*
X36106Y-21726D01*
Y-21721D01*
X36111Y-21704D01*
X36117Y-21682D01*
X36122Y-21648D01*
X36133Y-21610D01*
X36145Y-21565D01*
X36178Y-21460D01*
X36217Y-21338D01*
X36267Y-21216D01*
X36322Y-21093D01*
X36389Y-20982D01*
Y-20977D01*
X36400Y-20971D01*
X36422Y-20938D01*
X36466Y-20883D01*
X36527Y-20821D01*
X36600Y-20749D01*
X36688Y-20677D01*
X36794Y-20605D01*
X36916Y-20538D01*
X36922D01*
X36933Y-20533D01*
X36949Y-20522D01*
X36977Y-20511D01*
X37010Y-20500D01*
X37049Y-20489D01*
X37094Y-20472D01*
X37143Y-20455D01*
X37255Y-20427D01*
X37388Y-20400D01*
X37532Y-20383D01*
X37687Y-20378D01*
X37721D01*
X37760Y-20383D01*
D02*
G37*
G36*
X44531Y-21726D02*
X44569Y-21732D01*
X44664Y-21743D01*
X44769Y-21759D01*
X44886Y-21793D01*
X45002Y-21832D01*
X45113Y-21887D01*
X45119D01*
X45124Y-21893D01*
X45158Y-21920D01*
X45208Y-21959D01*
X45274Y-22009D01*
X45341Y-22081D01*
X45413Y-22165D01*
X45480Y-22264D01*
X45535Y-22376D01*
X45541Y-22387D01*
X45546Y-22403D01*
X45552Y-22420D01*
X45557Y-22448D01*
X45568Y-22481D01*
X45579Y-22514D01*
X45591Y-22559D01*
X45596Y-22614D01*
X45607Y-22670D01*
X45618Y-22731D01*
X45624Y-22803D01*
X45630Y-22875D01*
X45635Y-22958D01*
X45641Y-23053D01*
Y-23147D01*
Y-25517D01*
X44658D01*
Y-23397D01*
Y-23391D01*
Y-23374D01*
Y-23347D01*
Y-23308D01*
X44653Y-23264D01*
Y-23214D01*
X44647Y-23097D01*
X44631Y-22980D01*
X44614Y-22858D01*
X44603Y-22808D01*
X44586Y-22759D01*
X44569Y-22714D01*
X44553Y-22681D01*
X44547Y-22670D01*
X44525Y-22648D01*
X44497Y-22614D01*
X44453Y-22575D01*
X44392Y-22536D01*
X44320Y-22503D01*
X44236Y-22481D01*
X44137Y-22470D01*
X44103D01*
X44064Y-22475D01*
X44009Y-22487D01*
X43953Y-22503D01*
X43887Y-22525D01*
X43820Y-22553D01*
X43748Y-22598D01*
X43742Y-22603D01*
X43720Y-22620D01*
X43687Y-22653D01*
X43648Y-22692D01*
X43604Y-22742D01*
X43559Y-22808D01*
X43521Y-22881D01*
X43487Y-22969D01*
X43482Y-22980D01*
Y-22997D01*
X43476Y-23014D01*
X43470Y-23042D01*
X43465Y-23075D01*
X43454Y-23108D01*
X43448Y-23153D01*
X43443Y-23202D01*
X43432Y-23264D01*
X43426Y-23325D01*
X43421Y-23391D01*
X43415Y-23469D01*
Y-23552D01*
X43409Y-23641D01*
Y-23735D01*
Y-25517D01*
X42427D01*
Y-23485D01*
Y-23480D01*
Y-23463D01*
Y-23436D01*
Y-23397D01*
Y-23352D01*
Y-23302D01*
X42422Y-23191D01*
X42416Y-23075D01*
X42405Y-22958D01*
X42399Y-22908D01*
X42388Y-22858D01*
X42383Y-22819D01*
X42372Y-22786D01*
Y-22781D01*
X42360Y-22759D01*
X42349Y-22731D01*
X42333Y-22697D01*
X42283Y-22620D01*
X42250Y-22581D01*
X42211Y-22548D01*
X42205Y-22542D01*
X42189Y-22536D01*
X42166Y-22525D01*
X42133Y-22509D01*
X42089Y-22492D01*
X42039Y-22481D01*
X41978Y-22475D01*
X41911Y-22470D01*
X41872D01*
X41828Y-22475D01*
X41772Y-22487D01*
X41711Y-22503D01*
X41645Y-22525D01*
X41572Y-22553D01*
X41500Y-22598D01*
X41495Y-22603D01*
X41473Y-22620D01*
X41439Y-22648D01*
X41400Y-22686D01*
X41361Y-22736D01*
X41317Y-22797D01*
X41278Y-22870D01*
X41245Y-22953D01*
X41239Y-22964D01*
Y-22975D01*
X41234Y-22997D01*
X41228Y-23019D01*
X41223Y-23053D01*
X41212Y-23091D01*
X41206Y-23130D01*
X41201Y-23180D01*
X41190Y-23236D01*
X41184Y-23302D01*
X41178Y-23369D01*
X41173Y-23447D01*
Y-23530D01*
X41167Y-23619D01*
Y-23713D01*
Y-25517D01*
X40185D01*
Y-21804D01*
X41090D01*
Y-22314D01*
X41095Y-22309D01*
X41112Y-22287D01*
X41140Y-22259D01*
X41178Y-22220D01*
X41223Y-22176D01*
X41278Y-22126D01*
X41345Y-22070D01*
X41417Y-22015D01*
X41495Y-21959D01*
X41583Y-21909D01*
X41678Y-21859D01*
X41778Y-21815D01*
X41889Y-21776D01*
X42000Y-21748D01*
X42122Y-21726D01*
X42244Y-21721D01*
X42305D01*
X42333Y-21726D01*
X42372D01*
X42455Y-21737D01*
X42549Y-21759D01*
X42655Y-21782D01*
X42760Y-21821D01*
X42860Y-21870D01*
X42866D01*
X42871Y-21876D01*
X42904Y-21898D01*
X42954Y-21932D01*
X43015Y-21982D01*
X43082Y-22042D01*
X43154Y-22120D01*
X43226Y-22209D01*
X43293Y-22314D01*
X43299Y-22309D01*
X43304Y-22303D01*
X43315Y-22287D01*
X43337Y-22264D01*
X43387Y-22215D01*
X43448Y-22148D01*
X43532Y-22076D01*
X43620Y-21998D01*
X43715Y-21932D01*
X43820Y-21870D01*
X43826D01*
X43831Y-21865D01*
X43848Y-21854D01*
X43870Y-21848D01*
X43926Y-21821D01*
X44003Y-21793D01*
X44092Y-21771D01*
X44198Y-21743D01*
X44309Y-21726D01*
X44425Y-21721D01*
X44492D01*
X44531Y-21726D01*
D02*
G37*
G36*
X50891D02*
X50930Y-21732D01*
X51024Y-21743D01*
X51130Y-21759D01*
X51246Y-21793D01*
X51363Y-21832D01*
X51474Y-21887D01*
X51479D01*
X51485Y-21893D01*
X51518Y-21920D01*
X51568Y-21959D01*
X51635Y-22009D01*
X51701Y-22081D01*
X51773Y-22165D01*
X51840Y-22264D01*
X51895Y-22376D01*
X51901Y-22387D01*
X51907Y-22403D01*
X51912Y-22420D01*
X51918Y-22448D01*
X51929Y-22481D01*
X51940Y-22514D01*
X51951Y-22559D01*
X51956Y-22614D01*
X51968Y-22670D01*
X51979Y-22731D01*
X51984Y-22803D01*
X51990Y-22875D01*
X51995Y-22958D01*
X52001Y-23053D01*
Y-23147D01*
Y-25517D01*
X51019D01*
Y-23397D01*
Y-23391D01*
Y-23374D01*
Y-23347D01*
Y-23308D01*
X51013Y-23264D01*
Y-23214D01*
X51007Y-23097D01*
X50991Y-22980D01*
X50974Y-22858D01*
X50963Y-22808D01*
X50946Y-22759D01*
X50930Y-22714D01*
X50913Y-22681D01*
X50907Y-22670D01*
X50885Y-22648D01*
X50858Y-22614D01*
X50813Y-22575D01*
X50752Y-22536D01*
X50680Y-22503D01*
X50597Y-22481D01*
X50497Y-22470D01*
X50463D01*
X50425Y-22475D01*
X50369Y-22487D01*
X50314Y-22503D01*
X50247Y-22525D01*
X50181Y-22553D01*
X50108Y-22598D01*
X50103Y-22603D01*
X50081Y-22620D01*
X50047Y-22653D01*
X50008Y-22692D01*
X49964Y-22742D01*
X49920Y-22808D01*
X49881Y-22881D01*
X49847Y-22969D01*
X49842Y-22980D01*
Y-22997D01*
X49836Y-23014D01*
X49831Y-23042D01*
X49825Y-23075D01*
X49814Y-23108D01*
X49809Y-23153D01*
X49803Y-23202D01*
X49792Y-23264D01*
X49786Y-23325D01*
X49781Y-23391D01*
X49775Y-23469D01*
Y-23552D01*
X49770Y-23641D01*
Y-23735D01*
Y-25517D01*
X48787D01*
Y-23485D01*
Y-23480D01*
Y-23463D01*
Y-23436D01*
Y-23397D01*
Y-23352D01*
Y-23302D01*
X48782Y-23191D01*
X48776Y-23075D01*
X48765Y-22958D01*
X48760Y-22908D01*
X48749Y-22858D01*
X48743Y-22819D01*
X48732Y-22786D01*
Y-22781D01*
X48721Y-22759D01*
X48710Y-22731D01*
X48693Y-22697D01*
X48643Y-22620D01*
X48610Y-22581D01*
X48571Y-22548D01*
X48565Y-22542D01*
X48549Y-22536D01*
X48527Y-22525D01*
X48493Y-22509D01*
X48449Y-22492D01*
X48399Y-22481D01*
X48338Y-22475D01*
X48271Y-22470D01*
X48232D01*
X48188Y-22475D01*
X48133Y-22487D01*
X48072Y-22503D01*
X48005Y-22525D01*
X47933Y-22553D01*
X47861Y-22598D01*
X47855Y-22603D01*
X47833Y-22620D01*
X47800Y-22648D01*
X47761Y-22686D01*
X47722Y-22736D01*
X47677Y-22797D01*
X47639Y-22870D01*
X47605Y-22953D01*
X47600Y-22964D01*
Y-22975D01*
X47594Y-22997D01*
X47589Y-23019D01*
X47583Y-23053D01*
X47572Y-23091D01*
X47566Y-23130D01*
X47561Y-23180D01*
X47550Y-23236D01*
X47544Y-23302D01*
X47539Y-23369D01*
X47533Y-23447D01*
Y-23530D01*
X47528Y-23619D01*
Y-23713D01*
Y-25517D01*
X46545D01*
Y-21804D01*
X47450D01*
Y-22314D01*
X47455Y-22309D01*
X47472Y-22287D01*
X47500Y-22259D01*
X47539Y-22220D01*
X47583Y-22176D01*
X47639Y-22126D01*
X47705Y-22070D01*
X47777Y-22015D01*
X47855Y-21959D01*
X47944Y-21909D01*
X48038Y-21859D01*
X48138Y-21815D01*
X48249Y-21776D01*
X48360Y-21748D01*
X48482Y-21726D01*
X48604Y-21721D01*
X48665D01*
X48693Y-21726D01*
X48732D01*
X48815Y-21737D01*
X48910Y-21759D01*
X49015Y-21782D01*
X49120Y-21821D01*
X49220Y-21870D01*
X49226D01*
X49231Y-21876D01*
X49265Y-21898D01*
X49315Y-21932D01*
X49376Y-21982D01*
X49442Y-22042D01*
X49514Y-22120D01*
X49587Y-22209D01*
X49653Y-22314D01*
X49659Y-22309D01*
X49664Y-22303D01*
X49675Y-22287D01*
X49698Y-22264D01*
X49748Y-22215D01*
X49809Y-22148D01*
X49892Y-22076D01*
X49981Y-21998D01*
X50075Y-21932D01*
X50181Y-21870D01*
X50186D01*
X50192Y-21865D01*
X50208Y-21854D01*
X50230Y-21848D01*
X50286Y-21821D01*
X50364Y-21793D01*
X50452Y-21771D01*
X50558Y-21743D01*
X50669Y-21726D01*
X50785Y-21721D01*
X50852D01*
X50891Y-21726D01*
D02*
G37*
G36*
X31832Y-20383D02*
X31882D01*
X31943Y-20394D01*
X32015Y-20405D01*
X32099Y-20422D01*
X32187Y-20444D01*
X32276Y-20472D01*
X32370Y-20505D01*
X32470Y-20550D01*
X32565Y-20599D01*
X32659Y-20661D01*
X32754Y-20733D01*
X32842Y-20816D01*
X32926Y-20910D01*
X32931Y-20916D01*
X32948Y-20938D01*
X32970Y-20977D01*
X33003Y-21032D01*
X33042Y-21099D01*
X33086Y-21188D01*
X33131Y-21288D01*
X33175Y-21410D01*
X33220Y-21543D01*
X33270Y-21698D01*
X33309Y-21870D01*
X33347Y-22059D01*
X33381Y-22264D01*
X33403Y-22492D01*
X33419Y-22736D01*
X33425Y-22997D01*
Y-23003D01*
Y-23014D01*
Y-23036D01*
Y-23058D01*
Y-23097D01*
X33419Y-23136D01*
Y-23180D01*
Y-23236D01*
X33408Y-23352D01*
X33397Y-23491D01*
X33381Y-23641D01*
X33364Y-23802D01*
X33336Y-23974D01*
X33303Y-24146D01*
X33259Y-24324D01*
X33214Y-24496D01*
X33153Y-24657D01*
X33086Y-24817D01*
X33009Y-24962D01*
X32920Y-25089D01*
X32914Y-25095D01*
X32903Y-25112D01*
X32876Y-25139D01*
X32842Y-25173D01*
X32803Y-25212D01*
X32748Y-25256D01*
X32687Y-25300D01*
X32620Y-25350D01*
X32543Y-25400D01*
X32454Y-25445D01*
X32359Y-25489D01*
X32254Y-25528D01*
X32143Y-25561D01*
X32021Y-25589D01*
X31893Y-25606D01*
X31760Y-25611D01*
X31727D01*
X31688Y-25606D01*
X31638Y-25600D01*
X31571Y-25594D01*
X31499Y-25583D01*
X31416Y-25561D01*
X31327Y-25539D01*
X31233Y-25511D01*
X31138Y-25472D01*
X31038Y-25422D01*
X30939Y-25372D01*
X30839Y-25306D01*
X30739Y-25228D01*
X30645Y-25139D01*
X30556Y-25039D01*
X30550Y-25034D01*
X30539Y-25012D01*
X30511Y-24979D01*
X30483Y-24928D01*
X30450Y-24862D01*
X30411Y-24779D01*
X30373Y-24679D01*
X30328Y-24568D01*
X30284Y-24435D01*
X30245Y-24285D01*
X30206Y-24118D01*
X30173Y-23930D01*
X30145Y-23724D01*
X30123Y-23497D01*
X30106Y-23252D01*
X30101Y-22986D01*
Y-22980D01*
Y-22969D01*
Y-22947D01*
Y-22925D01*
Y-22886D01*
X30106Y-22847D01*
Y-22803D01*
Y-22753D01*
X30117Y-22631D01*
X30128Y-22498D01*
X30145Y-22348D01*
X30162Y-22187D01*
X30189Y-22015D01*
X30223Y-21843D01*
X30261Y-21671D01*
X30312Y-21499D01*
X30367Y-21332D01*
X30434Y-21177D01*
X30511Y-21032D01*
X30600Y-20905D01*
X30606Y-20899D01*
X30622Y-20883D01*
X30645Y-20855D01*
X30678Y-20821D01*
X30722Y-20783D01*
X30772Y-20738D01*
X30833Y-20688D01*
X30900Y-20638D01*
X30977Y-20594D01*
X31066Y-20544D01*
X31161Y-20500D01*
X31266Y-20461D01*
X31377Y-20427D01*
X31499Y-20400D01*
X31627Y-20383D01*
X31760Y-20378D01*
X31793D01*
X31832Y-20383D01*
D02*
G37*
G36*
X27942D02*
X28003Y-20389D01*
X28075Y-20400D01*
X28158Y-20411D01*
X28247Y-20427D01*
X28341Y-20450D01*
X28436Y-20477D01*
X28536Y-20511D01*
X28635Y-20550D01*
X28730Y-20599D01*
X28824Y-20655D01*
X28918Y-20716D01*
X29002Y-20788D01*
X29007Y-20794D01*
X29018Y-20805D01*
X29041Y-20833D01*
X29068Y-20860D01*
X29102Y-20899D01*
X29140Y-20949D01*
X29179Y-21005D01*
X29224Y-21071D01*
X29263Y-21138D01*
X29301Y-21216D01*
X29340Y-21299D01*
X29373Y-21388D01*
X29401Y-21487D01*
X29423Y-21587D01*
X29435Y-21693D01*
X29440Y-21804D01*
Y-21809D01*
Y-21821D01*
Y-21837D01*
Y-21865D01*
X29435Y-21893D01*
Y-21932D01*
X29423Y-22015D01*
X29407Y-22120D01*
X29385Y-22231D01*
X29357Y-22348D01*
X29313Y-22464D01*
Y-22470D01*
X29307Y-22475D01*
X29301Y-22498D01*
X29290Y-22520D01*
X29274Y-22548D01*
X29257Y-22581D01*
X29218Y-22664D01*
X29163Y-22759D01*
X29096Y-22870D01*
X29013Y-22992D01*
X28918Y-23119D01*
X28907Y-23130D01*
X28885Y-23164D01*
X28835Y-23214D01*
X28774Y-23286D01*
X28730Y-23330D01*
X28685Y-23380D01*
X28630Y-23430D01*
X28574Y-23491D01*
X28508Y-23552D01*
X28436Y-23624D01*
X28358Y-23696D01*
X28275Y-23774D01*
X28269Y-23780D01*
X28252Y-23791D01*
X28230Y-23813D01*
X28203Y-23841D01*
X28164Y-23874D01*
X28119Y-23913D01*
X28025Y-24002D01*
X27925Y-24096D01*
X27831Y-24190D01*
X27786Y-24235D01*
X27747Y-24274D01*
X27714Y-24313D01*
X27686Y-24340D01*
X27681Y-24346D01*
X27664Y-24362D01*
X27642Y-24390D01*
X27614Y-24423D01*
X27586Y-24468D01*
X27553Y-24512D01*
X27487Y-24607D01*
X29440D01*
Y-25517D01*
X25999D01*
Y-25511D01*
X26005Y-25495D01*
Y-25467D01*
X26010Y-25428D01*
X26021Y-25384D01*
X26032Y-25328D01*
X26043Y-25267D01*
X26060Y-25201D01*
X26105Y-25051D01*
X26166Y-24884D01*
X26238Y-24712D01*
X26332Y-24540D01*
X26338Y-24534D01*
X26343Y-24518D01*
X26365Y-24490D01*
X26388Y-24457D01*
X26421Y-24412D01*
X26465Y-24351D01*
X26515Y-24290D01*
X26576Y-24213D01*
X26643Y-24129D01*
X26726Y-24040D01*
X26815Y-23935D01*
X26915Y-23830D01*
X27026Y-23713D01*
X27154Y-23585D01*
X27287Y-23452D01*
X27437Y-23313D01*
X27442Y-23308D01*
X27464Y-23286D01*
X27498Y-23252D01*
X27542Y-23214D01*
X27597Y-23164D01*
X27653Y-23108D01*
X27720Y-23042D01*
X27786Y-22975D01*
X27931Y-22836D01*
X28064Y-22697D01*
X28119Y-22636D01*
X28175Y-22575D01*
X28219Y-22520D01*
X28252Y-22475D01*
Y-22470D01*
X28264Y-22464D01*
X28269Y-22448D01*
X28286Y-22425D01*
X28319Y-22364D01*
X28358Y-22287D01*
X28391Y-22198D01*
X28425Y-22098D01*
X28447Y-21987D01*
X28458Y-21876D01*
Y-21870D01*
Y-21859D01*
Y-21843D01*
Y-21821D01*
X28447Y-21765D01*
X28436Y-21687D01*
X28413Y-21610D01*
X28386Y-21526D01*
X28341Y-21443D01*
X28280Y-21371D01*
X28275Y-21365D01*
X28247Y-21343D01*
X28208Y-21316D01*
X28152Y-21282D01*
X28080Y-21249D01*
X27997Y-21221D01*
X27903Y-21199D01*
X27792Y-21193D01*
X27742D01*
X27686Y-21204D01*
X27614Y-21216D01*
X27536Y-21238D01*
X27453Y-21271D01*
X27370Y-21321D01*
X27298Y-21382D01*
X27292Y-21393D01*
X27270Y-21415D01*
X27242Y-21460D01*
X27204Y-21526D01*
X27170Y-21610D01*
X27137Y-21715D01*
X27109Y-21843D01*
X27098Y-21915D01*
X27092Y-21993D01*
X26116Y-21898D01*
Y-21887D01*
X26121Y-21865D01*
X26127Y-21821D01*
X26138Y-21765D01*
X26149Y-21698D01*
X26166Y-21621D01*
X26188Y-21538D01*
X26216Y-21449D01*
X26249Y-21354D01*
X26288Y-21260D01*
X26332Y-21160D01*
X26382Y-21066D01*
X26438Y-20971D01*
X26504Y-20883D01*
X26576Y-20805D01*
X26660Y-20733D01*
X26665Y-20727D01*
X26682Y-20716D01*
X26709Y-20699D01*
X26743Y-20677D01*
X26787Y-20650D01*
X26843Y-20622D01*
X26904Y-20588D01*
X26976Y-20555D01*
X27059Y-20522D01*
X27142Y-20489D01*
X27237Y-20461D01*
X27342Y-20433D01*
X27448Y-20411D01*
X27564Y-20394D01*
X27686Y-20383D01*
X27814Y-20378D01*
X27886D01*
X27942Y-20383D01*
D02*
G37*
G36*
X35273Y-25517D02*
X34291D01*
Y-24534D01*
X35273D01*
Y-25517D01*
D02*
G37*
G36*
X-21683Y36774D02*
X-23892D01*
X-23936Y36769D01*
X-23986D01*
X-24103Y36763D01*
X-24219Y36746D01*
X-24342Y36730D01*
X-24392Y36719D01*
X-24442Y36702D01*
X-24486Y36685D01*
X-24519Y36669D01*
X-24530Y36663D01*
X-24553Y36641D01*
X-24586Y36613D01*
X-24625Y36569D01*
X-24664Y36508D01*
X-24697Y36436D01*
X-24719Y36353D01*
X-24730Y36253D01*
Y36241D01*
Y36219D01*
X-24725Y36180D01*
X-24713Y36125D01*
X-24697Y36069D01*
X-24675Y36003D01*
X-24647Y35936D01*
X-24602Y35864D01*
X-24597Y35859D01*
X-24580Y35836D01*
X-24547Y35803D01*
X-24508Y35764D01*
X-24458Y35720D01*
X-24392Y35675D01*
X-24319Y35636D01*
X-24231Y35603D01*
X-24219Y35598D01*
X-24203D01*
X-24186Y35592D01*
X-24159Y35587D01*
X-24125Y35581D01*
X-24092Y35570D01*
X-24047Y35564D01*
X-23998Y35559D01*
X-23936Y35548D01*
X-23875Y35542D01*
X-23809Y35537D01*
X-23731Y35531D01*
X-23648D01*
X-23559Y35526D01*
X-21683D01*
Y34543D01*
X-23898D01*
X-24009Y34538D01*
X-24125Y34532D01*
X-24242Y34521D01*
X-24292Y34515D01*
X-24342Y34504D01*
X-24381Y34499D01*
X-24414Y34488D01*
X-24419D01*
X-24442Y34477D01*
X-24469Y34466D01*
X-24503Y34449D01*
X-24580Y34399D01*
X-24619Y34366D01*
X-24652Y34327D01*
X-24658Y34321D01*
X-24664Y34304D01*
X-24675Y34282D01*
X-24691Y34249D01*
X-24708Y34205D01*
X-24719Y34155D01*
X-24725Y34094D01*
X-24730Y34027D01*
Y34016D01*
Y33988D01*
X-24725Y33944D01*
X-24713Y33888D01*
X-24697Y33827D01*
X-24675Y33761D01*
X-24647Y33689D01*
X-24602Y33616D01*
X-24597Y33611D01*
X-24580Y33589D01*
X-24553Y33555D01*
X-24514Y33516D01*
X-24464Y33478D01*
X-24403Y33433D01*
X-24330Y33394D01*
X-24247Y33361D01*
X-24236Y33356D01*
X-24225D01*
X-24203Y33350D01*
X-24181Y33344D01*
X-24147Y33339D01*
X-24108Y33328D01*
X-24070Y33322D01*
X-24020Y33317D01*
X-23964Y33305D01*
X-23898Y33300D01*
X-23831Y33294D01*
X-23753Y33289D01*
X-23670D01*
X-23581Y33283D01*
X-21683D01*
Y32301D01*
X-25396D01*
Y33206D01*
X-24885D01*
X-24891Y33211D01*
X-24913Y33228D01*
X-24941Y33256D01*
X-24980Y33294D01*
X-25024Y33339D01*
X-25074Y33394D01*
X-25130Y33461D01*
X-25185Y33533D01*
X-25241Y33611D01*
X-25291Y33700D01*
X-25341Y33794D01*
X-25385Y33894D01*
X-25424Y34005D01*
X-25452Y34116D01*
X-25474Y34238D01*
X-25479Y34360D01*
Y34366D01*
Y34377D01*
Y34393D01*
Y34421D01*
X-25474Y34449D01*
Y34488D01*
X-25463Y34571D01*
X-25440Y34665D01*
X-25418Y34771D01*
X-25379Y34876D01*
X-25330Y34976D01*
Y34982D01*
X-25324Y34987D01*
X-25302Y35021D01*
X-25269Y35070D01*
X-25218Y35131D01*
X-25157Y35198D01*
X-25080Y35270D01*
X-24991Y35342D01*
X-24885Y35409D01*
X-24891Y35414D01*
X-24897Y35420D01*
X-24913Y35431D01*
X-24936Y35453D01*
X-24985Y35503D01*
X-25052Y35564D01*
X-25124Y35648D01*
X-25202Y35736D01*
X-25269Y35831D01*
X-25330Y35936D01*
Y35942D01*
X-25335Y35947D01*
X-25346Y35964D01*
X-25352Y35986D01*
X-25379Y36042D01*
X-25407Y36119D01*
X-25429Y36208D01*
X-25457Y36314D01*
X-25474Y36425D01*
X-25479Y36541D01*
Y36547D01*
Y36558D01*
Y36580D01*
Y36608D01*
X-25474Y36647D01*
X-25468Y36685D01*
X-25457Y36780D01*
X-25440Y36885D01*
X-25407Y37002D01*
X-25368Y37118D01*
X-25313Y37229D01*
Y37235D01*
X-25307Y37240D01*
X-25280Y37274D01*
X-25241Y37324D01*
X-25191Y37390D01*
X-25119Y37457D01*
X-25035Y37529D01*
X-24936Y37596D01*
X-24825Y37651D01*
X-24813Y37657D01*
X-24797Y37662D01*
X-24780Y37668D01*
X-24752Y37673D01*
X-24719Y37685D01*
X-24686Y37696D01*
X-24641Y37707D01*
X-24586Y37712D01*
X-24530Y37723D01*
X-24469Y37734D01*
X-24397Y37740D01*
X-24325Y37745D01*
X-24242Y37751D01*
X-24147Y37757D01*
X-21683D01*
Y36774D01*
D02*
G37*
G36*
Y21700D02*
X-21689D01*
X-21705Y21706D01*
X-21733D01*
X-21772Y21712D01*
X-21816Y21723D01*
X-21872Y21734D01*
X-21933Y21745D01*
X-22000Y21761D01*
X-22149Y21806D01*
X-22316Y21867D01*
X-22488Y21939D01*
X-22660Y22034D01*
X-22666Y22039D01*
X-22682Y22045D01*
X-22710Y22067D01*
X-22743Y22089D01*
X-22788Y22122D01*
X-22849Y22167D01*
X-22910Y22217D01*
X-22987Y22278D01*
X-23071Y22344D01*
X-23159Y22427D01*
X-23265Y22516D01*
X-23370Y22616D01*
X-23487Y22727D01*
X-23615Y22855D01*
X-23748Y22988D01*
X-23887Y23138D01*
X-23892Y23144D01*
X-23914Y23166D01*
X-23948Y23199D01*
X-23986Y23243D01*
X-24036Y23299D01*
X-24092Y23354D01*
X-24159Y23421D01*
X-24225Y23488D01*
X-24364Y23632D01*
X-24503Y23765D01*
X-24564Y23821D01*
X-24625Y23876D01*
X-24680Y23921D01*
X-24725Y23954D01*
X-24730D01*
X-24736Y23965D01*
X-24752Y23970D01*
X-24775Y23987D01*
X-24836Y24020D01*
X-24913Y24059D01*
X-25002Y24092D01*
X-25102Y24126D01*
X-25213Y24148D01*
X-25324Y24159D01*
X-25379D01*
X-25435Y24148D01*
X-25513Y24137D01*
X-25590Y24115D01*
X-25674Y24087D01*
X-25757Y24043D01*
X-25829Y23981D01*
X-25835Y23976D01*
X-25857Y23948D01*
X-25885Y23909D01*
X-25918Y23854D01*
X-25951Y23782D01*
X-25979Y23698D01*
X-26001Y23604D01*
X-26007Y23493D01*
Y23488D01*
Y23482D01*
Y23465D01*
Y23443D01*
X-25995Y23388D01*
X-25984Y23315D01*
X-25962Y23238D01*
X-25929Y23155D01*
X-25879Y23071D01*
X-25818Y22999D01*
X-25807Y22994D01*
X-25785Y22971D01*
X-25740Y22944D01*
X-25674Y22905D01*
X-25590Y22872D01*
X-25485Y22838D01*
X-25357Y22810D01*
X-25285Y22799D01*
X-25207Y22794D01*
X-25302Y21817D01*
X-25313D01*
X-25335Y21823D01*
X-25379Y21828D01*
X-25435Y21839D01*
X-25502Y21850D01*
X-25579Y21867D01*
X-25662Y21889D01*
X-25751Y21917D01*
X-25846Y21950D01*
X-25940Y21989D01*
X-26040Y22034D01*
X-26134Y22083D01*
X-26229Y22139D01*
X-26317Y22206D01*
X-26395Y22278D01*
X-26467Y22361D01*
X-26473Y22366D01*
X-26484Y22383D01*
X-26501Y22411D01*
X-26523Y22444D01*
X-26550Y22489D01*
X-26578Y22544D01*
X-26612Y22605D01*
X-26645Y22677D01*
X-26678Y22761D01*
X-26711Y22844D01*
X-26739Y22938D01*
X-26767Y23044D01*
X-26789Y23149D01*
X-26806Y23266D01*
X-26817Y23388D01*
X-26823Y23515D01*
Y23526D01*
Y23549D01*
Y23587D01*
X-26817Y23643D01*
X-26811Y23704D01*
X-26800Y23776D01*
X-26789Y23859D01*
X-26772Y23948D01*
X-26750Y24043D01*
X-26723Y24137D01*
X-26689Y24237D01*
X-26650Y24337D01*
X-26601Y24431D01*
X-26545Y24525D01*
X-26484Y24620D01*
X-26412Y24703D01*
X-26406Y24709D01*
X-26395Y24720D01*
X-26367Y24742D01*
X-26340Y24770D01*
X-26301Y24803D01*
X-26251Y24842D01*
X-26195Y24881D01*
X-26129Y24925D01*
X-26062Y24964D01*
X-25984Y25003D01*
X-25901Y25042D01*
X-25812Y25075D01*
X-25712Y25103D01*
X-25613Y25125D01*
X-25507Y25136D01*
X-25396Y25142D01*
X-25335D01*
X-25307Y25136D01*
X-25269D01*
X-25185Y25125D01*
X-25080Y25108D01*
X-24969Y25086D01*
X-24852Y25058D01*
X-24736Y25014D01*
X-24730D01*
X-24725Y25008D01*
X-24702Y25003D01*
X-24680Y24992D01*
X-24652Y24975D01*
X-24619Y24958D01*
X-24536Y24919D01*
X-24442Y24864D01*
X-24330Y24797D01*
X-24208Y24714D01*
X-24081Y24620D01*
X-24070Y24609D01*
X-24036Y24587D01*
X-23986Y24536D01*
X-23914Y24475D01*
X-23870Y24431D01*
X-23820Y24387D01*
X-23770Y24331D01*
X-23709Y24276D01*
X-23648Y24209D01*
X-23576Y24137D01*
X-23504Y24059D01*
X-23426Y23976D01*
X-23420Y23970D01*
X-23409Y23954D01*
X-23387Y23932D01*
X-23359Y23904D01*
X-23326Y23865D01*
X-23287Y23821D01*
X-23198Y23726D01*
X-23104Y23626D01*
X-23010Y23532D01*
X-22965Y23488D01*
X-22926Y23449D01*
X-22887Y23415D01*
X-22860Y23388D01*
X-22854Y23382D01*
X-22838Y23366D01*
X-22810Y23343D01*
X-22776Y23315D01*
X-22732Y23288D01*
X-22688Y23255D01*
X-22593Y23188D01*
Y25142D01*
X-21683D01*
Y21700D01*
D02*
G37*
G36*
Y30414D02*
X-23892D01*
X-23936Y30408D01*
X-23986D01*
X-24103Y30403D01*
X-24219Y30386D01*
X-24342Y30370D01*
X-24392Y30358D01*
X-24442Y30342D01*
X-24486Y30325D01*
X-24519Y30308D01*
X-24530Y30303D01*
X-24553Y30281D01*
X-24586Y30253D01*
X-24625Y30209D01*
X-24664Y30148D01*
X-24697Y30075D01*
X-24719Y29992D01*
X-24730Y29892D01*
Y29881D01*
Y29859D01*
X-24725Y29820D01*
X-24713Y29765D01*
X-24697Y29709D01*
X-24675Y29643D01*
X-24647Y29576D01*
X-24602Y29504D01*
X-24597Y29498D01*
X-24580Y29476D01*
X-24547Y29443D01*
X-24508Y29404D01*
X-24458Y29359D01*
X-24392Y29315D01*
X-24319Y29276D01*
X-24231Y29243D01*
X-24219Y29237D01*
X-24203D01*
X-24186Y29232D01*
X-24159Y29226D01*
X-24125Y29221D01*
X-24092Y29210D01*
X-24047Y29204D01*
X-23998Y29199D01*
X-23936Y29187D01*
X-23875Y29182D01*
X-23809Y29176D01*
X-23731Y29171D01*
X-23648D01*
X-23559Y29165D01*
X-21683D01*
Y28183D01*
X-23898D01*
X-24009Y28177D01*
X-24125Y28172D01*
X-24242Y28161D01*
X-24292Y28155D01*
X-24342Y28144D01*
X-24381Y28139D01*
X-24414Y28127D01*
X-24419D01*
X-24442Y28116D01*
X-24469Y28105D01*
X-24503Y28089D01*
X-24580Y28039D01*
X-24619Y28005D01*
X-24652Y27966D01*
X-24658Y27961D01*
X-24664Y27944D01*
X-24675Y27922D01*
X-24691Y27889D01*
X-24708Y27844D01*
X-24719Y27794D01*
X-24725Y27733D01*
X-24730Y27667D01*
Y27656D01*
Y27628D01*
X-24725Y27584D01*
X-24713Y27528D01*
X-24697Y27467D01*
X-24675Y27400D01*
X-24647Y27328D01*
X-24602Y27256D01*
X-24597Y27250D01*
X-24580Y27228D01*
X-24553Y27195D01*
X-24514Y27156D01*
X-24464Y27117D01*
X-24403Y27073D01*
X-24330Y27034D01*
X-24247Y27001D01*
X-24236Y26995D01*
X-24225D01*
X-24203Y26990D01*
X-24181Y26984D01*
X-24147Y26978D01*
X-24108Y26967D01*
X-24070Y26962D01*
X-24020Y26956D01*
X-23964Y26945D01*
X-23898Y26940D01*
X-23831Y26934D01*
X-23753Y26929D01*
X-23670D01*
X-23581Y26923D01*
X-21683D01*
Y25941D01*
X-25396D01*
Y26845D01*
X-24885D01*
X-24891Y26851D01*
X-24913Y26867D01*
X-24941Y26895D01*
X-24980Y26934D01*
X-25024Y26978D01*
X-25074Y27034D01*
X-25130Y27101D01*
X-25185Y27173D01*
X-25241Y27250D01*
X-25291Y27339D01*
X-25341Y27434D01*
X-25385Y27534D01*
X-25424Y27645D01*
X-25452Y27755D01*
X-25474Y27878D01*
X-25479Y28000D01*
Y28005D01*
Y28016D01*
Y28033D01*
Y28061D01*
X-25474Y28089D01*
Y28127D01*
X-25463Y28211D01*
X-25440Y28305D01*
X-25418Y28410D01*
X-25379Y28516D01*
X-25330Y28616D01*
Y28621D01*
X-25324Y28627D01*
X-25302Y28660D01*
X-25269Y28710D01*
X-25218Y28771D01*
X-25157Y28838D01*
X-25080Y28910D01*
X-24991Y28982D01*
X-24885Y29049D01*
X-24891Y29054D01*
X-24897Y29060D01*
X-24913Y29071D01*
X-24936Y29093D01*
X-24985Y29143D01*
X-25052Y29204D01*
X-25124Y29287D01*
X-25202Y29376D01*
X-25269Y29471D01*
X-25330Y29576D01*
Y29581D01*
X-25335Y29587D01*
X-25346Y29604D01*
X-25352Y29626D01*
X-25379Y29681D01*
X-25407Y29759D01*
X-25429Y29848D01*
X-25457Y29953D01*
X-25474Y30064D01*
X-25479Y30181D01*
Y30186D01*
Y30198D01*
Y30220D01*
Y30248D01*
X-25474Y30286D01*
X-25468Y30325D01*
X-25457Y30419D01*
X-25440Y30525D01*
X-25407Y30641D01*
X-25368Y30758D01*
X-25313Y30869D01*
Y30875D01*
X-25307Y30880D01*
X-25280Y30913D01*
X-25241Y30963D01*
X-25191Y31030D01*
X-25119Y31097D01*
X-25035Y31169D01*
X-24936Y31235D01*
X-24825Y31291D01*
X-24813Y31296D01*
X-24797Y31302D01*
X-24780Y31308D01*
X-24752Y31313D01*
X-24719Y31324D01*
X-24686Y31335D01*
X-24641Y31346D01*
X-24586Y31352D01*
X-24530Y31363D01*
X-24469Y31374D01*
X-24397Y31380D01*
X-24325Y31385D01*
X-24242Y31391D01*
X-24147Y31396D01*
X-21683D01*
Y30414D01*
D02*
G37*
G36*
Y13409D02*
X-25374D01*
X-25368Y13403D01*
X-25352Y13387D01*
X-25324Y13353D01*
X-25291Y13314D01*
X-25252Y13264D01*
X-25202Y13198D01*
X-25146Y13131D01*
X-25091Y13048D01*
X-25030Y12959D01*
X-24969Y12865D01*
X-24908Y12759D01*
X-24847Y12648D01*
X-24786Y12532D01*
X-24730Y12404D01*
X-24680Y12277D01*
X-24630Y12143D01*
X-25524D01*
Y12149D01*
X-25529Y12160D01*
X-25535Y12182D01*
X-25546Y12210D01*
X-25563Y12249D01*
X-25579Y12288D01*
X-25602Y12338D01*
X-25629Y12393D01*
X-25690Y12515D01*
X-25774Y12654D01*
X-25873Y12809D01*
X-25995Y12976D01*
X-26001Y12981D01*
X-26012Y12998D01*
X-26029Y13020D01*
X-26057Y13048D01*
X-26090Y13087D01*
X-26134Y13126D01*
X-26179Y13170D01*
X-26234Y13220D01*
X-26356Y13326D01*
X-26495Y13425D01*
X-26650Y13520D01*
X-26734Y13559D01*
X-26823Y13592D01*
Y14391D01*
X-21683D01*
Y13409D01*
D02*
G37*
G36*
X-23143Y19225D02*
X-23098D01*
X-23037Y19214D01*
X-22971Y19203D01*
X-22899Y19192D01*
X-22815Y19170D01*
X-22727Y19142D01*
X-22632Y19109D01*
X-22538Y19070D01*
X-22444Y19020D01*
X-22344Y18964D01*
X-22249Y18898D01*
X-22155Y18826D01*
X-22061Y18737D01*
X-22055Y18731D01*
X-22038Y18715D01*
X-22016Y18687D01*
X-21988Y18648D01*
X-21950Y18598D01*
X-21911Y18542D01*
X-21866Y18476D01*
X-21827Y18398D01*
X-21783Y18315D01*
X-21739Y18221D01*
X-21700Y18115D01*
X-21661Y18010D01*
X-21633Y17893D01*
X-21611Y17771D01*
X-21594Y17638D01*
X-21589Y17505D01*
Y17499D01*
Y17471D01*
X-21594Y17438D01*
Y17388D01*
X-21600Y17333D01*
X-21611Y17260D01*
X-21622Y17183D01*
X-21639Y17099D01*
X-21661Y17011D01*
X-21689Y16916D01*
X-21716Y16822D01*
X-21755Y16728D01*
X-21805Y16628D01*
X-21855Y16533D01*
X-21916Y16439D01*
X-21988Y16350D01*
X-21994Y16345D01*
X-22005Y16328D01*
X-22027Y16306D01*
X-22061Y16278D01*
X-22099Y16245D01*
X-22149Y16200D01*
X-22205Y16162D01*
X-22272Y16112D01*
X-22344Y16067D01*
X-22421Y16023D01*
X-22505Y15978D01*
X-22599Y15934D01*
X-22699Y15901D01*
X-22804Y15867D01*
X-22921Y15840D01*
X-23037Y15823D01*
X-23154Y16772D01*
X-23137D01*
X-23121Y16778D01*
X-23093Y16783D01*
X-23026Y16794D01*
X-22949Y16822D01*
X-22854Y16850D01*
X-22765Y16894D01*
X-22671Y16950D01*
X-22593Y17016D01*
X-22588Y17027D01*
X-22566Y17050D01*
X-22532Y17094D01*
X-22499Y17150D01*
X-22466Y17222D01*
X-22432Y17305D01*
X-22410Y17399D01*
X-22405Y17499D01*
Y17505D01*
Y17510D01*
Y17527D01*
X-22410Y17549D01*
X-22416Y17605D01*
X-22432Y17677D01*
X-22460Y17760D01*
X-22499Y17843D01*
X-22555Y17932D01*
X-22632Y18015D01*
X-22643Y18026D01*
X-22677Y18049D01*
X-22727Y18082D01*
X-22799Y18121D01*
X-22887Y18160D01*
X-22993Y18193D01*
X-23115Y18215D01*
X-23254Y18226D01*
X-23287D01*
X-23315Y18221D01*
X-23348D01*
X-23381Y18215D01*
X-23465Y18204D01*
X-23559Y18176D01*
X-23659Y18143D01*
X-23753Y18093D01*
X-23842Y18026D01*
X-23853Y18015D01*
X-23875Y17993D01*
X-23914Y17949D01*
X-23953Y17893D01*
X-23992Y17821D01*
X-24031Y17738D01*
X-24053Y17643D01*
X-24064Y17538D01*
Y17527D01*
Y17505D01*
X-24059Y17466D01*
X-24053Y17410D01*
X-24047Y17344D01*
X-24031Y17272D01*
X-24014Y17183D01*
X-23986Y17088D01*
X-24786Y17194D01*
Y17199D01*
Y17210D01*
Y17233D01*
Y17260D01*
X-24791Y17294D01*
Y17333D01*
X-24802Y17421D01*
X-24819Y17521D01*
X-24852Y17621D01*
X-24897Y17716D01*
X-24952Y17804D01*
X-24963Y17816D01*
X-24985Y17838D01*
X-25024Y17871D01*
X-25080Y17915D01*
X-25152Y17954D01*
X-25235Y17988D01*
X-25330Y18010D01*
X-25440Y18021D01*
X-25485D01*
X-25529Y18015D01*
X-25590Y18004D01*
X-25651Y17982D01*
X-25724Y17954D01*
X-25790Y17915D01*
X-25851Y17865D01*
X-25857Y17860D01*
X-25873Y17838D01*
X-25901Y17804D01*
X-25929Y17754D01*
X-25957Y17693D01*
X-25984Y17627D01*
X-26001Y17544D01*
X-26007Y17449D01*
Y17438D01*
Y17405D01*
X-25995Y17360D01*
X-25984Y17299D01*
X-25962Y17233D01*
X-25934Y17161D01*
X-25890Y17088D01*
X-25829Y17016D01*
X-25824Y17011D01*
X-25796Y16988D01*
X-25757Y16961D01*
X-25701Y16922D01*
X-25629Y16883D01*
X-25546Y16850D01*
X-25440Y16822D01*
X-25324Y16800D01*
X-25474Y15895D01*
X-25479D01*
X-25496Y15901D01*
X-25518Y15906D01*
X-25552Y15912D01*
X-25590Y15923D01*
X-25635Y15934D01*
X-25740Y15967D01*
X-25862Y16006D01*
X-25984Y16056D01*
X-26107Y16112D01*
X-26217Y16178D01*
X-26223D01*
X-26229Y16189D01*
X-26262Y16211D01*
X-26317Y16256D01*
X-26379Y16317D01*
X-26451Y16389D01*
X-26523Y16478D01*
X-26595Y16583D01*
X-26662Y16705D01*
Y16711D01*
X-26667Y16722D01*
X-26678Y16739D01*
X-26689Y16767D01*
X-26700Y16800D01*
X-26711Y16839D01*
X-26728Y16883D01*
X-26745Y16933D01*
X-26772Y17044D01*
X-26800Y17177D01*
X-26817Y17322D01*
X-26823Y17477D01*
Y17488D01*
Y17510D01*
X-26817Y17549D01*
Y17599D01*
X-26806Y17660D01*
X-26800Y17732D01*
X-26784Y17810D01*
X-26767Y17893D01*
X-26739Y17988D01*
X-26711Y18082D01*
X-26673Y18176D01*
X-26628Y18271D01*
X-26573Y18371D01*
X-26512Y18465D01*
X-26439Y18554D01*
X-26356Y18637D01*
X-26351Y18642D01*
X-26340Y18654D01*
X-26317Y18670D01*
X-26290Y18692D01*
X-26256Y18720D01*
X-26212Y18753D01*
X-26162Y18787D01*
X-26107Y18820D01*
X-25984Y18887D01*
X-25840Y18948D01*
X-25762Y18970D01*
X-25679Y18986D01*
X-25596Y18998D01*
X-25507Y19003D01*
X-25479D01*
X-25440Y18998D01*
X-25396Y18992D01*
X-25341Y18981D01*
X-25274Y18964D01*
X-25196Y18942D01*
X-25119Y18909D01*
X-25035Y18870D01*
X-24947Y18826D01*
X-24858Y18765D01*
X-24769Y18692D01*
X-24680Y18609D01*
X-24591Y18509D01*
X-24508Y18393D01*
X-24430Y18265D01*
Y18271D01*
X-24425Y18287D01*
X-24419Y18309D01*
X-24408Y18337D01*
X-24397Y18376D01*
X-24381Y18420D01*
X-24342Y18515D01*
X-24286Y18631D01*
X-24208Y18748D01*
X-24120Y18859D01*
X-24064Y18914D01*
X-24003Y18964D01*
X-23998Y18970D01*
X-23986Y18975D01*
X-23970Y18986D01*
X-23948Y19009D01*
X-23914Y19025D01*
X-23875Y19048D01*
X-23831Y19075D01*
X-23781Y19097D01*
X-23664Y19148D01*
X-23531Y19192D01*
X-23376Y19220D01*
X-23293Y19225D01*
X-23209Y19231D01*
X-23182D01*
X-23143Y19225D01*
D02*
G37*
G36*
X-21683Y20047D02*
X-22666D01*
Y21029D01*
X-21683D01*
Y20047D01*
D02*
G37*
%LPC*%
G36*
X31760Y-21193D02*
X31732D01*
X31699Y-21199D01*
X31655Y-21210D01*
X31605Y-21221D01*
X31549Y-21243D01*
X31499Y-21271D01*
X31444Y-21310D01*
X31438Y-21316D01*
X31422Y-21332D01*
X31394Y-21360D01*
X31366Y-21404D01*
X31333Y-21460D01*
X31294Y-21526D01*
X31260Y-21615D01*
X31227Y-21715D01*
Y-21721D01*
X31222Y-21732D01*
X31216Y-21754D01*
X31211Y-21787D01*
X31205Y-21832D01*
X31194Y-21882D01*
X31188Y-21948D01*
X31177Y-22020D01*
X31166Y-22104D01*
X31161Y-22198D01*
X31150Y-22303D01*
X31144Y-22420D01*
X31138Y-22542D01*
X31133Y-22686D01*
X31127Y-22836D01*
Y-22997D01*
Y-23008D01*
Y-23036D01*
Y-23080D01*
Y-23141D01*
X31133Y-23219D01*
Y-23302D01*
Y-23391D01*
X31138Y-23491D01*
X31150Y-23696D01*
X31166Y-23902D01*
X31177Y-24002D01*
X31188Y-24091D01*
X31199Y-24168D01*
X31216Y-24240D01*
Y-24246D01*
X31222Y-24257D01*
X31227Y-24274D01*
X31233Y-24296D01*
X31249Y-24351D01*
X31277Y-24418D01*
X31310Y-24496D01*
X31349Y-24568D01*
X31394Y-24634D01*
X31444Y-24684D01*
X31449Y-24690D01*
X31466Y-24701D01*
X31499Y-24718D01*
X31538Y-24740D01*
X31582Y-24762D01*
X31638Y-24779D01*
X31693Y-24790D01*
X31760Y-24795D01*
X31788D01*
X31821Y-24790D01*
X31866Y-24779D01*
X31915Y-24768D01*
X31971Y-24751D01*
X32021Y-24723D01*
X32076Y-24684D01*
X32082Y-24679D01*
X32099Y-24662D01*
X32126Y-24634D01*
X32154Y-24590D01*
X32193Y-24534D01*
X32226Y-24468D01*
X32260Y-24379D01*
X32293Y-24279D01*
Y-24274D01*
X32298Y-24262D01*
X32304Y-24240D01*
X32309Y-24207D01*
X32315Y-24163D01*
X32326Y-24113D01*
X32337Y-24052D01*
X32348Y-23979D01*
X32354Y-23896D01*
X32365Y-23802D01*
X32376Y-23696D01*
X32382Y-23580D01*
X32387Y-23452D01*
X32393Y-23313D01*
X32398Y-23158D01*
Y-22997D01*
Y-22986D01*
Y-22958D01*
Y-22914D01*
Y-22853D01*
Y-22781D01*
X32393Y-22692D01*
Y-22603D01*
X32387Y-22503D01*
X32376Y-22298D01*
X32359Y-22098D01*
X32348Y-21998D01*
X32337Y-21909D01*
X32321Y-21832D01*
X32304Y-21759D01*
Y-21754D01*
X32298Y-21743D01*
X32293Y-21726D01*
X32287Y-21704D01*
X32271Y-21648D01*
X32243Y-21576D01*
X32210Y-21499D01*
X32171Y-21427D01*
X32126Y-21360D01*
X32076Y-21310D01*
X32071Y-21304D01*
X32054Y-21293D01*
X32021Y-21271D01*
X31988Y-21249D01*
X31938Y-21232D01*
X31882Y-21210D01*
X31827Y-21199D01*
X31760Y-21193D01*
D02*
G37*
%LPD*%
D12*
X-25300Y51900D02*
X-1500D01*
X-25300Y0D02*
X-1500D01*
X-24300Y38757D02*
Y51900D01*
Y0D02*
Y11143D01*
X-26300Y45900D02*
X-24300Y51900D01*
X-22300Y45900D01*
X-24300Y0D02*
X-22300Y6000D01*
X-26300D02*
X-24300Y0D01*
X80000Y-23900D02*
Y-1500D01*
X0Y-23900D02*
Y-1500D01*
X53001Y-22900D02*
X80000D01*
X0D02*
X24999D01*
X74000Y-20900D02*
X80000Y-22900D01*
X74000Y-24900D02*
X80000Y-22900D01*
X0D02*
X6000Y-24900D01*
X0Y-22900D02*
X6000Y-20900D01*
X80000Y0D02*
Y51900D01*
X0D02*
X80000D01*
X0Y0D02*
X80000D01*
X0D02*
Y51900D01*
M02*
