G04 Layer_Physical_Order=2*
G04 Layer_Color=36540*
%FSLAX25Y25*%
%MOIN*%
G70*
G01*
G75*
%ADD10C,0.00500*%
%ADD11C,0.00800*%
%ADD12C,0.01000*%
%ADD16C,0.01500*%
%ADD42C,0.01500*%
%ADD43C,0.01000*%
%ADD44C,0.02598*%
%ADD46R,0.01500X0.49500*%
%ADD47R,0.58000X0.01600*%
%ADD48R,0.76900X0.01600*%
G36*
X78165Y39850D02*
X59800D01*
Y1835D01*
X29155D01*
X29106Y2333D01*
X29106Y2333D01*
Y2333D01*
X29761Y2463D01*
X30406Y2894D01*
X30837Y3539D01*
X30988Y4300D01*
X30837Y5061D01*
X30406Y5706D01*
X30313Y5768D01*
X30215Y6258D01*
X30438Y6592D01*
X30642D01*
X31403Y6083D01*
X32300Y5905D01*
X33197Y6083D01*
X33958Y6592D01*
X34467Y7353D01*
X34645Y8250D01*
X34467Y9147D01*
X33958Y9908D01*
X33197Y10417D01*
X32300Y10595D01*
X31403Y10417D01*
X30642Y9908D01*
X30310Y9411D01*
X29820Y9314D01*
X29561Y9487D01*
X28800Y9638D01*
X28039Y9487D01*
X27394Y9056D01*
X27181Y8736D01*
X26706Y8706D01*
X26706Y8706D01*
Y8706D01*
X26706D01*
X26706D01*
D01*
X26061Y9137D01*
X25300Y9288D01*
X24539Y9137D01*
X24104Y8846D01*
X23614Y8944D01*
X23606Y8956D01*
X22961Y9387D01*
X22200Y9538D01*
X21439Y9387D01*
X20794Y8956D01*
X20363Y8311D01*
X20212Y7550D01*
X20363Y6789D01*
X20794Y6144D01*
X20594Y6006D01*
X20594Y6006D01*
X20300Y5566D01*
X19800D01*
X19506Y6006D01*
X18861Y6437D01*
X18100Y6588D01*
X17339Y6437D01*
X16694Y6006D01*
X16694Y6006D01*
Y6006D01*
X16406Y5906D01*
D01*
X15761Y6337D01*
X15000Y6488D01*
X14239Y6337D01*
X13594Y5906D01*
X13467Y5715D01*
X12967D01*
X12906Y5806D01*
X12261Y6237D01*
X12070Y6275D01*
X11736Y6774D01*
X12167Y7419D01*
X12318Y8180D01*
X12167Y8941D01*
X11736Y9586D01*
X11091Y10017D01*
X10330Y10168D01*
X9569Y10017D01*
X8924Y9586D01*
X8493Y8941D01*
X8342Y8180D01*
X8493Y7419D01*
X8924Y6774D01*
X9569Y6343D01*
X9761Y6305D01*
X10094Y5806D01*
X9663Y5161D01*
X9512Y4400D01*
X9663Y3639D01*
X10094Y2994D01*
X10739Y2563D01*
X11500Y2412D01*
X12261Y2563D01*
X12906Y2994D01*
X13033Y3185D01*
X13533D01*
X13594Y3094D01*
X14239Y2663D01*
X15000Y2512D01*
X15761Y2663D01*
X16406Y3094D01*
X16406Y3094D01*
Y3094D01*
X16694Y3194D01*
X16694Y3194D01*
D01*
X17339Y2763D01*
X18100Y2612D01*
X18861Y2763D01*
X19506Y3194D01*
X19800Y3634D01*
X20300D01*
X20594Y3194D01*
X21239Y2763D01*
X22000Y2612D01*
X22761Y2763D01*
X23406Y3194D01*
X23837Y3839D01*
X23988Y4600D01*
X23837Y5361D01*
X24264Y5647D01*
X24539Y5463D01*
X25300Y5312D01*
X26061Y5463D01*
X26706Y5894D01*
X26919Y6214D01*
X27394Y6244D01*
X27394Y6244D01*
Y6244D01*
X27394D01*
X27394D01*
D01*
X27487Y6182D01*
X27585Y5692D01*
X27163Y5061D01*
X27012Y4300D01*
X27163Y3539D01*
X27594Y2894D01*
X28239Y2463D01*
X28894Y2333D01*
X28853Y1916D01*
X28845Y1835D01*
X1835D01*
Y17918D01*
X2314Y18063D01*
X2694Y17494D01*
X2879Y17370D01*
X2977Y16880D01*
X2563Y16261D01*
X2412Y15500D01*
X2563Y14739D01*
X2994Y14094D01*
X3225Y13940D01*
X3323Y13449D01*
X2963Y12911D01*
X2812Y12150D01*
X2963Y11389D01*
X3394Y10744D01*
X3872Y10425D01*
Y9925D01*
X3394Y9606D01*
X2963Y8961D01*
X2812Y8200D01*
X2963Y7439D01*
X3394Y6794D01*
X3722Y6575D01*
Y6075D01*
X3394Y5856D01*
X2963Y5211D01*
X2812Y4450D01*
X2963Y3689D01*
X3394Y3044D01*
X4039Y2613D01*
X4800Y2462D01*
X5561Y2613D01*
X6206Y3044D01*
X6637Y3689D01*
X6788Y4450D01*
X6637Y5211D01*
X6206Y5856D01*
X5878Y6075D01*
Y6575D01*
X6206Y6794D01*
X6637Y7439D01*
X6788Y8200D01*
X6637Y8961D01*
X6206Y9606D01*
X5728Y9925D01*
Y10425D01*
X6206Y10744D01*
X6637Y11389D01*
X6788Y12150D01*
X6637Y12911D01*
X6206Y13556D01*
X5975Y13710D01*
X5877Y14201D01*
X6237Y14739D01*
X6388Y15500D01*
X6237Y16261D01*
X5806Y16906D01*
X5621Y17030D01*
X5558Y17343D01*
X5836Y17759D01*
X6064Y17804D01*
X6064Y17804D01*
X6064D01*
Y17804D01*
X6630Y17692D01*
X6903D01*
X7087Y17569D01*
X7750Y17437D01*
X8413Y17569D01*
X8976Y17945D01*
X9351Y18507D01*
X9483Y19170D01*
X9351Y19834D01*
X8976Y20396D01*
X8976Y20396D01*
X8976D01*
X8763Y20749D01*
Y20749D01*
X9326Y21124D01*
X9701Y21687D01*
X9833Y22350D01*
X9705Y22993D01*
X9901Y23287D01*
X10033Y23950D01*
X9911Y24562D01*
X10061Y24787D01*
X10193Y25450D01*
X10076Y26041D01*
X10126Y26074D01*
X10501Y26637D01*
X10577Y27018D01*
X10615Y27108D01*
X10866Y27484D01*
X10978Y28050D01*
X10978Y28050D01*
X10978Y28050D01*
Y28050D01*
Y31938D01*
X11645Y32605D01*
X11966Y33084D01*
X11985Y33178D01*
X12078Y33650D01*
Y40150D01*
X11966Y40716D01*
X11645Y41195D01*
X6231Y46610D01*
X6288Y46900D01*
X6137Y47661D01*
X5706Y48306D01*
X5061Y48737D01*
X4300Y48888D01*
X3539Y48737D01*
X2894Y48306D01*
X2463Y47661D01*
X2333Y47006D01*
X1835Y47055D01*
Y50065D01*
X53045D01*
X53094Y49567D01*
X53094Y49567D01*
X53094D01*
X52439Y49437D01*
X51794Y49006D01*
X51363Y48361D01*
X51212Y47600D01*
X51363Y46839D01*
X51794Y46194D01*
X52439Y45763D01*
X53200Y45612D01*
X53961Y45763D01*
X54606Y46194D01*
X55037Y46839D01*
X55188Y47600D01*
X55037Y48361D01*
X54606Y49006D01*
X53961Y49437D01*
X53306Y49567D01*
X53347Y49984D01*
X53355Y50065D01*
X78165D01*
Y39850D01*
D02*
G37*
%LPC*%
G36*
X54900Y23388D02*
X54139Y23237D01*
X53494Y22806D01*
X53063Y22161D01*
X52912Y21400D01*
X53063Y20639D01*
X53494Y19994D01*
X54139Y19563D01*
D01*
D01*
X54063Y19361D01*
X54063Y19361D01*
X54063Y19361D01*
X53912Y18600D01*
X54063Y17839D01*
X54494Y17194D01*
Y17194D01*
X54494D01*
X54538Y16973D01*
X54463Y16861D01*
X54312Y16100D01*
X54463Y15339D01*
X54894Y14694D01*
X55539Y14263D01*
X56300Y14112D01*
X57061Y14263D01*
X57706Y14694D01*
X58137Y15339D01*
X58288Y16100D01*
X58137Y16861D01*
X57706Y17506D01*
X57706Y17506D01*
X57888Y18600D01*
Y18600D01*
X57737Y19361D01*
X57306Y20006D01*
X56661Y20437D01*
X56737Y20639D01*
X56737Y20639D01*
X56737Y20639D01*
X56888Y21400D01*
X56737Y22161D01*
X56306Y22806D01*
X55661Y23237D01*
X54900Y23388D01*
D02*
G37*
G36*
X46500Y24988D02*
X45739Y24837D01*
X45094Y24406D01*
X44663Y23761D01*
X44512Y23000D01*
X44663Y22239D01*
X45094Y21594D01*
X45739Y21163D01*
X46500Y21012D01*
X47261Y21163D01*
X47906Y21594D01*
X48337Y22239D01*
X48488Y23000D01*
X48337Y23761D01*
X47906Y24406D01*
X47261Y24837D01*
X46500Y24988D01*
D02*
G37*
G36*
X37800Y25838D02*
X37039Y25687D01*
X36394Y25256D01*
X35963Y24611D01*
X35812Y23850D01*
X35963Y23089D01*
X36394Y22444D01*
X37039Y22013D01*
X37800Y21862D01*
X38561Y22013D01*
X39206Y22444D01*
X39637Y23089D01*
X39788Y23850D01*
X39637Y24611D01*
X39206Y25256D01*
X38561Y25687D01*
X37800Y25838D01*
D02*
G37*
G36*
X44900Y18688D02*
X44139Y18537D01*
X43494Y18106D01*
X43063Y17461D01*
X42912Y16700D01*
X43031Y16104D01*
X42568Y15912D01*
X42506Y16006D01*
X41861Y16437D01*
X41100Y16588D01*
X40339Y16437D01*
X39694Y16006D01*
X39263Y15361D01*
X39112Y14600D01*
X39263Y13839D01*
X39694Y13194D01*
X40339Y12763D01*
X41100Y12612D01*
X41861Y12763D01*
X42506Y13194D01*
X42937Y13839D01*
X43088Y14600D01*
X42970Y15197D01*
X43431Y15388D01*
X43494Y15294D01*
X44139Y14863D01*
X44814Y14729D01*
X44912Y14239D01*
X44642Y14058D01*
X44133Y13297D01*
X43955Y12400D01*
X44133Y11503D01*
X44642Y10742D01*
X45403Y10233D01*
X46300Y10055D01*
X47197Y10233D01*
X47958Y10742D01*
X48467Y11503D01*
X48645Y12400D01*
X48467Y13297D01*
X47958Y14058D01*
X47197Y14567D01*
X46312Y14743D01*
X46215Y15233D01*
X46306Y15294D01*
X46737Y15939D01*
X46888Y16700D01*
X46737Y17461D01*
X46306Y18106D01*
X45661Y18537D01*
X44900Y18688D01*
D02*
G37*
G36*
X53500Y6688D02*
X52739Y6537D01*
X52094Y6106D01*
X51750Y5591D01*
X51250D01*
X50906Y6106D01*
X50261Y6537D01*
X49500Y6688D01*
X48739Y6537D01*
X48094Y6106D01*
X47800Y5666D01*
X47300D01*
X47006Y6106D01*
X46361Y6537D01*
X45600Y6688D01*
X44839Y6537D01*
X44194Y6106D01*
X43900Y5666D01*
X43400D01*
X43106Y6106D01*
X42461Y6537D01*
X41700Y6688D01*
X40939Y6537D01*
X40294Y6106D01*
X39863Y5461D01*
X39850Y5395D01*
X39350D01*
X39337Y5461D01*
X38906Y6106D01*
X38261Y6537D01*
X37500Y6688D01*
X36739Y6537D01*
X36094Y6106D01*
X35663Y5461D01*
X35512Y4700D01*
X35663Y3939D01*
X36094Y3294D01*
X36739Y2863D01*
X37500Y2712D01*
X38261Y2863D01*
X38906Y3294D01*
X39337Y3939D01*
X39350Y4005D01*
X39850D01*
X39863Y3939D01*
X40294Y3294D01*
X40939Y2863D01*
X41700Y2712D01*
X42461Y2863D01*
X43106Y3294D01*
X43400Y3734D01*
X43900D01*
X44194Y3294D01*
X44839Y2863D01*
X45600Y2712D01*
X46361Y2863D01*
X47006Y3294D01*
X47300Y3734D01*
X47800D01*
X48094Y3294D01*
X48739Y2863D01*
X49500Y2712D01*
X50261Y2863D01*
X50906Y3294D01*
X51250Y3809D01*
X51750D01*
X52094Y3294D01*
X52739Y2863D01*
X53500Y2712D01*
X54261Y2863D01*
X54906Y3294D01*
X55337Y3939D01*
X55488Y4700D01*
X55337Y5461D01*
X54906Y6106D01*
X54261Y6537D01*
X53500Y6688D01*
D02*
G37*
G36*
X52700Y15288D02*
X51939Y15137D01*
X51294Y14706D01*
X50863Y14061D01*
X50712Y13300D01*
X50863Y12539D01*
X51294Y11894D01*
X51939Y11463D01*
X52700Y11312D01*
X53461Y11463D01*
X54106Y11894D01*
X54537Y12539D01*
X54688Y13300D01*
X54537Y14061D01*
X54106Y14706D01*
X53461Y15137D01*
X52700Y15288D01*
D02*
G37*
G36*
X50400Y19888D02*
X49639Y19737D01*
X48994Y19306D01*
X48563Y18661D01*
X48412Y17900D01*
X48563Y17139D01*
X48994Y16494D01*
X49639Y16063D01*
X50400Y15912D01*
X51161Y16063D01*
X51806Y16494D01*
X52237Y17139D01*
X52388Y17900D01*
X52237Y18661D01*
X51806Y19306D01*
X51161Y19737D01*
X50400Y19888D01*
D02*
G37*
G36*
X29700Y46738D02*
X28939Y46587D01*
X28294Y46156D01*
X27863Y45511D01*
X27712Y44750D01*
X27863Y43989D01*
X28294Y43344D01*
X28939Y42913D01*
X29700Y42762D01*
X30461Y42913D01*
X31106Y43344D01*
X31537Y43989D01*
X31688Y44750D01*
X31537Y45511D01*
X31106Y46156D01*
X30461Y46587D01*
X29700Y46738D01*
D02*
G37*
G36*
X17100Y48088D02*
X16339Y47937D01*
X15694Y47506D01*
X15263Y46861D01*
X15112Y46100D01*
X15263Y45339D01*
X15694Y44694D01*
X16339Y44263D01*
X17100Y44112D01*
X17861Y44263D01*
X18506Y44694D01*
X18937Y45339D01*
X19088Y46100D01*
X18937Y46861D01*
X18506Y47506D01*
X17861Y47937D01*
X17100Y48088D01*
D02*
G37*
G36*
X43500Y48688D02*
X42739Y48537D01*
X42094Y48106D01*
X41663Y47461D01*
X41512Y46700D01*
X41663Y45939D01*
X42094Y45294D01*
X42739Y44863D01*
X43500Y44712D01*
X44261Y44863D01*
X44906Y45294D01*
X45337Y45939D01*
X45488Y46700D01*
X45337Y47461D01*
X44906Y48106D01*
X44261Y48537D01*
X43500Y48688D01*
D02*
G37*
G36*
X17847Y41385D02*
X17086Y41234D01*
X16441Y40803D01*
X16010Y40158D01*
X15859Y39397D01*
X16010Y38636D01*
X16441Y37991D01*
X16634Y37863D01*
Y37363D01*
X16624Y37356D01*
X16193Y36711D01*
X16042Y35950D01*
X16193Y35189D01*
X16624Y34544D01*
X17269Y34113D01*
X18030Y33962D01*
X18791Y34113D01*
X18818Y34131D01*
X19219Y33863D01*
X19980Y33712D01*
X20741Y33863D01*
X20810Y33909D01*
X21119Y33703D01*
X21880Y33552D01*
X22641Y33703D01*
X22962Y33918D01*
X23029Y33873D01*
X23790Y33722D01*
X24551Y33873D01*
X25011Y34181D01*
X25501Y34083D01*
X25594Y33944D01*
X26239Y33513D01*
X27000Y33362D01*
X27591Y33479D01*
X28139Y33113D01*
X28900Y32962D01*
X29661Y33113D01*
X30306Y33544D01*
X30737Y34189D01*
X30794Y34477D01*
X31210Y34754D01*
X31400Y34717D01*
X36700D01*
X37363Y34849D01*
X37926Y35224D01*
X38301Y35787D01*
X38433Y36450D01*
X38301Y37113D01*
X37926Y37676D01*
X37363Y38051D01*
X36700Y38183D01*
X32118D01*
X31126Y39176D01*
X30563Y39551D01*
X29900Y39683D01*
X29237Y39551D01*
X28674Y39176D01*
X28299Y38613D01*
X28167Y37950D01*
X28277Y37398D01*
X27861Y37120D01*
X27761Y37187D01*
X27303Y37278D01*
X27237Y37611D01*
X26806Y38256D01*
X26161Y38687D01*
X25400Y38838D01*
X24639Y38687D01*
X23994Y38256D01*
X23596Y37660D01*
X23029Y37547D01*
X22708Y37332D01*
X22641Y37377D01*
X21880Y37528D01*
X21119Y37377D01*
X21050Y37330D01*
X20741Y37537D01*
X19980Y37688D01*
X19549Y37602D01*
X19271Y38018D01*
X19684Y38636D01*
X19836Y39397D01*
X19684Y40158D01*
X19253Y40803D01*
X18608Y41234D01*
X17847Y41385D01*
D02*
G37*
G36*
X56200Y37038D02*
X55439Y36887D01*
X54794Y36456D01*
X54363Y35811D01*
X54212Y35050D01*
X54363Y34289D01*
X54794Y33644D01*
X55397Y33241D01*
Y33001D01*
X55337Y32702D01*
X55194Y32606D01*
X54763Y31961D01*
X54612Y31200D01*
X54763Y30439D01*
X54923Y30200D01*
X54763Y29961D01*
X54612Y29200D01*
X54763Y28439D01*
X54890Y28250D01*
X54763Y28061D01*
X54612Y27300D01*
X54763Y26539D01*
X55194Y25894D01*
X55839Y25463D01*
X56600Y25312D01*
X57361Y25463D01*
X58006Y25894D01*
X58437Y26539D01*
X58588Y27300D01*
X58437Y28061D01*
X58311Y28250D01*
X58437Y28439D01*
X58588Y29200D01*
X58437Y29961D01*
X58277Y30200D01*
X58437Y30439D01*
X58588Y31200D01*
X58437Y31961D01*
X58006Y32606D01*
X57403Y33009D01*
Y33249D01*
X57463Y33548D01*
X57606Y33644D01*
X58037Y34289D01*
X58188Y35050D01*
X58037Y35811D01*
X57606Y36456D01*
X56961Y36887D01*
X56200Y37038D01*
D02*
G37*
G36*
X38900Y33938D02*
X38139Y33787D01*
X37494Y33356D01*
X37063Y32711D01*
X36912Y31950D01*
X37063Y31189D01*
X37494Y30544D01*
X38139Y30113D01*
X38311Y30079D01*
X38502Y29617D01*
X38165Y29113D01*
X38013Y28352D01*
X38165Y27591D01*
X38596Y26946D01*
X39241Y26515D01*
X40002Y26364D01*
X40763Y26515D01*
X41408Y26946D01*
X41839Y27591D01*
X41990Y28352D01*
X41839Y29113D01*
X41408Y29758D01*
X40763Y30189D01*
X40591Y30223D01*
X40400Y30685D01*
X40737Y31189D01*
X40888Y31950D01*
X40737Y32711D01*
X40306Y33356D01*
X39661Y33787D01*
X38900Y33938D01*
D02*
G37*
G36*
X32900Y33538D02*
X32139Y33387D01*
X31494Y32956D01*
X31063Y32311D01*
X30912Y31550D01*
X31063Y30789D01*
X31494Y30144D01*
X32139Y29713D01*
X32900Y29562D01*
X33661Y29713D01*
X34306Y30144D01*
X34737Y30789D01*
X34888Y31550D01*
X34737Y32311D01*
X34306Y32956D01*
X33661Y33387D01*
X32900Y33538D01*
D02*
G37*
%LPD*%
D10*
X4453Y26346D02*
G03*
X4100Y25493I854J-854D01*
G01*
D02*
G03*
X3746Y26346I-1207J0D01*
G01*
X9433Y27983D02*
G03*
X9150Y27300I683J-683D01*
G01*
X4600Y34900D02*
G03*
X4953Y34046I1207J0D01*
G01*
X4954Y34046D02*
G03*
X4100Y34400I-854J-854D01*
G01*
X7850Y22350D02*
G03*
X7638Y22862I-724J0D01*
G01*
X7759Y22741D02*
G03*
X8100Y22600I341J341D01*
G01*
X8050Y23950D02*
G03*
X7873Y24377I-604J0D01*
G01*
X7873Y24377D02*
G03*
X8300Y24200I427J427D01*
G01*
X4553Y38446D02*
G03*
X4200Y37593I854J-854D01*
G01*
D02*
G03*
X3847Y38446I-1207J0D01*
G01*
X4300Y43100D02*
G03*
X4618Y42332I1086J0D01*
G01*
X4800Y43100D02*
G03*
X5472Y41478I2293J0D01*
G01*
X8210Y25450D02*
G03*
X7793Y26457I-1424J0D01*
G01*
X7573Y18993D02*
G03*
X7147Y19170I-427J-427D01*
G01*
D02*
G03*
X7573Y19347I0J604D01*
G01*
X16700Y37800D02*
X19800D01*
X16500Y37600D02*
X16700Y37800D01*
X8460Y25450D02*
Y25790D01*
X6630Y19170D02*
X7750D01*
X4200Y37300D02*
Y38800D01*
X4300Y42650D02*
Y43100D01*
Y46450D02*
Y46900D01*
X10600Y33650D02*
Y40150D01*
X4300Y46450D02*
X10600Y40150D01*
X9500Y28050D02*
Y32550D01*
X10600Y33650D01*
X8900Y27450D02*
X9500Y28050D01*
X8900Y27300D02*
Y27450D01*
X7700Y26550D02*
X8460Y25790D01*
X7700Y26550D02*
Y28473D01*
X7800Y28573D01*
Y39150D01*
X4300Y42650D02*
X7800Y39150D01*
X8100Y22350D02*
Y22400D01*
X5900Y24600D02*
X8100Y22400D01*
X5900Y24600D02*
Y33100D01*
X4100Y34900D02*
X5900Y33100D01*
X6800Y25450D02*
X8300Y23950D01*
X6800Y25450D02*
Y34700D01*
X4200Y37300D02*
X6800Y34700D01*
X5800Y20000D02*
X6630Y19170D01*
X4100Y25127D02*
Y26700D01*
Y25127D02*
X5800Y23427D01*
Y20000D02*
Y23427D01*
D11*
X45700Y14700D02*
X46950Y15950D01*
X43900Y14700D02*
X45700D01*
X43600Y14400D02*
X43900Y14700D01*
X43600Y14400D02*
Y15100D01*
Y14106D02*
Y14400D01*
X42000Y16700D02*
X43600Y15100D01*
X27500Y6100D02*
X30500D01*
X26950Y5550D02*
X27500Y6100D01*
X23750Y5650D02*
X24200Y5200D01*
X23750Y5650D02*
Y7992D01*
X23800Y8042D01*
Y10200D01*
X16500Y6700D02*
X16550Y6650D01*
Y2150D02*
Y6650D01*
Y2150D02*
X16700Y2000D01*
D12*
X1950Y14170D02*
G03*
X2844Y13800I894J894D01*
G01*
X29900Y37950D02*
X31400Y36450D01*
X9000Y5700D02*
X9700Y6400D01*
X13200D01*
X26900Y9400D02*
X26950Y9350D01*
Y5550D02*
Y9350D01*
X26300Y4900D02*
X26950Y5550D01*
X39600Y3500D02*
Y5800D01*
X43700Y2400D02*
Y6100D01*
X43600Y2300D02*
X43700Y2400D01*
X47500Y2300D02*
Y6300D01*
X51600Y2300D02*
Y6700D01*
X31400Y36450D02*
X36700D01*
X55100Y33300D02*
X58000D01*
X39917Y30600D02*
X40900D01*
X39017Y29700D02*
X39917Y30600D01*
X35100Y29700D02*
X39017D01*
X19900Y3000D02*
Y6100D01*
X13200Y2100D02*
Y6400D01*
X13100Y2000D02*
X13200Y2100D01*
X3000Y6300D02*
X6200D01*
X3000Y10300D02*
X6400D01*
X2150Y13800D02*
X6600D01*
X6050Y17250D02*
X6200Y17400D01*
X2850Y17250D02*
X6050D01*
X2600Y17000D02*
X2850Y17250D01*
X1900Y13550D02*
X2150Y13800D01*
D16*
X43600Y2300D02*
X47500D01*
X2050Y2000D02*
Y6370D01*
X13100Y2000D02*
X16700D01*
X1900Y6420D02*
X1950Y6370D01*
X1900Y6420D02*
Y13550D01*
X2050Y2000D02*
X13100D01*
X1950Y14170D02*
Y37770D01*
X16700Y2000D02*
X59000D01*
X1950Y37770D02*
Y49750D01*
X47500Y2300D02*
X51600D01*
D42*
X74400Y42900D02*
D03*
X24337Y46250D02*
D03*
X7400Y46150D02*
D03*
X4300Y43100D02*
D03*
X4200Y38800D02*
D03*
X58800Y39400D02*
D03*
X4300Y46900D02*
D03*
X56500Y49650D02*
D03*
X10100Y49300D02*
D03*
X37700Y49200D02*
D03*
X4100Y34900D02*
D03*
Y26700D02*
D03*
X4700Y49800D02*
D03*
X58700Y34500D02*
D03*
X58800Y22600D02*
D03*
Y4300D02*
D03*
Y6700D02*
D03*
Y9200D02*
D03*
Y11400D02*
D03*
Y13600D02*
D03*
Y15700D02*
D03*
X58100Y2100D02*
D03*
X58800Y18000D02*
D03*
Y20200D02*
D03*
Y31700D02*
D03*
X59000Y28200D02*
D03*
X58800Y37000D02*
D03*
X56600Y41800D02*
D03*
X61100Y42600D02*
D03*
X66400Y42500D02*
D03*
Y40700D02*
D03*
X71100Y48100D02*
D03*
X72900Y46900D02*
D03*
X73500Y45000D02*
D03*
X77300Y43300D02*
D03*
Y45700D02*
D03*
Y48300D02*
D03*
X63600Y40700D02*
D03*
X61200D02*
D03*
X58800Y25300D02*
D03*
X63600Y42600D02*
D03*
X77300Y40900D02*
D03*
X73500Y40800D02*
D03*
X65800Y48300D02*
D03*
X68400D02*
D03*
X61400D02*
D03*
X58600D02*
D03*
Y42600D02*
D03*
X55068Y9668D02*
D03*
X55700Y39900D02*
D03*
D43*
X33646Y46704D02*
D03*
X42400Y39550D02*
D03*
X36700Y36450D02*
D03*
X29900Y37950D02*
D03*
X47273Y27647D02*
D03*
X49517D02*
D03*
X51761D02*
D03*
Y30009D02*
D03*
Y32371D02*
D03*
X47273D02*
D03*
X49517D02*
D03*
X47273Y30009D02*
D03*
X49517D02*
D03*
Y34733D02*
D03*
X47154D02*
D03*
X51879D02*
D03*
X36958Y31808D02*
D03*
X38018Y26068D02*
D03*
X42800Y23489D02*
D03*
X7750Y19170D02*
D03*
X8460Y25450D02*
D03*
X41838Y37588D02*
D03*
X8300Y23950D02*
D03*
X8100Y22350D02*
D03*
X8900Y27300D02*
D03*
X2050Y6370D02*
D03*
X1950Y14170D02*
D03*
Y37770D02*
D03*
X1600Y21700D02*
D03*
X1900Y29900D02*
D03*
Y45600D02*
D03*
X5950Y2070D02*
D03*
X12050D02*
D03*
X20050D02*
D03*
X27850Y2170D02*
D03*
X35750D02*
D03*
X43550D02*
D03*
X51450Y2070D02*
D03*
X19850Y49670D02*
D03*
X27750D02*
D03*
X47350Y49570D02*
D03*
X46700Y42150D02*
D03*
X47700Y39650D02*
D03*
X40000Y16500D02*
D03*
X52200Y21500D02*
D03*
X48600Y42000D02*
D03*
X49100Y43900D02*
D03*
X50600Y45400D02*
D03*
X52300Y46000D02*
D03*
D44*
X12594Y28598D02*
D03*
X17318D02*
D03*
X22043D02*
D03*
X26767D02*
D03*
X12594Y23874D02*
D03*
X17318D02*
D03*
X22043D02*
D03*
X26767D02*
D03*
X12594Y19149D02*
D03*
X17318D02*
D03*
X22043D02*
D03*
X26767D02*
D03*
X12594Y14425D02*
D03*
X17318D02*
D03*
X22043D02*
D03*
X26767D02*
D03*
D46*
X1950Y25850D02*
D03*
D47*
X30800Y1900D02*
D03*
D48*
X39650Y49900D02*
D03*
M02*
