G04 Layer_Color=32768*
%FSLAX25Y25*%
%MOIN*%
G70*
G01*
G75*
%ADD10C,0.00500*%
%ADD11C,0.00800*%
%ADD12C,0.01000*%
%ADD51C,0.00394*%
%ADD87C,0.00295*%
%ADD88C,0.00591*%
D10*
X32563Y45100D02*
X40437D01*
Y38800D02*
Y45100D01*
X32563Y38800D02*
X40437D01*
X32563D02*
Y45100D01*
D11*
X60377Y-3D02*
Y51783D01*
X31Y5D02*
Y51894D01*
Y5D02*
X79952D01*
Y51894D01*
X31D02*
X79952D01*
D12*
X60639Y39391D02*
X79845D01*
X60639Y82D02*
Y39391D01*
Y82D02*
X79845Y7D01*
Y39391D01*
D51*
X66519Y44805D02*
Y45983D01*
X68881Y44805D02*
Y45983D01*
X66519D02*
X68881D01*
X66519Y44805D02*
X68881D01*
X67066Y45400D02*
X68239D01*
X67700Y44809D02*
Y45987D01*
X52353Y42477D02*
X53185Y41644D01*
X54023Y44147D02*
X54856Y43315D01*
X52353Y42477D02*
X54023Y44147D01*
X53185Y41644D02*
X54856Y43315D01*
X53152Y42452D02*
X53981Y43281D01*
X53185Y43315D02*
X54018Y42482D01*
X19668Y46479D02*
X27932D01*
Y38218D02*
Y46479D01*
X19668Y38218D02*
Y46479D01*
Y38218D02*
X27932D01*
X39281Y35867D02*
Y37045D01*
X36919Y35867D02*
Y37045D01*
Y35867D02*
X39281D01*
X36919Y37045D02*
X39281D01*
X37561Y36450D02*
X38734D01*
X38100Y35863D02*
Y37041D01*
X17017Y42969D02*
X18194D01*
X17017Y45331D02*
X18194D01*
X17017Y42969D02*
Y45331D01*
X18194Y42969D02*
Y45331D01*
X17600Y43516D02*
Y44689D01*
X17013Y44150D02*
X18191D01*
X7869Y9700D02*
Y33322D01*
X31492Y9700D02*
Y33322D01*
X7869D02*
X31492D01*
X7869Y9700D02*
X31492D01*
X17712Y21511D02*
X21649D01*
X19681Y19543D02*
Y23480D01*
X49517Y29221D02*
Y33158D01*
X47548Y31190D02*
X51485D01*
X53000Y17310D02*
Y18487D01*
X52366Y17900D02*
X53539D01*
X51819Y17305D02*
X54181D01*
X51819Y18483D02*
X54181D01*
Y17305D02*
Y18483D01*
X51819Y17305D02*
Y18483D01*
X41717Y40569D02*
X42895D01*
X41717Y42931D02*
X42895D01*
X41717Y40569D02*
Y42931D01*
X42895Y40569D02*
Y42931D01*
X42300Y41116D02*
Y42289D01*
X41713Y41750D02*
X42891D01*
X53100Y11119D02*
Y13481D01*
X51919Y12300D02*
X54281D01*
X56643Y10725D02*
Y13875D01*
X49557D02*
X56643D01*
X49557Y10725D02*
X56643D01*
X49557D02*
Y13875D01*
X52219Y20795D02*
X54581D01*
X52219Y19617D02*
Y20795D01*
X52861Y20200D02*
X54034D01*
X54581Y19617D02*
Y20795D01*
X52219Y19617D02*
X54581D01*
X53400Y19613D02*
Y20790D01*
X42619Y14106D02*
X44981D01*
Y15283D01*
X43166Y14700D02*
X44339D01*
X42619Y14106D02*
Y15283D01*
X44981D01*
X43800Y14109D02*
Y15287D01*
X38799Y29936D02*
X41161D01*
Y31113D01*
X39346Y30530D02*
X40519D01*
X38799Y29936D02*
Y31113D01*
X41161D01*
X39980Y29939D02*
Y31117D01*
X52219Y15105D02*
X54581D01*
Y16283D01*
X52766Y15700D02*
X53939D01*
X52219Y15105D02*
Y16283D01*
X54581D01*
X53400Y15110D02*
Y16287D01*
X38779Y24493D02*
X41141D01*
X39960Y23320D02*
Y24497D01*
X39326Y23910D02*
X40499D01*
X41141Y23315D02*
Y24493D01*
X38779Y23315D02*
X41141D01*
X38779D02*
Y24493D01*
X42119Y20006D02*
X44481D01*
Y21183D01*
X42666Y20600D02*
X43839D01*
X42119Y20006D02*
Y21183D01*
X44481D01*
X43300Y20009D02*
Y21187D01*
X10700Y41180D02*
Y44920D01*
X8535Y38326D02*
X12865D01*
X8830Y43050D02*
X12570D01*
X12865Y38326D02*
Y47774D01*
X8535Y38326D02*
Y47774D01*
X12865D01*
X13619Y42650D02*
X15981D01*
X14800Y41469D02*
Y43831D01*
X13225Y46193D02*
X16375D01*
X13225Y39107D02*
Y46193D01*
X16375Y39107D02*
Y46193D01*
X13225Y39107D02*
X16375D01*
X44399Y45145D02*
X46761D01*
Y46323D01*
X44946Y45740D02*
X46119D01*
X44399Y45145D02*
Y46323D01*
X46761D01*
X45580Y45149D02*
Y46327D01*
X6619Y7586D02*
X8981Y7586D01*
Y8763D01*
X7166Y8180D02*
X8339Y8180D01*
X6619Y7586D02*
Y8763D01*
X8981D01*
X7800Y7589D02*
Y8767D01*
X40494Y17619D02*
Y19981D01*
X39317D02*
X40494D01*
X39900Y18166D02*
Y19339D01*
X39317Y17619D02*
X40494D01*
X39317D02*
Y19981D01*
X39313Y18800D02*
X40491D01*
X36595Y22769D02*
Y25131D01*
X35417D02*
X36595D01*
X36000Y23316D02*
Y24489D01*
X35417Y22769D02*
X36595D01*
X35417D02*
Y25131D01*
X35413Y23950D02*
X36591D01*
X36105Y27769D02*
Y30131D01*
Y27769D02*
X37283D01*
X36700Y28411D02*
Y29584D01*
X36105Y30131D02*
X37283D01*
Y27769D02*
Y30131D01*
X36109Y28950D02*
X37287D01*
X32256Y32709D02*
Y35071D01*
Y32709D02*
X33433D01*
X32850Y33351D02*
Y34524D01*
X32256Y35071D02*
X33433D01*
Y32709D02*
Y35071D01*
X32259Y33890D02*
X33437D01*
X6800Y41269D02*
Y43631D01*
X5422Y38907D02*
Y45993D01*
Y38907D02*
X8178D01*
X5619Y42450D02*
X7981D01*
X5422Y45993D02*
X8178D01*
Y38907D02*
Y45993D01*
X36919Y33456D02*
X39281D01*
Y34633D01*
X37466Y34050D02*
X38639D01*
X36919Y33456D02*
Y34633D01*
X39281D01*
X38100Y33459D02*
Y34637D01*
X40705Y32969D02*
Y35331D01*
Y32969D02*
X41883D01*
X41300Y33611D02*
Y34784D01*
X40705Y35331D02*
X41883D01*
Y32969D02*
Y35331D01*
X40709Y34150D02*
X41887D01*
X39474Y26029D02*
Y28391D01*
X38297D02*
X39474D01*
X38880Y26576D02*
Y27749D01*
X38297Y26029D02*
X39474D01*
X38297D02*
Y28391D01*
X38293Y27210D02*
X39470D01*
X41585Y26039D02*
Y28401D01*
X40407D02*
X41585D01*
X40990Y26586D02*
Y27759D01*
X40407Y26039D02*
X41585D01*
X40407D02*
Y28401D01*
X40403Y27220D02*
X41581D01*
X44419Y43845D02*
X46781D01*
X44419Y42667D02*
Y43845D01*
X45061Y43250D02*
X46234D01*
X46781Y42667D02*
Y43845D01*
X44419Y42667D02*
X46781D01*
X45600Y42663D02*
Y43841D01*
X44419Y41544D02*
X46781D01*
X44419Y40367D02*
Y41544D01*
X45061Y40950D02*
X46234D01*
X46781Y40367D02*
Y41544D01*
X44419Y40367D02*
X46781D01*
X45600Y40363D02*
Y41541D01*
X6719Y36044D02*
X9081D01*
X6719Y34867D02*
Y36044D01*
X7361Y35450D02*
X8534D01*
X9081Y34867D02*
Y36044D01*
X6719Y34867D02*
X9081D01*
X7900Y34863D02*
Y36041D01*
X13919Y37244D02*
X16281D01*
X13919Y36067D02*
Y37244D01*
X14561Y36650D02*
X15734D01*
X16281Y36067D02*
Y37244D01*
X13919Y36067D02*
X16281D01*
X15100Y36063D02*
Y37241D01*
X31283Y40669D02*
Y43031D01*
X30109Y41850D02*
X31287D01*
X30700Y41311D02*
Y42484D01*
X30106Y40669D02*
X31283D01*
X30106D02*
Y43031D01*
X31283D01*
X68522Y33458D02*
X76432D01*
X68522Y5943D02*
X76432D01*
Y33458D01*
X68522Y5943D02*
Y33458D01*
X72495Y18151D02*
Y21300D01*
X70930Y19719D02*
X74079D01*
X50400Y39713D02*
Y40891D01*
X49861Y40300D02*
X51034D01*
X49219Y40894D02*
X51581D01*
X49219Y39717D02*
X51581D01*
X49219D02*
Y40894D01*
X51581Y39717D02*
Y40894D01*
X55913Y46300D02*
X57091D01*
X56500Y45666D02*
Y46839D01*
X57095Y45119D02*
Y47481D01*
X55917Y45119D02*
Y47481D01*
X57095D01*
X55917Y45119D02*
X57095D01*
X72000Y42309D02*
Y43487D01*
X71366Y42900D02*
X72539D01*
X70819Y42305D02*
X73181D01*
X70819Y43483D02*
X73181D01*
Y42305D02*
Y43483D01*
X70819Y42305D02*
Y43483D01*
X62913Y47400D02*
X64091D01*
X63500Y46766D02*
Y47939D01*
X64095Y46219D02*
Y48581D01*
X62917Y46219D02*
Y48581D01*
X64095D01*
X62917Y46219D02*
X64095D01*
D87*
X55422Y24300D02*
Y38080D01*
X43611Y24300D02*
Y38080D01*
Y24300D02*
X55422D01*
X43611Y38080D02*
X55422D01*
D88*
X20416Y25949D02*
X23566Y25951D01*
X21991Y24375D02*
Y27524D01*
M02*
