G04 Layer_Physical_Order=3*
G04 Layer_Color=16440176*
%FSLAX25Y25*%
%MOIN*%
G70*
G01*
G75*
%ADD10C,0.00500*%
%ADD11C,0.00800*%
%ADD42C,0.01500*%
%ADD45C,0.02200*%
G36*
X51200Y14565D02*
X50863Y14061D01*
X50712Y13300D01*
X50863Y12539D01*
X51200Y12035D01*
Y6440D01*
X50759Y6204D01*
X50261Y6537D01*
X49500Y6688D01*
X48739Y6537D01*
X48094Y6106D01*
X47800Y5666D01*
X47300D01*
X47006Y6106D01*
X46361Y6537D01*
X45600Y6688D01*
X44839Y6537D01*
X44194Y6106D01*
X43900Y5666D01*
X43400D01*
X43106Y6106D01*
X42461Y6537D01*
X41700Y6688D01*
X40939Y6537D01*
X40294Y6106D01*
X39863Y5461D01*
X39850Y5395D01*
X39350D01*
X39337Y5461D01*
X38906Y6106D01*
X38261Y6537D01*
X37500Y6688D01*
X36739Y6537D01*
X36094Y6106D01*
X35663Y5461D01*
X35512Y4700D01*
X35663Y3939D01*
X36094Y3294D01*
X36739Y2863D01*
X37500Y2712D01*
X38261Y2863D01*
X38906Y3294D01*
X39337Y3939D01*
X39350Y4005D01*
X39850D01*
X39863Y3939D01*
X40294Y3294D01*
X40939Y2863D01*
X41700Y2712D01*
X42461Y2863D01*
X43106Y3294D01*
X43400Y3734D01*
X43900D01*
X44194Y3294D01*
X44839Y2863D01*
X45600Y2712D01*
X46361Y2863D01*
X47006Y3294D01*
X47300Y3734D01*
X47800D01*
X48094Y3294D01*
X48739Y2863D01*
X49500Y2712D01*
X50261Y2863D01*
X50759Y3196D01*
X51200Y2960D01*
Y1835D01*
X29155D01*
X29106Y2333D01*
X29106Y2333D01*
Y2333D01*
X29761Y2463D01*
X30406Y2894D01*
X30837Y3539D01*
X30988Y4300D01*
X30837Y5061D01*
X30406Y5706D01*
X30313Y5768D01*
X30215Y6258D01*
X30438Y6592D01*
X30642D01*
X31403Y6083D01*
X32300Y5905D01*
X33197Y6083D01*
X33958Y6592D01*
X34467Y7353D01*
X34645Y8250D01*
X34467Y9147D01*
X33958Y9908D01*
X33439Y10255D01*
Y10490D01*
Y10510D01*
X33326Y11076D01*
X33005Y11556D01*
X32945Y11596D01*
X32878Y11662D01*
Y18338D01*
X36748Y22208D01*
X37039Y22013D01*
X37800Y21862D01*
X38561Y22013D01*
X39206Y22444D01*
X39637Y23089D01*
X39788Y23850D01*
X39637Y24611D01*
X39206Y25256D01*
X38561Y25687D01*
X37800Y25838D01*
X37039Y25687D01*
X36602Y25395D01*
X36587Y25388D01*
X36360D01*
X35888Y25295D01*
X35794Y25276D01*
X35315Y24955D01*
X30355Y19995D01*
X30034Y19516D01*
X29922Y18950D01*
Y11050D01*
X30034Y10484D01*
X30034Y10484D01*
X30034Y10484D01*
X30355Y10005D01*
X30482Y9878D01*
Y9668D01*
X30310Y9412D01*
X29820Y9314D01*
X29561Y9487D01*
X28800Y9638D01*
X28039Y9487D01*
X27394Y9056D01*
X27181Y8736D01*
X26706Y8706D01*
X26706Y8706D01*
Y8706D01*
X26706D01*
X26706D01*
D01*
X26061Y9137D01*
X25300Y9288D01*
X24539Y9137D01*
X24104Y8846D01*
X23614Y8944D01*
X23606Y8956D01*
X22961Y9387D01*
X22200Y9538D01*
X21439Y9387D01*
X20794Y8956D01*
X20363Y8311D01*
X20212Y7550D01*
X20363Y6789D01*
X20794Y6144D01*
X20594Y6006D01*
X20594Y6006D01*
X20300Y5566D01*
X19800D01*
X19506Y6006D01*
X18861Y6437D01*
X18100Y6588D01*
X17339Y6437D01*
X16694Y6006D01*
X16694Y6006D01*
Y6006D01*
X16406Y5906D01*
D01*
X15761Y6337D01*
X15000Y6488D01*
X14239Y6337D01*
X13594Y5906D01*
X13467Y5715D01*
X12967D01*
X12906Y5806D01*
X12261Y6237D01*
X11500Y6388D01*
X10739Y6237D01*
X10094Y5806D01*
X9663Y5161D01*
X9512Y4400D01*
X9663Y3639D01*
X10094Y2994D01*
X10739Y2563D01*
X11500Y2412D01*
X12261Y2563D01*
X12906Y2994D01*
X13033Y3185D01*
X13533D01*
X13594Y3094D01*
X14239Y2663D01*
X15000Y2512D01*
X15761Y2663D01*
X16406Y3094D01*
X16406Y3094D01*
Y3094D01*
X16694Y3194D01*
X16694Y3194D01*
D01*
X17339Y2763D01*
X18100Y2612D01*
X18861Y2763D01*
X19506Y3194D01*
X19800Y3634D01*
X20300D01*
X20594Y3194D01*
X21239Y2763D01*
X22000Y2612D01*
X22761Y2763D01*
X23406Y3194D01*
X23837Y3839D01*
X23988Y4600D01*
X23837Y5361D01*
X24264Y5647D01*
X24539Y5463D01*
X25300Y5312D01*
X26061Y5463D01*
X26706Y5894D01*
X26919Y6214D01*
X27394Y6244D01*
X27394Y6244D01*
Y6244D01*
X27394D01*
X27394D01*
D01*
X27487Y6182D01*
X27585Y5692D01*
X27163Y5061D01*
X27012Y4300D01*
X27163Y3539D01*
X27594Y2894D01*
X28239Y2463D01*
X28894Y2333D01*
X28853Y1916D01*
X28845Y1835D01*
X1835D01*
Y17918D01*
X2314Y18063D01*
X2694Y17494D01*
X2879Y17370D01*
X2977Y16880D01*
X2563Y16261D01*
X2412Y15500D01*
X2563Y14739D01*
X2994Y14094D01*
X3225Y13940D01*
X3323Y13449D01*
X2963Y12911D01*
X2812Y12150D01*
X2963Y11389D01*
X3394Y10744D01*
X3872Y10425D01*
Y9925D01*
X3394Y9606D01*
X2963Y8961D01*
X2812Y8200D01*
X2963Y7439D01*
X3394Y6794D01*
X3722Y6575D01*
Y6075D01*
X3394Y5856D01*
X2963Y5211D01*
X2812Y4450D01*
X2963Y3689D01*
X3394Y3044D01*
X4039Y2613D01*
X4800Y2462D01*
X5561Y2613D01*
X6206Y3044D01*
X6637Y3689D01*
X6788Y4450D01*
X6637Y5211D01*
X6206Y5856D01*
X5878Y6075D01*
Y6575D01*
X6206Y6794D01*
X6637Y7439D01*
X6788Y8200D01*
X6637Y8961D01*
X6206Y9606D01*
X5728Y9925D01*
Y10425D01*
X6206Y10744D01*
X6637Y11389D01*
X6788Y12150D01*
X6637Y12911D01*
X6206Y13556D01*
X5975Y13710D01*
X5877Y14201D01*
X6237Y14739D01*
X6388Y15500D01*
X6237Y16261D01*
X5806Y16906D01*
X5621Y17030D01*
X5523Y17520D01*
X5937Y18139D01*
X6088Y18900D01*
X5937Y19661D01*
X5506Y20306D01*
X4861Y20737D01*
X4795Y20750D01*
Y21250D01*
X4861Y21263D01*
X5506Y21694D01*
X5937Y22339D01*
X6088Y23100D01*
X5937Y23861D01*
X5506Y24506D01*
X5290Y24650D01*
Y25150D01*
X5506Y25294D01*
X5937Y25939D01*
X6088Y26700D01*
X5937Y27461D01*
X5506Y28106D01*
X4916Y28500D01*
Y29000D01*
X5506Y29394D01*
X5937Y30039D01*
X6088Y30800D01*
X5937Y31561D01*
X5506Y32206D01*
X4916Y32600D01*
Y33100D01*
X5506Y33494D01*
X5937Y34139D01*
X6088Y34900D01*
X5937Y35661D01*
X5843Y35802D01*
X6121Y36217D01*
X6400Y36162D01*
X7161Y36313D01*
X7806Y36744D01*
X8237Y37389D01*
X8388Y38150D01*
X8237Y38911D01*
X7806Y39556D01*
X7161Y39987D01*
X6400Y40138D01*
X5739Y40007D01*
X5606Y40206D01*
X4961Y40637D01*
X4693Y40690D01*
Y41190D01*
X5061Y41263D01*
X5706Y41694D01*
X6137Y42339D01*
X6288Y43100D01*
X6137Y43861D01*
X5898Y44219D01*
X6251Y44572D01*
X6639Y44313D01*
X7400Y44162D01*
X8161Y44313D01*
X8806Y44744D01*
X9237Y45389D01*
X9388Y46150D01*
X9237Y46911D01*
X9159Y47028D01*
X9436Y47444D01*
X10100Y47312D01*
X10861Y47463D01*
X11506Y47894D01*
X11937Y48539D01*
X12088Y49300D01*
X12013Y49678D01*
X12330Y50065D01*
X35490D01*
X35807Y49678D01*
X35712Y49200D01*
X35863Y48439D01*
X36294Y47794D01*
X36939Y47363D01*
X37700Y47212D01*
X38461Y47363D01*
X39106Y47794D01*
X39537Y48439D01*
X39688Y49200D01*
X39593Y49678D01*
X39910Y50065D01*
X51200D01*
Y14565D01*
D02*
G37*
%LPC*%
G36*
X26767Y31146D02*
X25792Y30952D01*
X24965Y30400D01*
X24655Y29935D01*
X24155D01*
X23845Y30400D01*
X23018Y30952D01*
X22043Y31146D01*
X21068Y30952D01*
X20241Y30400D01*
X19930Y29935D01*
X19431D01*
X19120Y30400D01*
X18293Y30952D01*
X17318Y31146D01*
X16343Y30952D01*
X15517Y30400D01*
X15206Y29935D01*
X14706D01*
X14396Y30400D01*
X13569Y30952D01*
X12594Y31146D01*
X11619Y30952D01*
X10792Y30400D01*
X10240Y29573D01*
X10046Y28598D01*
X10240Y27623D01*
X10792Y26796D01*
X11257Y26486D01*
Y25986D01*
X10792Y25675D01*
X10240Y24849D01*
X10046Y23874D01*
X10240Y22898D01*
X10792Y22072D01*
X11257Y21761D01*
Y21261D01*
X10792Y20951D01*
X10240Y20124D01*
X10046Y19149D01*
X10240Y18174D01*
X10792Y17347D01*
X11257Y17037D01*
Y16537D01*
X10792Y16227D01*
X10240Y15400D01*
X10046Y14425D01*
X10240Y13450D01*
X10792Y12623D01*
X11619Y12071D01*
X12594Y11877D01*
X13569Y12071D01*
X14396Y12623D01*
X14706Y13088D01*
X15206D01*
X15517Y12623D01*
X16343Y12071D01*
X17318Y11877D01*
X18293Y12071D01*
X19120Y12623D01*
X19431Y13088D01*
X19930D01*
X20241Y12623D01*
X21068Y12071D01*
X22043Y11877D01*
X23018Y12071D01*
X23845Y12623D01*
X24155Y13088D01*
X24655D01*
X24965Y12623D01*
X25792Y12071D01*
X26767Y11877D01*
X27742Y12071D01*
X28569Y12623D01*
X29121Y13450D01*
X29315Y14425D01*
X29121Y15400D01*
X28569Y16227D01*
X28104Y16537D01*
Y17037D01*
X28569Y17347D01*
X29121Y18174D01*
X29315Y19149D01*
X29121Y20124D01*
X28569Y20951D01*
X28104Y21261D01*
Y21761D01*
X28569Y22072D01*
X29121Y22898D01*
X29315Y23874D01*
X29121Y24849D01*
X28569Y25675D01*
X28104Y25986D01*
Y26486D01*
X28569Y26796D01*
X29121Y27623D01*
X29315Y28598D01*
X29121Y29573D01*
X28569Y30400D01*
X27742Y30952D01*
X26767Y31146D01*
D02*
G37*
G36*
X46500Y24988D02*
X45739Y24837D01*
X45094Y24406D01*
X44663Y23761D01*
X44512Y23000D01*
X44663Y22239D01*
X45094Y21594D01*
X45739Y21163D01*
X46500Y21012D01*
X47261Y21163D01*
X47906Y21594D01*
X48337Y22239D01*
X48488Y23000D01*
X48337Y23761D01*
X47906Y24406D01*
X47261Y24837D01*
X46500Y24988D01*
D02*
G37*
G36*
X44900Y18688D02*
X44139Y18537D01*
X43494Y18106D01*
X43063Y17461D01*
X42912Y16700D01*
X43031Y16104D01*
X42568Y15912D01*
X42506Y16006D01*
X41861Y16437D01*
X41100Y16588D01*
X40339Y16437D01*
X39694Y16006D01*
X39263Y15361D01*
X39112Y14600D01*
X39263Y13839D01*
X39694Y13194D01*
X40339Y12763D01*
X41100Y12612D01*
X41861Y12763D01*
X42506Y13194D01*
X42937Y13839D01*
X43088Y14600D01*
X42970Y15197D01*
X43431Y15388D01*
X43494Y15294D01*
X44139Y14863D01*
X44814Y14729D01*
X44912Y14239D01*
X44642Y14058D01*
X44133Y13297D01*
X43955Y12400D01*
X44133Y11503D01*
X44642Y10742D01*
X45403Y10233D01*
X46300Y10055D01*
X47197Y10233D01*
X47958Y10742D01*
X48467Y11503D01*
X48645Y12400D01*
X48467Y13297D01*
X47958Y14058D01*
X47197Y14567D01*
X46312Y14743D01*
X46215Y15233D01*
X46306Y15294D01*
X46737Y15939D01*
X46888Y16700D01*
X46737Y17461D01*
X46306Y18106D01*
X45661Y18537D01*
X44900Y18688D01*
D02*
G37*
G36*
X38900Y33938D02*
X38139Y33787D01*
X37494Y33356D01*
X37063Y32711D01*
X36912Y31950D01*
X37063Y31189D01*
X37494Y30544D01*
X38139Y30113D01*
X38900Y29962D01*
X39661Y30113D01*
X40306Y30544D01*
X40737Y31189D01*
X40888Y31950D01*
X40737Y32711D01*
X40306Y33356D01*
X39661Y33787D01*
X38900Y33938D01*
D02*
G37*
G36*
X24337Y48238D02*
X23576Y48087D01*
X22931Y47656D01*
X22500Y47011D01*
X22349Y46250D01*
X22500Y45489D01*
X22931Y44844D01*
X23576Y44413D01*
X24337Y44262D01*
X25098Y44413D01*
X25743Y44844D01*
X26174Y45489D01*
X26325Y46250D01*
X26174Y47011D01*
X25743Y47656D01*
X25098Y48087D01*
X24337Y48238D01*
D02*
G37*
G36*
X29700Y46738D02*
X28939Y46587D01*
X28294Y46156D01*
X27863Y45511D01*
X27712Y44750D01*
X27863Y43989D01*
X28294Y43344D01*
X28939Y42913D01*
X29700Y42762D01*
X30461Y42913D01*
X31106Y43344D01*
X31537Y43989D01*
X31688Y44750D01*
X31537Y45511D01*
X31106Y46156D01*
X30461Y46587D01*
X29700Y46738D01*
D02*
G37*
G36*
X25400Y38838D02*
X24639Y38687D01*
X23994Y38256D01*
X23596Y37660D01*
X23029Y37547D01*
X22708Y37332D01*
X22641Y37377D01*
X21880Y37528D01*
X21119Y37377D01*
X21050Y37330D01*
X20741Y37537D01*
X19980Y37688D01*
X19219Y37537D01*
X19192Y37519D01*
X18791Y37787D01*
X18030Y37938D01*
X17269Y37787D01*
X16624Y37356D01*
X16193Y36711D01*
X16042Y35950D01*
X16193Y35189D01*
X16624Y34544D01*
X17269Y34113D01*
X18030Y33962D01*
X18791Y34113D01*
X18818Y34131D01*
X19219Y33863D01*
X19980Y33712D01*
X20741Y33863D01*
X20810Y33909D01*
X21119Y33703D01*
X21880Y33552D01*
X22641Y33703D01*
X22962Y33918D01*
X23029Y33873D01*
X23790Y33722D01*
X24551Y33873D01*
X25011Y34181D01*
X25501Y34083D01*
X25594Y33944D01*
X26239Y33513D01*
X27000Y33362D01*
X27591Y33479D01*
X28139Y33113D01*
X28900Y32962D01*
X29661Y33113D01*
X30306Y33544D01*
X30737Y34189D01*
X30888Y34950D01*
X30737Y35711D01*
X30306Y36356D01*
X29661Y36787D01*
X28900Y36938D01*
X28309Y36821D01*
X27761Y37187D01*
X27303Y37278D01*
X27237Y37611D01*
X26806Y38256D01*
X26161Y38687D01*
X25400Y38838D01*
D02*
G37*
%LPD*%
D10*
X37446Y23496D02*
G03*
X36448Y23910I-998J-998D01*
G01*
X36738D02*
G03*
X37446Y24204I0J1002D01*
G01*
X38900Y31770D02*
Y31950D01*
X31400Y18950D02*
X36360Y23910D01*
X37740D01*
X37800Y23850D01*
X31960Y8590D02*
X32300Y8250D01*
X31400Y11050D02*
Y18950D01*
Y11050D02*
X31960Y10490D01*
Y8590D02*
Y10490D01*
Y10510D01*
X28000Y2100D02*
X30300D01*
D11*
X32653Y31798D02*
G03*
X32900Y32395I-598J598D01*
G01*
D02*
G03*
X33147Y31798I845J0D01*
G01*
X32900Y31550D02*
Y32650D01*
X27200Y5900D02*
Y8800D01*
X26400Y9600D02*
X27200Y8800D01*
X26100Y9600D02*
X26400D01*
X30400Y6400D02*
X30600Y6200D01*
X30400Y6400D02*
Y9400D01*
X29800Y10000D02*
X30400Y9400D01*
D42*
X9200Y37450D02*
D03*
X10330Y8180D02*
D03*
X38900Y31950D02*
D03*
X32900Y31550D02*
D03*
X40002Y28352D02*
D03*
X43500Y46700D02*
D03*
X37800Y23850D02*
D03*
X17100Y46100D02*
D03*
X17847Y39397D02*
D03*
X50400Y17900D02*
D03*
D45*
X32300Y8250D02*
D03*
M02*
