G04 Layer_Physical_Order=1*
G04 Layer_Color=255*
%FSLAX25Y25*%
%MOIN*%
G70*
G01*
G75*
%ADD10C,0.00500*%
%ADD11C,0.00800*%
%ADD12C,0.01000*%
%ADD13C,0.00400*%
%ADD14C,0.00600*%
%ADD15C,0.01200*%
%ADD16C,0.01500*%
%ADD17R,0.01102X0.01181*%
G04:AMPARAMS|DCode=18|XSize=11.02mil|YSize=11.81mil|CornerRadius=0mil|HoleSize=0mil|Usage=FLASHONLY|Rotation=45.000|XOffset=0mil|YOffset=0mil|HoleType=Round|Shape=Rectangle|*
%AMROTATEDRECTD18*
4,1,4,0.00028,-0.00807,-0.00807,0.00028,-0.00028,0.00807,0.00807,-0.00028,0.00028,-0.00807,0.0*
%
%ADD18ROTATEDRECTD18*%

%ADD19R,0.02165X0.01181*%
%ADD20R,0.02559X0.05315*%
%ADD21R,0.01181X0.01102*%
%ADD22R,0.01181X0.01181*%
%ADD23R,0.03543X0.03150*%
%ADD24O,0.02559X0.00787*%
%ADD25O,0.00787X0.02559*%
%ADD26R,0.18504X0.18504*%
%ADD27R,0.02165X0.02165*%
%ADD28R,0.01181X0.02165*%
%ADD29R,0.06693X0.08661*%
%ADD30R,0.02362X0.02362*%
%ADD31R,0.03543X0.02756*%
%ADD32R,0.02362X0.02362*%
%ADD33R,0.01969X0.02362*%
%ADD34O,0.58500X0.02000*%
%ADD35O,0.58000X0.02000*%
%ADD36O,0.02000X0.41000*%
%ADD37O,0.01800X0.49500*%
%ADD38R,0.07874X0.03937*%
%ADD39R,0.03150X0.11024*%
%ADD40C,0.00750*%
%ADD41R,0.19500X0.00735*%
%ADD42C,0.01500*%
%ADD43C,0.01000*%
%ADD44C,0.02598*%
%ADD45C,0.02200*%
G36*
X16169Y31386D02*
X16696Y31034D01*
X17318Y30910D01*
X17940Y31034D01*
X18106Y31144D01*
X18271Y31034D01*
X18893Y30910D01*
X19515Y31034D01*
X19681Y31144D01*
X19846Y31034D01*
X20468Y30910D01*
X21090Y31034D01*
X21255Y31144D01*
X21421Y31034D01*
X22043Y30910D01*
X22665Y31034D01*
X22830Y31144D01*
X22996Y31034D01*
X23618Y30910D01*
X24239Y31034D01*
X24405Y31144D01*
X24570Y31034D01*
X25192Y30910D01*
X25814Y31034D01*
X25980Y31144D01*
X26145Y31034D01*
X26767Y30910D01*
X27389Y31034D01*
X27555Y31144D01*
X27720Y31034D01*
X28342Y30910D01*
X28821Y31005D01*
X29175Y30652D01*
X29079Y30173D01*
X29203Y29551D01*
X29314Y29385D01*
X29203Y29220D01*
X29079Y28598D01*
X29203Y27976D01*
X29314Y27811D01*
X29203Y27645D01*
X29079Y27023D01*
X29203Y26401D01*
X29314Y26236D01*
X29203Y26070D01*
X29079Y25448D01*
X29203Y24827D01*
X29314Y24661D01*
X29203Y24496D01*
X29079Y23874D01*
X29203Y23252D01*
X29555Y22725D01*
X29818Y22549D01*
Y22049D01*
X29555Y21873D01*
X29203Y21346D01*
X29079Y20724D01*
X29203Y20102D01*
X29314Y19937D01*
X29203Y19771D01*
X29079Y19149D01*
X29203Y18527D01*
X29314Y18362D01*
X29203Y18196D01*
X29079Y17574D01*
X29203Y16953D01*
X29314Y16787D01*
X29203Y16621D01*
X29079Y16000D01*
X29203Y15378D01*
X29314Y15212D01*
X29203Y15047D01*
X29079Y14425D01*
X29203Y13803D01*
X29268Y13706D01*
X29087Y13435D01*
X28971Y12850D01*
X29061Y12393D01*
X28708Y12040D01*
X28342Y12113D01*
X27720Y11989D01*
X27555Y11878D01*
X27389Y11989D01*
X26767Y12113D01*
X26145Y11989D01*
X25980Y11878D01*
X25814Y11989D01*
X25192Y12113D01*
X24570Y11989D01*
X24405Y11878D01*
X24239Y11989D01*
X23618Y12113D01*
X22996Y11989D01*
X22830Y11878D01*
X22665Y11989D01*
X22043Y12113D01*
X21421Y11989D01*
X21255Y11878D01*
X21090Y11989D01*
X20468Y12113D01*
X19846Y11989D01*
X19681Y11878D01*
X19515Y11989D01*
X18893Y12113D01*
X18271Y11989D01*
X18106Y11878D01*
X17940Y11989D01*
X17318Y12113D01*
X16696Y11989D01*
X16531Y11878D01*
X16365Y11989D01*
X15743Y12113D01*
X15122Y11989D01*
X14956Y11878D01*
X14791Y11989D01*
X14169Y12113D01*
X13547Y11989D01*
X13381Y11878D01*
X13216Y11989D01*
X12594Y12113D01*
X11972Y11989D01*
X11806Y11878D01*
X11641Y11989D01*
X11019Y12113D01*
X10540Y12017D01*
X10187Y12371D01*
X10282Y12850D01*
X10158Y13472D01*
X10047Y13637D01*
X10158Y13803D01*
X10282Y14425D01*
X10158Y15047D01*
X10047Y15212D01*
X10158Y15378D01*
X10282Y16000D01*
X10158Y16621D01*
X10047Y16787D01*
X10158Y16953D01*
X10282Y17574D01*
X10158Y18196D01*
X10047Y18362D01*
X10158Y18527D01*
X10282Y19149D01*
X10158Y19771D01*
X10047Y19937D01*
X10158Y20102D01*
X10282Y20724D01*
X10158Y21346D01*
X10047Y21511D01*
X10158Y21677D01*
X10282Y22299D01*
X10158Y22921D01*
X10047Y23086D01*
X10158Y23252D01*
X10282Y23874D01*
X10158Y24496D01*
X10047Y24661D01*
X10158Y24827D01*
X10282Y25448D01*
X10158Y26070D01*
X10141Y26097D01*
X10501Y26637D01*
X10633Y27300D01*
X10501Y27963D01*
X10235Y28362D01*
X10282Y28598D01*
X10158Y29220D01*
X10047Y29385D01*
X10158Y29551D01*
X10282Y30173D01*
X10187Y30652D01*
X10540Y31005D01*
X11019Y30910D01*
X11641Y31034D01*
X11806Y31144D01*
X11972Y31034D01*
X12594Y30910D01*
X13216Y31034D01*
X13381Y31144D01*
X13547Y31034D01*
X14169Y30910D01*
X14791Y31034D01*
X15318Y31386D01*
X15494Y31649D01*
X15993D01*
X16169Y31386D01*
D02*
G37*
G36*
X42707Y39159D02*
X43784D01*
X44773Y38170D01*
Y35305D01*
X44773D01*
Y35303D01*
X44420Y34949D01*
X41820D01*
Y34790D01*
X41450D01*
X41379Y34776D01*
X40993Y35093D01*
Y35841D01*
X39758D01*
X38711Y36888D01*
X38902Y37350D01*
X41700D01*
Y41141D01*
X42707D01*
Y39159D01*
D02*
G37*
G36*
X2694Y17494D02*
X2879Y17370D01*
X2977Y16880D01*
X2563Y16261D01*
X2412Y15500D01*
X2563Y14739D01*
X2994Y14094D01*
X3067Y14045D01*
X3263Y13753D01*
X3323Y13449D01*
X2963Y12911D01*
X2812Y12150D01*
X2963Y11389D01*
X3394Y10744D01*
X3872Y10425D01*
Y9925D01*
X3394Y9606D01*
X2963Y8961D01*
X2812Y8200D01*
X2963Y7439D01*
X3394Y6794D01*
X3722Y6575D01*
Y6075D01*
X3394Y5856D01*
X2963Y5211D01*
X2812Y4450D01*
X2963Y3689D01*
X3394Y3044D01*
X4039Y2613D01*
X4800Y2462D01*
X5561Y2613D01*
X6064Y2950D01*
X6117Y2972D01*
X8550D01*
X9116Y3084D01*
X9457Y3312D01*
X9947Y3214D01*
X10094Y2994D01*
X10739Y2563D01*
X11500Y2412D01*
X12261Y2563D01*
X12906Y2994D01*
X13033Y3185D01*
X13533D01*
X13594Y3094D01*
X14239Y2663D01*
X15000Y2512D01*
X15761Y2663D01*
X16406Y3094D01*
X16406Y3094D01*
Y3094D01*
X16694Y3194D01*
X16694Y3194D01*
D01*
X17339Y2763D01*
X18100Y2612D01*
X18861Y2763D01*
X19506Y3194D01*
X19800Y3634D01*
X20300D01*
X20594Y3194D01*
X21239Y2763D01*
X22000Y2612D01*
X22761Y2763D01*
X23406Y3194D01*
X23837Y3839D01*
X23855Y3931D01*
X24333Y4076D01*
X24755Y3655D01*
X25234Y3334D01*
X25800Y3222D01*
X27375D01*
X27594Y2894D01*
X28239Y2463D01*
X28894Y2333D01*
X28845Y1835D01*
X1835D01*
Y17918D01*
X2314Y18063D01*
X2694Y17494D01*
D02*
G37*
G36*
X67573Y43359D02*
X67733Y43252D01*
X67938Y42945D01*
X68021Y42531D01*
X68000Y39850D01*
X59800D01*
Y1835D01*
X29155D01*
X29106Y2333D01*
X29761Y2463D01*
X30406Y2894D01*
X30837Y3539D01*
X30988Y4300D01*
X30871Y4888D01*
X31345Y5205D01*
X32088Y5947D01*
X32300Y5905D01*
X33197Y6083D01*
X33958Y6592D01*
X34467Y7353D01*
X34645Y8250D01*
X34530Y8831D01*
X34971Y9067D01*
X35971Y8066D01*
Y5928D01*
X35963Y5909D01*
X35663Y5461D01*
X35512Y4700D01*
X35663Y3939D01*
X36094Y3294D01*
X36739Y2863D01*
X37500Y2712D01*
X38261Y2863D01*
X38906Y3294D01*
X39337Y3939D01*
X39350Y4005D01*
X39850D01*
X39863Y3939D01*
X40294Y3294D01*
X40939Y2863D01*
X41700Y2712D01*
X42461Y2863D01*
X43106Y3294D01*
X43400Y3734D01*
X43900D01*
X44194Y3294D01*
X44839Y2863D01*
X45600Y2712D01*
X46361Y2863D01*
X47006Y3294D01*
X47300Y3734D01*
X47800D01*
X48094Y3294D01*
X48739Y2863D01*
X49500Y2712D01*
X50261Y2863D01*
X50906Y3294D01*
X51250Y3809D01*
X51750D01*
X52094Y3294D01*
X52739Y2863D01*
X53500Y2712D01*
X54261Y2863D01*
X54906Y3294D01*
X55337Y3939D01*
X55488Y4700D01*
X55337Y5461D01*
X54906Y6106D01*
X54541Y6350D01*
X54121Y6770D01*
X54121Y6770D01*
D01*
X54121Y6770D01*
X54121Y6770D01*
X53305Y7586D01*
X53272Y7628D01*
X53273D01*
X53263D01*
X51434Y9457D01*
X51625Y9919D01*
X53513D01*
Y11498D01*
X54106Y11894D01*
X54537Y12539D01*
X54688Y13300D01*
X54644Y13523D01*
X54961Y13909D01*
X56293D01*
Y14106D01*
X56300Y14112D01*
X57061Y14263D01*
X57706Y14694D01*
X58137Y15339D01*
X58288Y16100D01*
X58137Y16861D01*
X57706Y17506D01*
X57573Y17594D01*
X57737Y17839D01*
X57888Y18600D01*
X57737Y19361D01*
X57306Y20006D01*
X56661Y20437D01*
X56737Y20639D01*
X56737Y20639D01*
X56737Y20639D01*
X56888Y21400D01*
X56737Y22161D01*
X56306Y22806D01*
X55661Y23237D01*
X54900Y23388D01*
X54139Y23237D01*
X53494Y22806D01*
X53063Y22161D01*
X53029Y21991D01*
X52790D01*
Y19691D01*
X51230D01*
X51161Y19737D01*
X50583Y19852D01*
X50437Y20330D01*
X51654Y21547D01*
X52008Y22077D01*
X52094Y22510D01*
X52291D01*
Y25462D01*
X52647D01*
Y25462D01*
X55843D01*
X56600Y25312D01*
X57361Y25463D01*
X58006Y25894D01*
X58437Y26539D01*
X58588Y27300D01*
X58437Y28061D01*
X58311Y28250D01*
X58437Y28439D01*
X58588Y29200D01*
X58437Y29961D01*
X58277Y30200D01*
X58437Y30439D01*
X58588Y31200D01*
X58437Y31961D01*
X58006Y32606D01*
X57403Y33009D01*
Y33249D01*
X57463Y33548D01*
X57606Y33644D01*
X58037Y34289D01*
X58188Y35050D01*
X58037Y35811D01*
X57606Y36456D01*
X57213Y36719D01*
Y36918D01*
X56806D01*
X56200Y37038D01*
X55594Y36918D01*
X53900D01*
Y38600D01*
X54700D01*
X54770Y40347D01*
X54770D01*
X54743Y40380D01*
X54869Y41013D01*
X55246Y41578D01*
X56301Y42975D01*
X56588Y43356D01*
X56632Y43400D01*
X67369D01*
X67573Y43359D01*
D02*
G37*
G36*
X51174Y45454D02*
X51363Y44991D01*
X50943Y44479D01*
X50372Y43411D01*
X50021Y42253D01*
X49902Y41048D01*
X50000Y39000D01*
Y38600D01*
X51100D01*
Y35500D01*
X52647D01*
Y33336D01*
X52647Y33336D01*
X52647Y32980D01*
X52647D01*
Y29399D01*
Y27431D01*
Y27075D01*
X52291D01*
Y27075D01*
X48710D01*
D01*
D01*
X48710Y27075D01*
X48354D01*
Y27075D01*
X46386D01*
Y27431D01*
Y29399D01*
Y31368D01*
Y34949D01*
X46386D01*
Y34951D01*
X46740Y35305D01*
X48354D01*
Y39870D01*
X47687D01*
X46209Y41348D01*
Y41459D01*
Y43613D01*
X46596Y43930D01*
X46722Y43905D01*
X46946Y43949D01*
X48473D01*
Y45317D01*
X48499Y45448D01*
X48765Y45714D01*
X51174Y45454D01*
D02*
G37*
G36*
X53094Y49567D02*
X52439Y49437D01*
X52361Y49385D01*
X48005D01*
X47419Y49268D01*
X47302Y49245D01*
X46707Y48847D01*
X45609Y47749D01*
X45111Y47798D01*
X44906Y48106D01*
X44261Y48537D01*
X43500Y48688D01*
X42739Y48537D01*
X42094Y48106D01*
X41663Y47461D01*
X41641Y47350D01*
X30900D01*
Y46822D01*
X30461Y46587D01*
X29700Y46738D01*
X28939Y46587D01*
X28509Y46300D01*
X25356D01*
Y42718D01*
Y40159D01*
Y38829D01*
X24639Y38687D01*
X23994Y38256D01*
X23596Y37660D01*
X23029Y37547D01*
X22708Y37332D01*
X22641Y37377D01*
X22244Y37456D01*
Y37607D01*
X22244D01*
Y41188D01*
X18677D01*
X18608Y41234D01*
X17847Y41385D01*
X17568Y41330D01*
X17181Y41647D01*
Y42237D01*
Y42718D01*
X17679D01*
Y42718D01*
X22244D01*
Y46300D01*
X19669D01*
X19649Y46308D01*
X19512Y46445D01*
X19390Y46526D01*
Y47043D01*
X18815D01*
X18506Y47506D01*
X17861Y47937D01*
X17100Y48088D01*
X16339Y47937D01*
X15694Y47506D01*
X15525Y47252D01*
X15027Y47203D01*
X14822Y47409D01*
X14177Y47840D01*
X13672Y47940D01*
Y48581D01*
X7728D01*
Y43425D01*
X12419D01*
Y42675D01*
X8984D01*
Y42863D01*
X6483D01*
X6288Y43100D01*
X6137Y43861D01*
X5706Y44506D01*
X5341Y44750D01*
Y45250D01*
X5706Y45494D01*
X6137Y46139D01*
X6288Y46900D01*
X6137Y47661D01*
X5706Y48306D01*
X5061Y48737D01*
X4300Y48888D01*
X3539Y48737D01*
X2894Y48306D01*
X2463Y47661D01*
X2333Y47006D01*
X1835Y47055D01*
Y50065D01*
X53045D01*
X53094Y49567D01*
D02*
G37*
G36*
X35417Y40305D02*
Y38110D01*
X31874D01*
Y41260D01*
X34326Y41263D01*
X35417Y40305D01*
D02*
G37*
G36*
X78165Y39850D02*
X72600D01*
Y44769D01*
X72624D01*
X72530Y45482D01*
X72255Y46146D01*
X71817Y46717D01*
X71817Y46718D01*
X71219Y47177D01*
X70522Y47465D01*
X69774Y47564D01*
X66458Y47539D01*
Y47539D01*
X66420Y47500D01*
X65290D01*
Y48009D01*
X61709D01*
Y47500D01*
X55691D01*
X55188Y47600D01*
X55037Y48361D01*
X54606Y49006D01*
X53961Y49437D01*
X53306Y49567D01*
X53355Y50065D01*
X78165D01*
Y39850D01*
D02*
G37*
D10*
X50833Y18150D02*
G03*
X51174Y17889I486J280D01*
G01*
X51178Y17887D02*
G03*
X50869Y17727I-67J-249D01*
G01*
X50869Y18073D02*
G03*
X51178Y17913I242J89D01*
G01*
X51174Y17911D02*
G03*
X50833Y17650I145J-542D01*
G01*
X50754Y18254D02*
G03*
X51607Y17900I853J853D01*
G01*
X51607D02*
G03*
X50754Y17546I0J-1207D01*
G01*
X45254Y16346D02*
G03*
X44900Y15493I854J-854D01*
G01*
D02*
G03*
X44546Y16346I-1207J0D01*
G01*
X54874Y17900D02*
G03*
X55900Y18600I0J1101D01*
G01*
X54142Y17900D02*
G03*
X55434Y18782I0J1388D01*
G01*
X55825Y18106D02*
G03*
X55200Y17900I-109J-722D01*
G01*
D02*
G03*
X55406Y18525I-516J516D01*
G01*
X46300Y13250D02*
G03*
X47751Y13851I0J2052D01*
G01*
D02*
G03*
X47150Y12400I1451J-1451D01*
G01*
X55519Y15700D02*
G03*
X56300Y16100I0J963D01*
G01*
X54542Y15700D02*
G03*
X55894Y16392I0J1667D01*
G01*
X41346Y5054D02*
G03*
X41700Y5907I-854J854D01*
G01*
D02*
G03*
X42054Y5054I1207J0D01*
G01*
X45246D02*
G03*
X45600Y5907I-854J854D01*
G01*
D02*
G03*
X45954Y5054I1207J0D01*
G01*
X53500Y4700D02*
G03*
X53076Y5724I-1448J0D01*
G01*
X53000Y4700D02*
G03*
X52222Y6578I-2656J0D01*
G01*
X41454Y14954D02*
G03*
X42066Y14700I612J612D01*
G01*
X42549D02*
G03*
X41454Y14246I0J-1549D01*
G01*
X24946Y7654D02*
G03*
X25192Y8247I-594J594D01*
G01*
Y8767D02*
G03*
X25654Y7654I1575J0D01*
G01*
X17746Y4953D02*
G03*
X18100Y5807I-854J854D01*
G01*
D02*
G03*
X18454Y4953I1207J0D01*
G01*
X14854Y5354D02*
G03*
X14500Y4500I854J-854D01*
G01*
X15707Y6207D02*
G03*
X15000Y4500I1707J-1707D01*
G01*
X16561Y7061D02*
G03*
X15500Y4500I2561J-2561D01*
G01*
X14700Y4900D02*
G03*
X15000Y5500I-450J600D01*
G01*
D02*
G03*
X15300Y4900I750J0D01*
G01*
X46215Y49350D02*
G03*
X47173Y49747I0J1356D01*
G01*
X47587Y49648D02*
G03*
X48000Y49350I412J136D01*
G01*
X7771Y27023D02*
G03*
X8708Y27461I0J1223D01*
G01*
X4453Y22746D02*
G03*
X4100Y21893I854J-854D01*
G01*
D02*
G03*
X3746Y22746I-1207J0D01*
G01*
X4900Y15500D02*
G03*
X5254Y14646I1207J0D01*
G01*
X5254Y14646D02*
G03*
X4400Y15000I-854J-854D01*
G01*
X37346Y48846D02*
G03*
X36131Y49350I-1216J-1216D01*
G01*
X36855D02*
G03*
X37346Y49554I0J695D01*
G01*
X38054D02*
G03*
X38545Y49350I491J491D01*
G01*
X39269D02*
G03*
X38054Y48846I0J-1719D01*
G01*
X4453Y30446D02*
G03*
X4200Y29834I612J-612D01*
G01*
Y29351D02*
G03*
X3746Y30446I-1548J0D01*
G01*
X5283Y12850D02*
G03*
X4447Y12504I0J-1183D01*
G01*
X6490Y12850D02*
G03*
X4800Y12150I0J-2390D01*
G01*
X7697Y12850D02*
G03*
X5153Y11796I0J-3597D01*
G01*
X4875Y12644D02*
G03*
X5500Y12850I109J722D01*
G01*
D02*
G03*
X5294Y12225I516J-516D01*
G01*
X25754Y36496D02*
G03*
X25192Y35142I1355J-1355D01*
G01*
X21500Y4600D02*
G03*
X20864Y6136I-2173J0D01*
G01*
X21846Y7903D02*
G03*
X22043Y8377I-474J474D01*
G01*
Y9137D02*
G03*
X22554Y7903I1744J0D01*
G01*
X38210Y24136D02*
G03*
X38758Y23850I548J382D01*
G01*
D02*
G03*
X38210Y23564I0J-668D01*
G01*
X55844Y34699D02*
G03*
X55007Y35050I-836J-823D01*
G01*
D02*
G03*
X55844Y35401I0J1173D01*
G01*
X39254Y31596D02*
G03*
X38900Y30743I854J-854D01*
G01*
D02*
G03*
X38546Y31596I-1207J0D01*
G01*
X6400Y37650D02*
G03*
X5632Y37332I0J-1086D01*
G01*
X5511Y37211D02*
G03*
X5900Y38150I-939J939D01*
G01*
X18513Y35821D02*
G03*
X18648Y34793I1309J-351D01*
G01*
X18544Y34973D02*
G03*
X17901Y35467I-917J-530D01*
G01*
X18526Y35886D02*
G03*
X18893Y34807I1280J-166D01*
G01*
X18406Y35294D02*
G03*
X18030Y35450I-376J-376D01*
G01*
X20468Y34549D02*
G03*
X19980Y35700I-1602J0D01*
G01*
X20468Y33369D02*
G03*
X19632Y35341I-2743J0D01*
G01*
X22233Y35186D02*
G03*
X21880Y34333I854J-854D01*
G01*
D02*
G03*
X21526Y35186I-1207J0D01*
G01*
X24144Y35357D02*
G03*
X23618Y34087I1270J-1270D01*
G01*
Y34919D02*
G03*
X23436Y35357I-618J0D01*
G01*
X27354Y34996D02*
G03*
X26767Y33581I1416J-1416D01*
G01*
X49146Y5054D02*
G03*
X49500Y5907I-854J854D01*
G01*
D02*
G03*
X49854Y5054I1207J0D01*
G01*
X5153Y4803D02*
G03*
X6007Y4450I854J854D01*
G01*
D02*
G03*
X5153Y4096I0J-1207D01*
G01*
X38605Y23658D02*
G03*
X38141Y23850I-464J-464D01*
G01*
X38041D02*
G03*
X38605Y24084I0J798D01*
G01*
X52045Y15487D02*
G03*
X51531Y15700I-514J-514D01*
G01*
D02*
G03*
X52045Y15913I0J727D01*
G01*
X54755D02*
G03*
X55269Y15700I514J514D01*
G01*
D02*
G03*
X54755Y15487I0J-727D01*
G01*
X38625Y30782D02*
G03*
X38900Y31446I-663J663D01*
G01*
Y31148D02*
G03*
X39051Y30782I516J0D01*
G01*
X42445Y14487D02*
G03*
X41931Y14700I-514J-514D01*
G01*
D02*
G03*
X42445Y14913I0J727D01*
G01*
X44729Y14952D02*
G03*
X44900Y15366I-413J413D01*
G01*
Y15567D02*
G03*
X45155Y14952I870J0D01*
G01*
X51645Y17687D02*
G03*
X51131Y17900I-514J-514D01*
G01*
D02*
G03*
X51645Y18113I0J727D01*
G01*
X54355D02*
G03*
X54869Y17900I514J514D01*
G01*
D02*
G03*
X54355Y17687I0J-727D01*
G01*
X55706Y35315D02*
G03*
X56200Y35050I494J328D01*
G01*
X56058D02*
G03*
X55663Y34886I0J-559D01*
G01*
X18749Y34307D02*
G03*
X18294Y35406I-1555J0D01*
G01*
X21880Y35046D02*
G03*
X22144Y34408I903J0D01*
G01*
X32476Y28742D02*
G03*
X33408Y29128I0J1318D01*
G01*
X32476Y27167D02*
G03*
X33348Y27528I0J1234D01*
G01*
X12050Y7750D02*
G03*
X12450Y8716I-966J966D01*
G01*
X5641Y16658D02*
G03*
X6885Y16143I1244J1244D01*
G01*
X5941Y21259D02*
G03*
X6885Y20868I944J944D01*
G01*
X39158Y43389D02*
G03*
X38085Y42945I0J-1516D01*
G01*
X39158Y42889D02*
G03*
X37232Y42091I0J-2723D01*
G01*
X37610Y42470D02*
G03*
X38333Y44214I-1744J1744D01*
G01*
X36757Y41616D02*
G03*
X37833Y44214I-2598J2598D01*
G01*
X39354D02*
X40978D01*
X36500Y41359D02*
X39354Y44214D01*
X36500Y38250D02*
Y41359D01*
X35300Y37050D02*
X36500Y38250D01*
X35300Y29480D02*
Y37050D01*
X34400Y30120D02*
Y38932D01*
X33646Y39686D02*
X34400Y38932D01*
X20430Y33459D02*
X20468Y33421D01*
X7771Y20724D02*
X7777Y20730D01*
X31590Y28598D02*
X32878D01*
X31590Y27023D02*
X32843D01*
X21880Y33584D02*
X22043Y33421D01*
X21880Y33584D02*
Y35540D01*
X20468Y33421D02*
Y35212D01*
X19980Y35700D02*
X20468Y35212D01*
X18893Y33421D02*
Y34807D01*
X18030Y35670D02*
X18893Y34807D01*
X18030Y35670D02*
Y35950D01*
X7771Y16000D02*
X7880D01*
X46564Y24014D02*
Y24792D01*
X32843Y27023D02*
X35300Y29480D01*
X32878Y28598D02*
X34400Y30120D01*
X38838Y30530D02*
X38900Y30592D01*
Y31950D01*
X37800Y23850D02*
X38758D01*
X38818Y23910D01*
X55007Y35050D02*
X56200D01*
X54930Y35127D02*
X55007Y35050D01*
X23618Y33421D02*
Y35538D01*
X23790Y35710D01*
X25192Y33421D02*
Y36642D01*
X25400Y36850D01*
X26767Y33421D02*
Y35117D01*
X27000Y35350D01*
X15743Y8053D02*
Y9602D01*
X26767Y7703D02*
Y9602D01*
Y7703D02*
X28220Y6250D01*
X30300D01*
X32300Y8250D01*
X6152Y28598D02*
X7771D01*
X5500Y12850D02*
X7771D01*
X4800Y12150D02*
X5500Y12850D01*
X5475Y14425D02*
X7771D01*
X4400Y15500D02*
X5475Y14425D01*
X6300Y16000D02*
X7771D01*
X5600Y18050D02*
X6076Y17574D01*
X6896D01*
X7046D02*
X7771D01*
X4100Y18200D02*
X6300Y16000D01*
X4100Y18200D02*
Y18900D01*
Y21200D02*
Y23100D01*
Y21200D02*
X5600Y19700D01*
Y18050D02*
Y19700D01*
X4200Y29050D02*
Y30700D01*
X6400Y38100D02*
Y38150D01*
X5500Y29250D02*
X6152Y28598D01*
X5500Y29250D02*
Y37200D01*
X6400Y38100D01*
X8623Y27023D02*
X8900Y27300D01*
X7771Y27023D02*
X8623D01*
X6476Y20724D02*
X7771D01*
X5700Y21500D02*
X6476Y20724D01*
X4100Y30800D02*
X4200Y30700D01*
Y29050D02*
X5700Y27550D01*
Y21500D02*
Y27550D01*
X12594Y8294D02*
Y9602D01*
X10900Y6600D02*
X12594Y8294D01*
X6177Y6600D02*
X10900D01*
X4800Y7977D02*
X6177Y6600D01*
X4800Y7977D02*
Y8200D01*
Y4450D02*
X8550D01*
X12091Y4400D02*
X15743Y8053D01*
X11500Y4400D02*
X12091D01*
X17318Y7818D02*
Y9602D01*
X15000Y5500D02*
X17318Y7818D01*
X15000Y4500D02*
Y5500D01*
X18893Y6993D02*
Y9602D01*
X18100Y6200D02*
X18893Y6993D01*
X18100Y4600D02*
Y6200D01*
X20468Y6532D02*
Y9602D01*
Y6532D02*
X22000Y5000D01*
Y4600D02*
Y5000D01*
X25192Y7408D02*
Y9602D01*
Y7408D02*
X25300Y7300D01*
X22043Y7707D02*
Y9602D01*
Y7707D02*
X22200Y7550D01*
X23618Y6882D02*
Y9602D01*
Y6882D02*
X25800Y4700D01*
X28600D01*
X29000Y4300D01*
X53500Y4700D02*
Y5300D01*
X31900Y17574D02*
X34526D01*
X42800Y9300D01*
X46500D02*
X49500Y6300D01*
Y4700D02*
Y6300D01*
X42800Y9300D02*
X46500D01*
X31590Y16000D02*
X34300D01*
X42100Y8200D01*
X43500D01*
X45600Y6100D01*
Y4700D02*
Y6100D01*
X31590Y14425D02*
X33975D01*
X41700Y6700D01*
Y4700D02*
Y6700D01*
X31590Y19149D02*
X34451D01*
X44900Y14742D02*
Y16700D01*
Y14742D02*
X44942Y14700D01*
X41200D02*
X42658D01*
X41100Y14600D02*
X41200Y14700D01*
X34451Y19149D02*
X43200Y10400D01*
X48400D01*
X53500Y5300D01*
X55900Y15700D02*
X56300Y16100D01*
X54542Y15700D02*
X55900D01*
X55200Y17900D02*
X55900Y18600D01*
X54142Y17900D02*
X55200D01*
X46300Y12400D02*
X49600Y15700D01*
X52258D01*
X50400Y17900D02*
X51858D01*
X50400Y17900D02*
X50400Y17900D01*
X34300Y49350D02*
X48000D01*
D11*
X54765Y9843D02*
G03*
X54916Y10985I-1302J752D01*
G01*
X55221D02*
G03*
X55372Y9843I1453J-389D01*
G01*
X54821Y9916D02*
G03*
X55068Y10514I-598J598D01*
G01*
D02*
G03*
X55316Y9916I845J0D01*
G01*
X52700Y12950D02*
G03*
X52103Y12702I0J-845D01*
G01*
X52103Y12702D02*
G03*
X52350Y13300I-598J598D01*
G01*
X56353Y27053D02*
G03*
X55755Y27300I-598J-598D01*
G01*
D02*
G03*
X56353Y27547I0J845D01*
G01*
Y28953D02*
G03*
X55755Y29200I-598J-598D01*
G01*
D02*
G03*
X56353Y29447I0J845D01*
G01*
Y30953D02*
G03*
X55755Y31200I-598J-598D01*
G01*
D02*
G03*
X56353Y31447I0J845D01*
G01*
X46253Y23247D02*
G03*
X46564Y23999I-752J752D01*
G01*
X47104Y40389D02*
G03*
X47739Y39742I1098J444D01*
G01*
X47104Y40389D02*
G03*
X47739Y39742I1098J444D01*
G01*
X18095Y39645D02*
G03*
X18692Y39397I598J598D01*
G01*
D02*
G03*
X18095Y39150I0J-845D01*
G01*
X17433Y45991D02*
G03*
X17600Y45292I653J-213D01*
G01*
X29084Y34652D02*
G03*
X28342Y33322I821J-1330D01*
G01*
X28883Y34600D02*
G03*
X28342Y34392I-35J-714D01*
G01*
D02*
G03*
X28550Y34933I-505J505D01*
G01*
X39754Y28104D02*
G03*
X39133Y28362I-622J-622D01*
G01*
X39181D02*
G03*
X39754Y28599I0J811D01*
G01*
X40249D02*
G03*
X40823Y28362I573J573D01*
G01*
X40871D02*
G03*
X40249Y28104I0J-879D01*
G01*
X39754D02*
G03*
X39157Y28352I-598J-598D01*
G01*
D02*
G03*
X39754Y28599I0J845D01*
G01*
X40249D02*
G03*
X40823Y28362I573J573D01*
G01*
X40871D02*
G03*
X40249Y28104I0J-879D01*
G01*
Y28599D02*
G03*
X40823Y28362I573J573D01*
G01*
X40871D02*
G03*
X40249Y28104I0J-879D01*
G01*
X32850Y32516D02*
G03*
X33147Y31798I1016J0D01*
G01*
X10082Y7932D02*
G03*
X9485Y8180I-598J-598D01*
G01*
D02*
G03*
X10082Y8427I0J845D01*
G01*
X10210Y8509D02*
G03*
X10870Y9453I-345J944D01*
G01*
X10356Y8529D02*
G03*
X10870Y8720I49J656D01*
G01*
D02*
G03*
X10679Y8206I465J-465D01*
G01*
X8374Y38142D02*
G03*
X9200Y37800I826J826D01*
G01*
X10993Y36358D02*
G03*
X9200Y37100I-1792J-1792D01*
G01*
X47128Y34830D02*
G03*
X48269Y35705I-486J1814D01*
G01*
X49612Y34763D02*
G03*
X49978Y34322I715J222D01*
G01*
X49197Y35137D02*
G03*
X49549Y34828I549J270D01*
G01*
X49419Y34753D02*
G03*
X49069Y36485I-2266J445D01*
G01*
X26543Y20020D02*
G03*
X28417Y21522I-729J2831D01*
G01*
X26490Y20005D02*
G03*
X26996Y20436I-268J827D01*
G01*
X27331Y21093D02*
G03*
X27470Y19710I1143J-583D01*
G01*
X26089Y23695D02*
G03*
X27560Y22369I1747J460D01*
G01*
X26202Y23460D02*
G03*
X28142Y22279I2396J1752D01*
G01*
X28364Y22887D02*
G03*
X27234Y23105I-685J-512D01*
G01*
X28405Y24123D02*
G03*
X26363Y24446I-1187J-888D01*
G01*
X28897Y23464D02*
G03*
X26824Y23793I-1205J-901D01*
G01*
X24657Y22299D02*
G03*
X27263Y23378I0J3685D01*
G01*
X22726Y22299D02*
G03*
X26697Y23944I0J5616D01*
G01*
X20794Y22299D02*
G03*
X26131Y24509I0J7548D01*
G01*
X26198Y23465D02*
G03*
X28471Y22299I2273J1632D01*
G01*
X26848Y23932D02*
G03*
X30030Y22299I3183J2286D01*
G01*
X27498Y24398D02*
G03*
X31590Y22299I4092J2939D01*
G01*
X22043Y22974D02*
G03*
X19909Y22091I0J-3018D01*
G01*
X20756Y22938D02*
G03*
X21144Y23874I-936J936D01*
G01*
X22043Y24773D02*
G03*
X22979Y25161I0J1324D01*
G01*
X23826Y26008D02*
G03*
X22942Y23874I2134J-2134D01*
G01*
X21547Y23378D02*
G03*
X24153Y22299I2606J2606D01*
G01*
X22113Y23944D02*
G03*
X26084Y22299I3971J3971D01*
G01*
X22679Y24509D02*
G03*
X28016Y22299I5337J5337D01*
G01*
X26767Y27699D02*
G03*
X24633Y26815I0J-3018D01*
G01*
X25480Y27662D02*
G03*
X25868Y28598I-936J936D01*
G01*
X26767Y29497D02*
G03*
X27703Y29885I0J1324D01*
G01*
X28550Y30732D02*
G03*
X27666Y28598I2134J-2134D01*
G01*
X17081Y29257D02*
G03*
X15743Y27354I686J-1903D01*
G01*
X17352Y28505D02*
G03*
X15743Y26215I825J-2289D01*
G01*
X17623Y27752D02*
G03*
X15743Y25077I964J-2675D01*
G01*
Y30302D02*
G03*
X16910Y28029I2798J0D01*
G01*
X15743Y31861D02*
G03*
X17376Y28679I3918J0D01*
G01*
X15743Y33421D02*
G03*
X17843Y29328I5038J0D01*
G01*
X12513Y27902D02*
G03*
X13954Y28568I176J1511D01*
G01*
X12605Y28697D02*
G03*
X14680Y29656I253J2176D01*
G01*
X28273Y44509D02*
G03*
X29452Y44998I0J1668D01*
G01*
X57729Y45500D02*
G03*
X56646Y45051I0J-1532D01*
G01*
X56461Y45007D02*
G03*
X55174Y44474I0J-1819D01*
G01*
X52400Y39755D02*
G03*
X52000Y40719I-1364J0D01*
G01*
X52400Y37824D02*
G03*
X51435Y40154I-3295J0D01*
G01*
X51730Y39718D02*
G03*
X52400Y40622I-274J903D01*
G01*
X51498Y40484D02*
G03*
X52400Y41700I-368J1216D01*
G01*
X69124Y34364D02*
G03*
X69991Y36500I-2215J2144D01*
G01*
X70000Y36639D02*
G03*
X71075Y34043I3670J0D01*
G01*
X70000Y38570D02*
G03*
X71641Y34609I5601J0D01*
G01*
X15744Y35394D02*
G03*
X16094Y36579I-915J915D01*
G01*
X14330Y37222D02*
G03*
X14109Y36689I532J-532D01*
G01*
X14083Y36525D02*
G03*
X14169Y35581I609J-420D01*
G01*
X6900Y34703D02*
G03*
X6651Y35304I-849J0D01*
G01*
X46893Y40911D02*
G03*
X47214Y40136I1095J0D01*
G01*
X44609Y40911D02*
G03*
X44800Y40450I652J0D01*
G01*
X41029Y28513D02*
G03*
X42452Y29102I0J2012D01*
G01*
X42067Y33158D02*
G03*
X41446Y32901I0J-878D01*
G01*
X7384Y40285D02*
G03*
X7658Y39623I935J0D01*
G01*
X7966Y39315D02*
G03*
X6863Y39704I-957J-957D01*
G01*
X7966Y39150D02*
G03*
X6838Y40497I-1369J0D01*
G01*
X7966Y38194D02*
G03*
X6697Y39709I-1539J0D01*
G01*
X36661Y27657D02*
G03*
X35067Y26997I0J-2254D01*
G01*
X40319Y20401D02*
G03*
X39538Y20724I-781J-781D01*
G01*
X39754Y19835D02*
G03*
X37607Y20724I-2147J-2147D01*
G01*
X40239D02*
G03*
X39457Y20376I0J-1052D01*
G01*
X42034Y20724D02*
G03*
X40052Y19841I0J-2666D01*
G01*
X15352Y40129D02*
G03*
X14800Y38796I1333J-1333D01*
G01*
D02*
G03*
X14248Y40129I-1886J0D01*
G01*
X11120Y39214D02*
G03*
X10700Y38550I315J-664D01*
G01*
D02*
G03*
X10280Y39214I-735J0D01*
G01*
X10520Y40339D02*
G03*
X10912Y38338I1683J-709D01*
G01*
X11258Y40028D02*
G03*
X11753Y37497I2129J-897D01*
G01*
X11995Y39717D02*
G03*
X12594Y36656I2575J-1085D01*
G01*
X42051Y20533D02*
G03*
X41589Y20724I-462J-462D01*
G01*
X41136Y30720D02*
G03*
X42440Y31190I152J1622D01*
G01*
X51414Y13028D02*
G03*
X52700Y13300I435J1123D01*
G01*
X55621Y11748D02*
G03*
X55068Y10414I1333J-1333D01*
G01*
D02*
G03*
X54516Y11748I-1886J0D01*
G01*
X47433Y34258D02*
G03*
X48532Y36911I-2654J2654D01*
G01*
Y35384D02*
G03*
X49933Y33455I2029J0D01*
G01*
X48532Y36486D02*
G03*
X50181Y34215I2388J0D01*
G01*
X48532Y37587D02*
G03*
X50429Y34976I2746J0D01*
G01*
X44103Y24110D02*
G03*
X42938Y23627I0J-1648D01*
G01*
D02*
G03*
X43420Y24792I-1165J1165D01*
G01*
X48342Y38081D02*
G03*
X47700Y39650I-2191J19D01*
G01*
X52400Y38707D02*
G03*
X52604Y38214I697J0D01*
G01*
X26414Y24203D02*
G03*
X29227Y22299I2812J1124D01*
G01*
X27157Y24500D02*
G03*
X30408Y22299I3251J1300D01*
G01*
X27900Y24797D02*
G03*
X31590Y22299I3690J1475D01*
G01*
X29613D02*
G03*
X26773Y20000I0J-2903D01*
G01*
X30601Y22299D02*
G03*
X27556Y19834I0J-3114D01*
G01*
X31590Y22299D02*
G03*
X28338Y19667I0J-3324D01*
G01*
X13987Y27205D02*
G03*
X15743Y31446I-4241J4241D01*
G01*
X13421Y27771D02*
G03*
X15743Y33377I-5607J5607D01*
G01*
X41554Y43637D02*
G03*
X39735Y43887I-1074J-1074D01*
G01*
X42300Y42892D02*
G03*
X40127Y43190I-1283J-1283D01*
G01*
X19125Y44525D02*
G03*
X17639Y45141I-1485J-1485D01*
G01*
X17100Y46100D02*
G03*
X17602Y45437I689J0D01*
G01*
X18584Y45066D02*
G03*
X19469Y44700I886J886D01*
G01*
X70399Y43319D02*
G03*
X70000Y42355I964J-964D01*
G01*
X70965Y42754D02*
G03*
X70000Y40424I2330J-2330D01*
G01*
Y43263D02*
G03*
X70592Y42348I1004J0D01*
G01*
X70000Y44500D02*
G03*
X70920Y43077I1560J0D01*
G01*
X52927Y41958D02*
G03*
X52400Y40685I1273J-1273D01*
G01*
X52796Y41941D02*
G03*
X52400Y41537I8J-404D01*
G01*
X69608Y44892D02*
G03*
X68842Y45210I-766J-766D01*
G01*
X63500Y45500D02*
X66458D01*
X52400Y37657D02*
Y41700D01*
X31590Y20724D02*
X42034D01*
X44442Y20600D02*
X48400D01*
X41300Y33008D02*
X41450Y33158D01*
X44103D01*
X40284Y33008D02*
X41300D01*
X39242Y34050D02*
X40284Y33008D01*
X36958Y36334D02*
Y36450D01*
Y36334D02*
X39242Y34050D01*
X29459Y44509D02*
X29700Y44750D01*
X27639Y44509D02*
X29459D01*
X16242Y35892D02*
Y36650D01*
X15743Y35394D02*
X16242Y35892D01*
X15743Y33421D02*
Y35394D01*
X13900Y36592D02*
X13958Y36650D01*
X13900Y35850D02*
Y36592D01*
Y35850D02*
X14169Y35581D01*
Y33421D02*
Y35581D01*
X14158Y37050D02*
X14800Y37692D01*
Y40681D01*
X17847Y39397D02*
X19961D01*
X10700Y38550D02*
Y40097D01*
Y38550D02*
X12594Y36656D01*
Y33421D02*
Y36656D01*
X6800Y40481D02*
X7966Y39315D01*
Y38550D02*
Y39315D01*
Y38550D02*
X9066Y37450D01*
X9200D01*
X9900D01*
X11019Y36331D01*
X14158Y37050D02*
X14169Y37040D01*
X17600Y45292D02*
X18358D01*
X19141Y44509D01*
X19961D01*
X27639Y39397D02*
X28453D01*
X30700Y40708D02*
X31722Y39686D01*
X33646D01*
X40978Y44214D02*
X42300Y42892D01*
X42800Y23489D02*
X44103Y24792D01*
X8942Y8180D02*
X10330D01*
X31590Y30173D02*
Y31488D01*
X19681Y21511D02*
Y21862D01*
X7771Y30173D02*
Y30579D01*
X40990Y28362D02*
X41130Y28221D01*
X38880Y28352D02*
X38890Y28362D01*
X35878Y27808D02*
X36700D01*
X31590Y22299D02*
X34017D01*
X40990Y28362D02*
X41712D01*
X42571Y29221D01*
X44103D01*
X41122Y30530D02*
X41780D01*
X42440Y31190D01*
X44103D01*
X32850Y31600D02*
Y32748D01*
Y31600D02*
X32900Y31550D01*
X38880Y28352D02*
X40002D01*
X41838Y37588D02*
X41980Y37730D01*
X46564Y37588D02*
Y38686D01*
X44458Y40792D02*
X46564Y38686D01*
X44458Y40792D02*
Y40950D01*
X48532Y37588D02*
Y38818D01*
X46742Y40608D02*
Y40950D01*
X54930Y37588D02*
X55000Y37658D01*
X10870Y9453D02*
X11019Y9602D01*
X10870Y8720D02*
Y9453D01*
X10330Y8180D02*
X10870Y8720D01*
X31590Y25448D02*
X33518D01*
X35878Y27808D01*
X31590Y23874D02*
X33754D01*
X34972Y25092D01*
X36000D01*
X28342Y33421D02*
Y34392D01*
X28900Y34950D01*
X11019Y33421D02*
Y36331D01*
X6900Y31450D02*
X7771Y30579D01*
X6900Y31450D02*
Y34988D01*
X6738Y35150D02*
X6900Y34988D01*
X17100Y45792D02*
Y46100D01*
Y45792D02*
X17600Y45292D01*
X46742Y40608D02*
X47700Y39650D01*
X48532Y38818D01*
X54940Y31200D02*
X56600D01*
X54977Y27300D02*
X56600D01*
X54930Y27253D02*
X54977Y27300D01*
X54952Y29200D02*
X56600D01*
X54930Y29221D02*
X54952Y29200D01*
X46500Y23000D02*
X46564Y23064D01*
Y24014D01*
X42034Y20724D02*
X42158Y20600D01*
X48400D02*
X50501Y22701D01*
Y24792D01*
X39900Y17658D02*
X40000Y17558D01*
Y16500D02*
Y17558D01*
X48532Y32174D02*
Y37588D01*
X69100Y45400D02*
X70000Y44500D01*
X51700Y12300D02*
X52700Y13300D01*
X51131Y12300D02*
X51700D01*
X55068Y9668D02*
Y12300D01*
X52258Y20200D02*
Y21442D01*
X52200Y21500D02*
X52258Y21442D01*
X54407Y43707D02*
Y43966D01*
X52400Y41700D02*
X52793Y42093D01*
X52400Y37657D02*
X52469Y37588D01*
X66458Y45500D02*
X66558Y45400D01*
X54407Y43707D02*
X56200Y45500D01*
X63500D01*
X70000Y34858D02*
Y44500D01*
X20468Y22299D02*
X31590D01*
X19681Y21862D02*
X32850Y35032D01*
X15743Y25448D02*
Y33421D01*
X48532Y32174D02*
X49517Y31190D01*
X38890Y28362D02*
X40990D01*
X31590Y31488D02*
X32850Y32748D01*
D12*
X58550Y31700D02*
G03*
X58197Y32554I-1207J0D01*
G01*
X58552Y31729D02*
G03*
X58300Y32450I-873J100D01*
G01*
X41838Y37588D02*
G03*
X41300Y36290I1298J-1298D01*
G01*
X41838Y37588D02*
G03*
X41300Y36827I269J-760D01*
G01*
X38018Y26068D02*
G03*
X38890Y26078I431J451D01*
G01*
X36958Y31808D02*
G03*
X36700Y31185I624J-624D01*
G01*
X7562Y45959D02*
G03*
X6800Y44318I1389J-1641D01*
G01*
X47154Y34733D02*
G03*
X47671Y34640I371J578D01*
G01*
X46640Y34655D02*
G03*
X47154Y34733I163J660D01*
G01*
X46498Y34738D02*
G03*
X47154Y34733I334J790D01*
G01*
D02*
G03*
X46564Y33898I295J-835D01*
G01*
X47154Y34733D02*
G03*
X47990Y32717I2851J0D01*
G01*
X45580Y35127D02*
G03*
X47154Y34733I1115J1115D01*
G01*
D02*
G03*
X46564Y33898I295J-835D01*
G01*
X50390Y30070D02*
G03*
X49517Y30009I-363J-1084D01*
G01*
D02*
G03*
X49660Y30984I-448J564D01*
G01*
X50998Y29057D02*
G03*
X49517Y30009I-1889J-1312D01*
G01*
D02*
G03*
X49678Y30934I-433J552D01*
G01*
X50856Y29059D02*
G03*
X49517Y30009I-1817J-1142D01*
G01*
D02*
G03*
X48532Y27633I2376J-2376D01*
G01*
X47273Y32371D02*
G03*
X46564Y34143I-2421J59D01*
G01*
X48532Y32174D02*
G03*
X47273Y32371I-765J-765D01*
G01*
X53662Y33158D02*
G03*
X51761Y32371I0J-2688D01*
G01*
D02*
G03*
X50501Y32174I-495J-962D01*
G01*
X50414Y29999D02*
G03*
X51761Y30009I661J1631D01*
G01*
D02*
G03*
X51812Y28660I1654J-612D01*
G01*
X51761Y27647D02*
G03*
X51401Y28151I-789J-182D01*
G01*
X52248Y27006D02*
G03*
X51761Y27647I-1017J-268D01*
G01*
X50928Y27673D02*
G03*
X51761Y27647I448J992D01*
G01*
D02*
G03*
X51760Y26823I994J-413D01*
G01*
X49517Y27647D02*
G03*
X48903Y27033I434J-1048D01*
G01*
X50041Y28400D02*
G03*
X49517Y27647I647J-1010D01*
G01*
D02*
G03*
X48532Y25271I2376J-2376D01*
G01*
Y30009D02*
G03*
X49517Y27647I3326J0D01*
G01*
X48162Y26696D02*
G03*
X47273Y27647I-1593J-598D01*
G01*
X12594Y15224D02*
G03*
X13958Y15789I0J1929D01*
G01*
X13958Y15789D02*
G03*
X13393Y14425I1364J-1364D01*
G01*
X12594Y13626D02*
G03*
X11230Y13060I0J-1929D01*
G01*
X11230Y13060D02*
G03*
X11795Y14425I-1364J1364D01*
G01*
X17318Y18350D02*
G03*
X15954Y17785I0J-1929D01*
G01*
X15954Y17785D02*
G03*
X16519Y19149I-1364J1364D01*
G01*
X17318Y19948D02*
G03*
X18683Y20514I0J1929D01*
G01*
D02*
G03*
X18117Y19149I1364J-1364D01*
G01*
Y23874D02*
G03*
X18683Y22509I1929J0D01*
G01*
X18683Y22509D02*
G03*
X17318Y23074I-1364J-1364D01*
G01*
X16519Y23874D02*
G03*
X15954Y25238I-1929J0D01*
G01*
X15954Y25238D02*
G03*
X17318Y24673I1364J1364D01*
G01*
X12196Y26768D02*
G03*
X13160Y24438I3294J-2D01*
G01*
X11346Y26132D02*
G03*
X12458Y23726I3460J139D01*
G01*
X11250Y28544D02*
G03*
X13136Y24461I5872J235D01*
G01*
X11346Y26132D02*
G03*
X12458Y23726I3460J139D01*
G01*
X11250Y28544D02*
G03*
X13136Y24461I5872J235D01*
G01*
X12349Y25049D02*
G03*
X11272Y23981I284J-1364D01*
G01*
X12692Y25070D02*
G03*
X11281Y24026I-108J-1328D01*
G01*
X12029Y24439D02*
G03*
X13163Y27170I-2730J2734D01*
G01*
X16754Y28032D02*
G03*
X14424Y28995I-2327J-2331D01*
G01*
X17166Y29911D02*
G03*
X16122Y28500I283J-1302D01*
G01*
X17211Y29920D02*
G03*
X16143Y28843I296J-1362D01*
G01*
X17466Y28734D02*
G03*
X15060Y29845I-2544J-2348D01*
G01*
X16731Y28056D02*
G03*
X12648Y29942I-4318J-3985D01*
G01*
X17466Y28734D02*
G03*
X15060Y29845I-2544J-2348D01*
G01*
X16731Y28056D02*
G03*
X12648Y29942I-4318J-3985D01*
G01*
X14022Y28029D02*
G03*
X16753Y29163I-3J3863D01*
G01*
X13366Y28391D02*
G03*
X13553Y26972I1806J-484D01*
G01*
X13595Y26899D02*
G03*
X12387Y27826I-1723J-994D01*
G01*
X11810Y28442D02*
G03*
X10031Y31107I-4106J-815D01*
G01*
X15028Y29829D02*
G03*
X12451Y28739I27J-3656D01*
G01*
X15028Y29829D02*
G03*
X12451Y28739I27J-3656D01*
G01*
X13756Y28902D02*
G03*
X12639Y30171I-1819J-476D01*
G01*
X12788Y28649D02*
G03*
X10795Y30912I-3245J-848D01*
G01*
X13366Y28805D02*
G03*
X14293Y27597I1921J515D01*
G01*
X14220Y27639D02*
G03*
X12801Y27826I-935J-1619D01*
G01*
X11801Y28697D02*
G03*
X11203Y29898I-1205J150D01*
G01*
X14222Y28155D02*
G03*
X13149Y28023I-449J-777D01*
G01*
X13393Y28598D02*
G03*
X13958Y27234I1929J0D01*
G01*
X13958Y27234D02*
G03*
X12594Y27799I-1364J-1364D01*
G01*
X10085Y31161D02*
G03*
X12750Y29382I3480J2327D01*
G01*
X11021Y28554D02*
G03*
X12290Y27436I1744J702D01*
G01*
X10280Y30397D02*
G03*
X12543Y28404I3112J1252D01*
G01*
X12453Y28741D02*
G03*
X11363Y26164I2566J-2604D01*
G01*
X12453Y28741D02*
G03*
X11363Y26164I2566J-2604D01*
G01*
X11795Y28598D02*
G03*
X11230Y29962I-1929J0D01*
G01*
X11230Y29962D02*
G03*
X12594Y29397I1364J1364D01*
G01*
X13169Y28043D02*
G03*
X13037Y26970I646J-624D01*
G01*
X11294Y29989D02*
G03*
X12495Y29391I1052J607D01*
G01*
X24462Y46033D02*
G03*
X24027Y45466I467J-809D01*
G01*
X24514Y46073D02*
G03*
X24200Y45316I758J-758D01*
G01*
X42400Y39550D02*
G03*
X42300Y40608I-690J469D01*
G01*
X42423Y35127D02*
G03*
X41366Y35248I-605J-605D01*
G01*
X7400Y46150D02*
G03*
X7222Y44853I766J-766D01*
G01*
X6936Y8767D02*
G03*
X6709Y8219I548J-548D01*
G01*
X39911Y39686D02*
G03*
X42224Y40644I0J3272D01*
G01*
X47671Y32230D02*
G03*
X46578Y34191I-2188J66D01*
G01*
X46671Y32260D02*
G03*
X45128Y35028I-3087J93D01*
G01*
X45128Y35028D02*
G03*
X48434Y34807I1878J3253D01*
G01*
X51529Y34187D02*
G03*
X54012Y33158I2483J2483D01*
G01*
X53517D02*
G03*
X51258Y31560I0J-2395D01*
G01*
X54930Y33158D02*
G03*
X52201Y31227I0J-2894D01*
G01*
X46673Y32305D02*
G03*
X45580Y35127I-3743J172D01*
G01*
X46552Y34154D02*
G03*
X48677Y33819I1293J1293D01*
G01*
X45580Y35127D02*
G03*
X48222Y34709I1608J1608D01*
G01*
X50157Y28474D02*
G03*
X48532Y26140I864J-2334D01*
G01*
X50504Y27536D02*
G03*
X48532Y24704I1048J-2832D01*
G01*
Y25710D02*
G03*
X47504Y28193I-3511J0D01*
G01*
X52469Y27229D02*
G03*
X49526Y30359I-3136J0D01*
G01*
X52469Y26166D02*
G03*
X49465Y29361I-3201J0D01*
G01*
X52469Y25103D02*
G03*
X49404Y28363I-3266J0D01*
G01*
X46430Y34277D02*
G03*
X44595Y35037I-1835J-1835D01*
G01*
X44515Y37176D02*
G03*
X44103Y36181I995J-995D01*
G01*
D02*
G03*
X43691Y37176I-1407J0D01*
G01*
D02*
G03*
X42696Y37588I-995J-995D01*
G01*
D02*
G03*
X43691Y38000I0J1407D01*
G01*
X54518Y24380D02*
G03*
X53523Y24792I-995J-995D01*
G01*
D02*
G03*
X54518Y25204I0J1407D01*
G01*
X14126Y23004D02*
G03*
X12642Y28550I-5541J1489D01*
G01*
X13160Y23264D02*
G03*
X11418Y29774I-6504J1748D01*
G01*
X12194Y23523D02*
G03*
X10194Y30998I-7468J2007D01*
G01*
X11228Y23783D02*
G03*
X8970Y32221I-8431J2266D01*
G01*
X12642Y28550D02*
G03*
X18188Y27066I4057J4057D01*
G01*
X11418Y29774D02*
G03*
X17928Y28032I4763J4763D01*
G01*
X10194Y30998D02*
G03*
X17669Y28998I5468J5468D01*
G01*
X8970Y32221D02*
G03*
X17409Y29963I6173J6173D01*
G01*
X33411Y44149D02*
G03*
X31622Y43913I-741J-1284D01*
G01*
X32912Y43283D02*
G03*
X30700Y42992I-916J-1587D01*
G01*
X32908Y44996D02*
G03*
X33646Y46704I-1610J1708D01*
G01*
D02*
G03*
X34383Y44996I2348J0D01*
G01*
X39599Y39744D02*
G03*
X41524Y39833I914J1100D01*
G01*
X40238Y40513D02*
G03*
X42300Y40608I979J1178D01*
G01*
X40491Y40208D02*
G03*
X41378Y39686I887J493D01*
G01*
D02*
G03*
X40491Y39164I0J-1015D01*
G01*
X40933Y35659D02*
G03*
X39242Y36359I-1691J-1691D01*
G01*
X17930Y42678D02*
G03*
X19469Y42041I1539J1539D01*
G01*
X28835Y39015D02*
G03*
X28131Y39307I-704J-704D01*
G01*
X20952Y41950D02*
G03*
X23249Y42901I0J3248D01*
G01*
X23327Y44348D02*
G03*
X24200Y46113I-1348J1765D01*
G01*
X40142Y36450D02*
X41300Y35292D01*
X39242Y36450D02*
X40142D01*
X33646Y44214D02*
Y46704D01*
X42400Y39550D02*
Y40508D01*
X42300Y40608D02*
X42400Y40508D01*
X24200Y46113D02*
X24337Y46250D01*
X24200Y42750D02*
Y46113D01*
X23800Y42350D02*
X24200Y42750D01*
X23400Y41950D02*
X23800Y42350D01*
X19961Y41950D02*
X23400D01*
X6800Y45550D02*
X7400Y46150D01*
X6800Y44418D02*
Y45550D01*
X18658Y41950D02*
X19961D01*
X17600Y43008D02*
X18658Y41950D01*
X28453Y39397D02*
X29900Y37950D01*
X31922Y44214D02*
X33646D01*
X30700Y42992D02*
X31922Y44214D01*
X39354Y39686D02*
X41378D01*
X54930Y33158D02*
X57591D01*
X6658Y8489D02*
X12594Y14425D01*
Y28598D02*
X15743Y25448D01*
X17318Y23874D01*
X19681Y21511D01*
X8970Y32222D02*
X12594Y28598D01*
X8970Y32222D02*
Y35250D01*
X44103Y35127D02*
X45580D01*
X44103D02*
Y37588D01*
X38880Y26068D02*
X38890Y26078D01*
X52469Y24792D02*
Y26938D01*
Y24792D02*
X54930D01*
X51760Y27646D02*
X51761Y27647D01*
X51760Y27620D02*
Y27646D01*
X38890Y26078D02*
X40990D01*
X19681Y21511D02*
X20468Y22299D01*
X38018Y26068D02*
X38880D01*
X36700Y30092D02*
Y31550D01*
X36958Y31808D02*
Y34050D01*
X36700Y31550D02*
X36958Y31808D01*
X42800Y35050D02*
X44026D01*
X44103Y35127D01*
X41838Y37588D02*
X44103D01*
X41300Y35392D02*
Y37050D01*
X41838Y37588D01*
X44458Y40950D02*
Y43250D01*
Y45720D01*
X44438Y45740D02*
X44458Y45720D01*
X46742Y43250D02*
X46872D01*
X6658Y8180D02*
Y8489D01*
X35942Y22750D02*
X36000Y22808D01*
X34017Y22299D02*
X34468Y22750D01*
X35942D01*
X42423Y35127D02*
X44103D01*
X42158Y35392D02*
X42423Y35127D01*
X44438Y45740D02*
Y45762D01*
X43500Y46700D02*
X44438Y45762D01*
X57591Y33158D02*
X58300Y32450D01*
X12594Y14425D02*
X19681Y21511D01*
X48532Y24792D02*
Y30206D01*
X45580Y35127D02*
X48532Y32174D01*
Y30206D02*
X49517Y31190D01*
X50501Y32174D01*
X49517Y31190D02*
X51760Y27620D01*
X49517Y31190D02*
X52469Y26938D01*
X50501Y32174D02*
X51485Y33158D01*
X54930D01*
X41300Y35392D02*
X42158D01*
X41378Y39686D02*
X42300Y40608D01*
X46742Y40950D02*
Y43250D01*
D13*
X28328Y8301D02*
G03*
X28838Y7795I688J184D01*
G01*
X28342Y8827D02*
G03*
X28887Y7772I1294J0D01*
G01*
X28342Y9602D02*
G03*
X29118Y8099I1844J0D01*
G01*
X41102Y24301D02*
G03*
X41768Y24577I0J943D01*
G01*
X41673Y24482D02*
G03*
X41453Y23949I532J-532D01*
G01*
X43611Y26862D02*
G03*
X42840Y26543I0J-1091D01*
G01*
X42988Y26691D02*
G03*
X43220Y27253I-562J562D01*
G01*
X28479Y8579D02*
G03*
X28342Y8248I331J-331D01*
G01*
D02*
G03*
X28205Y8579I-468J0D01*
G01*
X14134Y8134D02*
G03*
X14375Y8716I-582J582D01*
G01*
X13451Y7451D02*
G03*
X13975Y8716I-1265J1265D01*
G01*
X14306Y8579D02*
G03*
X14169Y8248I331J-331D01*
G01*
D02*
G03*
X14032Y8579I-468J0D01*
G01*
X7750Y19170D02*
X7771Y19149D01*
X41102Y23910D02*
X41207D01*
X43550Y27253D02*
X44103D01*
X42400Y26103D02*
X43550Y27253D01*
X42400Y25208D02*
Y26103D01*
X41102Y23910D02*
X42400Y25208D01*
X54930Y29221D02*
X54988Y29280D01*
X28342Y8108D02*
Y9602D01*
Y8108D02*
X28800Y7650D01*
X8049Y22299D02*
X8100Y22350D01*
X7771Y22299D02*
X8049D01*
X14169Y8169D02*
Y9602D01*
X11750Y5750D02*
X14169Y8169D01*
X9850Y5750D02*
X11750D01*
X8550Y4450D02*
X9850Y5750D01*
X54930Y31190D02*
X54940Y31200D01*
X55090Y31350D01*
D14*
X37182Y5018D02*
G03*
X37500Y5786I-768J768D01*
G01*
D02*
G03*
X37818Y5018I1086J0D01*
G01*
X30500Y12850D02*
X31590D01*
X33350D01*
X37500Y8700D01*
Y4700D02*
Y8700D01*
D15*
X49559Y34643D02*
G03*
X50396Y35558I-687J1469D01*
G01*
X48899Y33572D02*
G03*
X49615Y34717I-1024J1437D01*
G01*
X49505Y35669D02*
G03*
X49421Y34703I1124J-584D01*
G01*
X49580Y34810D02*
G03*
X48816Y34888I-440J-531D01*
G01*
X50501Y32599D02*
G03*
X49587Y34804I-3119J0D01*
G01*
Y34663D02*
G03*
X50501Y36868I-2206J2206D01*
G01*
X49587Y32300D02*
G03*
X50501Y34506I-2206J2206D01*
G01*
X46983Y46528D02*
G03*
X46673Y45779I748J-748D01*
G01*
X48966Y33619D02*
G03*
X50501Y35846I-848J2227D01*
G01*
X48539Y34741D02*
G03*
X50501Y37587I-1084J2847D01*
G01*
Y36428D02*
G03*
X51459Y34116I3270J0D01*
G01*
X48532Y37588D02*
X50501D01*
X53150Y47550D02*
X53200Y47600D01*
X48005Y47550D02*
X53150D01*
X46722Y46267D02*
X48005Y47550D01*
X46722Y45740D02*
Y46267D01*
X50501Y32174D02*
Y37588D01*
D16*
X11538Y46447D02*
G03*
X12610Y46003I1072J1072D01*
G01*
D02*
G03*
X11538Y45559I0J-1516D01*
G01*
X13416Y46003D02*
X14800Y44618D01*
X10700Y46003D02*
X13416D01*
D17*
X66558Y45400D02*
D03*
X68842D02*
D03*
X39242Y36450D02*
D03*
X36958D02*
D03*
X54142Y17900D02*
D03*
X51858D02*
D03*
X52258Y20200D02*
D03*
X54542D02*
D03*
X44942Y14700D02*
D03*
X42658D02*
D03*
X41122Y30530D02*
D03*
X38838D02*
D03*
X54542Y15700D02*
D03*
X52258D02*
D03*
X41102Y23910D02*
D03*
X38818D02*
D03*
X44442Y20600D02*
D03*
X42158D02*
D03*
X46722Y45740D02*
D03*
X44438D02*
D03*
X8942Y8180D02*
D03*
X6658D02*
D03*
X39242Y34050D02*
D03*
X36958D02*
D03*
X44458Y43250D02*
D03*
X46742D02*
D03*
X44458Y40950D02*
D03*
X46742D02*
D03*
X6758Y35450D02*
D03*
X9042D02*
D03*
X13958Y36650D02*
D03*
X16242D02*
D03*
X49258Y40300D02*
D03*
X51542D02*
D03*
X73142Y42900D02*
D03*
X70858D02*
D03*
D18*
X52793Y42093D02*
D03*
X54407Y43707D02*
D03*
D19*
X27639Y41950D02*
D03*
Y39397D02*
D03*
Y44509D02*
D03*
X19961D02*
D03*
Y41950D02*
D03*
Y39397D02*
D03*
X54930Y27253D02*
D03*
Y29221D02*
D03*
Y31190D02*
D03*
Y33158D02*
D03*
Y35127D02*
D03*
X44103D02*
D03*
Y33158D02*
D03*
Y31190D02*
D03*
Y29221D02*
D03*
Y27253D02*
D03*
D20*
X23800Y42350D02*
D03*
D21*
X17600Y43008D02*
D03*
Y45292D02*
D03*
X42300Y40608D02*
D03*
Y42892D02*
D03*
X39900Y19942D02*
D03*
Y17658D02*
D03*
X36000Y25092D02*
D03*
Y22808D02*
D03*
X36700Y27808D02*
D03*
Y30092D02*
D03*
X32850Y32748D02*
D03*
Y35032D02*
D03*
X41300Y33008D02*
D03*
Y35292D02*
D03*
X38880Y28352D02*
D03*
Y26068D02*
D03*
X40990Y28362D02*
D03*
Y26078D02*
D03*
X30700Y40708D02*
D03*
Y42992D02*
D03*
X56500Y47442D02*
D03*
Y45158D02*
D03*
X63500Y48542D02*
D03*
Y46258D02*
D03*
D22*
X33646Y39686D02*
D03*
D23*
X39354D02*
D03*
Y44214D02*
D03*
X33646D02*
D03*
D24*
X7771Y30173D02*
D03*
Y28598D02*
D03*
Y27023D02*
D03*
Y25448D02*
D03*
Y23874D02*
D03*
Y22299D02*
D03*
Y20724D02*
D03*
Y19149D02*
D03*
Y17574D02*
D03*
Y16000D02*
D03*
Y14425D02*
D03*
Y12850D02*
D03*
X31590D02*
D03*
Y14425D02*
D03*
Y16000D02*
D03*
Y17574D02*
D03*
Y19149D02*
D03*
Y20724D02*
D03*
Y22299D02*
D03*
Y23874D02*
D03*
Y25448D02*
D03*
Y27023D02*
D03*
Y28598D02*
D03*
Y30173D02*
D03*
D25*
X11019Y9602D02*
D03*
X12594D02*
D03*
X14169D02*
D03*
X15743D02*
D03*
X17318D02*
D03*
X18893D02*
D03*
X20468D02*
D03*
X22043D02*
D03*
X23618D02*
D03*
X25192D02*
D03*
X26767D02*
D03*
X28342D02*
D03*
Y33421D02*
D03*
X26767D02*
D03*
X25192D02*
D03*
X23618D02*
D03*
X22043D02*
D03*
X20468D02*
D03*
X18893D02*
D03*
X17318D02*
D03*
X15743D02*
D03*
X14169D02*
D03*
X12594D02*
D03*
X11019D02*
D03*
D26*
X19681Y21511D02*
D03*
D27*
X54930Y24792D02*
D03*
Y37588D02*
D03*
X44103D02*
D03*
Y24792D02*
D03*
D28*
X52469Y37588D02*
D03*
X50501D02*
D03*
X48532D02*
D03*
X46564D02*
D03*
Y24792D02*
D03*
X48532D02*
D03*
X50501D02*
D03*
X52469D02*
D03*
D29*
X49517Y31190D02*
D03*
D30*
X55068Y12300D02*
D03*
X51131D02*
D03*
D31*
X10700Y40097D02*
D03*
Y46003D02*
D03*
D32*
X14800Y44618D02*
D03*
Y40681D02*
D03*
D33*
X6800Y40481D02*
D03*
Y44418D02*
D03*
D34*
X30300Y49900D02*
D03*
D35*
X30500Y2100D02*
D03*
D36*
X58800Y21700D02*
D03*
D37*
X2000Y26050D02*
D03*
D38*
X72500Y33500D02*
D03*
Y5941D02*
D03*
D39*
X69291Y19721D02*
D03*
X75709D02*
D03*
D40*
X70000Y34858D02*
X70558Y34300D01*
D41*
X68450Y50432D02*
D03*
D42*
X74400Y42900D02*
D03*
X29700Y44750D02*
D03*
X24337Y46250D02*
D03*
X4800Y4450D02*
D03*
X9200Y37450D02*
D03*
X49500Y4700D02*
D03*
X7400Y46150D02*
D03*
X10330Y8180D02*
D03*
X27000Y35350D02*
D03*
X23790Y35710D02*
D03*
X21880Y35540D02*
D03*
X19980Y35700D02*
D03*
X18030Y35950D02*
D03*
X6400Y38150D02*
D03*
X38900Y31950D02*
D03*
X32900Y31550D02*
D03*
X40002Y28352D02*
D03*
X43500Y46700D02*
D03*
X56200Y35050D02*
D03*
X37800Y23850D02*
D03*
X22200Y7550D02*
D03*
X22000Y4600D02*
D03*
X25400Y36850D02*
D03*
X28900Y34950D02*
D03*
X37500Y4700D02*
D03*
X28800Y7650D02*
D03*
X4300Y43100D02*
D03*
X4200Y38800D02*
D03*
X58800Y39400D02*
D03*
X4800Y12150D02*
D03*
X4100Y30800D02*
D03*
X4300Y46900D02*
D03*
X56500Y49650D02*
D03*
X10100Y49300D02*
D03*
X37700Y49200D02*
D03*
X4800Y8200D02*
D03*
X4400Y15500D02*
D03*
X4100Y23100D02*
D03*
Y18900D02*
D03*
Y34900D02*
D03*
Y26700D02*
D03*
X17100Y46100D02*
D03*
X17847Y39397D02*
D03*
X4700Y49800D02*
D03*
X53200Y47600D02*
D03*
X11500Y4400D02*
D03*
X15000Y4500D02*
D03*
X18100Y4600D02*
D03*
X25300Y7300D02*
D03*
X29000Y4300D02*
D03*
X41100Y14600D02*
D03*
X46500Y23000D02*
D03*
X53500Y4700D02*
D03*
X45600D02*
D03*
X41700D02*
D03*
X56600Y31200D02*
D03*
Y29200D02*
D03*
Y27300D02*
D03*
X56300Y16100D02*
D03*
X55900Y18600D02*
D03*
X44900Y16700D02*
D03*
X58700Y34500D02*
D03*
X58800Y22600D02*
D03*
Y4300D02*
D03*
Y6700D02*
D03*
Y9200D02*
D03*
Y11400D02*
D03*
Y13600D02*
D03*
Y15700D02*
D03*
X58100Y2100D02*
D03*
X58800Y18000D02*
D03*
Y20200D02*
D03*
Y31700D02*
D03*
X59000Y28200D02*
D03*
X58800Y37000D02*
D03*
X56600Y41800D02*
D03*
X61100Y42600D02*
D03*
X66400Y42500D02*
D03*
Y40700D02*
D03*
X71100Y48100D02*
D03*
X72900Y46900D02*
D03*
X73500Y45000D02*
D03*
X77300Y43300D02*
D03*
Y45700D02*
D03*
Y48300D02*
D03*
X63600Y40700D02*
D03*
X61200D02*
D03*
X58800Y25300D02*
D03*
X54900Y21400D02*
D03*
X63600Y42600D02*
D03*
X77300Y40900D02*
D03*
X73500Y40800D02*
D03*
X65800Y48300D02*
D03*
X68400D02*
D03*
X61400D02*
D03*
X58600D02*
D03*
Y42600D02*
D03*
X52700Y13300D02*
D03*
X55068Y9668D02*
D03*
X50400Y17900D02*
D03*
X55700Y39900D02*
D03*
D43*
X33646Y46704D02*
D03*
X42400Y39550D02*
D03*
X36700Y36450D02*
D03*
X29900Y37950D02*
D03*
X47273Y27647D02*
D03*
X49517D02*
D03*
X51761D02*
D03*
Y30009D02*
D03*
Y32371D02*
D03*
X47273D02*
D03*
X49517D02*
D03*
X47273Y30009D02*
D03*
X49517D02*
D03*
Y34733D02*
D03*
X47154D02*
D03*
X51879D02*
D03*
X36958Y31808D02*
D03*
X38018Y26068D02*
D03*
X42800Y23489D02*
D03*
X7750Y19170D02*
D03*
X8460Y25450D02*
D03*
X41838Y37588D02*
D03*
X8300Y23950D02*
D03*
X8100Y22350D02*
D03*
X8900Y27300D02*
D03*
X2050Y6370D02*
D03*
X1950Y14170D02*
D03*
Y37770D02*
D03*
X1600Y21700D02*
D03*
X1900Y29900D02*
D03*
Y45600D02*
D03*
X5950Y2070D02*
D03*
X12050D02*
D03*
X20050D02*
D03*
X27850Y2170D02*
D03*
X35750D02*
D03*
X43550D02*
D03*
X51450Y2070D02*
D03*
X19850Y49670D02*
D03*
X27750D02*
D03*
X47350Y49570D02*
D03*
X46700Y42150D02*
D03*
X47700Y39650D02*
D03*
X40000Y16500D02*
D03*
X52200Y21500D02*
D03*
X48600Y42000D02*
D03*
X49100Y43900D02*
D03*
X50600Y45400D02*
D03*
X52300Y46000D02*
D03*
D44*
X12594Y28598D02*
D03*
X17318D02*
D03*
X22043D02*
D03*
X26767D02*
D03*
X12594Y23874D02*
D03*
X17318D02*
D03*
X22043D02*
D03*
X26767D02*
D03*
X12594Y19149D02*
D03*
X17318D02*
D03*
X22043D02*
D03*
X26767D02*
D03*
X12594Y14425D02*
D03*
X17318D02*
D03*
X22043D02*
D03*
X26767D02*
D03*
D45*
X32300Y8250D02*
D03*
X46300Y12400D02*
D03*
M02*
