G04 Layer_Color=16711935*
%FSLAX24Y24*%
%MOIN*%
G70*
G01*
G75*
%ADD183C,0.0787*%
%ADD189R,0.0462X0.0922*%
%ADD226O,0.0414X0.0690*%
%ADD227C,0.1320*%
%ADD228R,0.0651X0.0651*%
%ADD229C,0.0651*%
%ADD230O,0.0690X0.0414*%
%ADD231R,0.0651X0.0651*%
%ADD232C,0.0761*%
%ADD233C,0.0300*%
%ADD234C,0.7087*%
%ADD235R,0.2060X0.2060*%
G04:AMPARAMS|DCode=236|XSize=399.7mil|YSize=399.7mil|CornerRadius=101.4mil|HoleSize=0mil|Usage=FLASHONLY|Rotation=270.000|XOffset=0mil|YOffset=0mil|HoleType=Round|Shape=RoundedRectangle|*
%AMROUNDEDRECTD236*
21,1,0.3997,0.1969,0,0,270.0*
21,1,0.1969,0.3997,0,0,270.0*
1,1,0.2029,-0.0984,-0.0984*
1,1,0.2029,-0.0984,0.0984*
1,1,0.2029,0.0984,0.0984*
1,1,0.2029,0.0984,-0.0984*
%
%ADD236ROUNDEDRECTD236*%
%ADD237R,0.0934X0.0462*%
D183*
X5411Y1120D02*
D03*
X50973Y23600D02*
D03*
D189*
X16400Y18577D02*
D03*
X15400D02*
D03*
X18400Y18577D02*
D03*
X17400Y18577D02*
D03*
X14400D02*
D03*
X13400D02*
D03*
X12400Y18577D02*
D03*
X11400Y18577D02*
D03*
X18400Y17423D02*
D03*
X17400Y17423D02*
D03*
X16400D02*
D03*
X13400D02*
D03*
X12400Y17423D02*
D03*
X15400Y17423D02*
D03*
X14400D02*
D03*
X10400Y18577D02*
D03*
X9400D02*
D03*
X8400Y18577D02*
D03*
X7400D02*
D03*
X11400Y17423D02*
D03*
X10400D02*
D03*
X9400D02*
D03*
X8400Y17423D02*
D03*
X7400D02*
D03*
X17000Y2423D02*
D03*
Y3577D02*
D03*
X18000Y2423D02*
D03*
Y3577D02*
D03*
X12000Y2423D02*
D03*
Y3577D02*
D03*
X13000D02*
D03*
Y2423D02*
D03*
X14000Y3577D02*
D03*
Y2423D02*
D03*
X16000Y3577D02*
D03*
Y2423D02*
D03*
X15000Y3577D02*
D03*
Y2423D02*
D03*
X11000D02*
D03*
Y3577D02*
D03*
X19000Y22577D02*
D03*
Y21423D02*
D03*
X18000Y22577D02*
D03*
Y21423D02*
D03*
X24000Y22577D02*
D03*
Y21423D02*
D03*
X23000D02*
D03*
Y22577D02*
D03*
X22000Y21423D02*
D03*
Y22577D02*
D03*
X20000Y21423D02*
D03*
Y22577D02*
D03*
X21000Y21423D02*
D03*
Y22577D02*
D03*
X25000D02*
D03*
Y21423D02*
D03*
X8400Y22577D02*
D03*
Y21423D02*
D03*
X7400Y22577D02*
D03*
Y21423D02*
D03*
X16400D02*
D03*
Y22577D02*
D03*
X12400D02*
D03*
Y21423D02*
D03*
X11400Y22577D02*
D03*
Y21423D02*
D03*
X13400Y22577D02*
D03*
Y21423D02*
D03*
X14400Y22577D02*
D03*
Y21423D02*
D03*
X15400D02*
D03*
Y22577D02*
D03*
X9400Y21423D02*
D03*
Y22577D02*
D03*
X10400Y21423D02*
D03*
Y22577D02*
D03*
X20000Y3577D02*
D03*
Y2423D02*
D03*
X24000D02*
D03*
Y3577D02*
D03*
X25000Y2423D02*
D03*
Y3577D02*
D03*
X23000Y2423D02*
D03*
Y3577D02*
D03*
X22000Y2423D02*
D03*
Y3577D02*
D03*
X21000D02*
D03*
Y2423D02*
D03*
X28000Y22577D02*
D03*
Y21423D02*
D03*
X27000Y22577D02*
D03*
Y21423D02*
D03*
X33000Y22577D02*
D03*
Y21423D02*
D03*
X32000D02*
D03*
Y22577D02*
D03*
X31000Y21423D02*
D03*
Y22577D02*
D03*
X29000Y21423D02*
D03*
Y22577D02*
D03*
X30000Y21423D02*
D03*
Y22577D02*
D03*
X34000D02*
D03*
Y21423D02*
D03*
D226*
X36626Y800D02*
D03*
X34027D02*
D03*
D227*
X26000Y5000D02*
D03*
Y16000D02*
D03*
X5500Y3000D02*
D03*
X6000Y22000D02*
D03*
X38000Y3000D02*
D03*
X35500Y22000D02*
D03*
D228*
X12000Y9000D02*
D03*
X3220Y5490D02*
D03*
D229*
X12000Y10000D02*
D03*
Y11000D02*
D03*
X26750Y2250D02*
D03*
X49250Y24000D02*
D03*
X23000Y24500D02*
D03*
X22000D02*
D03*
X24000D02*
D03*
X25000Y23500D02*
D03*
X23000D02*
D03*
X22000D02*
D03*
X24000D02*
D03*
X21000Y24500D02*
D03*
Y23500D02*
D03*
X19000Y24500D02*
D03*
X18000D02*
D03*
X20000D02*
D03*
Y23500D02*
D03*
X18000D02*
D03*
X19000D02*
D03*
X13400Y24500D02*
D03*
X12400D02*
D03*
X15400D02*
D03*
X14400D02*
D03*
X16400Y23500D02*
D03*
X15400D02*
D03*
X13400D02*
D03*
X12400D02*
D03*
X14400D02*
D03*
X11400Y24500D02*
D03*
X10400Y23500D02*
D03*
Y24500D02*
D03*
X8400D02*
D03*
X7400D02*
D03*
X9400D02*
D03*
Y23500D02*
D03*
X11400D02*
D03*
X7400D02*
D03*
X8400D02*
D03*
X32000Y24500D02*
D03*
X31000D02*
D03*
X33000D02*
D03*
X34000Y23500D02*
D03*
X32000D02*
D03*
X31000D02*
D03*
X33000D02*
D03*
X30000Y24500D02*
D03*
Y23500D02*
D03*
X28000Y24500D02*
D03*
X27000D02*
D03*
X29000D02*
D03*
Y23500D02*
D03*
X27000D02*
D03*
X28000D02*
D03*
X3220Y4490D02*
D03*
X25000Y1500D02*
D03*
X24000D02*
D03*
Y500D02*
D03*
X22000Y1500D02*
D03*
X21000D02*
D03*
X23000D02*
D03*
X25000Y500D02*
D03*
X23000D02*
D03*
X21000D02*
D03*
X22000D02*
D03*
X20000Y1500D02*
D03*
X18000D02*
D03*
X17000D02*
D03*
X18000Y500D02*
D03*
X16000Y1500D02*
D03*
X14000D02*
D03*
X13000D02*
D03*
X15000D02*
D03*
X17000Y500D02*
D03*
X16000D02*
D03*
X14000D02*
D03*
X13000D02*
D03*
X15000D02*
D03*
X12000Y1500D02*
D03*
X11000D02*
D03*
X12000Y500D02*
D03*
D230*
X765Y13799D02*
D03*
Y11201D02*
D03*
D231*
X25000Y24500D02*
D03*
X16400D02*
D03*
X34000D02*
D03*
X20000Y500D02*
D03*
X11000D02*
D03*
D232*
X2880Y7590D02*
D03*
Y16929D02*
D03*
Y20157D02*
D03*
D233*
X1590Y10630D02*
D03*
X5930Y15480D02*
D03*
X6310Y14550D02*
D03*
X6620Y11560D02*
D03*
X6697Y12255D02*
D03*
X4697Y15255D02*
D03*
X3370Y15434D02*
D03*
X2790Y13554D02*
D03*
X1360Y11844D02*
D03*
Y12754D02*
D03*
X4326Y11795D02*
D03*
X3700Y13504D02*
D03*
X5296Y11670D02*
D03*
X4500Y14500D02*
D03*
X4216Y11080D02*
D03*
X2446Y11870D02*
D03*
X6300Y12360D02*
D03*
X3210Y14500D02*
D03*
X2760Y15190D02*
D03*
X7140Y14630D02*
D03*
X3140Y11780D02*
D03*
X2670Y11360D02*
D03*
X4650Y10990D02*
D03*
X5060D02*
D03*
X5020Y9660D02*
D03*
X4670D02*
D03*
D234*
X4500Y12494D02*
D03*
D235*
Y17644D02*
D03*
Y7344D02*
D03*
D236*
Y12494D02*
D03*
D237*
X24438Y12000D02*
D03*
X26662D02*
D03*
X24438Y13000D02*
D03*
Y14000D02*
D03*
X26662Y13000D02*
D03*
Y14000D02*
D03*
M02*
