G04 Layer_Physical_Order=4*
G04 Layer_Color=16711680*
%FSLAX24Y24*%
%MOIN*%
G70*
G01*
G75*
%ADD10C,0.0065*%
%ADD12C,0.0060*%
%ADD24C,0.0394*%
%ADD48R,0.0402X0.0862*%
%ADD85C,0.0400*%
%ADD86C,0.0300*%
%ADD87C,0.0100*%
%ADD88C,0.0150*%
%ADD90C,0.0080*%
%ADD91C,0.0250*%
%ADD92C,0.0200*%
%ADD96C,0.0500*%
%ADD105O,0.0354X0.0630*%
%ADD106C,0.1260*%
%ADD107R,0.0591X0.0591*%
%ADD108C,0.0591*%
%ADD109C,0.0390*%
%ADD110O,0.0630X0.0354*%
%ADD111R,0.0591X0.0591*%
%ADD112C,0.0701*%
%ADD113C,0.0240*%
%ADD115C,0.1969*%
%ADD116R,0.2000X0.2000*%
G04:AMPARAMS|DCode=117|XSize=393.7mil|YSize=393.7mil|CornerRadius=98.4mil|HoleSize=0mil|Usage=FLASHONLY|Rotation=270.000|XOffset=0mil|YOffset=0mil|HoleType=Round|Shape=RoundedRectangle|*
%AMROUNDEDRECTD117*
21,1,0.3937,0.1969,0,0,270.0*
21,1,0.1969,0.3937,0,0,270.0*
1,1,0.1969,-0.0984,-0.0984*
1,1,0.1969,-0.0984,0.0984*
1,1,0.1969,0.0984,0.0984*
1,1,0.1969,0.0984,-0.0984*
%
%ADD117ROUNDEDRECTD117*%
%ADD118R,0.0874X0.0402*%
%ADD119C,0.0240*%
%ADD120C,0.0157*%
G36*
X10965Y10146D02*
Y9846D01*
X10384Y9265D01*
X7598D01*
X7567Y9339D01*
X7994Y9766D01*
X10396D01*
X10474Y9782D01*
X10540Y9826D01*
X10891Y10177D01*
X10965Y10146D01*
D02*
G37*
G36*
X41234Y9729D02*
X41217Y9632D01*
X41181Y9609D01*
X41133Y9536D01*
X41118Y9464D01*
X41034Y9447D01*
X40961Y9399D01*
X40913Y9326D01*
X40896Y9240D01*
X40913Y9154D01*
X40936Y9120D01*
X40438Y8623D01*
X37925D01*
X37861Y8686D01*
X37880Y8747D01*
X37893Y8768D01*
X37959Y8811D01*
X38007Y8884D01*
X38024Y8970D01*
X38007Y9056D01*
X37959Y9129D01*
X37886Y9177D01*
X37800Y9194D01*
X37714Y9177D01*
X37641Y9129D01*
X37625Y9104D01*
X37532Y9099D01*
X37510Y9113D01*
X37499Y9201D01*
X37547Y9274D01*
X37558Y9330D01*
X37580Y9326D01*
X37666Y9343D01*
X37739Y9391D01*
X37787Y9464D01*
X37788Y9470D01*
X37860Y9456D01*
X37946Y9473D01*
X38019Y9521D01*
X38067Y9594D01*
X38084Y9680D01*
X38067Y9766D01*
X38019Y9839D01*
X38005Y9847D01*
X38030Y9927D01*
X41035D01*
X41234Y9729D01*
D02*
G37*
G36*
X51696Y24831D02*
X51777Y24777D01*
X51831Y24696D01*
X51835Y24675D01*
X51847Y24600D01*
X51847Y24520D01*
X51847Y24520D01*
Y17900D01*
X51831Y17880D01*
X50401D01*
X50400Y153D01*
X25328D01*
X25309Y180D01*
X25293Y233D01*
X25345Y301D01*
X25385Y397D01*
X25392Y450D01*
X24608D01*
X24615Y397D01*
X24655Y301D01*
X24707Y233D01*
X24691Y180D01*
X24672Y153D01*
X24328D01*
X24309Y180D01*
X24293Y233D01*
X24345Y301D01*
X24385Y397D01*
X24392Y450D01*
X23608D01*
X23615Y397D01*
X23655Y301D01*
X23707Y233D01*
X23691Y180D01*
X23672Y153D01*
X23328D01*
X23309Y180D01*
X23293Y233D01*
X23345Y301D01*
X23385Y397D01*
X23392Y450D01*
X22608D01*
X22615Y397D01*
X22655Y301D01*
X22707Y233D01*
X22691Y180D01*
X22672Y153D01*
X22328D01*
X22309Y180D01*
X22293Y233D01*
X22345Y301D01*
X22385Y397D01*
X22392Y450D01*
X21608D01*
X21615Y397D01*
X21655Y301D01*
X21707Y233D01*
X21691Y180D01*
X21672Y153D01*
X21328D01*
X21309Y180D01*
X21293Y233D01*
X21345Y301D01*
X21385Y397D01*
X21392Y450D01*
X20608D01*
X20615Y397D01*
X20655Y301D01*
X20707Y233D01*
X20691Y180D01*
X20672Y153D01*
X20395D01*
Y450D01*
X19605D01*
Y153D01*
X18328D01*
X18309Y180D01*
X18293Y233D01*
X18345Y301D01*
X18385Y397D01*
X18392Y450D01*
X17608D01*
X17615Y397D01*
X17655Y301D01*
X17707Y233D01*
X17691Y180D01*
X17672Y153D01*
X17328D01*
X17309Y180D01*
X17293Y233D01*
X17345Y301D01*
X17385Y397D01*
X17392Y450D01*
X16608D01*
X16615Y397D01*
X16655Y301D01*
X16707Y233D01*
X16691Y180D01*
X16672Y153D01*
X16328D01*
X16309Y180D01*
X16293Y233D01*
X16345Y301D01*
X16385Y397D01*
X16392Y450D01*
X15608D01*
X15615Y397D01*
X15655Y301D01*
X15707Y233D01*
X15691Y180D01*
X15672Y153D01*
X15328D01*
X15309Y180D01*
X15293Y233D01*
X15345Y301D01*
X15385Y397D01*
X15392Y450D01*
X14608D01*
X14615Y397D01*
X14655Y301D01*
X14707Y233D01*
X14691Y180D01*
X14672Y153D01*
X14328D01*
X14309Y180D01*
X14293Y233D01*
X14345Y301D01*
X14385Y397D01*
X14392Y450D01*
X13608D01*
X13615Y397D01*
X13655Y301D01*
X13707Y233D01*
X13691Y180D01*
X13672Y153D01*
X13328D01*
X13309Y180D01*
X13293Y233D01*
X13345Y301D01*
X13385Y397D01*
X13392Y450D01*
X12608D01*
X12615Y397D01*
X12655Y301D01*
X12707Y233D01*
X12691Y180D01*
X12672Y153D01*
X12328D01*
X12309Y180D01*
X12293Y233D01*
X12345Y301D01*
X12385Y397D01*
X12392Y450D01*
X11608D01*
X11615Y397D01*
X11655Y301D01*
X11707Y233D01*
X11691Y180D01*
X11672Y153D01*
X11395D01*
Y450D01*
X10605D01*
Y153D01*
X400D01*
X393Y152D01*
X304Y169D01*
X223Y223D01*
X169Y304D01*
X152Y393D01*
X153Y400D01*
Y7854D01*
X227Y7885D01*
X1506Y6606D01*
X1572Y6562D01*
X1650Y6546D01*
X3400D01*
Y6244D01*
X4850D01*
X4873Y6189D01*
X4878Y6164D01*
X4833Y6096D01*
X4816Y6010D01*
X4833Y5924D01*
X4881Y5851D01*
X4897Y5841D01*
X4948Y5792D01*
X4918Y5738D01*
X4903Y5716D01*
X4886Y5630D01*
X4903Y5544D01*
X4951Y5471D01*
X5024Y5423D01*
X5110Y5406D01*
X5196Y5423D01*
X5256Y5463D01*
X5280Y5470D01*
X5360Y5464D01*
X6796Y4027D01*
Y2871D01*
X6793Y2866D01*
X6776Y2780D01*
X6793Y2694D01*
X6841Y2621D01*
X6914Y2573D01*
X7000Y2556D01*
X7086Y2573D01*
X7159Y2621D01*
X7207Y2694D01*
X7224Y2780D01*
X7207Y2866D01*
X7204Y2871D01*
Y4112D01*
X7188Y4190D01*
X7144Y4256D01*
X6284Y5116D01*
X6302Y5211D01*
X6342Y5238D01*
X6392Y5312D01*
X6409Y5400D01*
X6392Y5488D01*
X6342Y5562D01*
X6307Y5597D01*
X6325Y5679D01*
X6327Y5682D01*
X6331Y5686D01*
X6356D01*
X6434Y5702D01*
X6500Y5746D01*
X7106Y6352D01*
X7112Y6353D01*
X7184Y6401D01*
X7233Y6474D01*
X7250Y6560D01*
X7233Y6646D01*
X7230Y6651D01*
Y8760D01*
X7310Y8803D01*
X7352Y8775D01*
X7450Y8755D01*
X9445D01*
Y8680D01*
X9465Y8582D01*
X9520Y8499D01*
X9925Y8094D01*
Y7880D01*
X9945Y7782D01*
X10000Y7700D01*
X10560Y7139D01*
Y5445D01*
X10580Y5347D01*
X10635Y5265D01*
X11712Y4188D01*
X11699Y4108D01*
X11699D01*
Y3046D01*
X11745D01*
Y2954D01*
X11699D01*
Y1892D01*
X11730D01*
X11757Y1812D01*
X11718Y1782D01*
X11655Y1699D01*
X11615Y1603D01*
X11601Y1500D01*
X11615Y1397D01*
X11655Y1301D01*
X11718Y1218D01*
X11801Y1155D01*
X11897Y1115D01*
X12000Y1101D01*
X12103Y1115D01*
X12199Y1155D01*
X12282Y1218D01*
X12345Y1301D01*
X12385Y1397D01*
X12399Y1500D01*
X12385Y1603D01*
X12345Y1699D01*
X12282Y1782D01*
X12243Y1812D01*
X12270Y1892D01*
X12301D01*
Y2954D01*
X12255D01*
Y3046D01*
X12301D01*
Y4075D01*
X12699D01*
Y3046D01*
X12699D01*
X12711Y3000D01*
X12699Y2954D01*
X12699D01*
Y1892D01*
X12730D01*
X12757Y1812D01*
X12718Y1782D01*
X12655Y1699D01*
X12615Y1603D01*
X12601Y1500D01*
X12615Y1397D01*
X12655Y1301D01*
X12718Y1218D01*
X12801Y1155D01*
X12897Y1115D01*
X13000Y1101D01*
X13103Y1115D01*
X13199Y1155D01*
X13282Y1218D01*
X13345Y1301D01*
X13385Y1397D01*
X13399Y1500D01*
X13385Y1603D01*
X13345Y1699D01*
X13282Y1782D01*
X13243Y1812D01*
X13270Y1892D01*
X13301D01*
Y2954D01*
X13301D01*
X13289Y3000D01*
X13301Y3046D01*
X13301D01*
Y4075D01*
X13699D01*
Y3046D01*
X13745D01*
Y2954D01*
X13699D01*
Y1892D01*
X13730D01*
X13757Y1812D01*
X13718Y1782D01*
X13655Y1699D01*
X13615Y1603D01*
X13601Y1500D01*
X13615Y1397D01*
X13655Y1301D01*
X13718Y1218D01*
X13801Y1155D01*
X13897Y1115D01*
X14000Y1101D01*
X14103Y1115D01*
X14199Y1155D01*
X14282Y1218D01*
X14345Y1301D01*
X14385Y1397D01*
X14399Y1500D01*
X14385Y1603D01*
X14345Y1699D01*
X14282Y1782D01*
X14243Y1812D01*
X14270Y1892D01*
X14301D01*
Y2954D01*
X14255D01*
Y3046D01*
X14301D01*
Y3811D01*
X14375Y3842D01*
X14699Y3517D01*
Y3046D01*
X14745D01*
Y2954D01*
X14699D01*
Y1892D01*
X14730D01*
X14757Y1812D01*
X14718Y1782D01*
X14655Y1699D01*
X14615Y1603D01*
X14601Y1500D01*
X14615Y1397D01*
X14655Y1301D01*
X14718Y1218D01*
X14801Y1155D01*
X14897Y1115D01*
X15000Y1101D01*
X15103Y1115D01*
X15199Y1155D01*
X15282Y1218D01*
X15345Y1301D01*
X15385Y1397D01*
X15399Y1500D01*
X15385Y1603D01*
X15345Y1699D01*
X15282Y1782D01*
X15243Y1812D01*
X15270Y1892D01*
X15301D01*
Y2954D01*
X15255D01*
Y3046D01*
X15301D01*
Y4108D01*
X15344Y4146D01*
X15347Y4148D01*
X15350Y4150D01*
X16026Y4825D01*
X23267D01*
X23364Y4845D01*
X23447Y4900D01*
X27700Y9153D01*
X27727Y9193D01*
X27750Y9216D01*
X27806Y9299D01*
X27825Y9397D01*
Y10403D01*
X27897Y10440D01*
X27960Y10406D01*
X27983Y10336D01*
X27976Y10300D01*
X27993Y10214D01*
X28041Y10141D01*
X28114Y10093D01*
X28200Y10076D01*
X28286Y10093D01*
X28359Y10141D01*
X28407Y10214D01*
X28424Y10300D01*
X28421Y10316D01*
X28476Y10377D01*
X32228D01*
X32849Y9756D01*
X32819Y9683D01*
X31525D01*
X31318Y9889D01*
X31324Y9920D01*
X31307Y10006D01*
X31259Y10079D01*
X31186Y10127D01*
X31100Y10144D01*
X31014Y10127D01*
X30941Y10079D01*
X30893Y10006D01*
X30876Y9920D01*
X30893Y9834D01*
X30941Y9761D01*
X31014Y9713D01*
X31100Y9696D01*
X31131Y9702D01*
X31196Y9636D01*
X31165Y9563D01*
X29133D01*
X29082Y9552D01*
X29039Y9524D01*
X28511Y8995D01*
X28424Y9022D01*
X28417Y9056D01*
X28369Y9129D01*
X28296Y9177D01*
X28210Y9194D01*
X28124Y9177D01*
X28051Y9129D01*
X28003Y9056D01*
X27986Y8970D01*
X28003Y8884D01*
X28051Y8811D01*
X28124Y8763D01*
X28158Y8756D01*
X28189Y8674D01*
X28161Y8631D01*
X28151Y8580D01*
Y8515D01*
X28089Y8464D01*
X28073Y8467D01*
X27987Y8450D01*
X27915Y8402D01*
X27866Y8329D01*
X27849Y8243D01*
X27866Y8157D01*
X27915Y8085D01*
X27987Y8036D01*
X28073Y8019D01*
X28089Y8022D01*
X28151Y7971D01*
Y7665D01*
X28081Y7619D01*
X28033Y7546D01*
X28016Y7460D01*
X28033Y7374D01*
X28081Y7301D01*
X28154Y7253D01*
X28240Y7236D01*
X28326Y7253D01*
X28399Y7301D01*
X28447Y7374D01*
X28464Y7460D01*
X28447Y7546D01*
X28416Y7593D01*
Y8229D01*
X28478Y8280D01*
X28500Y8276D01*
X28586Y8293D01*
X28659Y8341D01*
X28707Y8414D01*
X28724Y8500D01*
X28707Y8586D01*
X28659Y8659D01*
X28645Y8667D01*
X28638Y8747D01*
X29188Y9297D01*
X32969D01*
X33840Y8426D01*
X33883Y8398D01*
X33934Y8387D01*
X34907D01*
X34958Y8398D01*
X35001Y8426D01*
X35392Y8817D01*
X36390D01*
X36403Y8754D01*
X36451Y8681D01*
X36524Y8633D01*
X36610Y8616D01*
X36696Y8633D01*
X36769Y8681D01*
X36817Y8754D01*
X36834Y8840D01*
X36817Y8926D01*
X36769Y8999D01*
X36696Y9047D01*
X36657Y9055D01*
X36631Y9072D01*
X36580Y9083D01*
X35337D01*
X35331Y9081D01*
X35291Y9155D01*
X35762Y9626D01*
X36525D01*
X36576Y9636D01*
X36619Y9665D01*
X36881Y9927D01*
X37134D01*
X37143Y9884D01*
X37191Y9811D01*
X37264Y9763D01*
X37350Y9746D01*
X37398Y9674D01*
X37373Y9636D01*
X37362Y9580D01*
X37340Y9584D01*
X37254Y9567D01*
X37181Y9519D01*
X37133Y9446D01*
X37116Y9360D01*
X37133Y9274D01*
X37181Y9201D01*
X37203Y9187D01*
X37215Y9099D01*
X37166Y9026D01*
X37152Y8954D01*
X37067Y8937D01*
X36995Y8889D01*
X36946Y8816D01*
X36929Y8730D01*
X36946Y8644D01*
X36995Y8571D01*
X37000Y8568D01*
Y8472D01*
X36995Y8469D01*
X36946Y8396D01*
X36929Y8310D01*
X36946Y8224D01*
X36995Y8151D01*
X37000Y8148D01*
Y8052D01*
X36995Y8049D01*
X36946Y7976D01*
X36929Y7890D01*
X36946Y7804D01*
X36995Y7731D01*
X37000Y7728D01*
Y7632D01*
X36995Y7629D01*
X36946Y7556D01*
X36929Y7470D01*
X36946Y7384D01*
X36995Y7311D01*
X37067Y7263D01*
X37153Y7246D01*
X37239Y7263D01*
X37312Y7311D01*
X37329Y7337D01*
X37460D01*
X37511Y7348D01*
X37554Y7376D01*
X37695Y7517D01*
X40675D01*
X40726Y7466D01*
X40769Y7438D01*
X40820Y7427D01*
X40944D01*
X40961Y7401D01*
X41034Y7353D01*
X41120Y7336D01*
X41206Y7353D01*
X41279Y7401D01*
X41327Y7474D01*
X41342Y7546D01*
X41426Y7563D01*
X41499Y7611D01*
X41547Y7684D01*
X41564Y7770D01*
X41547Y7856D01*
X41499Y7929D01*
X41494Y7932D01*
Y8028D01*
X41499Y8031D01*
X41547Y8104D01*
X41564Y8190D01*
X41547Y8276D01*
X41499Y8349D01*
X41494Y8352D01*
Y8448D01*
X41499Y8451D01*
X41547Y8524D01*
X41564Y8610D01*
X41547Y8696D01*
X41499Y8769D01*
X41494Y8772D01*
Y8868D01*
X41499Y8871D01*
X41547Y8944D01*
X41548Y8947D01*
X41597Y8937D01*
X42424D01*
X42441Y8911D01*
X42514Y8863D01*
X42600Y8846D01*
X42686Y8863D01*
X42759Y8911D01*
X42807Y8984D01*
X42824Y9070D01*
X42807Y9156D01*
X42759Y9229D01*
X42686Y9277D01*
X42676Y9279D01*
Y9361D01*
X42686Y9363D01*
X42759Y9411D01*
X42807Y9484D01*
X42824Y9570D01*
X42821Y9586D01*
X42872Y9647D01*
X43960D01*
X44011Y9658D01*
X44054Y9686D01*
X44445Y10077D01*
X45760D01*
X45811Y10088D01*
X45854Y10116D01*
X45924Y10186D01*
X45924Y10186D01*
X45945Y10207D01*
X46078D01*
X46129Y10146D01*
X46126Y10130D01*
X46143Y10044D01*
X46191Y9971D01*
X46264Y9923D01*
X46348Y9906D01*
X46362Y9835D01*
X46410Y9762D01*
X46437Y9745D01*
Y9101D01*
X46447Y9050D01*
X46475Y9007D01*
X46882Y8601D01*
X46876Y8570D01*
X46893Y8484D01*
X46941Y8411D01*
X47014Y8363D01*
X47100Y8346D01*
X47186Y8363D01*
X47259Y8411D01*
X47307Y8484D01*
X47324Y8570D01*
X47307Y8656D01*
X47259Y8729D01*
X47186Y8777D01*
X47176Y8779D01*
Y8861D01*
X47186Y8863D01*
X47259Y8911D01*
X47307Y8984D01*
X47324Y9070D01*
X47307Y9156D01*
X47259Y9229D01*
X47186Y9277D01*
X47100Y9294D01*
X47069Y9288D01*
X46973Y9385D01*
Y9887D01*
X47053Y9920D01*
X47086Y9886D01*
X47129Y9858D01*
X47180Y9847D01*
X47765D01*
X48291Y9321D01*
X48311Y9239D01*
X48263Y9166D01*
X48246Y9080D01*
X48263Y8994D01*
X48311Y8921D01*
X48384Y8873D01*
X48470Y8856D01*
X48556Y8873D01*
X48629Y8921D01*
X48677Y8994D01*
X48694Y9080D01*
X48679Y9157D01*
X48684Y9181D01*
X48714Y9237D01*
X49796D01*
X49813Y9211D01*
X49886Y9163D01*
X49972Y9146D01*
X50057Y9163D01*
X50130Y9211D01*
X50179Y9284D01*
X50196Y9370D01*
X50179Y9456D01*
X50130Y9529D01*
X50057Y9577D01*
X49972Y9594D01*
X49886Y9577D01*
X49813Y9529D01*
X49796Y9503D01*
X48668D01*
X48198Y9973D01*
X48205Y10053D01*
X48219Y10061D01*
X48267Y10134D01*
X48284Y10220D01*
X48267Y10306D01*
X48219Y10379D01*
X48214Y10382D01*
Y10478D01*
X48219Y10481D01*
X48267Y10554D01*
X48284Y10640D01*
X48267Y10726D01*
X48219Y10799D01*
X48214Y10802D01*
Y10898D01*
X48219Y10901D01*
X48267Y10974D01*
X48284Y11060D01*
X48267Y11146D01*
X48219Y11219D01*
X48214Y11222D01*
Y11318D01*
X48219Y11321D01*
X48267Y11394D01*
X48284Y11480D01*
X48267Y11566D01*
X48219Y11639D01*
X48214Y11642D01*
Y11738D01*
X48219Y11741D01*
X48267Y11814D01*
X48284Y11900D01*
X48267Y11986D01*
X48219Y12059D01*
X48214Y12062D01*
Y12158D01*
X48219Y12161D01*
X48267Y12234D01*
X48284Y12320D01*
X48267Y12406D01*
X48219Y12479D01*
X48146Y12527D01*
X48062Y12544D01*
X48047Y12616D01*
X47999Y12689D01*
X47926Y12737D01*
X47840Y12754D01*
X47754Y12737D01*
X47681Y12689D01*
X47633Y12616D01*
X47618Y12542D01*
X47558Y12483D01*
X47051D01*
X47000Y12472D01*
X46957Y12444D01*
X46546Y12033D01*
X45439D01*
X45415Y12113D01*
X45444Y12132D01*
X46085Y12773D01*
X46129Y12782D01*
X46167Y12807D01*
X46982D01*
X47019Y12782D01*
X47105Y12765D01*
X47191Y12782D01*
X47264Y12831D01*
X47313Y12903D01*
X47330Y12989D01*
X47313Y13075D01*
X47264Y13148D01*
X47191Y13196D01*
X47105Y13213D01*
X47019Y13196D01*
X46982Y13171D01*
X46167D01*
X46129Y13196D01*
X46044Y13213D01*
X45958Y13196D01*
X45885Y13148D01*
X45836Y13075D01*
X45828Y13031D01*
X45240Y12443D01*
X43790D01*
X43767Y12458D01*
X43748Y12462D01*
X42954Y13256D01*
X42895Y13295D01*
X42825Y13309D01*
X42825Y13309D01*
X42490D01*
X42411Y13362D01*
X42313Y13382D01*
X42079D01*
X41685Y13776D01*
Y15341D01*
X42710Y16367D01*
X42713Y16366D01*
X43465D01*
X43562Y16386D01*
X43645Y16441D01*
X43700Y16523D01*
X43719Y16617D01*
X43875Y16773D01*
X46206D01*
X46244Y16748D01*
X46329Y16731D01*
X46415Y16748D01*
X46488Y16797D01*
X46537Y16870D01*
X46554Y16956D01*
X46537Y17041D01*
X46488Y17114D01*
X46415Y17163D01*
X46329Y17180D01*
X46244Y17163D01*
X46206Y17138D01*
X43799D01*
X43730Y17124D01*
X43671Y17085D01*
X43671Y17085D01*
X43462Y16876D01*
X42968D01*
Y18647D01*
X42948Y18745D01*
X42893Y18827D01*
X40220Y21500D01*
X40138Y21556D01*
X40040Y21575D01*
X39380D01*
X39282Y21556D01*
X39200Y21500D01*
X38409Y20710D01*
X7129D01*
X6906Y20932D01*
X6824Y20987D01*
X6726Y21007D01*
X6628Y20987D01*
X6546Y20932D01*
X6491Y20850D01*
X6471Y20752D01*
X6491Y20654D01*
X6546Y20572D01*
X6843Y20275D01*
X6925Y20220D01*
X7023Y20200D01*
X38515D01*
X38613Y20220D01*
X38695Y20275D01*
X39486Y21065D01*
X39934D01*
X42458Y18541D01*
Y16835D01*
X41250Y15627D01*
X41195Y15544D01*
X41175Y15447D01*
Y13670D01*
X41195Y13572D01*
X41250Y13490D01*
X41793Y12947D01*
X41876Y12891D01*
X41973Y12872D01*
X42313D01*
X42411Y12891D01*
X42490Y12945D01*
X42750D01*
X43415Y12279D01*
X43389Y12192D01*
X43364Y12187D01*
X43291Y12139D01*
X43243Y12066D01*
X43226Y11980D01*
X43229Y11964D01*
X43178Y11903D01*
X41217D01*
X41194Y11930D01*
X41177Y12016D01*
X41129Y12089D01*
X41056Y12137D01*
X40970Y12154D01*
X40884Y12137D01*
X40811Y12089D01*
X40763Y12016D01*
X40746Y11934D01*
X40664Y11917D01*
X40591Y11869D01*
X40543Y11796D01*
X40526Y11710D01*
X40529Y11694D01*
X40478Y11633D01*
X39962D01*
X39911Y11694D01*
X39914Y11710D01*
X39897Y11796D01*
X39849Y11869D01*
X39776Y11917D01*
X39690Y11934D01*
X39615Y11919D01*
X39569Y11989D01*
X39496Y12037D01*
X39410Y12054D01*
X39324Y12037D01*
X39251Y11989D01*
X39234Y11963D01*
X39101D01*
X39050Y12014D01*
X39007Y12042D01*
X38956Y12053D01*
X37531D01*
X37480Y12042D01*
X37437Y12014D01*
X37296Y11873D01*
X35735D01*
X35504Y12104D01*
X35461Y12132D01*
X35452Y12134D01*
X35429Y12169D01*
X35356Y12217D01*
X35270Y12234D01*
X35184Y12217D01*
X35111Y12169D01*
X35063Y12096D01*
X35046Y12010D01*
X35063Y11924D01*
X35111Y11851D01*
X35184Y11803D01*
X35178Y11722D01*
X35176Y11710D01*
X35179Y11694D01*
X35128Y11633D01*
X34190D01*
X34139Y11622D01*
X34096Y11594D01*
X33756Y11254D01*
X33736Y11267D01*
X33650Y11284D01*
X33564Y11267D01*
X33491Y11219D01*
X33410Y11241D01*
X33398Y11259D01*
X33325Y11307D01*
X33240Y11324D01*
X33154Y11307D01*
X33081Y11259D01*
X33032Y11186D01*
X33019Y11116D01*
X32967Y11087D01*
X32938Y11079D01*
X32896Y11107D01*
X32810Y11124D01*
X32724Y11107D01*
X32651Y11058D01*
X32603Y10986D01*
X32585Y10900D01*
X32603Y10814D01*
X32651Y10741D01*
X32724Y10693D01*
X32810Y10675D01*
X32841Y10682D01*
X32886Y10636D01*
X32929Y10608D01*
X32980Y10597D01*
X33930D01*
X33981Y10608D01*
X34024Y10636D01*
X34515Y11127D01*
X34878D01*
X34929Y11066D01*
X34926Y11050D01*
X34941Y10975D01*
X34871Y10929D01*
X34823Y10856D01*
X34806Y10770D01*
X34821Y10695D01*
X34751Y10649D01*
X34703Y10576D01*
X34686Y10490D01*
X34701Y10415D01*
X34631Y10369D01*
X34583Y10296D01*
X34566Y10210D01*
X34581Y10135D01*
X34511Y10089D01*
X34463Y10016D01*
X34446Y9930D01*
X34461Y9855D01*
X34391Y9809D01*
X34343Y9736D01*
X34326Y9650D01*
X34341Y9575D01*
X34271Y9529D01*
X34223Y9456D01*
X34206Y9370D01*
X34221Y9295D01*
X34151Y9249D01*
X34103Y9176D01*
X34100Y9163D01*
X34013Y9137D01*
X32427Y10724D01*
X32384Y10752D01*
X32333Y10763D01*
X31829D01*
X31786Y10843D01*
X31807Y10874D01*
X31824Y10960D01*
X31807Y11046D01*
X31759Y11119D01*
X31686Y11167D01*
X31600Y11184D01*
X31514Y11167D01*
X31441Y11119D01*
X31393Y11046D01*
X31376Y10960D01*
X31393Y10874D01*
X31414Y10843D01*
X31371Y10763D01*
X28216D01*
X28199Y10789D01*
X28126Y10837D01*
X28040Y10854D01*
X27954Y10837D01*
X27905Y10804D01*
X27830Y10835D01*
X27825Y10840D01*
Y13300D01*
X27806Y13398D01*
X27750Y13480D01*
X27548Y13682D01*
X27465Y13738D01*
X27368Y13757D01*
X27199D01*
Y14301D01*
X26125D01*
Y13753D01*
X26114Y13693D01*
X26060Y13664D01*
X26024Y13657D01*
X25951Y13609D01*
X25903Y13536D01*
X25886Y13450D01*
X25903Y13364D01*
X25951Y13291D01*
X26024Y13243D01*
X26110Y13226D01*
X26125Y13213D01*
Y12699D01*
X27199D01*
Y13155D01*
X27279Y13193D01*
X27315Y13164D01*
Y9490D01*
X27313Y9487D01*
X23161Y5335D01*
X15920D01*
X15822Y5315D01*
X15740Y5260D01*
X15153Y4674D01*
X15079Y4704D01*
Y5010D01*
X15062Y5098D01*
X15012Y5172D01*
X14922Y5262D01*
X14848Y5312D01*
X14760Y5329D01*
X14672Y5312D01*
X14598Y5262D01*
X14548Y5188D01*
X14531Y5100D01*
X14548Y5012D01*
X14598Y4938D01*
X14621Y4915D01*
Y4585D01*
X12036D01*
X11070Y5551D01*
Y7245D01*
X11050Y7343D01*
X10995Y7425D01*
X10435Y7986D01*
Y8200D01*
X10416Y8298D01*
X10360Y8380D01*
X10059Y8681D01*
X10090Y8755D01*
X10490D01*
X10588Y8775D01*
X10670Y8830D01*
X11400Y9560D01*
X11456Y9642D01*
X11475Y9740D01*
Y10903D01*
X11535Y10953D01*
X11611Y10927D01*
X11615Y10897D01*
X11655Y10801D01*
X11718Y10718D01*
X11801Y10655D01*
X11897Y10615D01*
X12000Y10601D01*
X12103Y10615D01*
X12199Y10655D01*
X12267Y10707D01*
X12319Y10692D01*
X12347Y10672D01*
Y10328D01*
X12319Y10308D01*
X12267Y10293D01*
X12199Y10345D01*
X12103Y10385D01*
X12000Y10399D01*
X11897Y10385D01*
X11801Y10345D01*
X11718Y10282D01*
X11655Y10199D01*
X11615Y10103D01*
X11601Y10000D01*
X11615Y9897D01*
X11655Y9801D01*
X11718Y9718D01*
X11801Y9655D01*
X11897Y9615D01*
X12000Y9601D01*
X12103Y9615D01*
X12199Y9655D01*
X12267Y9707D01*
X12319Y9692D01*
X12347Y9672D01*
Y9556D01*
X12358Y9505D01*
X12378Y9475D01*
X12364Y9430D01*
X12340Y9395D01*
X11605D01*
Y8605D01*
X12395D01*
Y9340D01*
X12475Y9373D01*
X12884Y8964D01*
X12322Y8402D01*
X12289Y8353D01*
X12277Y8294D01*
Y7522D01*
X12271Y7519D01*
X12223Y7446D01*
X12206Y7360D01*
X12223Y7274D01*
X12271Y7201D01*
X12344Y7153D01*
X12430Y7136D01*
X12516Y7153D01*
X12589Y7201D01*
X12637Y7274D01*
X12654Y7360D01*
X12637Y7446D01*
X12589Y7519D01*
X12583Y7522D01*
Y8231D01*
X13194Y8842D01*
X13839Y9487D01*
X14808D01*
X14811Y9481D01*
X14884Y9433D01*
X14970Y9416D01*
X15056Y9433D01*
X15129Y9481D01*
X15132Y9487D01*
X15890D01*
X15893Y9474D01*
X15941Y9401D01*
X16014Y9353D01*
X16100Y9336D01*
X16186Y9353D01*
X16259Y9401D01*
X16307Y9474D01*
X16324Y9560D01*
X16307Y9646D01*
X16259Y9719D01*
X16186Y9767D01*
X16100Y9784D01*
X16080Y9780D01*
X16079Y9781D01*
X16020Y9793D01*
X15132D01*
X15129Y9799D01*
X15056Y9847D01*
X14970Y9864D01*
X14884Y9847D01*
X14811Y9799D01*
X14808Y9793D01*
X13776D01*
X13717Y9781D01*
X13668Y9748D01*
X13126Y9207D01*
X13117Y9211D01*
X13113Y9216D01*
X13095Y9310D01*
X13117Y9344D01*
X13134Y9430D01*
X13117Y9516D01*
X13069Y9589D01*
X12996Y9637D01*
X12910Y9654D01*
X12824Y9637D01*
X12751Y9589D01*
X12747Y9582D01*
X12665Y9573D01*
X12613Y9622D01*
Y11250D01*
X12602Y11301D01*
X12574Y11344D01*
X12191Y11726D01*
X12215Y11816D01*
X12269Y11851D01*
X12317Y11924D01*
X12334Y12010D01*
X12317Y12096D01*
X12269Y12169D01*
X12196Y12217D01*
X12110Y12234D01*
X12024Y12217D01*
X11951Y12169D01*
X11903Y12096D01*
X11817Y12073D01*
X11783Y12080D01*
X10947D01*
X10896Y12069D01*
X10853Y12041D01*
X10853Y12040D01*
X10773Y12073D01*
Y14231D01*
X11079Y14537D01*
X11271D01*
X11281Y14521D01*
X11354Y14473D01*
X11440Y14456D01*
X11526Y14473D01*
X11599Y14521D01*
X11647Y14594D01*
X11664Y14680D01*
X11647Y14766D01*
X11599Y14839D01*
X11526Y14887D01*
X11440Y14904D01*
X11354Y14887D01*
X11281Y14839D01*
X11271Y14823D01*
X11020D01*
X10965Y14812D01*
X10919Y14781D01*
X10919Y14781D01*
X10529Y14391D01*
X10498Y14345D01*
X10487Y14290D01*
X10487Y14290D01*
Y12370D01*
X10407Y12346D01*
X10379Y12389D01*
X10306Y12437D01*
X10220Y12454D01*
X10134Y12437D01*
X10061Y12389D01*
X10028Y12339D01*
X9989Y12316D01*
X9931Y12317D01*
X9886Y12347D01*
X9800Y12364D01*
X9714Y12347D01*
X9641Y12299D01*
X9628Y12279D01*
X9532D01*
X9519Y12299D01*
X9446Y12347D01*
X9360Y12364D01*
X9274Y12347D01*
X9201Y12299D01*
X9153Y12226D01*
X9136Y12140D01*
X9153Y12054D01*
X9201Y11981D01*
X9274Y11933D01*
X9360Y11916D01*
X9446Y11933D01*
X9519Y11981D01*
X9532Y12001D01*
X9628D01*
X9641Y11981D01*
X9714Y11933D01*
X9800Y11916D01*
X9886Y11933D01*
X9959Y11981D01*
X9992Y12031D01*
X10031Y12054D01*
X10089Y12053D01*
X10134Y12023D01*
X10220Y12006D01*
X10306Y12023D01*
X10372Y12067D01*
X10423Y12005D01*
X10334Y11916D01*
X10315Y11919D01*
X10229Y11902D01*
X10156Y11854D01*
X10108Y11781D01*
X10091Y11695D01*
X10108Y11609D01*
X10156Y11536D01*
X10229Y11488D01*
X10315Y11471D01*
X10401Y11488D01*
X10465Y11531D01*
X10491Y11491D01*
X10564Y11443D01*
X10637Y11428D01*
X10659Y11399D01*
X10676Y11349D01*
X10642Y11298D01*
X10626Y11220D01*
Y10488D01*
X10312Y10174D01*
X7910D01*
X7832Y10158D01*
X7766Y10114D01*
X6882Y9230D01*
X6837Y9164D01*
X6822Y9086D01*
Y6651D01*
X6819Y6646D01*
X6817Y6640D01*
X6660Y6483D01*
X6560Y6496D01*
X6542Y6522D01*
X6468Y6572D01*
X6380Y6589D01*
X6015D01*
X5972Y6632D01*
X5898Y6682D01*
X5810Y6699D01*
X5600D01*
Y8444D01*
X3400D01*
Y7626D01*
X3320Y7621D01*
X3318Y7637D01*
X3309Y7705D01*
X3265Y7812D01*
X3194Y7904D01*
X3102Y7975D01*
X2995Y8019D01*
X2880Y8034D01*
X2765Y8019D01*
X2658Y7975D01*
X2566Y7904D01*
X2495Y7812D01*
X2451Y7705D01*
X2436Y7590D01*
X2451Y7475D01*
X2495Y7368D01*
X2566Y7276D01*
X2658Y7205D01*
X2765Y7161D01*
X2880Y7146D01*
X2995Y7161D01*
X3102Y7205D01*
X3194Y7276D01*
X3265Y7368D01*
X3309Y7475D01*
X3318Y7543D01*
X3320Y7559D01*
X3400Y7554D01*
Y6954D01*
X1734D01*
X424Y8264D01*
Y10907D01*
X453Y10930D01*
X504Y10952D01*
X555Y10931D01*
X627Y10921D01*
X903D01*
X975Y10931D01*
X1043Y10959D01*
X1101Y11003D01*
X1145Y11061D01*
X1173Y11128D01*
X1183Y11201D01*
X1173Y11273D01*
X1145Y11341D01*
X1101Y11398D01*
X1043Y11443D01*
X975Y11471D01*
X903Y11480D01*
X627D01*
X555Y11471D01*
X504Y11450D01*
X453Y11471D01*
X424Y11495D01*
Y13505D01*
X453Y13529D01*
X504Y13550D01*
X555Y13529D01*
X627Y13520D01*
X903D01*
X975Y13529D01*
X1043Y13557D01*
X1101Y13602D01*
X1145Y13659D01*
X1173Y13727D01*
X1183Y13799D01*
X1173Y13872D01*
X1145Y13939D01*
X1101Y13997D01*
X1071Y14020D01*
X1096Y14086D01*
X1103Y14096D01*
X1186Y14113D01*
X1259Y14161D01*
X1307Y14234D01*
X1324Y14320D01*
X1307Y14406D01*
X1259Y14479D01*
X1186Y14527D01*
X1100Y14544D01*
X1014Y14527D01*
X941Y14479D01*
X893Y14406D01*
X876Y14320D01*
X893Y14234D01*
X941Y14161D01*
X954Y14153D01*
X925Y14076D01*
X903Y14079D01*
X627D01*
X555Y14069D01*
X504Y14048D01*
X453Y14070D01*
X424Y14093D01*
Y15636D01*
X2228Y17440D01*
X2774D01*
X2779Y17360D01*
X2765Y17358D01*
X2658Y17314D01*
X2566Y17243D01*
X2495Y17151D01*
X2451Y17044D01*
X2436Y16929D01*
X2451Y16814D01*
X2495Y16707D01*
X2566Y16615D01*
X2658Y16544D01*
X2765Y16500D01*
X2880Y16485D01*
X2995Y16500D01*
X3102Y16544D01*
X3194Y16615D01*
X3265Y16707D01*
X3309Y16814D01*
X3320Y16898D01*
X3400Y16893D01*
Y16544D01*
X5600D01*
Y18744D01*
X3400D01*
Y17848D01*
X2144D01*
X2066Y17832D01*
X2000Y17788D01*
X227Y16015D01*
X153Y16046D01*
Y24600D01*
X152Y24607D01*
X169Y24696D01*
X223Y24777D01*
X304Y24831D01*
X393Y24848D01*
X400Y24847D01*
X3766D01*
X3767Y24844D01*
X3779Y24767D01*
X3721Y24729D01*
X3673Y24656D01*
X3656Y24570D01*
X3673Y24484D01*
X3721Y24411D01*
X3794Y24363D01*
X3880Y24346D01*
X3966Y24363D01*
X4039Y24411D01*
X4087Y24484D01*
X4104Y24570D01*
X4087Y24656D01*
X4039Y24729D01*
X3981Y24767D01*
X3993Y24844D01*
X3994Y24847D01*
X7072D01*
X7091Y24820D01*
X7107Y24767D01*
X7055Y24699D01*
X7015Y24603D01*
X7008Y24550D01*
X7400D01*
X7792D01*
X7785Y24603D01*
X7745Y24699D01*
X7693Y24767D01*
X7709Y24820D01*
X7728Y24847D01*
X8072D01*
X8091Y24820D01*
X8107Y24767D01*
X8055Y24699D01*
X8015Y24603D01*
X8008Y24550D01*
X8400D01*
X8792D01*
X8785Y24603D01*
X8745Y24699D01*
X8693Y24767D01*
X8709Y24820D01*
X8728Y24847D01*
X9072D01*
X9091Y24820D01*
X9107Y24767D01*
X9055Y24699D01*
X9015Y24603D01*
X9008Y24550D01*
X9400D01*
X9792D01*
X9785Y24603D01*
X9745Y24699D01*
X9693Y24767D01*
X9709Y24820D01*
X9728Y24847D01*
X10072D01*
X10091Y24820D01*
X10107Y24767D01*
X10055Y24699D01*
X10015Y24603D01*
X10008Y24550D01*
X10400D01*
X10792D01*
X10785Y24603D01*
X10745Y24699D01*
X10693Y24767D01*
X10709Y24820D01*
X10728Y24847D01*
X11072D01*
X11091Y24820D01*
X11107Y24767D01*
X11055Y24699D01*
X11015Y24603D01*
X11008Y24550D01*
X11400D01*
X11792D01*
X11785Y24603D01*
X11745Y24699D01*
X11693Y24767D01*
X11709Y24820D01*
X11728Y24847D01*
X12072D01*
X12091Y24820D01*
X12107Y24767D01*
X12055Y24699D01*
X12015Y24603D01*
X12008Y24550D01*
X12400D01*
X12792D01*
X12785Y24603D01*
X12745Y24699D01*
X12693Y24767D01*
X12709Y24820D01*
X12728Y24847D01*
X13072D01*
X13091Y24820D01*
X13107Y24767D01*
X13055Y24699D01*
X13015Y24603D01*
X13008Y24550D01*
X13400D01*
X13792D01*
X13785Y24603D01*
X13745Y24699D01*
X13693Y24767D01*
X13709Y24820D01*
X13728Y24847D01*
X14072D01*
X14091Y24820D01*
X14107Y24767D01*
X14055Y24699D01*
X14015Y24603D01*
X14008Y24550D01*
X14400D01*
X14792D01*
X14785Y24603D01*
X14745Y24699D01*
X14693Y24767D01*
X14709Y24820D01*
X14728Y24847D01*
X15072D01*
X15091Y24820D01*
X15107Y24767D01*
X15055Y24699D01*
X15015Y24603D01*
X15008Y24550D01*
X15400D01*
X15792D01*
X15785Y24603D01*
X15745Y24699D01*
X15693Y24767D01*
X15709Y24820D01*
X15728Y24847D01*
X16005D01*
Y24550D01*
X16400D01*
X16795D01*
Y24847D01*
X17672D01*
X17691Y24820D01*
X17707Y24767D01*
X17655Y24699D01*
X17615Y24603D01*
X17608Y24550D01*
X18000D01*
X18392D01*
X18385Y24603D01*
X18345Y24699D01*
X18293Y24767D01*
X18309Y24820D01*
X18328Y24847D01*
X18672D01*
X18691Y24820D01*
X18707Y24767D01*
X18655Y24699D01*
X18615Y24603D01*
X18608Y24550D01*
X19000D01*
X19392D01*
X19385Y24603D01*
X19345Y24699D01*
X19293Y24767D01*
X19309Y24820D01*
X19328Y24847D01*
X19672D01*
X19691Y24820D01*
X19707Y24767D01*
X19655Y24699D01*
X19615Y24603D01*
X19608Y24550D01*
X20000D01*
X20392D01*
X20385Y24603D01*
X20345Y24699D01*
X20293Y24767D01*
X20309Y24820D01*
X20328Y24847D01*
X20672D01*
X20691Y24820D01*
X20707Y24767D01*
X20655Y24699D01*
X20615Y24603D01*
X20608Y24550D01*
X21000D01*
X21392D01*
X21385Y24603D01*
X21345Y24699D01*
X21293Y24767D01*
X21309Y24820D01*
X21328Y24847D01*
X21672D01*
X21691Y24820D01*
X21707Y24767D01*
X21655Y24699D01*
X21615Y24603D01*
X21608Y24550D01*
X22000D01*
X22392D01*
X22385Y24603D01*
X22345Y24699D01*
X22293Y24767D01*
X22309Y24820D01*
X22328Y24847D01*
X22672D01*
X22691Y24820D01*
X22707Y24767D01*
X22655Y24699D01*
X22615Y24603D01*
X22608Y24550D01*
X23000D01*
X23392D01*
X23385Y24603D01*
X23345Y24699D01*
X23293Y24767D01*
X23309Y24820D01*
X23328Y24847D01*
X23672D01*
X23691Y24820D01*
X23707Y24767D01*
X23655Y24699D01*
X23615Y24603D01*
X23608Y24550D01*
X24000D01*
X24392D01*
X24385Y24603D01*
X24345Y24699D01*
X24293Y24767D01*
X24309Y24820D01*
X24328Y24847D01*
X24605D01*
Y24550D01*
X25000D01*
X25395D01*
Y24847D01*
X26672D01*
X26691Y24820D01*
X26707Y24767D01*
X26655Y24699D01*
X26615Y24603D01*
X26608Y24550D01*
X27000D01*
X27392D01*
X27385Y24603D01*
X27345Y24699D01*
X27293Y24767D01*
X27309Y24820D01*
X27328Y24847D01*
X27672D01*
X27691Y24820D01*
X27707Y24767D01*
X27655Y24699D01*
X27615Y24603D01*
X27608Y24550D01*
X28000D01*
X28392D01*
X28385Y24603D01*
X28345Y24699D01*
X28293Y24767D01*
X28309Y24820D01*
X28328Y24847D01*
X28672D01*
X28691Y24820D01*
X28707Y24767D01*
X28655Y24699D01*
X28615Y24603D01*
X28608Y24550D01*
X29000D01*
X29392D01*
X29385Y24603D01*
X29345Y24699D01*
X29293Y24767D01*
X29309Y24820D01*
X29328Y24847D01*
X29672D01*
X29691Y24820D01*
X29707Y24767D01*
X29655Y24699D01*
X29615Y24603D01*
X29608Y24550D01*
X30000D01*
X30392D01*
X30385Y24603D01*
X30345Y24699D01*
X30293Y24767D01*
X30309Y24820D01*
X30328Y24847D01*
X30672D01*
X30691Y24820D01*
X30707Y24767D01*
X30655Y24699D01*
X30615Y24603D01*
X30608Y24550D01*
X31000D01*
X31392D01*
X31385Y24603D01*
X31345Y24699D01*
X31293Y24767D01*
X31309Y24820D01*
X31328Y24847D01*
X31672D01*
X31691Y24820D01*
X31707Y24767D01*
X31655Y24699D01*
X31615Y24603D01*
X31608Y24550D01*
X32000D01*
X32392D01*
X32385Y24603D01*
X32345Y24699D01*
X32293Y24767D01*
X32309Y24820D01*
X32328Y24847D01*
X32672D01*
X32691Y24820D01*
X32707Y24767D01*
X32655Y24699D01*
X32615Y24603D01*
X32608Y24550D01*
X33000D01*
X33392D01*
X33385Y24603D01*
X33345Y24699D01*
X33293Y24767D01*
X33309Y24820D01*
X33328Y24847D01*
X33605D01*
Y24550D01*
X34000D01*
X34395D01*
Y24847D01*
X51600D01*
X51607Y24848D01*
X51696Y24831D01*
D02*
G37*
%LPC*%
G36*
X3615Y5440D02*
X3270D01*
Y5095D01*
X3615D01*
Y5440D01*
D02*
G37*
G36*
X8680Y5674D02*
X8594Y5657D01*
X8521Y5609D01*
X8473Y5536D01*
X8456Y5450D01*
X8473Y5364D01*
X8521Y5291D01*
X8594Y5243D01*
X8680Y5226D01*
X8766Y5243D01*
X8839Y5291D01*
X8887Y5364D01*
X8904Y5450D01*
X8887Y5536D01*
X8839Y5609D01*
X8766Y5657D01*
X8680Y5674D01*
D02*
G37*
G36*
X6970Y5598D02*
X6884Y5581D01*
X6811Y5533D01*
X6763Y5460D01*
X6746Y5374D01*
X6763Y5288D01*
X6811Y5215D01*
X6884Y5167D01*
X6970Y5150D01*
X7056Y5167D01*
X7129Y5215D01*
X7177Y5288D01*
X7194Y5374D01*
X7177Y5460D01*
X7129Y5533D01*
X7056Y5581D01*
X6970Y5598D01*
D02*
G37*
G36*
X19050Y4694D02*
X18964Y4677D01*
X18891Y4629D01*
X18843Y4556D01*
X18826Y4470D01*
X18843Y4384D01*
X18891Y4311D01*
X18964Y4263D01*
X19050Y4246D01*
X19136Y4263D01*
X19209Y4311D01*
X19257Y4384D01*
X19274Y4470D01*
X19257Y4556D01*
X19209Y4629D01*
X19136Y4677D01*
X19050Y4694D01*
D02*
G37*
G36*
X31910Y5434D02*
X31824Y5417D01*
X31751Y5369D01*
X31703Y5296D01*
X31686Y5210D01*
X31703Y5124D01*
X31751Y5051D01*
X31941Y4861D01*
X32014Y4813D01*
X32100Y4796D01*
X33100D01*
X33186Y4813D01*
X33259Y4861D01*
X33307Y4934D01*
X33324Y5020D01*
X33307Y5106D01*
X33259Y5179D01*
X33186Y5227D01*
X33100Y5244D01*
X32193D01*
X32069Y5369D01*
X31996Y5417D01*
X31910Y5434D01*
D02*
G37*
G36*
X3170Y5440D02*
X2825D01*
Y5095D01*
X3170D01*
Y5440D01*
D02*
G37*
G36*
X11495Y6521D02*
X11409Y6503D01*
X11336Y6455D01*
X11288Y6382D01*
X11270Y6296D01*
X11288Y6210D01*
X11336Y6138D01*
X11409Y6089D01*
X11495Y6072D01*
X11581Y6089D01*
X11653Y6138D01*
X11702Y6210D01*
X11719Y6296D01*
X11702Y6382D01*
X11653Y6455D01*
X11581Y6503D01*
X11495Y6521D01*
D02*
G37*
G36*
X17723Y6068D02*
X17638Y6051D01*
X17565Y6003D01*
X17547Y5977D01*
X17372D01*
X17355Y6003D01*
X17282Y6051D01*
X17196Y6068D01*
X17110Y6051D01*
X17037Y6003D01*
X16989Y5930D01*
X16972Y5844D01*
X16989Y5758D01*
X17037Y5685D01*
X17110Y5637D01*
X17196Y5620D01*
X17282Y5637D01*
X17355Y5685D01*
X17372Y5711D01*
X17547D01*
X17565Y5685D01*
X17638Y5637D01*
X17723Y5620D01*
X17809Y5637D01*
X17882Y5685D01*
X17931Y5758D01*
X17948Y5844D01*
X17931Y5930D01*
X17882Y6003D01*
X17809Y6051D01*
X17723Y6068D01*
D02*
G37*
G36*
X18830Y6654D02*
X18744Y6637D01*
X18671Y6589D01*
X18623Y6516D01*
X18606Y6430D01*
X18623Y6344D01*
X18671Y6271D01*
X18744Y6223D01*
X18830Y6206D01*
X18916Y6223D01*
X18989Y6271D01*
X19037Y6344D01*
X19054Y6430D01*
X19037Y6516D01*
X18989Y6589D01*
X18916Y6637D01*
X18830Y6654D01*
D02*
G37*
G36*
X12268Y6521D02*
X12182Y6503D01*
X12109Y6455D01*
X12061Y6382D01*
X12043Y6296D01*
X12061Y6210D01*
X12109Y6138D01*
X12182Y6089D01*
X12268Y6072D01*
X12354Y6089D01*
X12426Y6138D01*
X12475Y6210D01*
X12492Y6296D01*
X12475Y6382D01*
X12426Y6455D01*
X12354Y6503D01*
X12268Y6521D01*
D02*
G37*
G36*
X3170Y5885D02*
X2825D01*
Y5540D01*
X3170D01*
Y5885D01*
D02*
G37*
G36*
X38270Y6194D02*
X38184Y6177D01*
X38111Y6129D01*
X38063Y6056D01*
X38061Y6047D01*
X38020Y5974D01*
X37934Y5957D01*
X37861Y5909D01*
X37813Y5836D01*
X37796Y5750D01*
X37813Y5664D01*
X37861Y5591D01*
X37934Y5543D01*
X38020Y5526D01*
X38106Y5543D01*
X38179Y5591D01*
X38227Y5664D01*
X38229Y5673D01*
X38270Y5746D01*
X38356Y5763D01*
X38429Y5811D01*
X38477Y5884D01*
X38494Y5970D01*
X38477Y6056D01*
X38429Y6129D01*
X38356Y6177D01*
X38270Y6194D01*
D02*
G37*
G36*
X14864Y6392D02*
X14779Y6375D01*
X14706Y6326D01*
X14657Y6254D01*
X14640Y6168D01*
X14657Y6082D01*
X14706Y6009D01*
X14779Y5960D01*
X14864Y5943D01*
X14950Y5960D01*
X15023Y6009D01*
X15072Y6082D01*
X15089Y6168D01*
X15072Y6254D01*
X15023Y6326D01*
X14950Y6375D01*
X14864Y6392D01*
D02*
G37*
G36*
X3615Y5885D02*
X3270D01*
Y5540D01*
X3615D01*
Y5885D01*
D02*
G37*
G36*
X17301Y3527D02*
X17050D01*
Y3046D01*
X17301D01*
Y3527D01*
D02*
G37*
G36*
X15950Y4108D02*
X15699D01*
Y3627D01*
X15950D01*
Y4108D01*
D02*
G37*
G36*
X16301D02*
X16050D01*
Y3627D01*
X16301D01*
Y4108D01*
D02*
G37*
G36*
X16950Y3527D02*
X16699D01*
Y3046D01*
X16950D01*
Y3527D01*
D02*
G37*
G36*
X30280Y5354D02*
X30194Y5337D01*
X30121Y5289D01*
X30073Y5216D01*
X30056Y5130D01*
X30073Y5044D01*
X30121Y4971D01*
X30194Y4923D01*
X30280Y4906D01*
X30311Y4912D01*
X30587Y4635D01*
Y3376D01*
X30561Y3359D01*
X30513Y3286D01*
X30496Y3200D01*
X30513Y3114D01*
X30561Y3041D01*
X30634Y2993D01*
X30720Y2976D01*
X30806Y2993D01*
X30879Y3041D01*
X30927Y3114D01*
X30944Y3200D01*
X30927Y3286D01*
X30879Y3359D01*
X30853Y3376D01*
Y4690D01*
X30842Y4741D01*
X30814Y4784D01*
X30498Y5099D01*
X30504Y5130D01*
X30487Y5216D01*
X30439Y5289D01*
X30366Y5337D01*
X30280Y5354D01*
D02*
G37*
G36*
X15950Y3527D02*
X15699D01*
Y3046D01*
X15950D01*
Y3527D01*
D02*
G37*
G36*
X16301D02*
X16050D01*
Y3046D01*
X16301D01*
Y3527D01*
D02*
G37*
G36*
X21100Y4534D02*
X21014Y4517D01*
X20941Y4469D01*
X20893Y4396D01*
X20876Y4310D01*
X20893Y4224D01*
X20917Y4188D01*
X20874Y4108D01*
X20699D01*
Y4104D01*
X20619Y4062D01*
X20596Y4077D01*
X20510Y4094D01*
X20424Y4077D01*
X20381Y4048D01*
X20301Y4086D01*
Y4108D01*
X19699D01*
Y3046D01*
X19699D01*
X19711Y3000D01*
X19699Y2954D01*
X19699D01*
Y1892D01*
X19730D01*
X19757Y1812D01*
X19718Y1782D01*
X19655Y1699D01*
X19615Y1603D01*
X19601Y1500D01*
X19615Y1397D01*
X19655Y1301D01*
X19718Y1218D01*
X19801Y1155D01*
X19897Y1115D01*
X20000Y1101D01*
X20103Y1115D01*
X20199Y1155D01*
X20282Y1218D01*
X20345Y1301D01*
X20385Y1397D01*
X20399Y1500D01*
X20385Y1603D01*
X20345Y1699D01*
X20282Y1782D01*
X20243Y1812D01*
X20270Y1892D01*
X20301D01*
Y2954D01*
X20301D01*
X20289Y3000D01*
X20301Y3046D01*
X20301D01*
Y3654D01*
X20381Y3692D01*
X20424Y3663D01*
X20510Y3646D01*
X20596Y3663D01*
X20619Y3678D01*
X20699Y3636D01*
Y3046D01*
X20699D01*
X20711Y3000D01*
X20699Y2954D01*
X20699D01*
Y1892D01*
X20730D01*
X20757Y1812D01*
X20718Y1782D01*
X20655Y1699D01*
X20615Y1603D01*
X20601Y1500D01*
X20615Y1397D01*
X20655Y1301D01*
X20718Y1218D01*
X20801Y1155D01*
X20897Y1115D01*
X21000Y1101D01*
X21103Y1115D01*
X21199Y1155D01*
X21282Y1218D01*
X21345Y1301D01*
X21385Y1397D01*
X21399Y1500D01*
X21385Y1603D01*
X21345Y1699D01*
X21282Y1782D01*
X21243Y1812D01*
X21270Y1892D01*
X21301D01*
Y2954D01*
X21301D01*
X21289Y3000D01*
X21301Y3046D01*
X21301D01*
Y4108D01*
X21301D01*
X21283Y4188D01*
X21307Y4224D01*
X21324Y4310D01*
X21307Y4396D01*
X21259Y4469D01*
X21186Y4517D01*
X21100Y4534D01*
D02*
G37*
G36*
X3220Y4889D02*
X3117Y4875D01*
X3021Y4835D01*
X2938Y4772D01*
X2875Y4689D01*
X2835Y4593D01*
X2821Y4490D01*
X2835Y4387D01*
X2875Y4291D01*
X2938Y4208D01*
X3021Y4145D01*
X3117Y4105D01*
X3220Y4091D01*
X3323Y4105D01*
X3419Y4145D01*
X3502Y4208D01*
X3565Y4291D01*
X3605Y4387D01*
X3619Y4490D01*
X3605Y4593D01*
X3565Y4689D01*
X3502Y4772D01*
X3419Y4835D01*
X3323Y4875D01*
X3220Y4889D01*
D02*
G37*
G36*
X36770Y4614D02*
X36684Y4597D01*
X36611Y4549D01*
X36563Y4476D01*
X36546Y4390D01*
X36563Y4304D01*
X36611Y4231D01*
X36684Y4183D01*
X36770Y4166D01*
X36856Y4183D01*
X36929Y4231D01*
X36977Y4304D01*
X36994Y4390D01*
X36977Y4476D01*
X36929Y4549D01*
X36856Y4597D01*
X36770Y4614D01*
D02*
G37*
G36*
X26000Y6078D02*
X25831Y6065D01*
X25667Y6025D01*
X25510Y5961D01*
X25366Y5872D01*
X25238Y5762D01*
X25128Y5634D01*
X25039Y5489D01*
X24975Y5333D01*
X24935Y5169D01*
X24922Y5000D01*
X24935Y4831D01*
X24975Y4667D01*
X25039Y4511D01*
X25128Y4366D01*
X25238Y4238D01*
X25296Y4188D01*
X25266Y4108D01*
X25233Y4108D01*
X24699D01*
Y3046D01*
X24699D01*
X24711Y3000D01*
X24699Y2954D01*
X24699D01*
Y1892D01*
X24730D01*
X24757Y1812D01*
X24718Y1782D01*
X24655Y1699D01*
X24615Y1603D01*
X24601Y1500D01*
X24615Y1397D01*
X24655Y1301D01*
X24718Y1218D01*
X24801Y1155D01*
X24897Y1115D01*
X25000Y1101D01*
X25103Y1115D01*
X25199Y1155D01*
X25282Y1218D01*
X25345Y1301D01*
X25385Y1397D01*
X25399Y1500D01*
X25385Y1603D01*
X25345Y1699D01*
X25282Y1782D01*
X25243Y1812D01*
X25270Y1892D01*
X25301D01*
Y2954D01*
X25301D01*
X25289Y3000D01*
X25301Y3046D01*
X25301D01*
Y4036D01*
X25301Y4078D01*
X25341Y4109D01*
X25354Y4114D01*
X25375Y4123D01*
X25510Y4039D01*
X25667Y3975D01*
X25831Y3935D01*
X26000Y3922D01*
X26169Y3935D01*
X26333Y3975D01*
X26489Y4039D01*
X26634Y4128D01*
X26762Y4238D01*
X26872Y4366D01*
X26961Y4511D01*
X27025Y4667D01*
X27065Y4831D01*
X27078Y5000D01*
X27065Y5169D01*
X27025Y5333D01*
X26961Y5489D01*
X26872Y5634D01*
X26762Y5762D01*
X26634Y5872D01*
X26489Y5961D01*
X26333Y6025D01*
X26169Y6065D01*
X26000Y6078D01*
D02*
G37*
G36*
X16950Y4108D02*
X16699D01*
Y3627D01*
X16950D01*
Y4108D01*
D02*
G37*
G36*
X17301D02*
X17050D01*
Y3627D01*
X17301D01*
Y4108D01*
D02*
G37*
G36*
X34190Y4199D02*
X34104Y4182D01*
X34031Y4133D01*
X33983Y4060D01*
X33966Y3975D01*
X33983Y3889D01*
X34031Y3816D01*
X34104Y3767D01*
X34190Y3750D01*
X34276Y3767D01*
X34349Y3816D01*
X34397Y3889D01*
X34414Y3975D01*
X34397Y4060D01*
X34349Y4133D01*
X34276Y4182D01*
X34190Y4199D01*
D02*
G37*
G36*
X38830Y7063D02*
X35710D01*
X35619Y7051D01*
X35533Y7016D01*
X35460Y6960D01*
X35404Y6887D01*
X35369Y6801D01*
X35357Y6710D01*
X35369Y6619D01*
X35404Y6533D01*
X35460Y6460D01*
X35533Y6404D01*
X35619Y6369D01*
X35710Y6357D01*
X38830D01*
X38921Y6369D01*
X39007Y6404D01*
X39080Y6460D01*
X39136Y6533D01*
X39171Y6619D01*
X39183Y6710D01*
X39171Y6801D01*
X39136Y6887D01*
X39080Y6960D01*
X39007Y7016D01*
X38921Y7051D01*
X38830Y7063D01*
D02*
G37*
G36*
X25767Y10827D02*
X25681Y10810D01*
X25608Y10762D01*
X25560Y10689D01*
X25543Y10603D01*
X25560Y10517D01*
X25608Y10445D01*
X25681Y10396D01*
X25767Y10379D01*
X25853Y10396D01*
X25925Y10445D01*
X25974Y10517D01*
X25991Y10603D01*
X25974Y10689D01*
X25925Y10762D01*
X25853Y10810D01*
X25767Y10827D01*
D02*
G37*
G36*
X4450Y12444D02*
X2428D01*
Y11510D01*
X2442Y11340D01*
X2481Y11174D01*
X2547Y11016D01*
X2636Y10870D01*
X2747Y10741D01*
X2876Y10630D01*
X3022Y10541D01*
X3180Y10475D01*
X3346Y10436D01*
X3516Y10422D01*
X4450D01*
Y12444D01*
D02*
G37*
G36*
X6572D02*
X4550D01*
Y10422D01*
X5484D01*
X5654Y10436D01*
X5820Y10475D01*
X5978Y10541D01*
X6124Y10630D01*
X6253Y10741D01*
X6364Y10870D01*
X6453Y11016D01*
X6519Y11174D01*
X6558Y11340D01*
X6572Y11510D01*
Y12444D01*
D02*
G37*
G36*
X21056Y10244D02*
X20970Y10227D01*
X20897Y10179D01*
X20849Y10106D01*
X20832Y10020D01*
X20849Y9934D01*
X20897Y9861D01*
X20970Y9813D01*
X21056Y9796D01*
X21142Y9813D01*
X21215Y9861D01*
X21263Y9934D01*
X21280Y10020D01*
X21263Y10106D01*
X21215Y10179D01*
X21142Y10227D01*
X21056Y10244D01*
D02*
G37*
G36*
X14759Y9304D02*
X14674Y9287D01*
X14601Y9238D01*
X14552Y9165D01*
X14535Y9079D01*
X14546Y9023D01*
X14497Y8943D01*
X13848D01*
X13845Y8949D01*
X13772Y8997D01*
X13686Y9014D01*
X13600Y8997D01*
X13527Y8949D01*
X13479Y8876D01*
X13462Y8790D01*
X13479Y8704D01*
X13522Y8640D01*
X13479Y8576D01*
X13462Y8490D01*
X13479Y8404D01*
X13527Y8331D01*
X13600Y8283D01*
X13686Y8266D01*
X13772Y8283D01*
X13845Y8331D01*
X13848Y8337D01*
X14864D01*
X14867Y8331D01*
X14940Y8283D01*
X15026Y8266D01*
X15112Y8283D01*
X15185Y8331D01*
X15233Y8404D01*
X15250Y8490D01*
X15233Y8576D01*
X15195Y8633D01*
X15243Y8704D01*
X15260Y8790D01*
X15243Y8876D01*
X15195Y8949D01*
X15122Y8997D01*
X15036Y9014D01*
X14994Y9057D01*
X14983Y9085D01*
X14967Y9165D01*
X14918Y9238D01*
X14845Y9287D01*
X14759Y9304D01*
D02*
G37*
G36*
X24304Y10340D02*
X24218Y10323D01*
X24146Y10274D01*
X24097Y10202D01*
X24080Y10116D01*
X24097Y10030D01*
X24146Y9957D01*
X24174Y9938D01*
Y9791D01*
X22286Y7903D01*
X22258Y7860D01*
X22247Y7810D01*
Y7436D01*
X22221Y7419D01*
X22173Y7346D01*
X22156Y7260D01*
X22173Y7174D01*
X22221Y7101D01*
X22294Y7053D01*
X22380Y7036D01*
X22466Y7053D01*
X22539Y7101D01*
X22587Y7174D01*
X22604Y7260D01*
X22587Y7346D01*
X22539Y7419D01*
X22513Y7436D01*
Y7755D01*
X22914Y8156D01*
X22987Y8125D01*
Y8033D01*
X22961Y8016D01*
X22913Y7943D01*
X22896Y7857D01*
X22913Y7771D01*
X22961Y7698D01*
X23034Y7650D01*
X23120Y7633D01*
X23206Y7650D01*
X23279Y7698D01*
X23316Y7754D01*
X23322Y7756D01*
X23381Y7759D01*
X23405Y7754D01*
X23416Y7736D01*
X24012Y7140D01*
X24003Y7126D01*
X23990Y7060D01*
X23933Y7032D01*
X23908Y7028D01*
X23763Y7173D01*
X23764Y7180D01*
X23747Y7266D01*
X23699Y7339D01*
X23626Y7387D01*
X23540Y7404D01*
X23454Y7387D01*
X23381Y7339D01*
X23333Y7266D01*
X23316Y7180D01*
X23333Y7094D01*
X23381Y7021D01*
X23454Y6973D01*
X23540Y6956D01*
X23547Y6957D01*
X23802Y6702D01*
X23851Y6669D01*
X23910Y6657D01*
X24305D01*
X24364Y6669D01*
X24413Y6702D01*
X24548Y6837D01*
X24581Y6886D01*
X24593Y6945D01*
Y9027D01*
X24613Y9047D01*
X25238D01*
X25241Y9041D01*
X25314Y8993D01*
X25400Y8976D01*
X25486Y8993D01*
X25559Y9041D01*
X25607Y9114D01*
X25624Y9200D01*
X25607Y9286D01*
X25559Y9359D01*
X25486Y9407D01*
X25400Y9424D01*
X25314Y9407D01*
X25241Y9359D01*
X25176Y9403D01*
X25156Y9433D01*
X25165Y9479D01*
X25148Y9565D01*
X25099Y9638D01*
X25026Y9687D01*
X24951Y9702D01*
X24936Y9777D01*
X24887Y9850D01*
X24814Y9899D01*
X24739Y9914D01*
X24724Y9989D01*
X24675Y10062D01*
X24602Y10111D01*
X24527Y10126D01*
X24511Y10202D01*
X24463Y10274D01*
X24390Y10323D01*
X24304Y10340D01*
D02*
G37*
G36*
X1770Y9764D02*
X1684Y9747D01*
X1611Y9699D01*
X1563Y9626D01*
X1546Y9540D01*
X1563Y9454D01*
X1611Y9381D01*
X1684Y9333D01*
X1770Y9316D01*
X1856Y9333D01*
X1929Y9381D01*
X1977Y9454D01*
X1994Y9540D01*
X1977Y9626D01*
X1929Y9699D01*
X1856Y9747D01*
X1770Y9764D01*
D02*
G37*
G36*
X32030Y12804D02*
X31944Y12787D01*
X31871Y12739D01*
X31823Y12666D01*
X31806Y12580D01*
X31823Y12494D01*
X31871Y12421D01*
X31944Y12373D01*
X32030Y12356D01*
X32116Y12373D01*
X32189Y12421D01*
X32237Y12494D01*
X32254Y12580D01*
X32237Y12666D01*
X32189Y12739D01*
X32116Y12787D01*
X32030Y12804D01*
D02*
G37*
G36*
X4450Y14566D02*
X3516D01*
X3346Y14552D01*
X3180Y14513D01*
X3022Y14447D01*
X2876Y14358D01*
X2747Y14247D01*
X2636Y14118D01*
X2547Y13972D01*
X2481Y13814D01*
X2442Y13648D01*
X2428Y13478D01*
Y12544D01*
X4450D01*
Y14566D01*
D02*
G37*
G36*
X5484D02*
X4550D01*
Y12544D01*
X6572D01*
Y13478D01*
X6558Y13648D01*
X6519Y13814D01*
X6453Y13972D01*
X6364Y14118D01*
X6253Y14247D01*
X6124Y14358D01*
X5978Y14447D01*
X5820Y14513D01*
X5654Y14552D01*
X5484Y14566D01*
D02*
G37*
G36*
X33500Y12684D02*
X33414Y12667D01*
X33341Y12619D01*
X33293Y12546D01*
X33276Y12460D01*
X33293Y12374D01*
X33341Y12301D01*
X33414Y12253D01*
X33500Y12236D01*
X33586Y12253D01*
X33659Y12301D01*
X33707Y12374D01*
X33724Y12460D01*
X33707Y12546D01*
X33659Y12619D01*
X33586Y12667D01*
X33500Y12684D01*
D02*
G37*
G36*
X21256Y11497D02*
X21170Y11480D01*
X21097Y11432D01*
X21049Y11359D01*
X21032Y11273D01*
X21049Y11187D01*
X21097Y11115D01*
X21170Y11066D01*
X21256Y11049D01*
X21342Y11066D01*
X21415Y11115D01*
X21463Y11187D01*
X21480Y11273D01*
X21463Y11359D01*
X21415Y11432D01*
X21342Y11480D01*
X21256Y11497D01*
D02*
G37*
G36*
X8460Y12404D02*
X8374Y12387D01*
X8301Y12339D01*
X8253Y12266D01*
X8236Y12180D01*
X8253Y12094D01*
X8301Y12021D01*
X8374Y11973D01*
X8407Y11966D01*
Y11885D01*
X8394Y11882D01*
X8321Y11834D01*
X8273Y11761D01*
X8256Y11675D01*
X8273Y11589D01*
X8321Y11516D01*
X8394Y11468D01*
X8480Y11451D01*
X8566Y11468D01*
X8639Y11516D01*
X8687Y11589D01*
X8704Y11675D01*
X8687Y11761D01*
X8639Y11834D01*
X8566Y11882D01*
X8533Y11889D01*
Y11970D01*
X8546Y11973D01*
X8619Y12021D01*
X8667Y12094D01*
X8684Y12180D01*
X8667Y12266D01*
X8619Y12339D01*
X8546Y12387D01*
X8460Y12404D01*
D02*
G37*
G36*
X26990Y12618D02*
X26904Y12601D01*
X26831Y12553D01*
X26783Y12480D01*
X26766Y12394D01*
X26768Y12381D01*
X26703Y12301D01*
X26125D01*
Y11699D01*
X27199D01*
Y12301D01*
X27199Y12301D01*
X27211Y12376D01*
X27214Y12394D01*
X27197Y12480D01*
X27149Y12553D01*
X27076Y12601D01*
X26990Y12618D01*
D02*
G37*
G36*
X15454Y7762D02*
X15369Y7745D01*
X15296Y7696D01*
X15247Y7624D01*
X15230Y7538D01*
X15247Y7452D01*
X15296Y7379D01*
X15369Y7330D01*
X15454Y7313D01*
X15540Y7330D01*
X15613Y7379D01*
X15662Y7452D01*
X15679Y7538D01*
X15662Y7624D01*
X15613Y7696D01*
X15540Y7745D01*
X15454Y7762D01*
D02*
G37*
G36*
X31210Y7824D02*
X31124Y7807D01*
X31051Y7759D01*
X31003Y7686D01*
X30986Y7600D01*
X31003Y7514D01*
X31051Y7441D01*
X31124Y7393D01*
X31210Y7376D01*
X31296Y7393D01*
X31369Y7441D01*
X31417Y7514D01*
X31434Y7600D01*
X31417Y7686D01*
X31369Y7759D01*
X31296Y7807D01*
X31210Y7824D01*
D02*
G37*
G36*
X36610Y7924D02*
X36524Y7907D01*
X36451Y7859D01*
X36403Y7786D01*
X36386Y7700D01*
X36387Y7693D01*
X36331Y7638D01*
X33955D01*
X33896Y7626D01*
X33847Y7593D01*
X33727Y7473D01*
X32250D01*
X32191Y7461D01*
X32142Y7428D01*
X32027Y7313D01*
X32020Y7314D01*
X31934Y7297D01*
X31861Y7249D01*
X31813Y7176D01*
X31796Y7090D01*
X31813Y7004D01*
X31861Y6931D01*
X31934Y6883D01*
X32020Y6866D01*
X32106Y6883D01*
X32179Y6931D01*
X32227Y7004D01*
X32244Y7090D01*
X32243Y7097D01*
X32313Y7167D01*
X32415D01*
X32473Y7087D01*
X32466Y7050D01*
X32483Y6964D01*
X32531Y6891D01*
X32604Y6843D01*
X32690Y6826D01*
X32776Y6843D01*
X32849Y6891D01*
X32897Y6964D01*
X32914Y7050D01*
X32907Y7087D01*
X32965Y7167D01*
X33790D01*
X33849Y7179D01*
X33898Y7212D01*
X34018Y7332D01*
X36395D01*
X36453Y7343D01*
X36503Y7377D01*
X36603Y7477D01*
X36610Y7476D01*
X36696Y7493D01*
X36769Y7541D01*
X36817Y7614D01*
X36834Y7700D01*
X36817Y7786D01*
X36769Y7859D01*
X36696Y7907D01*
X36610Y7924D01*
D02*
G37*
G36*
X43150Y8353D02*
X43060D01*
X42982Y8342D01*
X42909Y8312D01*
X42846Y8264D01*
X42798Y8201D01*
X42768Y8128D01*
X42757Y8050D01*
X42768Y7972D01*
X42798Y7899D01*
X42846Y7836D01*
X42909Y7788D01*
X42982Y7758D01*
X43019Y7753D01*
X43986Y6786D01*
X44049Y6738D01*
X44122Y6708D01*
X44200Y6697D01*
X44278Y6708D01*
X44351Y6738D01*
X44414Y6786D01*
X44462Y6849D01*
X44492Y6922D01*
X44503Y7000D01*
X44492Y7078D01*
X44462Y7151D01*
X44414Y7214D01*
X43364Y8264D01*
X43301Y8312D01*
X43228Y8342D01*
X43150Y8353D01*
D02*
G37*
G36*
X13183Y6517D02*
X13098Y6500D01*
X13079Y6488D01*
X13016Y6456D01*
X12953Y6488D01*
X12935Y6500D01*
X12849Y6517D01*
X12763Y6500D01*
X12690Y6452D01*
X12642Y6379D01*
X12624Y6293D01*
X12642Y6207D01*
X12690Y6135D01*
X12763Y6086D01*
X12849Y6069D01*
X12935Y6086D01*
X12953Y6098D01*
X13016Y6130D01*
X13079Y6098D01*
X13098Y6086D01*
X13183Y6069D01*
X13269Y6086D01*
X13342Y6135D01*
X13391Y6207D01*
X13408Y6293D01*
X13391Y6379D01*
X13342Y6452D01*
X13269Y6500D01*
X13183Y6517D01*
D02*
G37*
G36*
X23040Y6964D02*
X22954Y6947D01*
X22881Y6899D01*
X22833Y6826D01*
X22816Y6740D01*
X22833Y6654D01*
X22881Y6581D01*
X22954Y6533D01*
X23040Y6516D01*
X23126Y6533D01*
X23199Y6581D01*
X23247Y6654D01*
X23264Y6740D01*
X23247Y6826D01*
X23199Y6899D01*
X23126Y6947D01*
X23040Y6964D01*
D02*
G37*
G36*
X31750Y6704D02*
X31664Y6687D01*
X31591Y6639D01*
X31543Y6566D01*
X31526Y6577D01*
X31440Y6594D01*
X31354Y6577D01*
X31281Y6529D01*
X31233Y6456D01*
X31216Y6370D01*
X31233Y6284D01*
X31281Y6211D01*
X31354Y6163D01*
X31440Y6146D01*
X31526Y6163D01*
X31599Y6211D01*
X31647Y6284D01*
X31664Y6273D01*
X31750Y6256D01*
X31836Y6273D01*
X31909Y6321D01*
X31957Y6394D01*
X31974Y6480D01*
X31957Y6566D01*
X31909Y6639D01*
X31836Y6687D01*
X31750Y6704D01*
D02*
G37*
G36*
X31060Y8794D02*
X30974Y8777D01*
X30901Y8729D01*
X30853Y8656D01*
X30836Y8570D01*
X30853Y8484D01*
X30901Y8411D01*
X30974Y8363D01*
X31060Y8346D01*
X31146Y8363D01*
X31219Y8411D01*
X31267Y8484D01*
X31284Y8570D01*
X31267Y8656D01*
X31219Y8729D01*
X31146Y8777D01*
X31060Y8794D01*
D02*
G37*
G36*
X5736Y9104D02*
X5650Y9087D01*
X5577Y9039D01*
X5529Y8966D01*
X5511Y8880D01*
X5529Y8794D01*
X5577Y8721D01*
X5650Y8673D01*
X5736Y8656D01*
X5822Y8673D01*
X5894Y8721D01*
X5943Y8794D01*
X5960Y8880D01*
X5943Y8966D01*
X5894Y9039D01*
X5822Y9087D01*
X5736Y9104D01*
D02*
G37*
G36*
X30030Y9204D02*
X29944Y9187D01*
X29871Y9139D01*
X29823Y9066D01*
X29806Y8980D01*
X29823Y8894D01*
X29871Y8821D01*
X29944Y8773D01*
X30030Y8756D01*
X30116Y8773D01*
X30189Y8821D01*
X30237Y8894D01*
X30254Y8980D01*
X30237Y9066D01*
X30189Y9139D01*
X30116Y9187D01*
X30030Y9204D01*
D02*
G37*
G36*
X32210Y8624D02*
X32124Y8607D01*
X32051Y8559D01*
X32003Y8486D01*
X31986Y8400D01*
X32003Y8314D01*
X32051Y8241D01*
X32124Y8193D01*
X32210Y8176D01*
X32296Y8193D01*
X32369Y8241D01*
X32417Y8314D01*
X32434Y8400D01*
X32417Y8486D01*
X32369Y8559D01*
X32296Y8607D01*
X32210Y8624D01*
D02*
G37*
G36*
X19193Y7782D02*
X19107Y7765D01*
X19034Y7716D01*
X19017Y7690D01*
X17599D01*
X17582Y7716D01*
X17509Y7765D01*
X17423Y7782D01*
X17337Y7765D01*
X17264Y7716D01*
X17216Y7644D01*
X17199Y7558D01*
X17216Y7472D01*
X17264Y7399D01*
X17337Y7350D01*
X17423Y7333D01*
X17509Y7350D01*
X17582Y7399D01*
X17599Y7425D01*
X19017D01*
X19034Y7399D01*
X19107Y7350D01*
X19193Y7333D01*
X19279Y7350D01*
X19352Y7399D01*
X19400Y7472D01*
X19417Y7558D01*
X19400Y7644D01*
X19352Y7716D01*
X19279Y7765D01*
X19193Y7782D01*
D02*
G37*
G36*
X36240Y8324D02*
X36154Y8307D01*
X36081Y8259D01*
X36033Y8186D01*
X36016Y8100D01*
X36033Y8014D01*
X36081Y7941D01*
X36154Y7893D01*
X36240Y7876D01*
X36326Y7893D01*
X36399Y7941D01*
X36447Y8014D01*
X36464Y8100D01*
X36447Y8186D01*
X36399Y8259D01*
X36326Y8307D01*
X36240Y8324D01*
D02*
G37*
G36*
X32990Y8504D02*
X32904Y8487D01*
X32831Y8439D01*
X32783Y8366D01*
X32766Y8280D01*
X32783Y8194D01*
X32831Y8121D01*
X32904Y8073D01*
X32990Y8056D01*
X33076Y8073D01*
X33149Y8121D01*
X33197Y8194D01*
X33214Y8280D01*
X33197Y8366D01*
X33149Y8439D01*
X33076Y8487D01*
X32990Y8504D01*
D02*
G37*
G36*
X2983Y3417D02*
X2897Y3400D01*
X2824Y3351D01*
X2775Y3279D01*
X2758Y3193D01*
X2775Y3107D01*
X2824Y3034D01*
X2897Y2985D01*
X2983Y2968D01*
X3069Y2985D01*
X3141Y3034D01*
X3190Y3107D01*
X3207Y3193D01*
X3190Y3279D01*
X3141Y3351D01*
X3069Y3400D01*
X2983Y3417D01*
D02*
G37*
G36*
X20395Y895D02*
X20050D01*
Y550D01*
X20395D01*
Y895D01*
D02*
G37*
G36*
X20950Y892D02*
X20897Y885D01*
X20801Y845D01*
X20718Y782D01*
X20655Y699D01*
X20615Y603D01*
X20608Y550D01*
X20950D01*
Y892D01*
D02*
G37*
G36*
X21050D02*
Y550D01*
X21392D01*
X21385Y603D01*
X21345Y699D01*
X21282Y782D01*
X21199Y845D01*
X21103Y885D01*
X21050Y892D01*
D02*
G37*
G36*
X19950Y895D02*
X19605D01*
Y550D01*
X19950D01*
Y895D01*
D02*
G37*
G36*
X17050Y892D02*
Y550D01*
X17392D01*
X17385Y603D01*
X17345Y699D01*
X17282Y782D01*
X17199Y845D01*
X17103Y885D01*
X17050Y892D01*
D02*
G37*
G36*
X17950D02*
X17897Y885D01*
X17801Y845D01*
X17718Y782D01*
X17655Y699D01*
X17615Y603D01*
X17608Y550D01*
X17950D01*
Y892D01*
D02*
G37*
G36*
X18050D02*
Y550D01*
X18392D01*
X18385Y603D01*
X18345Y699D01*
X18282Y782D01*
X18199Y845D01*
X18103Y885D01*
X18050Y892D01*
D02*
G37*
G36*
X23950D02*
X23897Y885D01*
X23801Y845D01*
X23718Y782D01*
X23655Y699D01*
X23615Y603D01*
X23608Y550D01*
X23950D01*
Y892D01*
D02*
G37*
G36*
X24050D02*
Y550D01*
X24392D01*
X24385Y603D01*
X24345Y699D01*
X24282Y782D01*
X24199Y845D01*
X24103Y885D01*
X24050Y892D01*
D02*
G37*
G36*
X24950D02*
X24897Y885D01*
X24801Y845D01*
X24718Y782D01*
X24655Y699D01*
X24615Y603D01*
X24608Y550D01*
X24950D01*
Y892D01*
D02*
G37*
G36*
X23050D02*
Y550D01*
X23392D01*
X23385Y603D01*
X23345Y699D01*
X23282Y782D01*
X23199Y845D01*
X23103Y885D01*
X23050Y892D01*
D02*
G37*
G36*
X21950D02*
X21897Y885D01*
X21801Y845D01*
X21718Y782D01*
X21655Y699D01*
X21615Y603D01*
X21608Y550D01*
X21950D01*
Y892D01*
D02*
G37*
G36*
X22050D02*
Y550D01*
X22392D01*
X22385Y603D01*
X22345Y699D01*
X22282Y782D01*
X22199Y845D01*
X22103Y885D01*
X22050Y892D01*
D02*
G37*
G36*
X22950D02*
X22897Y885D01*
X22801Y845D01*
X22718Y782D01*
X22655Y699D01*
X22615Y603D01*
X22608Y550D01*
X22950D01*
Y892D01*
D02*
G37*
G36*
X16950D02*
X16897Y885D01*
X16801Y845D01*
X16718Y782D01*
X16655Y699D01*
X16615Y603D01*
X16608Y550D01*
X16950D01*
Y892D01*
D02*
G37*
G36*
X11950D02*
X11897Y885D01*
X11801Y845D01*
X11718Y782D01*
X11655Y699D01*
X11615Y603D01*
X11608Y550D01*
X11950D01*
Y892D01*
D02*
G37*
G36*
X12050D02*
Y550D01*
X12392D01*
X12385Y603D01*
X12345Y699D01*
X12282Y782D01*
X12199Y845D01*
X12103Y885D01*
X12050Y892D01*
D02*
G37*
G36*
X12950D02*
X12897Y885D01*
X12801Y845D01*
X12718Y782D01*
X12655Y699D01*
X12615Y603D01*
X12608Y550D01*
X12950D01*
Y892D01*
D02*
G37*
G36*
X11395Y895D02*
X11050D01*
Y550D01*
X11395D01*
Y895D01*
D02*
G37*
G36*
X34027Y1218D02*
X33955Y1208D01*
X33887Y1180D01*
X33830Y1136D01*
X33785Y1078D01*
X33757Y1010D01*
X33748Y938D01*
Y663D01*
X33757Y590D01*
X33785Y523D01*
X33830Y465D01*
X33887Y420D01*
X33955Y393D01*
X34027Y383D01*
X34100Y393D01*
X34167Y420D01*
X34225Y465D01*
X34269Y523D01*
X34297Y590D01*
X34307Y663D01*
Y938D01*
X34297Y1010D01*
X34269Y1078D01*
X34225Y1136D01*
X34167Y1180D01*
X34100Y1208D01*
X34027Y1218D01*
D02*
G37*
G36*
X36626D02*
X36553Y1208D01*
X36486Y1180D01*
X36428Y1136D01*
X36384Y1078D01*
X36356Y1010D01*
X36346Y938D01*
Y663D01*
X36356Y590D01*
X36384Y523D01*
X36428Y465D01*
X36486Y420D01*
X36553Y393D01*
X36626Y383D01*
X36698Y393D01*
X36765Y420D01*
X36823Y465D01*
X36868Y523D01*
X36896Y590D01*
X36905Y663D01*
Y938D01*
X36896Y1010D01*
X36868Y1078D01*
X36823Y1136D01*
X36765Y1180D01*
X36698Y1208D01*
X36626Y1218D01*
D02*
G37*
G36*
X10950Y895D02*
X10605D01*
Y550D01*
X10950D01*
Y895D01*
D02*
G37*
G36*
X15050Y892D02*
Y550D01*
X15392D01*
X15385Y603D01*
X15345Y699D01*
X15282Y782D01*
X15199Y845D01*
X15103Y885D01*
X15050Y892D01*
D02*
G37*
G36*
X15950D02*
X15897Y885D01*
X15801Y845D01*
X15718Y782D01*
X15655Y699D01*
X15615Y603D01*
X15608Y550D01*
X15950D01*
Y892D01*
D02*
G37*
G36*
X16050D02*
Y550D01*
X16392D01*
X16385Y603D01*
X16345Y699D01*
X16282Y782D01*
X16199Y845D01*
X16103Y885D01*
X16050Y892D01*
D02*
G37*
G36*
X14950D02*
X14897Y885D01*
X14801Y845D01*
X14718Y782D01*
X14655Y699D01*
X14615Y603D01*
X14608Y550D01*
X14950D01*
Y892D01*
D02*
G37*
G36*
X13050D02*
Y550D01*
X13392D01*
X13385Y603D01*
X13345Y699D01*
X13282Y782D01*
X13199Y845D01*
X13103Y885D01*
X13050Y892D01*
D02*
G37*
G36*
X13950D02*
X13897Y885D01*
X13801Y845D01*
X13718Y782D01*
X13655Y699D01*
X13615Y603D01*
X13608Y550D01*
X13950D01*
Y892D01*
D02*
G37*
G36*
X14050D02*
Y550D01*
X14392D01*
X14385Y603D01*
X14345Y699D01*
X14282Y782D01*
X14199Y845D01*
X14103Y885D01*
X14050Y892D01*
D02*
G37*
G36*
X25050D02*
Y550D01*
X25392D01*
X25385Y603D01*
X25345Y699D01*
X25282Y782D01*
X25199Y845D01*
X25103Y885D01*
X25050Y892D01*
D02*
G37*
G36*
X2960Y2704D02*
X2874Y2687D01*
X2801Y2639D01*
X2753Y2566D01*
X2736Y2480D01*
X2753Y2394D01*
X2801Y2321D01*
X2874Y2273D01*
X2960Y2256D01*
X3046Y2273D01*
X3119Y2321D01*
X3167Y2394D01*
X3184Y2480D01*
X3167Y2566D01*
X3119Y2639D01*
X3046Y2687D01*
X2960Y2704D01*
D02*
G37*
G36*
X26700Y2642D02*
X26647Y2635D01*
X26551Y2595D01*
X26468Y2532D01*
X26405Y2449D01*
X26365Y2353D01*
X26358Y2300D01*
X26700D01*
Y2642D01*
D02*
G37*
G36*
X26800D02*
Y2300D01*
X27142D01*
X27135Y2353D01*
X27095Y2449D01*
X27032Y2532D01*
X26949Y2595D01*
X26853Y2635D01*
X26800Y2642D01*
D02*
G37*
G36*
X9570Y7225D02*
X8830D01*
X8732Y7205D01*
X8650Y7150D01*
X8400Y6900D01*
X8345Y6818D01*
X8325Y6720D01*
X8345Y6622D01*
X8400Y6540D01*
X8482Y6485D01*
X8580Y6465D01*
X8678Y6485D01*
X8760Y6540D01*
X8936Y6715D01*
X9464D01*
X9914Y6265D01*
Y4930D01*
X9934Y4832D01*
X9989Y4749D01*
X10155Y4583D01*
Y3466D01*
X8754Y2064D01*
X6178D01*
X6153Y2144D01*
X6262Y2238D01*
X6372Y2366D01*
X6461Y2510D01*
X6525Y2667D01*
X6565Y2831D01*
X6578Y3000D01*
X6565Y3169D01*
X6525Y3333D01*
X6461Y3489D01*
X6372Y3634D01*
X6262Y3762D01*
X6134Y3872D01*
X5989Y3961D01*
X5833Y4025D01*
X5669Y4065D01*
X5500Y4078D01*
X5331Y4065D01*
X5280Y4053D01*
X5247Y4127D01*
X5269Y4141D01*
X5317Y4214D01*
X5334Y4300D01*
X5317Y4386D01*
X5269Y4459D01*
X5196Y4507D01*
X5110Y4524D01*
X5024Y4507D01*
X4951Y4459D01*
X4903Y4386D01*
X4886Y4300D01*
X4903Y4214D01*
X4951Y4141D01*
X5024Y4093D01*
X5089Y4080D01*
X5103Y3999D01*
X5010Y3961D01*
X4866Y3872D01*
X4738Y3762D01*
X4628Y3634D01*
X4539Y3489D01*
X4475Y3333D01*
X4435Y3169D01*
X4422Y3000D01*
X4435Y2831D01*
X4475Y2667D01*
X4539Y2510D01*
X4628Y2366D01*
X4738Y2238D01*
X4866Y2128D01*
X4958Y2071D01*
X4967Y2037D01*
X4964Y1974D01*
X4905Y1915D01*
X2570D01*
X2472Y1895D01*
X2390Y1840D01*
X2334Y1757D01*
X2315Y1660D01*
X2334Y1562D01*
X2390Y1480D01*
X2472Y1424D01*
X2570Y1405D01*
X4908D01*
X4959Y1325D01*
X4928Y1249D01*
X4911Y1120D01*
X4928Y991D01*
X4978Y870D01*
X5057Y766D01*
X5161Y687D01*
X5281Y637D01*
X5411Y620D01*
X5540Y637D01*
X5661Y687D01*
X5764Y766D01*
X5844Y870D01*
X5893Y991D01*
X5910Y1120D01*
X5893Y1249D01*
X5844Y1370D01*
X5764Y1474D01*
X5763Y1474D01*
X5790Y1554D01*
X7897D01*
X7939Y1474D01*
X7913Y1436D01*
X7896Y1350D01*
X7913Y1264D01*
X7961Y1191D01*
X8034Y1143D01*
X8120Y1126D01*
X8206Y1143D01*
X8279Y1191D01*
X8327Y1264D01*
X8344Y1350D01*
X8327Y1436D01*
X8301Y1474D01*
X8343Y1554D01*
X8859D01*
X8957Y1574D01*
X9040Y1629D01*
X10590Y3180D01*
X10619Y3223D01*
X10699Y3199D01*
Y3046D01*
X10745D01*
Y2954D01*
X10699D01*
Y1892D01*
X10730D01*
X10757Y1812D01*
X10718Y1782D01*
X10655Y1699D01*
X10615Y1603D01*
X10601Y1500D01*
X10615Y1397D01*
X10655Y1301D01*
X10718Y1218D01*
X10801Y1155D01*
X10897Y1115D01*
X11000Y1101D01*
X11103Y1115D01*
X11199Y1155D01*
X11282Y1218D01*
X11345Y1301D01*
X11385Y1397D01*
X11399Y1500D01*
X11385Y1603D01*
X11345Y1699D01*
X11282Y1782D01*
X11243Y1812D01*
X11270Y1892D01*
X11301D01*
Y2954D01*
X11255D01*
Y3046D01*
X11301D01*
Y4108D01*
X10745D01*
X10699Y4108D01*
X10665Y4174D01*
Y4689D01*
X10646Y4786D01*
X10590Y4869D01*
X10424Y5035D01*
Y6371D01*
X10405Y6468D01*
X10349Y6551D01*
X9750Y7150D01*
X9668Y7205D01*
X9570Y7225D01*
D02*
G37*
G36*
X27142Y2200D02*
X26800D01*
Y1858D01*
X26853Y1865D01*
X26949Y1905D01*
X27032Y1968D01*
X27095Y2051D01*
X27135Y2147D01*
X27142Y2200D01*
D02*
G37*
G36*
X38000Y4078D02*
X37831Y4065D01*
X37667Y4025D01*
X37510Y3961D01*
X37366Y3872D01*
X37238Y3762D01*
X37128Y3634D01*
X37039Y3489D01*
X36975Y3333D01*
X36935Y3169D01*
X36922Y3000D01*
X36935Y2831D01*
X36975Y2667D01*
X37039Y2510D01*
X37128Y2366D01*
X37238Y2238D01*
X37366Y2128D01*
X37510Y2039D01*
X37667Y1975D01*
X37831Y1935D01*
X38000Y1922D01*
X38169Y1935D01*
X38333Y1975D01*
X38489Y2039D01*
X38634Y2128D01*
X38762Y2238D01*
X38872Y2366D01*
X38961Y2510D01*
X39025Y2667D01*
X39065Y2831D01*
X39078Y3000D01*
X39065Y3169D01*
X39025Y3333D01*
X38961Y3489D01*
X38872Y3634D01*
X38762Y3762D01*
X38634Y3872D01*
X38489Y3961D01*
X38333Y4025D01*
X38169Y4065D01*
X38000Y4078D01*
D02*
G37*
G36*
X34646Y2425D02*
X34560Y2408D01*
X34487Y2359D01*
X34438Y2286D01*
X34421Y2201D01*
X34438Y2115D01*
X34487Y2042D01*
X34560Y1993D01*
X34646Y1976D01*
X34731Y1993D01*
X34804Y2042D01*
X34853Y2115D01*
X34870Y2201D01*
X34853Y2286D01*
X34804Y2359D01*
X34731Y2408D01*
X34646Y2425D01*
D02*
G37*
G36*
X17301Y2954D02*
X17050D01*
Y2473D01*
X17301D01*
Y2954D01*
D02*
G37*
G36*
X7920Y5099D02*
X7834Y5082D01*
X7761Y5033D01*
X7713Y4961D01*
X7696Y4875D01*
X7713Y4789D01*
X7716Y4784D01*
Y2905D01*
X7691Y2889D01*
X7643Y2816D01*
X7626Y2730D01*
X7643Y2644D01*
X7691Y2571D01*
X7764Y2523D01*
X7850Y2506D01*
X7936Y2523D01*
X8009Y2571D01*
X8057Y2644D01*
X8058Y2650D01*
X8064Y2656D01*
X8108Y2722D01*
X8124Y2800D01*
Y4784D01*
X8127Y4789D01*
X8144Y4875D01*
X8127Y4961D01*
X8079Y5033D01*
X8006Y5082D01*
X7920Y5099D01*
D02*
G37*
G36*
X27880Y5843D02*
X27789Y5831D01*
X27703Y5796D01*
X27630Y5740D01*
X27574Y5667D01*
X27539Y5581D01*
X27527Y5490D01*
X27527Y2870D01*
X27539Y2779D01*
X27574Y2693D01*
X27630Y2620D01*
X27703Y2564D01*
X27789Y2529D01*
X27880Y2517D01*
X27971Y2529D01*
X28057Y2564D01*
X28130Y2620D01*
X28186Y2693D01*
X28221Y2779D01*
X28233Y2870D01*
X28233Y5490D01*
X28221Y5581D01*
X28186Y5667D01*
X28130Y5740D01*
X28057Y5796D01*
X27971Y5831D01*
X27880Y5843D01*
D02*
G37*
G36*
X16950Y2954D02*
X16699D01*
Y2473D01*
X16950D01*
Y2954D01*
D02*
G37*
G36*
X19050Y2794D02*
X18964Y2777D01*
X18891Y2729D01*
X18843Y2656D01*
X18826Y2570D01*
X18843Y2484D01*
X18891Y2411D01*
X18964Y2363D01*
X19050Y2346D01*
X19136Y2363D01*
X19209Y2411D01*
X19257Y2484D01*
X19274Y2570D01*
X19257Y2656D01*
X19209Y2729D01*
X19136Y2777D01*
X19050Y2794D01*
D02*
G37*
G36*
X15950Y2954D02*
X15699D01*
Y2473D01*
X15950D01*
Y2954D01*
D02*
G37*
G36*
X16301D02*
X16050D01*
Y2473D01*
X16301D01*
Y2954D01*
D02*
G37*
G36*
X26700Y2200D02*
X26358D01*
X26365Y2147D01*
X26405Y2051D01*
X26468Y1968D01*
X26551Y1905D01*
X26647Y1865D01*
X26700Y1858D01*
Y2200D01*
D02*
G37*
G36*
X22301Y4108D02*
X21699D01*
Y3046D01*
X21699D01*
X21711Y3000D01*
X21699Y2954D01*
X21699D01*
Y1892D01*
X21730D01*
X21757Y1812D01*
X21718Y1782D01*
X21655Y1699D01*
X21615Y1603D01*
X21601Y1500D01*
X21615Y1397D01*
X21655Y1301D01*
X21718Y1218D01*
X21801Y1155D01*
X21897Y1115D01*
X22000Y1101D01*
X22103Y1115D01*
X22199Y1155D01*
X22282Y1218D01*
X22345Y1301D01*
X22385Y1397D01*
X22399Y1500D01*
X22385Y1603D01*
X22345Y1699D01*
X22282Y1782D01*
X22243Y1812D01*
X22270Y1892D01*
X22301D01*
Y2954D01*
X22301D01*
X22289Y3000D01*
X22301Y3046D01*
X22301D01*
Y4108D01*
D02*
G37*
G36*
X23301D02*
X22699D01*
Y3046D01*
X22699D01*
X22711Y3000D01*
X22699Y2954D01*
X22699D01*
Y1892D01*
X22730D01*
X22757Y1812D01*
X22718Y1782D01*
X22655Y1699D01*
X22615Y1603D01*
X22601Y1500D01*
X22615Y1397D01*
X22655Y1301D01*
X22718Y1218D01*
X22801Y1155D01*
X22897Y1115D01*
X23000Y1101D01*
X23103Y1115D01*
X23199Y1155D01*
X23282Y1218D01*
X23345Y1301D01*
X23385Y1397D01*
X23399Y1500D01*
X23385Y1603D01*
X23345Y1699D01*
X23282Y1782D01*
X23243Y1812D01*
X23270Y1892D01*
X23301D01*
Y2954D01*
X23301D01*
X23289Y3000D01*
X23301Y3046D01*
X23301D01*
Y4108D01*
D02*
G37*
G36*
X24301D02*
X23699D01*
Y3046D01*
X23699D01*
X23711Y3000D01*
X23699Y2954D01*
X23699D01*
Y1892D01*
X23730D01*
X23757Y1812D01*
X23718Y1782D01*
X23655Y1699D01*
X23615Y1603D01*
X23601Y1500D01*
X23615Y1397D01*
X23655Y1301D01*
X23718Y1218D01*
X23801Y1155D01*
X23897Y1115D01*
X24000Y1101D01*
X24103Y1115D01*
X24199Y1155D01*
X24282Y1218D01*
X24345Y1301D01*
X24385Y1397D01*
X24399Y1500D01*
X24385Y1603D01*
X24345Y1699D01*
X24282Y1782D01*
X24243Y1812D01*
X24270Y1892D01*
X24301D01*
Y2954D01*
X24301D01*
X24289Y3000D01*
X24301Y3046D01*
X24301D01*
Y4108D01*
D02*
G37*
G36*
X18301D02*
X17699D01*
Y3046D01*
X17699D01*
X17711Y3000D01*
X17699Y2954D01*
X17699D01*
Y1892D01*
X17730D01*
X17757Y1812D01*
X17718Y1782D01*
X17655Y1699D01*
X17615Y1603D01*
X17601Y1500D01*
X17615Y1397D01*
X17655Y1301D01*
X17718Y1218D01*
X17801Y1155D01*
X17897Y1115D01*
X18000Y1101D01*
X18103Y1115D01*
X18199Y1155D01*
X18282Y1218D01*
X18345Y1301D01*
X18385Y1397D01*
X18399Y1500D01*
X18385Y1603D01*
X18345Y1699D01*
X18282Y1782D01*
X18243Y1812D01*
X18270Y1892D01*
X18301D01*
Y2954D01*
X18301D01*
X18289Y3000D01*
X18301Y3046D01*
X18301D01*
Y4108D01*
D02*
G37*
G36*
X6950Y1104D02*
X6864Y1087D01*
X6791Y1039D01*
X6743Y966D01*
X6726Y880D01*
X6743Y794D01*
X6791Y721D01*
X6864Y673D01*
X6950Y656D01*
X7036Y673D01*
X7109Y721D01*
X7157Y794D01*
X7174Y880D01*
X7157Y966D01*
X7109Y1039D01*
X7036Y1087D01*
X6950Y1104D01*
D02*
G37*
G36*
X1121Y1259D02*
X1036Y1242D01*
X963Y1193D01*
X914Y1120D01*
X897Y1035D01*
X914Y949D01*
X963Y876D01*
X1036Y827D01*
X1121Y810D01*
X1207Y827D01*
X1280Y876D01*
X1329Y949D01*
X1346Y1035D01*
X1329Y1120D01*
X1280Y1193D01*
X1207Y1242D01*
X1121Y1259D01*
D02*
G37*
G36*
X2041D02*
X1956Y1242D01*
X1883Y1193D01*
X1834Y1120D01*
X1817Y1035D01*
X1834Y949D01*
X1883Y876D01*
X1956Y827D01*
X2041Y810D01*
X2127Y827D01*
X2200Y876D01*
X2249Y949D01*
X2266Y1035D01*
X2249Y1120D01*
X2200Y1193D01*
X2127Y1242D01*
X2041Y1259D01*
D02*
G37*
G36*
X1586Y1945D02*
X1500Y1927D01*
X1427Y1879D01*
X1378Y1806D01*
X1361Y1720D01*
X1378Y1634D01*
X1427Y1562D01*
X1500Y1513D01*
X1586Y1496D01*
X1671Y1513D01*
X1744Y1562D01*
X1793Y1634D01*
X1810Y1720D01*
X1793Y1806D01*
X1744Y1879D01*
X1671Y1927D01*
X1586Y1945D01*
D02*
G37*
G36*
X16301Y2373D02*
X15699D01*
Y1892D01*
X15730D01*
X15757Y1812D01*
X15718Y1782D01*
X15655Y1699D01*
X15615Y1603D01*
X15608Y1550D01*
X16392D01*
X16385Y1603D01*
X16345Y1699D01*
X16282Y1782D01*
X16243Y1812D01*
X16270Y1892D01*
X16301D01*
Y2373D01*
D02*
G37*
G36*
X17301D02*
X16699D01*
Y1892D01*
X16730D01*
X16757Y1812D01*
X16718Y1782D01*
X16655Y1699D01*
X16615Y1603D01*
X16608Y1550D01*
X17392D01*
X17385Y1603D01*
X17345Y1699D01*
X17282Y1782D01*
X17243Y1812D01*
X17270Y1892D01*
X17301D01*
Y2373D01*
D02*
G37*
G36*
X17392Y1450D02*
X17050D01*
Y1108D01*
X17103Y1115D01*
X17199Y1155D01*
X17282Y1218D01*
X17345Y1301D01*
X17385Y1397D01*
X17392Y1450D01*
D02*
G37*
G36*
X15950D02*
X15608D01*
X15615Y1397D01*
X15655Y1301D01*
X15718Y1218D01*
X15801Y1155D01*
X15897Y1115D01*
X15950Y1108D01*
Y1450D01*
D02*
G37*
G36*
X16392D02*
X16050D01*
Y1108D01*
X16103Y1115D01*
X16199Y1155D01*
X16282Y1218D01*
X16345Y1301D01*
X16385Y1397D01*
X16392Y1450D01*
D02*
G37*
G36*
X16950D02*
X16608D01*
X16615Y1397D01*
X16655Y1301D01*
X16718Y1218D01*
X16801Y1155D01*
X16897Y1115D01*
X16950Y1108D01*
Y1450D01*
D02*
G37*
G36*
X24800Y14694D02*
X24714Y14677D01*
X24641Y14629D01*
X24593Y14556D01*
X24576Y14470D01*
X24582Y14439D01*
X24443Y14301D01*
X23901D01*
Y13699D01*
X24603D01*
X24624Y13660D01*
X24635Y13619D01*
X24593Y13556D01*
X24576Y13470D01*
X24582Y13439D01*
X24443Y13301D01*
X23901D01*
Y12699D01*
X24623D01*
X24631Y12619D01*
X24591Y12611D01*
X24518Y12563D01*
X24470Y12490D01*
X24453Y12404D01*
X24457Y12381D01*
X24392Y12301D01*
X23901D01*
Y11699D01*
X24975D01*
Y12301D01*
X24961D01*
X24897Y12381D01*
X24901Y12404D01*
X24884Y12490D01*
X24835Y12563D01*
X24763Y12611D01*
X24723Y12619D01*
X24730Y12699D01*
X24975D01*
Y13301D01*
X24975Y13301D01*
X24975D01*
X25000Y13373D01*
X25007Y13384D01*
X25024Y13470D01*
X25007Y13556D01*
X24965Y13619D01*
X24975Y13699D01*
X24975Y13714D01*
Y14301D01*
X24975Y14301D01*
X24975D01*
X25000Y14373D01*
X25007Y14384D01*
X25024Y14470D01*
X25007Y14556D01*
X24959Y14629D01*
X24886Y14677D01*
X24800Y14694D01*
D02*
G37*
G36*
X13350Y24450D02*
X13008D01*
X13015Y24397D01*
X13055Y24301D01*
X13118Y24218D01*
X13201Y24155D01*
X13297Y24115D01*
X13350Y24108D01*
Y24450D01*
D02*
G37*
G36*
X14350D02*
X14008D01*
X14015Y24397D01*
X14055Y24301D01*
X14118Y24218D01*
X14201Y24155D01*
X14297Y24115D01*
X14350Y24108D01*
Y24450D01*
D02*
G37*
G36*
X15350D02*
X15008D01*
X15015Y24397D01*
X15055Y24301D01*
X15118Y24218D01*
X15201Y24155D01*
X15297Y24115D01*
X15350Y24108D01*
Y24450D01*
D02*
G37*
G36*
X12350D02*
X12008D01*
X12015Y24397D01*
X12055Y24301D01*
X12118Y24218D01*
X12201Y24155D01*
X12297Y24115D01*
X12350Y24108D01*
Y24450D01*
D02*
G37*
G36*
X9350D02*
X9008D01*
X9015Y24397D01*
X9055Y24301D01*
X9118Y24218D01*
X9201Y24155D01*
X9297Y24115D01*
X9350Y24108D01*
Y24450D01*
D02*
G37*
G36*
X10350D02*
X10008D01*
X10015Y24397D01*
X10055Y24301D01*
X10118Y24218D01*
X10201Y24155D01*
X10297Y24115D01*
X10350Y24108D01*
Y24450D01*
D02*
G37*
G36*
X11350D02*
X11008D01*
X11015Y24397D01*
X11055Y24301D01*
X11118Y24218D01*
X11201Y24155D01*
X11297Y24115D01*
X11350Y24108D01*
Y24450D01*
D02*
G37*
G36*
X17950D02*
X17608D01*
X17615Y24397D01*
X17655Y24301D01*
X17718Y24218D01*
X17801Y24155D01*
X17897Y24115D01*
X17950Y24108D01*
Y24450D01*
D02*
G37*
G36*
X22950D02*
X22608D01*
X22615Y24397D01*
X22655Y24301D01*
X22718Y24218D01*
X22801Y24155D01*
X22897Y24115D01*
X22950Y24108D01*
Y24450D01*
D02*
G37*
G36*
X23950D02*
X23608D01*
X23615Y24397D01*
X23655Y24301D01*
X23718Y24218D01*
X23801Y24155D01*
X23897Y24115D01*
X23950Y24108D01*
Y24450D01*
D02*
G37*
G36*
X26950D02*
X26608D01*
X26615Y24397D01*
X26655Y24301D01*
X26718Y24218D01*
X26801Y24155D01*
X26897Y24115D01*
X26950Y24108D01*
Y24450D01*
D02*
G37*
G36*
X21950D02*
X21608D01*
X21615Y24397D01*
X21655Y24301D01*
X21718Y24218D01*
X21801Y24155D01*
X21897Y24115D01*
X21950Y24108D01*
Y24450D01*
D02*
G37*
G36*
X18950D02*
X18608D01*
X18615Y24397D01*
X18655Y24301D01*
X18718Y24218D01*
X18801Y24155D01*
X18897Y24115D01*
X18950Y24108D01*
Y24450D01*
D02*
G37*
G36*
X19950D02*
X19608D01*
X19615Y24397D01*
X19655Y24301D01*
X19718Y24218D01*
X19801Y24155D01*
X19897Y24115D01*
X19950Y24108D01*
Y24450D01*
D02*
G37*
G36*
X20950D02*
X20608D01*
X20615Y24397D01*
X20655Y24301D01*
X20718Y24218D01*
X20801Y24155D01*
X20897Y24115D01*
X20950Y24108D01*
Y24450D01*
D02*
G37*
G36*
X49642Y23950D02*
X49300D01*
Y23608D01*
X49353Y23615D01*
X49449Y23655D01*
X49532Y23718D01*
X49595Y23801D01*
X49635Y23897D01*
X49642Y23950D01*
D02*
G37*
G36*
X49200Y24392D02*
X49147Y24385D01*
X49051Y24345D01*
X48968Y24282D01*
X48905Y24199D01*
X48865Y24103D01*
X48858Y24050D01*
X49200D01*
Y24392D01*
D02*
G37*
G36*
X49300D02*
Y24050D01*
X49642D01*
X49635Y24103D01*
X49595Y24199D01*
X49532Y24282D01*
X49449Y24345D01*
X49353Y24385D01*
X49300Y24392D01*
D02*
G37*
G36*
X49200Y23950D02*
X48858D01*
X48865Y23897D01*
X48905Y23801D01*
X48968Y23718D01*
X49051Y23655D01*
X49147Y23615D01*
X49200Y23608D01*
Y23950D01*
D02*
G37*
G36*
X36300Y23654D02*
X36214Y23637D01*
X36141Y23589D01*
X36093Y23516D01*
X36076Y23430D01*
X36093Y23344D01*
X36141Y23271D01*
X36214Y23223D01*
X36300Y23206D01*
X36386Y23223D01*
X36459Y23271D01*
X36507Y23344D01*
X36524Y23430D01*
X36507Y23516D01*
X36459Y23589D01*
X36386Y23637D01*
X36300Y23654D01*
D02*
G37*
G36*
X10350Y23892D02*
X10297Y23885D01*
X10201Y23845D01*
X10118Y23782D01*
X10055Y23699D01*
X10015Y23603D01*
X10008Y23550D01*
X10350D01*
Y23892D01*
D02*
G37*
G36*
X10450Y23892D02*
Y23550D01*
X10792D01*
X10785Y23603D01*
X10745Y23699D01*
X10682Y23782D01*
X10599Y23845D01*
X10503Y23885D01*
X10450Y23892D01*
D02*
G37*
G36*
X16350Y24450D02*
X16005D01*
Y24105D01*
X16350D01*
Y24450D01*
D02*
G37*
G36*
X34395D02*
X34050D01*
Y24105D01*
X34395D01*
Y24450D01*
D02*
G37*
G36*
X7350D02*
X7008D01*
X7015Y24397D01*
X7055Y24301D01*
X7118Y24218D01*
X7201Y24155D01*
X7297Y24115D01*
X7350Y24108D01*
Y24450D01*
D02*
G37*
G36*
X8350D02*
X8008D01*
X8015Y24397D01*
X8055Y24301D01*
X8118Y24218D01*
X8201Y24155D01*
X8297Y24115D01*
X8350Y24108D01*
Y24450D01*
D02*
G37*
G36*
X33950D02*
X33605D01*
Y24105D01*
X33950D01*
Y24450D01*
D02*
G37*
G36*
X16795D02*
X16450D01*
Y24105D01*
X16795D01*
Y24450D01*
D02*
G37*
G36*
X24950D02*
X24605D01*
Y24105D01*
X24950D01*
Y24450D01*
D02*
G37*
G36*
X25395D02*
X25050D01*
Y24105D01*
X25395D01*
Y24450D01*
D02*
G37*
G36*
X22392D02*
X22050D01*
Y24108D01*
X22103Y24115D01*
X22199Y24155D01*
X22282Y24218D01*
X22345Y24301D01*
X22385Y24397D01*
X22392Y24450D01*
D02*
G37*
G36*
X23392D02*
X23050D01*
Y24108D01*
X23103Y24115D01*
X23199Y24155D01*
X23282Y24218D01*
X23345Y24301D01*
X23385Y24397D01*
X23392Y24450D01*
D02*
G37*
G36*
X24392D02*
X24050D01*
Y24108D01*
X24103Y24115D01*
X24199Y24155D01*
X24282Y24218D01*
X24345Y24301D01*
X24385Y24397D01*
X24392Y24450D01*
D02*
G37*
G36*
X21392D02*
X21050D01*
Y24108D01*
X21103Y24115D01*
X21199Y24155D01*
X21282Y24218D01*
X21345Y24301D01*
X21385Y24397D01*
X21392Y24450D01*
D02*
G37*
G36*
X18392D02*
X18050D01*
Y24108D01*
X18103Y24115D01*
X18199Y24155D01*
X18282Y24218D01*
X18345Y24301D01*
X18385Y24397D01*
X18392Y24450D01*
D02*
G37*
G36*
X19392D02*
X19050D01*
Y24108D01*
X19103Y24115D01*
X19199Y24155D01*
X19282Y24218D01*
X19345Y24301D01*
X19385Y24397D01*
X19392Y24450D01*
D02*
G37*
G36*
X20392D02*
X20050D01*
Y24108D01*
X20103Y24115D01*
X20199Y24155D01*
X20282Y24218D01*
X20345Y24301D01*
X20385Y24397D01*
X20392Y24450D01*
D02*
G37*
G36*
X27392D02*
X27050D01*
Y24108D01*
X27103Y24115D01*
X27199Y24155D01*
X27282Y24218D01*
X27345Y24301D01*
X27385Y24397D01*
X27392Y24450D01*
D02*
G37*
G36*
X32392D02*
X32050D01*
Y24108D01*
X32103Y24115D01*
X32199Y24155D01*
X32282Y24218D01*
X32345Y24301D01*
X32385Y24397D01*
X32392Y24450D01*
D02*
G37*
G36*
X33392D02*
X33050D01*
Y24108D01*
X33103Y24115D01*
X33199Y24155D01*
X33282Y24218D01*
X33345Y24301D01*
X33385Y24397D01*
X33392Y24450D01*
D02*
G37*
G36*
X1680Y24464D02*
X1594Y24447D01*
X1530Y24404D01*
X1466Y24447D01*
X1380Y24464D01*
X1294Y24447D01*
X1221Y24399D01*
X1173Y24326D01*
X1156Y24240D01*
X1173Y24154D01*
X1221Y24081D01*
X1294Y24033D01*
X1380Y24016D01*
X1411Y24022D01*
X1536Y23896D01*
X1579Y23868D01*
X1630Y23857D01*
X1668D01*
X2079Y23446D01*
X2049Y23373D01*
X1556D01*
X1538Y23399D01*
X1466Y23447D01*
X1380Y23464D01*
X1294Y23447D01*
X1221Y23399D01*
X1173Y23326D01*
X1156Y23240D01*
X1173Y23154D01*
X1221Y23081D01*
X1294Y23033D01*
X1304Y23031D01*
Y22949D01*
X1294Y22947D01*
X1221Y22899D01*
X1173Y22826D01*
X1156Y22740D01*
X1173Y22654D01*
X1221Y22581D01*
X1294Y22533D01*
X1304Y22531D01*
Y22449D01*
X1294Y22447D01*
X1221Y22399D01*
X1173Y22326D01*
X1156Y22240D01*
X1173Y22154D01*
X1221Y22081D01*
X1294Y22033D01*
X1380Y22016D01*
X1466Y22033D01*
X1538Y22081D01*
X1556Y22107D01*
X2909D01*
X3276Y21741D01*
X3255Y21648D01*
X3211Y21619D01*
X3163Y21546D01*
X3146Y21460D01*
X3163Y21374D01*
X3174Y21357D01*
X3101Y21309D01*
X3053Y21236D01*
X3036Y21150D01*
X3053Y21064D01*
X3101Y20991D01*
X3174Y20943D01*
X3260Y20926D01*
X3346Y20943D01*
X3419Y20991D01*
X3422Y20997D01*
X3566D01*
X6007Y18556D01*
Y16502D01*
X6001Y16499D01*
X5953Y16426D01*
X5936Y16340D01*
X5953Y16254D01*
X6001Y16181D01*
X6074Y16133D01*
X6160Y16116D01*
X6246Y16133D01*
X6319Y16181D01*
X6367Y16254D01*
X6384Y16340D01*
X6367Y16426D01*
X6319Y16499D01*
X6313Y16502D01*
Y18620D01*
X6301Y18678D01*
X6268Y18728D01*
X6103Y18893D01*
X6134Y18967D01*
X7099D01*
Y18098D01*
X7025Y18031D01*
X7010Y18034D01*
X6924Y18017D01*
X6851Y17969D01*
X6803Y17896D01*
X6786Y17810D01*
X6803Y17724D01*
X6851Y17651D01*
X6924Y17603D01*
X7010Y17586D01*
X7019Y17588D01*
X7099Y17522D01*
Y16892D01*
X7701D01*
Y17954D01*
X7701D01*
X7689Y18000D01*
X7701Y18046D01*
X7701D01*
Y18967D01*
X8099D01*
Y18046D01*
X8099D01*
X8111Y18000D01*
X8099Y17954D01*
X8099D01*
Y16892D01*
X8701D01*
Y17954D01*
X8701D01*
X8689Y18000D01*
X8701Y18046D01*
X8701D01*
Y18967D01*
X9099D01*
Y18046D01*
X9099D01*
X9111Y18000D01*
X9099Y17954D01*
X9099D01*
Y16892D01*
X9701D01*
Y17954D01*
X9701D01*
X9689Y18000D01*
X9701Y18046D01*
X9701D01*
Y18967D01*
X10099D01*
Y18046D01*
X10099D01*
X10111Y18000D01*
X10099Y17954D01*
X10099D01*
Y16892D01*
X10701D01*
Y17954D01*
X10701D01*
X10689Y18000D01*
X10701Y18046D01*
X10701D01*
Y18967D01*
X11099D01*
Y18046D01*
X11099D01*
X11111Y18000D01*
X11099Y17954D01*
X11099D01*
Y16892D01*
X11701D01*
Y17954D01*
X11701D01*
X11689Y18000D01*
X11701Y18046D01*
X11701D01*
Y18967D01*
X12099D01*
Y18046D01*
X12099D01*
X12111Y18000D01*
X12099Y17954D01*
X12099D01*
Y16892D01*
X12701D01*
Y17954D01*
X12701D01*
X12689Y18000D01*
X12701Y18046D01*
X12701D01*
Y18967D01*
X13099D01*
Y18046D01*
X13099D01*
X13111Y18000D01*
X13099Y17954D01*
X13099D01*
Y16892D01*
X13701D01*
Y17954D01*
X13701D01*
X13689Y18000D01*
X13701Y18046D01*
X13701D01*
Y18967D01*
X14099D01*
Y18046D01*
X14099D01*
X14111Y18000D01*
X14099Y17954D01*
X14099D01*
Y16892D01*
X14617D01*
Y15870D01*
X14629Y15811D01*
X14662Y15762D01*
X15747Y14677D01*
Y14576D01*
X15739Y14563D01*
X15727Y14505D01*
Y14190D01*
X15739Y14131D01*
X15772Y14082D01*
X15777Y14077D01*
Y12310D01*
X15789Y12251D01*
X15822Y12202D01*
X16472Y11552D01*
X16500Y11533D01*
X16521Y11501D01*
X16594Y11453D01*
X16680Y11436D01*
X16766Y11453D01*
X16839Y11501D01*
X16887Y11574D01*
X16904Y11660D01*
X16887Y11746D01*
X16839Y11819D01*
X16838Y11915D01*
X16857Y11944D01*
X16874Y12030D01*
X16871Y12046D01*
X16881Y12061D01*
X16893Y12120D01*
Y12198D01*
X16955Y12249D01*
X16970Y12246D01*
X17056Y12263D01*
X17129Y12311D01*
X17177Y12384D01*
X17194Y12470D01*
X17177Y12556D01*
X17129Y12629D01*
X17103Y12646D01*
Y14602D01*
X17106Y14603D01*
X17179Y14651D01*
X17227Y14724D01*
X17244Y14810D01*
X17227Y14896D01*
X17179Y14969D01*
X17163Y14979D01*
X17155Y15059D01*
X17213Y15117D01*
X17712D01*
X17743Y15043D01*
X17520Y14820D01*
X17464Y14738D01*
X17445Y14640D01*
Y14530D01*
X17464Y14432D01*
X17520Y14350D01*
X17539Y14337D01*
X17522Y14252D01*
X17514Y14250D01*
X17441Y14202D01*
X17393Y14129D01*
X17376Y14043D01*
X17393Y13957D01*
X17441Y13885D01*
X17514Y13836D01*
X17600Y13819D01*
X17686Y13836D01*
X17759Y13885D01*
X17807Y13957D01*
X17824Y14043D01*
X17807Y14129D01*
X17759Y14202D01*
X17755Y14204D01*
X17772Y14289D01*
X17798Y14295D01*
X17880Y14350D01*
X17935Y14432D01*
X17955Y14530D01*
Y14534D01*
X18176Y14755D01*
X19160D01*
X19205Y14675D01*
X19192Y14610D01*
X19209Y14524D01*
X19257Y14451D01*
X19330Y14403D01*
X19416Y14386D01*
X19502Y14403D01*
X19575Y14451D01*
X19623Y14524D01*
X19640Y14610D01*
X19627Y14675D01*
X19673Y14755D01*
X20004D01*
X20045Y14714D01*
Y14516D01*
X16650Y11120D01*
X15356D01*
X15350Y11127D01*
X15321Y11200D01*
X15346Y11237D01*
X15360Y11307D01*
X15346Y11378D01*
X15314Y11426D01*
X15306Y11466D01*
Y11488D01*
X15314Y11528D01*
X15346Y11576D01*
X15360Y11646D01*
X15351Y11689D01*
X15449Y11808D01*
X15539Y11977D01*
X15595Y12160D01*
X15613Y12350D01*
X15612D01*
X15599Y12516D01*
X15560Y12678D01*
X15496Y12832D01*
X15409Y12974D01*
X15301Y13101D01*
X15300Y13100D01*
X14983Y13417D01*
X15006Y13502D01*
X15008Y13504D01*
X15079Y13551D01*
X15127Y13624D01*
X15144Y13710D01*
X15127Y13796D01*
X15079Y13869D01*
X15006Y13917D01*
X14920Y13934D01*
X14834Y13917D01*
X14761Y13869D01*
X14714Y13798D01*
X14712Y13796D01*
X14627Y13773D01*
X14292Y14107D01*
X14237Y14165D01*
X14237Y14165D01*
X14106Y14277D01*
X13959Y14366D01*
X13800Y14432D01*
X13633Y14472D01*
X13462Y14486D01*
Y14484D01*
X13462Y14484D01*
X13220D01*
X13196Y14520D01*
X13136Y14560D01*
X13066Y14574D01*
X12996Y14560D01*
X12936Y14520D01*
X12896Y14460D01*
X12883Y14390D01*
X12896Y14320D01*
X12936Y14260D01*
X12996Y14220D01*
X13066Y14206D01*
X13136Y14220D01*
X13196Y14260D01*
X13220Y14296D01*
X13382D01*
X13382Y14296D01*
X13462Y14296D01*
X13539Y14289D01*
X13639Y14279D01*
X13809Y14228D01*
X13966Y14144D01*
X14100Y14034D01*
X14102Y14030D01*
X15167Y12966D01*
X15167Y12966D01*
X15167Y12966D01*
X15216Y12907D01*
X15276Y12835D01*
X15356Y12684D01*
X15406Y12520D01*
X15422Y12353D01*
X15422Y12350D01*
X15422Y12348D01*
X15407Y12197D01*
X15363Y12050D01*
X15290Y11914D01*
X15215Y11822D01*
X15176Y11830D01*
X15106Y11816D01*
X15046Y11776D01*
X15007Y11717D01*
X14993Y11646D01*
X15007Y11576D01*
X15039Y11528D01*
X15046Y11488D01*
Y11471D01*
X14981Y11401D01*
X14424D01*
X14420Y11400D01*
X14247Y11417D01*
X14077Y11469D01*
X13920Y11552D01*
X13786Y11663D01*
X13783Y11666D01*
X13506Y11943D01*
X13506Y11943D01*
X13508Y11945D01*
X13372Y12056D01*
X13218Y12139D01*
X13050Y12190D01*
X13039Y12191D01*
X13006Y12240D01*
X12946Y12280D01*
X12876Y12294D01*
X12806Y12280D01*
X12746Y12240D01*
X12707Y12180D01*
X12693Y12110D01*
X12707Y12040D01*
X12746Y11980D01*
X12806Y11940D01*
X12876Y11926D01*
X12946Y11940D01*
X13006Y11980D01*
X13019Y12000D01*
X13145Y11962D01*
X13266Y11897D01*
X13313Y11859D01*
X13373Y11810D01*
X13373Y11810D01*
X13429Y11753D01*
X13650Y11533D01*
X13650Y11533D01*
X13649Y11531D01*
X13780Y11420D01*
X13926Y11330D01*
X14085Y11264D01*
X14252Y11224D01*
X14424Y11210D01*
Y11212D01*
X14424Y11212D01*
X14950D01*
X14958Y11200D01*
X14915Y11120D01*
X13286D01*
X13189Y11101D01*
X13106Y11046D01*
X13051Y10963D01*
X13031Y10865D01*
X13051Y10768D01*
X13106Y10685D01*
X13189Y10630D01*
X13286Y10610D01*
X13500D01*
Y10414D01*
X13156Y10070D01*
X13101Y9988D01*
X13081Y9890D01*
X13101Y9792D01*
X13156Y9710D01*
X13239Y9655D01*
X13336Y9635D01*
X13434Y9655D01*
X13516Y9710D01*
X13812Y10005D01*
X16638D01*
X16671Y9925D01*
X16516Y9770D01*
X16461Y9688D01*
X16441Y9590D01*
Y6453D01*
X16461Y6356D01*
X16516Y6273D01*
X16519Y6270D01*
X16602Y6215D01*
X16699Y6195D01*
X16797Y6215D01*
X16879Y6270D01*
X16935Y6352D01*
X16954Y6450D01*
X16951Y6466D01*
Y9484D01*
X20420Y12953D01*
X20641Y12732D01*
Y12437D01*
X20066Y11862D01*
X20011Y11779D01*
X19991Y11682D01*
Y10930D01*
X19978Y10921D01*
X19870Y10942D01*
X19867Y10946D01*
X19794Y10995D01*
X19708Y11012D01*
X19622Y10995D01*
X19550Y10946D01*
X19501Y10873D01*
X19484Y10787D01*
X19501Y10702D01*
X19550Y10629D01*
X19622Y10580D01*
X19708Y10563D01*
X19794Y10580D01*
X19867Y10629D01*
X19870Y10633D01*
X19978Y10653D01*
X19991Y10644D01*
Y9110D01*
X20011Y9012D01*
X20066Y8930D01*
X20666Y8330D01*
X20749Y8274D01*
X20846Y8255D01*
X20944Y8274D01*
X21026Y8330D01*
X21082Y8412D01*
X21101Y8510D01*
X21082Y8608D01*
X21026Y8690D01*
X20501Y9216D01*
Y11576D01*
X21076Y12151D01*
X21132Y12234D01*
X21151Y12332D01*
Y12838D01*
X21132Y12935D01*
X21076Y13018D01*
X20600Y13494D01*
X20518Y13549D01*
X20517Y13549D01*
X20506Y13557D01*
X20420Y13574D01*
X20392Y13569D01*
X19924D01*
X19893Y13643D01*
X20480Y14230D01*
X20535Y14312D01*
X20555Y14410D01*
Y14820D01*
X20535Y14918D01*
X20480Y15000D01*
X20290Y15190D01*
X20208Y15245D01*
X20110Y15265D01*
X19129D01*
X19098Y15339D01*
X20547Y16787D01*
X20553Y16786D01*
X20639Y16803D01*
X20712Y16851D01*
X20761Y16924D01*
X20778Y17010D01*
X20761Y17096D01*
X20712Y17169D01*
X20639Y17217D01*
X20587Y17228D01*
X20557Y17310D01*
X21413Y18167D01*
X21420Y18166D01*
X21506Y18183D01*
X21579Y18231D01*
X21627Y18304D01*
X21644Y18390D01*
X21627Y18476D01*
X21579Y18549D01*
X21506Y18597D01*
X21420Y18614D01*
X21334Y18597D01*
X21261Y18549D01*
X21213Y18476D01*
X21196Y18390D01*
X21197Y18383D01*
X20197Y17383D01*
X20164Y17334D01*
X20152Y17275D01*
Y17051D01*
X18694Y15593D01*
X18302D01*
X18251Y15655D01*
X18254Y15670D01*
X18237Y15756D01*
X18189Y15829D01*
X18116Y15877D01*
X18030Y15894D01*
X17944Y15877D01*
X17871Y15829D01*
X17823Y15756D01*
X17806Y15670D01*
X17809Y15655D01*
X17758Y15593D01*
X16733D01*
Y15950D01*
X16721Y16009D01*
X16688Y16058D01*
X16243Y16503D01*
Y16740D01*
X16231Y16799D01*
X16222Y16812D01*
X16260Y16892D01*
X16701D01*
Y17954D01*
X16655D01*
Y18046D01*
X16701D01*
Y19108D01*
X16655D01*
Y19251D01*
X16728Y19292D01*
X16850Y19170D01*
X16932Y19115D01*
X17030Y19095D01*
X17099D01*
Y18046D01*
X17145D01*
Y17954D01*
X17099D01*
Y16892D01*
X17701D01*
Y17954D01*
X17655D01*
Y18046D01*
X17701D01*
Y19095D01*
X18099D01*
Y18046D01*
X18145D01*
Y17954D01*
X18099D01*
Y16892D01*
X18701D01*
Y17954D01*
X18655D01*
Y18046D01*
X18701D01*
Y19095D01*
X24543D01*
X24609Y19015D01*
X24606Y19000D01*
X24623Y18914D01*
X24671Y18841D01*
X24744Y18793D01*
X24830Y18776D01*
X24916Y18793D01*
X24989Y18841D01*
X25000Y18859D01*
X25046Y18856D01*
X25088Y18846D01*
X25131Y18781D01*
X25204Y18733D01*
X25290Y18716D01*
X25376Y18733D01*
X25449Y18781D01*
X25474Y18820D01*
X25544Y18773D01*
X25630Y18756D01*
X25716Y18773D01*
X25789Y18821D01*
X25837Y18894D01*
X25854Y18980D01*
X25847Y19015D01*
X25907Y19095D01*
X39798D01*
X39840Y19015D01*
X39823Y18989D01*
X39806Y18903D01*
X39823Y18817D01*
X39871Y18744D01*
X39944Y18696D01*
X40030Y18679D01*
X40105Y18694D01*
X40151Y18624D01*
X40224Y18576D01*
X40310Y18559D01*
X40385Y18574D01*
X40431Y18504D01*
X40504Y18456D01*
X40588Y18439D01*
X40603Y18367D01*
X40646Y18303D01*
X40603Y18239D01*
X40586Y18153D01*
X40603Y18067D01*
X40651Y17994D01*
X40721Y17948D01*
X40684Y17894D01*
X40665Y17796D01*
Y16106D01*
X40460Y15900D01*
X40405Y15818D01*
X40385Y15720D01*
Y15374D01*
X40305Y15366D01*
X40297Y15406D01*
X40249Y15479D01*
X40176Y15527D01*
X40090Y15544D01*
X40004Y15527D01*
X39931Y15479D01*
X39883Y15406D01*
X39866Y15320D01*
X39883Y15234D01*
X39931Y15161D01*
X40004Y15113D01*
X40090Y15096D01*
X40176Y15113D01*
X40249Y15161D01*
X40297Y15234D01*
X40305Y15274D01*
X40385Y15266D01*
Y13260D01*
X40405Y13162D01*
X40460Y13080D01*
X41470Y12070D01*
X41552Y12014D01*
X41650Y11995D01*
X42010D01*
X42108Y12014D01*
X42190Y12070D01*
X42245Y12152D01*
X42265Y12250D01*
X42245Y12348D01*
X42190Y12430D01*
X42108Y12486D01*
X42010Y12505D01*
X41756D01*
X40895Y13366D01*
Y15614D01*
X41100Y15820D01*
X41156Y15902D01*
X41175Y16000D01*
Y17066D01*
X41255Y17074D01*
X41263Y17034D01*
X41311Y16961D01*
X41384Y16913D01*
X41470Y16896D01*
X41556Y16913D01*
X41629Y16961D01*
X41677Y17034D01*
X41694Y17120D01*
X41677Y17206D01*
X41629Y17279D01*
X41559Y17325D01*
X41574Y17400D01*
X41557Y17486D01*
X41514Y17550D01*
X41557Y17614D01*
X41574Y17700D01*
X41559Y17775D01*
X41629Y17821D01*
X41677Y17894D01*
X41694Y17980D01*
X41677Y18066D01*
X41629Y18139D01*
X41556Y18187D01*
X41470Y18204D01*
X41457Y18202D01*
X41395Y18252D01*
Y18820D01*
X41375Y18918D01*
X41320Y19000D01*
X40790Y19530D01*
X40708Y19585D01*
X40610Y19605D01*
X17136D01*
X16880Y19860D01*
X16798Y19915D01*
X16700Y19935D01*
X16602Y19915D01*
X16520Y19860D01*
X16268Y19608D01*
X16205Y19572D01*
X16158Y19608D01*
X15778Y19988D01*
X15729Y20021D01*
X15670Y20033D01*
X6283D01*
X4863Y21453D01*
Y21789D01*
X4943Y21799D01*
X4975Y21667D01*
X5039Y21511D01*
X5128Y21366D01*
X5238Y21238D01*
X5366Y21128D01*
X5511Y21039D01*
X5667Y20975D01*
X5831Y20935D01*
X6000Y20922D01*
X6169Y20935D01*
X6333Y20975D01*
X6489Y21039D01*
X6634Y21128D01*
X6762Y21238D01*
X6872Y21366D01*
X6961Y21511D01*
X7019Y21652D01*
X7099Y21636D01*
Y20892D01*
X7701D01*
Y21954D01*
X7701D01*
X7689Y22000D01*
X7701Y22046D01*
X7701D01*
Y23108D01*
X7670D01*
X7643Y23188D01*
X7682Y23218D01*
X7745Y23301D01*
X7785Y23397D01*
X7799Y23500D01*
X7785Y23603D01*
X7745Y23699D01*
X7682Y23782D01*
X7599Y23845D01*
X7503Y23885D01*
X7400Y23899D01*
X7297Y23885D01*
X7201Y23845D01*
X7118Y23782D01*
X7055Y23699D01*
X7015Y23603D01*
X7001Y23500D01*
X7015Y23397D01*
X7055Y23301D01*
X7118Y23218D01*
X7157Y23188D01*
X7130Y23108D01*
X7099D01*
Y22364D01*
X7019Y22348D01*
X6961Y22489D01*
X6872Y22634D01*
X6762Y22762D01*
X6634Y22872D01*
X6489Y22961D01*
X6333Y23025D01*
X6169Y23065D01*
X6000Y23078D01*
X5831Y23065D01*
X5667Y23025D01*
X5511Y22961D01*
X5366Y22872D01*
X5238Y22762D01*
X5128Y22634D01*
X5039Y22489D01*
X4975Y22333D01*
X4943Y22201D01*
X4863Y22211D01*
Y22788D01*
X4900Y22856D01*
X4986Y22873D01*
X5059Y22921D01*
X5107Y22994D01*
X5124Y23080D01*
X5107Y23166D01*
X5059Y23239D01*
X4986Y23287D01*
X4900Y23304D01*
X4814Y23287D01*
X4741Y23239D01*
X4693Y23166D01*
X4676Y23080D01*
X4677Y23073D01*
X4602Y22998D01*
X4569Y22949D01*
X4557Y22890D01*
Y21618D01*
X4483Y21587D01*
X1892Y24178D01*
X1904Y24240D01*
X1887Y24326D01*
X1839Y24399D01*
X1766Y24447D01*
X1680Y24464D01*
D02*
G37*
G36*
X31392Y24450D02*
X31050D01*
Y24108D01*
X31103Y24115D01*
X31199Y24155D01*
X31282Y24218D01*
X31345Y24301D01*
X31385Y24397D01*
X31392Y24450D01*
D02*
G37*
G36*
X28392D02*
X28050D01*
Y24108D01*
X28103Y24115D01*
X28199Y24155D01*
X28282Y24218D01*
X28345Y24301D01*
X28385Y24397D01*
X28392Y24450D01*
D02*
G37*
G36*
X29392D02*
X29050D01*
Y24108D01*
X29103Y24115D01*
X29199Y24155D01*
X29282Y24218D01*
X29345Y24301D01*
X29385Y24397D01*
X29392Y24450D01*
D02*
G37*
G36*
X30392D02*
X30050D01*
Y24108D01*
X30103Y24115D01*
X30199Y24155D01*
X30282Y24218D01*
X30345Y24301D01*
X30385Y24397D01*
X30392Y24450D01*
D02*
G37*
G36*
X31950D02*
X31608D01*
X31615Y24397D01*
X31655Y24301D01*
X31718Y24218D01*
X31801Y24155D01*
X31897Y24115D01*
X31950Y24108D01*
Y24450D01*
D02*
G37*
G36*
X32950D02*
X32608D01*
X32615Y24397D01*
X32655Y24301D01*
X32718Y24218D01*
X32801Y24155D01*
X32897Y24115D01*
X32950Y24108D01*
Y24450D01*
D02*
G37*
G36*
X7792D02*
X7450D01*
Y24108D01*
X7503Y24115D01*
X7599Y24155D01*
X7682Y24218D01*
X7745Y24301D01*
X7785Y24397D01*
X7792Y24450D01*
D02*
G37*
G36*
X30950D02*
X30608D01*
X30615Y24397D01*
X30655Y24301D01*
X30718Y24218D01*
X30801Y24155D01*
X30897Y24115D01*
X30950Y24108D01*
Y24450D01*
D02*
G37*
G36*
X27950D02*
X27608D01*
X27615Y24397D01*
X27655Y24301D01*
X27718Y24218D01*
X27801Y24155D01*
X27897Y24115D01*
X27950Y24108D01*
Y24450D01*
D02*
G37*
G36*
X28950D02*
X28608D01*
X28615Y24397D01*
X28655Y24301D01*
X28718Y24218D01*
X28801Y24155D01*
X28897Y24115D01*
X28950Y24108D01*
Y24450D01*
D02*
G37*
G36*
X29950D02*
X29608D01*
X29615Y24397D01*
X29655Y24301D01*
X29718Y24218D01*
X29801Y24155D01*
X29897Y24115D01*
X29950Y24108D01*
Y24450D01*
D02*
G37*
G36*
X8792D02*
X8450D01*
Y24108D01*
X8503Y24115D01*
X8599Y24155D01*
X8682Y24218D01*
X8745Y24301D01*
X8785Y24397D01*
X8792Y24450D01*
D02*
G37*
G36*
X13792D02*
X13450D01*
Y24108D01*
X13503Y24115D01*
X13599Y24155D01*
X13682Y24218D01*
X13745Y24301D01*
X13785Y24397D01*
X13792Y24450D01*
D02*
G37*
G36*
X14792D02*
X14450D01*
Y24108D01*
X14503Y24115D01*
X14599Y24155D01*
X14682Y24218D01*
X14745Y24301D01*
X14785Y24397D01*
X14792Y24450D01*
D02*
G37*
G36*
X15792D02*
X15450D01*
Y24108D01*
X15503Y24115D01*
X15599Y24155D01*
X15682Y24218D01*
X15745Y24301D01*
X15785Y24397D01*
X15792Y24450D01*
D02*
G37*
G36*
X12792D02*
X12450D01*
Y24108D01*
X12503Y24115D01*
X12599Y24155D01*
X12682Y24218D01*
X12745Y24301D01*
X12785Y24397D01*
X12792Y24450D01*
D02*
G37*
G36*
X9792D02*
X9450D01*
Y24108D01*
X9503Y24115D01*
X9599Y24155D01*
X9682Y24218D01*
X9745Y24301D01*
X9785Y24397D01*
X9792Y24450D01*
D02*
G37*
G36*
X10792D02*
X10450D01*
Y24108D01*
X10503Y24115D01*
X10599Y24155D01*
X10682Y24218D01*
X10745Y24301D01*
X10785Y24397D01*
X10792Y24450D01*
D02*
G37*
G36*
X11792D02*
X11450D01*
Y24108D01*
X11503Y24115D01*
X11599Y24155D01*
X11682Y24218D01*
X11745Y24301D01*
X11785Y24397D01*
X11792Y24450D01*
D02*
G37*
G36*
X19380Y18734D02*
X19294Y18717D01*
X19221Y18669D01*
X19173Y18596D01*
X19156Y18510D01*
X19173Y18424D01*
X19221Y18351D01*
X19294Y18303D01*
X19380Y18286D01*
X19466Y18303D01*
X19539Y18351D01*
X19587Y18424D01*
X19604Y18510D01*
X19587Y18596D01*
X19539Y18669D01*
X19466Y18717D01*
X19380Y18734D01*
D02*
G37*
G36*
X38160D02*
X38074Y18717D01*
X38001Y18669D01*
X37953Y18596D01*
X37936Y18510D01*
X37953Y18424D01*
X38001Y18351D01*
X38074Y18303D01*
X38160Y18286D01*
X38246Y18303D01*
X38319Y18351D01*
X38367Y18424D01*
X38384Y18510D01*
X38367Y18596D01*
X38319Y18669D01*
X38246Y18717D01*
X38160Y18734D01*
D02*
G37*
G36*
X2880Y20602D02*
X2765Y20587D01*
X2658Y20542D01*
X2566Y20472D01*
X2495Y20380D01*
X2451Y20272D01*
X2436Y20157D01*
X2451Y20043D01*
X2495Y19935D01*
X2566Y19843D01*
X2658Y19773D01*
X2765Y19728D01*
X2880Y19713D01*
X2995Y19728D01*
X3102Y19773D01*
X3194Y19843D01*
X3265Y19935D01*
X3309Y20043D01*
X3324Y20157D01*
X3309Y20272D01*
X3265Y20380D01*
X3194Y20472D01*
X3102Y20542D01*
X2995Y20587D01*
X2880Y20602D01*
D02*
G37*
G36*
X36930Y18744D02*
X36844Y18727D01*
X36771Y18679D01*
X36723Y18606D01*
X36706Y18520D01*
X36723Y18434D01*
X36771Y18361D01*
X36844Y18313D01*
X36930Y18296D01*
X37016Y18313D01*
X37089Y18361D01*
X37170Y18339D01*
X37181Y18321D01*
X37254Y18273D01*
X37340Y18256D01*
X37426Y18273D01*
X37499Y18321D01*
X37547Y18394D01*
X37564Y18480D01*
X37547Y18566D01*
X37499Y18639D01*
X37426Y18687D01*
X37340Y18704D01*
X37254Y18687D01*
X37181Y18639D01*
X37100Y18661D01*
X37089Y18679D01*
X37016Y18727D01*
X36930Y18744D01*
D02*
G37*
G36*
X39250Y18844D02*
X39164Y18827D01*
X39091Y18779D01*
X39043Y18706D01*
X39026Y18620D01*
X39043Y18534D01*
X39091Y18461D01*
X39148Y18424D01*
X39103Y18356D01*
X39086Y18270D01*
X39103Y18184D01*
X39151Y18111D01*
X39224Y18063D01*
X39310Y18046D01*
X39396Y18063D01*
X39469Y18111D01*
X39517Y18184D01*
X39534Y18270D01*
X39517Y18356D01*
X39469Y18429D01*
X39412Y18466D01*
X39457Y18534D01*
X39474Y18620D01*
X39457Y18706D01*
X39409Y18779D01*
X39336Y18827D01*
X39250Y18844D01*
D02*
G37*
G36*
X23100Y18787D02*
X23026Y18778D01*
X22956Y18749D01*
X22897Y18703D01*
X22851Y18644D01*
X22822Y18574D01*
X22813Y18500D01*
X22822Y18426D01*
X22851Y18356D01*
X22897Y18297D01*
X22956Y18251D01*
X23026Y18222D01*
X23100Y18213D01*
X23174Y18222D01*
X23244Y18251D01*
X23303Y18297D01*
X23349Y18356D01*
X23378Y18426D01*
X23387Y18500D01*
X23378Y18574D01*
X23349Y18644D01*
X23303Y18703D01*
X23244Y18749D01*
X23174Y18778D01*
X23100Y18787D01*
D02*
G37*
G36*
X23900D02*
X23826Y18778D01*
X23756Y18749D01*
X23697Y18703D01*
X23651Y18644D01*
X23622Y18574D01*
X23613Y18500D01*
X23622Y18426D01*
X23651Y18356D01*
X23697Y18297D01*
X23756Y18251D01*
X23826Y18222D01*
X23900Y18213D01*
X23974Y18222D01*
X24044Y18251D01*
X24103Y18297D01*
X24149Y18356D01*
X24178Y18426D01*
X24187Y18500D01*
X24178Y18574D01*
X24149Y18644D01*
X24103Y18703D01*
X24044Y18749D01*
X23974Y18778D01*
X23900Y18787D01*
D02*
G37*
G36*
X10701Y21373D02*
X10450D01*
Y20892D01*
X10701D01*
Y21373D01*
D02*
G37*
G36*
X11400Y23899D02*
X11297Y23885D01*
X11201Y23845D01*
X11118Y23782D01*
X11055Y23699D01*
X11015Y23603D01*
X11001Y23500D01*
X11015Y23397D01*
X11055Y23301D01*
X11118Y23218D01*
X11157Y23188D01*
X11130Y23108D01*
X11099D01*
Y22046D01*
X11099D01*
X11111Y22000D01*
X11099Y21954D01*
X11099D01*
Y20892D01*
X11701D01*
Y21954D01*
X11701D01*
X11689Y22000D01*
X11701Y22046D01*
X11701D01*
Y23108D01*
X11670D01*
X11643Y23188D01*
X11682Y23218D01*
X11745Y23301D01*
X11785Y23397D01*
X11799Y23500D01*
X11785Y23603D01*
X11745Y23699D01*
X11682Y23782D01*
X11599Y23845D01*
X11503Y23885D01*
X11400Y23899D01*
D02*
G37*
G36*
X12400D02*
X12297Y23885D01*
X12201Y23845D01*
X12118Y23782D01*
X12055Y23699D01*
X12015Y23603D01*
X12001Y23500D01*
X12015Y23397D01*
X12055Y23301D01*
X12118Y23218D01*
X12157Y23188D01*
X12130Y23108D01*
X12099D01*
Y22046D01*
X12099D01*
X12111Y22000D01*
X12099Y21954D01*
X12099D01*
Y20892D01*
X12701D01*
Y21954D01*
X12701D01*
X12689Y22000D01*
X12701Y22046D01*
X12701D01*
Y23108D01*
X12670D01*
X12643Y23188D01*
X12682Y23218D01*
X12745Y23301D01*
X12785Y23397D01*
X12799Y23500D01*
X12785Y23603D01*
X12745Y23699D01*
X12682Y23782D01*
X12599Y23845D01*
X12503Y23885D01*
X12400Y23899D01*
D02*
G37*
G36*
X10350Y21373D02*
X10099D01*
Y20892D01*
X10350D01*
Y21373D01*
D02*
G37*
G36*
X41460Y21324D02*
X41374Y21307D01*
X41301Y21259D01*
X41253Y21186D01*
X41236Y21100D01*
X41253Y21014D01*
X41301Y20941D01*
X41374Y20893D01*
X41460Y20876D01*
X41507Y20885D01*
X41593Y20864D01*
X41641Y20791D01*
X41714Y20743D01*
X41800Y20726D01*
X41886Y20743D01*
X41959Y20791D01*
X42007Y20864D01*
X42024Y20950D01*
X42007Y21036D01*
X41959Y21109D01*
X41886Y21157D01*
X41800Y21174D01*
X41753Y21165D01*
X41667Y21186D01*
X41619Y21259D01*
X41546Y21307D01*
X41460Y21324D01*
D02*
G37*
G36*
X8400Y23899D02*
X8297Y23885D01*
X8201Y23845D01*
X8118Y23782D01*
X8055Y23699D01*
X8015Y23603D01*
X8001Y23500D01*
X8015Y23397D01*
X8055Y23301D01*
X8118Y23218D01*
X8157Y23188D01*
X8130Y23108D01*
X8099D01*
Y22046D01*
X8099D01*
X8111Y22000D01*
X8099Y21954D01*
X8099D01*
Y20892D01*
X8701D01*
Y21954D01*
X8701D01*
X8689Y22000D01*
X8701Y22046D01*
X8701D01*
Y23108D01*
X8670D01*
X8643Y23188D01*
X8682Y23218D01*
X8745Y23301D01*
X8785Y23397D01*
X8799Y23500D01*
X8785Y23603D01*
X8745Y23699D01*
X8682Y23782D01*
X8599Y23845D01*
X8503Y23885D01*
X8400Y23899D01*
D02*
G37*
G36*
X9400D02*
X9297Y23885D01*
X9201Y23845D01*
X9118Y23782D01*
X9055Y23699D01*
X9015Y23603D01*
X9001Y23500D01*
X9015Y23397D01*
X9055Y23301D01*
X9118Y23218D01*
X9157Y23188D01*
X9130Y23108D01*
X9099D01*
Y22046D01*
X9099D01*
X9111Y22000D01*
X9099Y21954D01*
X9099D01*
Y20892D01*
X9701D01*
Y21954D01*
X9701D01*
X9689Y22000D01*
X9701Y22046D01*
X9701D01*
Y23108D01*
X9670D01*
X9643Y23188D01*
X9682Y23218D01*
X9745Y23301D01*
X9785Y23397D01*
X9799Y23500D01*
X9785Y23603D01*
X9745Y23699D01*
X9682Y23782D01*
X9599Y23845D01*
X9503Y23885D01*
X9400Y23899D01*
D02*
G37*
G36*
X37840Y17734D02*
X37754Y17717D01*
X37732Y17703D01*
X37670Y17674D01*
X37608Y17703D01*
X37586Y17717D01*
X37500Y17734D01*
X37414Y17717D01*
X37341Y17669D01*
X37293Y17596D01*
X37276Y17510D01*
X37293Y17424D01*
X37341Y17351D01*
X37414Y17303D01*
X37500Y17286D01*
X37586Y17303D01*
X37608Y17317D01*
X37670Y17346D01*
X37732Y17317D01*
X37754Y17303D01*
X37840Y17286D01*
X37926Y17303D01*
X37999Y17351D01*
X38047Y17424D01*
X38064Y17510D01*
X38047Y17596D01*
X37999Y17669D01*
X37926Y17717D01*
X37840Y17734D01*
D02*
G37*
G36*
X37410Y15764D02*
X37324Y15747D01*
X37251Y15699D01*
X37203Y15626D01*
X37186Y15540D01*
X37203Y15454D01*
X37251Y15381D01*
X37324Y15333D01*
X37410Y15316D01*
X37496Y15333D01*
X37569Y15381D01*
X37617Y15454D01*
X37634Y15540D01*
X37617Y15626D01*
X37569Y15699D01*
X37496Y15747D01*
X37410Y15764D01*
D02*
G37*
G36*
X12100Y15774D02*
X12014Y15757D01*
X11941Y15709D01*
X11893Y15636D01*
X11876Y15550D01*
X11893Y15464D01*
X11941Y15391D01*
X12014Y15343D01*
X12100Y15326D01*
X12186Y15343D01*
X12259Y15391D01*
X12307Y15464D01*
X12324Y15550D01*
X12307Y15636D01*
X12259Y15709D01*
X12186Y15757D01*
X12100Y15774D01*
D02*
G37*
G36*
X21360Y17083D02*
X21282Y17072D01*
X21209Y17042D01*
X21146Y16994D01*
X20886Y16734D01*
X20838Y16671D01*
X20808Y16598D01*
X20797Y16520D01*
Y14880D01*
X20808Y14802D01*
X20838Y14729D01*
X20886Y14666D01*
X22737Y12815D01*
Y9714D01*
X22748Y9636D01*
X22778Y9563D01*
X22826Y9500D01*
X22889Y9452D01*
X22962Y9422D01*
X23040Y9411D01*
X23118Y9422D01*
X23191Y9452D01*
X23254Y9500D01*
X23302Y9563D01*
X23332Y9636D01*
X23343Y9714D01*
Y12940D01*
X23332Y13018D01*
X23302Y13091D01*
X23254Y13154D01*
X21538Y14870D01*
X21581Y14940D01*
X21657Y14925D01*
X22187D01*
X22284Y14945D01*
X22367Y15000D01*
X23112Y15745D01*
X23228D01*
X23267Y15665D01*
X23251Y15644D01*
X23222Y15574D01*
X23213Y15500D01*
X23222Y15426D01*
X23251Y15356D01*
X23297Y15297D01*
X23356Y15251D01*
X23426Y15222D01*
X23500Y15213D01*
X23574Y15222D01*
X23644Y15251D01*
X23703Y15297D01*
X23749Y15356D01*
X23778Y15426D01*
X23778Y15426D01*
X23779Y15429D01*
X23866Y15484D01*
X23910Y15475D01*
X24008Y15495D01*
X24090Y15550D01*
X24146Y15632D01*
X24165Y15730D01*
X24146Y15828D01*
X24090Y15910D01*
X23820Y16180D01*
X23738Y16236D01*
X23640Y16255D01*
X23007D01*
X22909Y16236D01*
X22826Y16180D01*
X22081Y15435D01*
X21657D01*
X21559Y15416D01*
X21483Y15364D01*
X21452Y15371D01*
X21403Y15393D01*
Y16395D01*
X21574Y16566D01*
X21622Y16629D01*
X21652Y16702D01*
X21663Y16780D01*
X21652Y16858D01*
X21622Y16931D01*
X21574Y16994D01*
X21511Y17042D01*
X21438Y17072D01*
X21360Y17083D01*
D02*
G37*
G36*
X7340Y15424D02*
X7254Y15407D01*
X7181Y15359D01*
X7133Y15286D01*
X7116Y15200D01*
X7133Y15114D01*
X7181Y15041D01*
X7254Y14993D01*
X7340Y14976D01*
X7426Y14993D01*
X7499Y15041D01*
X7583Y15024D01*
X7591Y15011D01*
X7664Y14963D01*
X7750Y14946D01*
X7836Y14963D01*
X7909Y15011D01*
X7957Y15084D01*
X7974Y15170D01*
X7957Y15256D01*
X7909Y15329D01*
X7836Y15377D01*
X7750Y15394D01*
X7664Y15377D01*
X7591Y15329D01*
X7507Y15346D01*
X7499Y15359D01*
X7426Y15407D01*
X7340Y15424D01*
D02*
G37*
G36*
X39430Y15564D02*
X39344Y15547D01*
X39271Y15499D01*
X39223Y15426D01*
X39206Y15340D01*
X39221Y15265D01*
X39151Y15219D01*
X39103Y15146D01*
X39086Y15060D01*
X39103Y14974D01*
X39126Y14940D01*
X38538Y14353D01*
X38145D01*
X38101Y14433D01*
X38114Y14500D01*
X38097Y14586D01*
X38049Y14659D01*
X37976Y14707D01*
X37890Y14724D01*
X37804Y14707D01*
X37731Y14659D01*
X37683Y14586D01*
X37666Y14500D01*
X37679Y14433D01*
X37635Y14353D01*
X34785D01*
X34604Y14534D01*
X34561Y14562D01*
X34510Y14573D01*
X33894D01*
X33843Y14562D01*
X33800Y14534D01*
X33499Y14233D01*
X31665D01*
X30994Y14904D01*
X30951Y14932D01*
X30900Y14943D01*
X28813D01*
X28769Y15009D01*
X28696Y15057D01*
X28610Y15074D01*
X28524Y15057D01*
X28451Y15009D01*
X28403Y14936D01*
X28386Y14852D01*
X28314Y14837D01*
X28241Y14789D01*
X28193Y14716D01*
X28176Y14632D01*
X28104Y14617D01*
X28031Y14569D01*
X27983Y14496D01*
X27966Y14412D01*
X27894Y14397D01*
X27821Y14349D01*
X27773Y14276D01*
X27756Y14190D01*
X27773Y14104D01*
X27821Y14031D01*
X27894Y13983D01*
X27980Y13966D01*
X28066Y13983D01*
X28139Y14031D01*
X28156Y14057D01*
X28773D01*
X28843Y14034D01*
X28891Y13961D01*
X28964Y13913D01*
X29050Y13896D01*
X29136Y13913D01*
X29209Y13961D01*
X29222Y13981D01*
X29318D01*
X29331Y13961D01*
X29404Y13913D01*
X29490Y13896D01*
X29576Y13913D01*
X29649Y13961D01*
X29697Y14034D01*
X29706Y14077D01*
X30339D01*
X30830Y13586D01*
X30799Y13513D01*
X30600D01*
X30549Y13502D01*
X30506Y13474D01*
X30031Y12998D01*
X30000Y13004D01*
X29914Y12987D01*
X29841Y12939D01*
X29793Y12866D01*
X29776Y12780D01*
X29793Y12694D01*
X29841Y12621D01*
X29914Y12573D01*
X30000Y12556D01*
X30086Y12573D01*
X30159Y12621D01*
X30207Y12694D01*
X30224Y12780D01*
X30218Y12811D01*
X30655Y13247D01*
X39134D01*
X39151Y13221D01*
X39224Y13173D01*
X39310Y13156D01*
X39396Y13173D01*
X39469Y13221D01*
X39517Y13294D01*
X39532Y13366D01*
X39616Y13383D01*
X39689Y13431D01*
X39737Y13504D01*
X39754Y13590D01*
X39737Y13676D01*
X39689Y13749D01*
X39684Y13752D01*
Y13848D01*
X39689Y13851D01*
X39737Y13924D01*
X39754Y14010D01*
X39737Y14096D01*
X39689Y14169D01*
X39684Y14172D01*
Y14268D01*
X39689Y14271D01*
X39737Y14344D01*
X39754Y14430D01*
X39737Y14516D01*
X39689Y14589D01*
X39684Y14592D01*
Y14688D01*
X39689Y14691D01*
X39737Y14764D01*
X39754Y14850D01*
X39737Y14936D01*
X39689Y15009D01*
X39616Y15057D01*
X39561Y15068D01*
X39545Y15152D01*
X39589Y15181D01*
X39637Y15254D01*
X39654Y15340D01*
X39637Y15426D01*
X39589Y15499D01*
X39516Y15547D01*
X39430Y15564D01*
D02*
G37*
G36*
X26000Y17078D02*
X25831Y17065D01*
X25667Y17025D01*
X25510Y16961D01*
X25366Y16872D01*
X25238Y16762D01*
X25128Y16634D01*
X25039Y16489D01*
X24975Y16333D01*
X24935Y16169D01*
X24922Y16000D01*
X24935Y15831D01*
X24975Y15667D01*
X25039Y15510D01*
X25128Y15366D01*
X25238Y15238D01*
X25366Y15128D01*
X25510Y15039D01*
X25667Y14975D01*
X25831Y14935D01*
X26000Y14922D01*
X26169Y14935D01*
X26333Y14975D01*
X26489Y15039D01*
X26634Y15128D01*
X26762Y15238D01*
X26872Y15366D01*
X26961Y15510D01*
X27025Y15667D01*
X27065Y15831D01*
X27078Y16000D01*
X27065Y16169D01*
X27025Y16333D01*
X26961Y16489D01*
X26872Y16634D01*
X26762Y16762D01*
X26634Y16872D01*
X26489Y16961D01*
X26333Y17025D01*
X26169Y17065D01*
X26000Y17078D01*
D02*
G37*
G36*
X8563Y15374D02*
X8477Y15357D01*
X8404Y15309D01*
X8355Y15236D01*
X8338Y15150D01*
X8355Y15064D01*
X8404Y14991D01*
X8477Y14943D01*
X8563Y14926D01*
X8648Y14943D01*
X8721Y14991D01*
X8770Y15064D01*
X8787Y15150D01*
X8770Y15236D01*
X8721Y15309D01*
X8648Y15357D01*
X8563Y15374D01*
D02*
G37*
G36*
X31330Y17014D02*
X31244Y16997D01*
X31171Y16949D01*
X31123Y16876D01*
X31106Y16790D01*
X31123Y16704D01*
X31171Y16631D01*
X31244Y16583D01*
X31330Y16566D01*
X31416Y16583D01*
X31489Y16631D01*
X31537Y16704D01*
X31554Y16790D01*
X31537Y16876D01*
X31489Y16949D01*
X31416Y16997D01*
X31330Y17014D01*
D02*
G37*
G36*
X19620Y17234D02*
X19534Y17217D01*
X19461Y17169D01*
X19413Y17096D01*
X19396Y17010D01*
X19413Y16924D01*
X19461Y16851D01*
X19534Y16803D01*
X19620Y16786D01*
X19706Y16803D01*
X19779Y16851D01*
X19827Y16924D01*
X19844Y17010D01*
X19827Y17096D01*
X19779Y17169D01*
X19706Y17217D01*
X19620Y17234D01*
D02*
G37*
G36*
X30910Y18073D02*
X27790D01*
X27699Y18061D01*
X27613Y18026D01*
X27540Y17970D01*
X27484Y17897D01*
X27449Y17811D01*
X27437Y17720D01*
X27449Y17629D01*
X27484Y17543D01*
X27540Y17470D01*
X27613Y17414D01*
X27699Y17379D01*
X27790Y17367D01*
X30910D01*
X31001Y17379D01*
X31087Y17414D01*
X31160Y17470D01*
X31216Y17543D01*
X31251Y17629D01*
X31263Y17720D01*
X31251Y17811D01*
X31216Y17897D01*
X31160Y17970D01*
X31087Y18026D01*
X31001Y18061D01*
X30910Y18073D01*
D02*
G37*
G36*
X37040Y16794D02*
X36954Y16777D01*
X36881Y16729D01*
X36833Y16656D01*
X36816Y16570D01*
X36833Y16484D01*
X36881Y16411D01*
X36954Y16363D01*
X37040Y16346D01*
X37126Y16363D01*
X37173Y16298D01*
X37211Y16241D01*
X37284Y16193D01*
X37370Y16176D01*
X37456Y16193D01*
X37529Y16241D01*
X37577Y16314D01*
X37594Y16400D01*
X37577Y16486D01*
X37529Y16559D01*
X37456Y16607D01*
X37370Y16624D01*
X37336Y16618D01*
X37247Y16656D01*
X37199Y16729D01*
X37126Y16777D01*
X37040Y16794D01*
D02*
G37*
G36*
X33500Y15974D02*
X33414Y15957D01*
X33341Y15909D01*
X33293Y15836D01*
X33276Y15750D01*
X33293Y15664D01*
X33341Y15591D01*
X33414Y15543D01*
X33500Y15526D01*
X33586Y15543D01*
X33659Y15591D01*
X33707Y15664D01*
X33724Y15750D01*
X33707Y15836D01*
X33659Y15909D01*
X33586Y15957D01*
X33500Y15974D01*
D02*
G37*
G36*
X7180Y16114D02*
X7094Y16097D01*
X7021Y16049D01*
X6973Y15976D01*
X6956Y15890D01*
X6973Y15804D01*
X7021Y15731D01*
X7094Y15683D01*
X7180Y15666D01*
X7266Y15683D01*
X7339Y15731D01*
X7387Y15804D01*
X7404Y15890D01*
X7387Y15976D01*
X7339Y16049D01*
X7266Y16097D01*
X7180Y16114D01*
D02*
G37*
G36*
X10940Y16384D02*
X10854Y16367D01*
X10781Y16319D01*
X10733Y16246D01*
X10716Y16160D01*
X10733Y16074D01*
X10781Y16001D01*
X10854Y15953D01*
X10940Y15936D01*
X11026Y15953D01*
X11099Y16001D01*
X11147Y16074D01*
X11164Y16160D01*
X11147Y16246D01*
X11099Y16319D01*
X11026Y16367D01*
X10940Y16384D01*
D02*
G37*
G36*
X13400Y23899D02*
X13297Y23885D01*
X13201Y23845D01*
X13118Y23782D01*
X13055Y23699D01*
X13015Y23603D01*
X13001Y23500D01*
X13015Y23397D01*
X13055Y23301D01*
X13118Y23218D01*
X13157Y23188D01*
X13130Y23108D01*
X13099D01*
Y22046D01*
X13099D01*
X13111Y22000D01*
X13099Y21954D01*
X13099D01*
Y20892D01*
X13701D01*
Y21954D01*
X13701D01*
X13689Y22000D01*
X13701Y22046D01*
X13701D01*
Y23108D01*
X13670D01*
X13643Y23188D01*
X13682Y23218D01*
X13745Y23301D01*
X13785Y23397D01*
X13799Y23500D01*
X13785Y23603D01*
X13745Y23699D01*
X13682Y23782D01*
X13599Y23845D01*
X13503Y23885D01*
X13400Y23899D01*
D02*
G37*
G36*
X34000D02*
X33897Y23885D01*
X33801Y23845D01*
X33718Y23782D01*
X33655Y23699D01*
X33615Y23603D01*
X33601Y23500D01*
X33615Y23397D01*
X33655Y23301D01*
X33718Y23218D01*
X33757Y23188D01*
X33730Y23108D01*
X33699D01*
Y22046D01*
X33699D01*
X33711Y22000D01*
X33699Y21954D01*
X33699D01*
Y20892D01*
X34301D01*
Y21954D01*
X34301D01*
X34289Y22000D01*
X34301Y22046D01*
X34301D01*
Y23108D01*
X34270D01*
X34243Y23188D01*
X34282Y23218D01*
X34345Y23301D01*
X34385Y23397D01*
X34399Y23500D01*
X34385Y23603D01*
X34345Y23699D01*
X34282Y23782D01*
X34199Y23845D01*
X34103Y23885D01*
X34000Y23899D01*
D02*
G37*
G36*
X35500Y23078D02*
X35331Y23065D01*
X35167Y23025D01*
X35010Y22961D01*
X34866Y22872D01*
X34738Y22762D01*
X34628Y22634D01*
X34539Y22489D01*
X34475Y22333D01*
X34435Y22169D01*
X34422Y22000D01*
X34435Y21831D01*
X34475Y21667D01*
X34539Y21511D01*
X34628Y21366D01*
X34738Y21238D01*
X34866Y21128D01*
X35010Y21039D01*
X35167Y20975D01*
X35331Y20935D01*
X35500Y20922D01*
X35669Y20935D01*
X35833Y20975D01*
X35989Y21039D01*
X36134Y21128D01*
X36262Y21238D01*
X36372Y21366D01*
X36461Y21511D01*
X36525Y21667D01*
X36565Y21831D01*
X36578Y22000D01*
X36565Y22169D01*
X36525Y22333D01*
X36461Y22489D01*
X36372Y22634D01*
X36262Y22762D01*
X36134Y22872D01*
X35989Y22961D01*
X35833Y23025D01*
X35669Y23065D01*
X35500Y23078D01*
D02*
G37*
G36*
X38340Y21714D02*
X38254Y21697D01*
X38181Y21649D01*
X38133Y21576D01*
X38116Y21490D01*
X38133Y21404D01*
X38181Y21331D01*
X38254Y21283D01*
X38340Y21266D01*
X38426Y21283D01*
X38464Y21308D01*
X38481Y21281D01*
X38554Y21233D01*
X38640Y21216D01*
X38726Y21233D01*
X38799Y21281D01*
X38847Y21354D01*
X38864Y21440D01*
X38847Y21526D01*
X38799Y21599D01*
X38726Y21647D01*
X38640Y21664D01*
X38554Y21647D01*
X38516Y21622D01*
X38499Y21649D01*
X38426Y21697D01*
X38340Y21714D01*
D02*
G37*
G36*
X33000Y23899D02*
X32897Y23885D01*
X32801Y23845D01*
X32718Y23782D01*
X32655Y23699D01*
X32615Y23603D01*
X32601Y23500D01*
X32615Y23397D01*
X32655Y23301D01*
X32718Y23218D01*
X32757Y23188D01*
X32730Y23108D01*
X32699D01*
Y22046D01*
X32699D01*
X32711Y22000D01*
X32699Y21954D01*
X32699D01*
Y20892D01*
X33301D01*
Y21954D01*
X33301D01*
X33289Y22000D01*
X33301Y22046D01*
X33301D01*
Y23108D01*
X33270D01*
X33243Y23188D01*
X33282Y23218D01*
X33345Y23301D01*
X33385Y23397D01*
X33399Y23500D01*
X33385Y23603D01*
X33345Y23699D01*
X33282Y23782D01*
X33199Y23845D01*
X33103Y23885D01*
X33000Y23899D01*
D02*
G37*
G36*
X30000D02*
X29897Y23885D01*
X29801Y23845D01*
X29718Y23782D01*
X29655Y23699D01*
X29615Y23603D01*
X29601Y23500D01*
X29615Y23397D01*
X29655Y23301D01*
X29718Y23218D01*
X29757Y23188D01*
X29730Y23108D01*
X29699D01*
Y22046D01*
X29699D01*
X29711Y22000D01*
X29699Y21954D01*
X29699D01*
Y20892D01*
X30301D01*
Y21954D01*
X30301D01*
X30289Y22000D01*
X30301Y22046D01*
X30301D01*
Y23108D01*
X30270D01*
X30243Y23188D01*
X30282Y23218D01*
X30345Y23301D01*
X30385Y23397D01*
X30399Y23500D01*
X30385Y23603D01*
X30345Y23699D01*
X30282Y23782D01*
X30199Y23845D01*
X30103Y23885D01*
X30000Y23899D01*
D02*
G37*
G36*
X31000D02*
X30897Y23885D01*
X30801Y23845D01*
X30718Y23782D01*
X30655Y23699D01*
X30615Y23603D01*
X30601Y23500D01*
X30615Y23397D01*
X30655Y23301D01*
X30718Y23218D01*
X30757Y23188D01*
X30730Y23108D01*
X30699D01*
Y22046D01*
X30699D01*
X30711Y22000D01*
X30699Y21954D01*
X30699D01*
Y20892D01*
X31301D01*
Y21954D01*
X31301D01*
X31289Y22000D01*
X31301Y22046D01*
X31301D01*
Y23108D01*
X31270D01*
X31243Y23188D01*
X31282Y23218D01*
X31345Y23301D01*
X31385Y23397D01*
X31399Y23500D01*
X31385Y23603D01*
X31345Y23699D01*
X31282Y23782D01*
X31199Y23845D01*
X31103Y23885D01*
X31000Y23899D01*
D02*
G37*
G36*
X32000D02*
X31897Y23885D01*
X31801Y23845D01*
X31718Y23782D01*
X31655Y23699D01*
X31615Y23603D01*
X31601Y23500D01*
X31615Y23397D01*
X31655Y23301D01*
X31718Y23218D01*
X31757Y23188D01*
X31730Y23108D01*
X31699D01*
Y22046D01*
X31699D01*
X31711Y22000D01*
X31699Y21954D01*
X31699D01*
Y20892D01*
X32301D01*
Y21954D01*
X32301D01*
X32289Y22000D01*
X32301Y22046D01*
X32301D01*
Y23108D01*
X32270D01*
X32243Y23188D01*
X32282Y23218D01*
X32345Y23301D01*
X32385Y23397D01*
X32399Y23500D01*
X32385Y23603D01*
X32345Y23699D01*
X32282Y23782D01*
X32199Y23845D01*
X32103Y23885D01*
X32000Y23899D01*
D02*
G37*
G36*
X10350Y21954D02*
X10099D01*
Y21473D01*
X10350D01*
Y21954D01*
D02*
G37*
G36*
X48700Y23024D02*
X48614Y23007D01*
X48541Y22959D01*
X48493Y22886D01*
X48476Y22800D01*
X48477Y22793D01*
X48097Y22413D01*
X47931D01*
X47907Y22493D01*
X47919Y22501D01*
X47967Y22574D01*
X47984Y22660D01*
X47967Y22746D01*
X47919Y22819D01*
X47846Y22867D01*
X47760Y22884D01*
X47674Y22867D01*
X47601Y22819D01*
X47553Y22746D01*
X47536Y22660D01*
X47553Y22574D01*
X47601Y22501D01*
X47613Y22493D01*
X47589Y22413D01*
X47259D01*
X47257Y22416D01*
X47184Y22465D01*
X47098Y22482D01*
X47013Y22465D01*
X46940Y22416D01*
X46938Y22413D01*
X44771D01*
X44767Y22419D01*
X44694Y22468D01*
X44608Y22485D01*
X44602Y22483D01*
X44267Y22818D01*
X44217Y22851D01*
X44159Y22863D01*
X44042D01*
X44039Y22869D01*
X43966Y22917D01*
X43880Y22934D01*
X43794Y22917D01*
X43721Y22869D01*
X43673Y22796D01*
X43656Y22710D01*
X43673Y22624D01*
X43721Y22551D01*
X43794Y22503D01*
X43880Y22486D01*
X43966Y22503D01*
X44039Y22551D01*
X44114Y22538D01*
X44385Y22267D01*
X44384Y22260D01*
X44385Y22254D01*
X44362Y22230D01*
X44329Y22181D01*
X44317Y22122D01*
Y20896D01*
X44329Y20837D01*
X44362Y20788D01*
X44385Y20764D01*
X44384Y20757D01*
X44401Y20671D01*
X44450Y20599D01*
X44523Y20550D01*
X44608Y20533D01*
X44694Y20550D01*
X44767Y20599D01*
X44816Y20671D01*
X44833Y20757D01*
X44816Y20843D01*
X44767Y20916D01*
X44694Y20965D01*
X44623Y20979D01*
Y22039D01*
X44694Y22053D01*
X44767Y22102D01*
X44771Y22107D01*
X46934D01*
X46940Y22099D01*
X46945Y22095D01*
Y20894D01*
X46911Y20843D01*
X46894Y20757D01*
X46911Y20671D01*
X46960Y20599D01*
X47033Y20550D01*
X47118Y20533D01*
X47204Y20550D01*
X47277Y20599D01*
X47326Y20671D01*
X47343Y20757D01*
X47326Y20843D01*
X47277Y20916D01*
X47251Y20933D01*
Y22095D01*
X47257Y22099D01*
X47263Y22107D01*
X48160D01*
X48219Y22119D01*
X48269Y22152D01*
X48693Y22577D01*
X48700Y22576D01*
X48786Y22593D01*
X48859Y22641D01*
X48907Y22714D01*
X48924Y22800D01*
X48907Y22886D01*
X48859Y22959D01*
X48786Y23007D01*
X48700Y23024D01*
D02*
G37*
G36*
X10792Y23450D02*
X10400D01*
X10008D01*
X10015Y23397D01*
X10055Y23301D01*
X10118Y23218D01*
X10157Y23188D01*
X10130Y23108D01*
X10099D01*
Y22627D01*
X10400D01*
X10701D01*
Y23108D01*
X10670D01*
X10643Y23188D01*
X10682Y23218D01*
X10745Y23301D01*
X10785Y23397D01*
X10792Y23450D01*
D02*
G37*
G36*
X50973Y24100D02*
X50843Y24083D01*
X50723Y24033D01*
X50619Y23954D01*
X50540Y23850D01*
X50490Y23729D01*
X50473Y23600D01*
X50490Y23471D01*
X50540Y23350D01*
X50619Y23246D01*
X50723Y23167D01*
X50843Y23117D01*
X50973Y23100D01*
X51102Y23117D01*
X51223Y23167D01*
X51326Y23246D01*
X51406Y23350D01*
X51456Y23471D01*
X51473Y23600D01*
X51456Y23729D01*
X51406Y23850D01*
X51326Y23954D01*
X51223Y24033D01*
X51102Y24083D01*
X50973Y24100D01*
D02*
G37*
G36*
X10701Y22527D02*
X10450D01*
Y22046D01*
X10701D01*
Y22527D01*
D02*
G37*
G36*
Y21954D02*
X10450D01*
Y21473D01*
X10701D01*
Y21954D01*
D02*
G37*
G36*
X37270Y21924D02*
X37184Y21907D01*
X37111Y21859D01*
X37063Y21786D01*
X37046Y21700D01*
X37063Y21614D01*
X37111Y21541D01*
X37184Y21493D01*
X37270Y21476D01*
X37356Y21493D01*
X37429Y21541D01*
X37477Y21614D01*
X37494Y21700D01*
X37477Y21786D01*
X37429Y21859D01*
X37356Y21907D01*
X37270Y21924D01*
D02*
G37*
G36*
X10350Y22527D02*
X10099D01*
Y22046D01*
X10350D01*
Y22527D01*
D02*
G37*
G36*
X19000Y23899D02*
X18897Y23885D01*
X18801Y23845D01*
X18718Y23782D01*
X18655Y23699D01*
X18615Y23603D01*
X18601Y23500D01*
X18615Y23397D01*
X18655Y23301D01*
X18718Y23218D01*
X18757Y23188D01*
X18730Y23108D01*
X18699D01*
Y22046D01*
X18699D01*
X18711Y22000D01*
X18699Y21954D01*
X18699D01*
Y20892D01*
X19301D01*
Y21954D01*
X19301D01*
X19289Y22000D01*
X19301Y22046D01*
X19301D01*
Y23108D01*
X19270D01*
X19243Y23188D01*
X19282Y23218D01*
X19345Y23301D01*
X19385Y23397D01*
X19399Y23500D01*
X19385Y23603D01*
X19345Y23699D01*
X19282Y23782D01*
X19199Y23845D01*
X19103Y23885D01*
X19000Y23899D01*
D02*
G37*
G36*
X20000D02*
X19897Y23885D01*
X19801Y23845D01*
X19718Y23782D01*
X19655Y23699D01*
X19615Y23603D01*
X19601Y23500D01*
X19615Y23397D01*
X19655Y23301D01*
X19718Y23218D01*
X19757Y23188D01*
X19730Y23108D01*
X19699D01*
Y22046D01*
X19699D01*
X19711Y22000D01*
X19699Y21954D01*
X19699D01*
Y20892D01*
X20301D01*
Y21954D01*
X20301D01*
X20289Y22000D01*
X20301Y22046D01*
X20301D01*
Y23108D01*
X20270D01*
X20243Y23188D01*
X20282Y23218D01*
X20345Y23301D01*
X20385Y23397D01*
X20399Y23500D01*
X20385Y23603D01*
X20345Y23699D01*
X20282Y23782D01*
X20199Y23845D01*
X20103Y23885D01*
X20000Y23899D01*
D02*
G37*
G36*
X21000D02*
X20897Y23885D01*
X20801Y23845D01*
X20718Y23782D01*
X20655Y23699D01*
X20615Y23603D01*
X20601Y23500D01*
X20615Y23397D01*
X20655Y23301D01*
X20718Y23218D01*
X20757Y23188D01*
X20730Y23108D01*
X20699D01*
Y22046D01*
X20699D01*
X20711Y22000D01*
X20699Y21954D01*
X20699D01*
Y20892D01*
X21301D01*
Y21954D01*
X21301D01*
X21289Y22000D01*
X21301Y22046D01*
X21301D01*
Y23108D01*
X21270D01*
X21243Y23188D01*
X21282Y23218D01*
X21345Y23301D01*
X21385Y23397D01*
X21399Y23500D01*
X21385Y23603D01*
X21345Y23699D01*
X21282Y23782D01*
X21199Y23845D01*
X21103Y23885D01*
X21000Y23899D01*
D02*
G37*
G36*
X18000D02*
X17897Y23885D01*
X17801Y23845D01*
X17718Y23782D01*
X17655Y23699D01*
X17615Y23603D01*
X17601Y23500D01*
X17615Y23397D01*
X17655Y23301D01*
X17718Y23218D01*
X17757Y23188D01*
X17730Y23108D01*
X17699D01*
Y22046D01*
X17699D01*
X17711Y22000D01*
X17699Y21954D01*
X17699D01*
Y20892D01*
X18301D01*
Y21954D01*
X18301D01*
X18289Y22000D01*
X18301Y22046D01*
X18301D01*
Y23108D01*
X18270D01*
X18243Y23188D01*
X18282Y23218D01*
X18345Y23301D01*
X18385Y23397D01*
X18399Y23500D01*
X18385Y23603D01*
X18345Y23699D01*
X18282Y23782D01*
X18199Y23845D01*
X18103Y23885D01*
X18000Y23899D01*
D02*
G37*
G36*
X14400D02*
X14297Y23885D01*
X14201Y23845D01*
X14118Y23782D01*
X14055Y23699D01*
X14015Y23603D01*
X14001Y23500D01*
X14015Y23397D01*
X14055Y23301D01*
X14118Y23218D01*
X14157Y23188D01*
X14130Y23108D01*
X14099D01*
Y22046D01*
X14099D01*
X14111Y22000D01*
X14099Y21954D01*
X14099D01*
Y20892D01*
X14701D01*
Y21954D01*
X14701D01*
X14689Y22000D01*
X14701Y22046D01*
X14701D01*
Y23108D01*
X14670D01*
X14643Y23188D01*
X14682Y23218D01*
X14745Y23301D01*
X14785Y23397D01*
X14799Y23500D01*
X14785Y23603D01*
X14745Y23699D01*
X14682Y23782D01*
X14599Y23845D01*
X14503Y23885D01*
X14400Y23899D01*
D02*
G37*
G36*
X15400D02*
X15297Y23885D01*
X15201Y23845D01*
X15118Y23782D01*
X15055Y23699D01*
X15015Y23603D01*
X15001Y23500D01*
X15015Y23397D01*
X15055Y23301D01*
X15118Y23218D01*
X15157Y23188D01*
X15130Y23108D01*
X15099D01*
Y22775D01*
X15060Y22743D01*
X15001Y22731D01*
X14952Y22698D01*
X14919Y22649D01*
X14907Y22590D01*
Y21165D01*
X14919Y21107D01*
X14952Y21057D01*
X15001Y21024D01*
X15060Y21012D01*
X15099Y20980D01*
Y20892D01*
X15701D01*
Y21954D01*
X15701D01*
X15689Y22000D01*
X15701Y22046D01*
X15701D01*
Y23108D01*
X15670D01*
X15643Y23188D01*
X15682Y23218D01*
X15745Y23301D01*
X15785Y23397D01*
X15799Y23500D01*
X15785Y23603D01*
X15745Y23699D01*
X15682Y23782D01*
X15599Y23845D01*
X15503Y23885D01*
X15400Y23899D01*
D02*
G37*
G36*
X16400D02*
X16297Y23885D01*
X16201Y23845D01*
X16118Y23782D01*
X16055Y23699D01*
X16015Y23603D01*
X16001Y23500D01*
X16015Y23397D01*
X16055Y23301D01*
X16118Y23218D01*
X16157Y23188D01*
X16130Y23108D01*
X16099D01*
Y22046D01*
X16099D01*
X16111Y22000D01*
X16099Y21954D01*
X16099D01*
Y20892D01*
X16701D01*
Y21954D01*
X16701D01*
X16689Y22000D01*
X16701Y22046D01*
X16701D01*
Y23108D01*
X16670D01*
X16643Y23188D01*
X16682Y23218D01*
X16745Y23301D01*
X16785Y23397D01*
X16799Y23500D01*
X16785Y23603D01*
X16745Y23699D01*
X16682Y23782D01*
X16599Y23845D01*
X16503Y23885D01*
X16400Y23899D01*
D02*
G37*
G36*
X22000D02*
X21897Y23885D01*
X21801Y23845D01*
X21718Y23782D01*
X21655Y23699D01*
X21615Y23603D01*
X21601Y23500D01*
X21615Y23397D01*
X21655Y23301D01*
X21718Y23218D01*
X21757Y23188D01*
X21730Y23108D01*
X21699D01*
Y22046D01*
X21699D01*
X21711Y22000D01*
X21699Y21954D01*
X21699D01*
Y20892D01*
X22301D01*
Y21954D01*
X22301D01*
X22289Y22000D01*
X22301Y22046D01*
X22301D01*
Y23108D01*
X22270D01*
X22243Y23188D01*
X22282Y23218D01*
X22345Y23301D01*
X22385Y23397D01*
X22399Y23500D01*
X22385Y23603D01*
X22345Y23699D01*
X22282Y23782D01*
X22199Y23845D01*
X22103Y23885D01*
X22000Y23899D01*
D02*
G37*
G36*
X27000D02*
X26897Y23885D01*
X26801Y23845D01*
X26718Y23782D01*
X26655Y23699D01*
X26615Y23603D01*
X26601Y23500D01*
X26615Y23397D01*
X26655Y23301D01*
X26718Y23218D01*
X26757Y23188D01*
X26730Y23108D01*
X26699D01*
Y22046D01*
X26699D01*
X26711Y22000D01*
X26699Y21954D01*
X26699D01*
Y20892D01*
X27301D01*
Y21954D01*
X27301D01*
X27289Y22000D01*
X27301Y22046D01*
X27301D01*
Y23108D01*
X27270D01*
X27243Y23188D01*
X27282Y23218D01*
X27345Y23301D01*
X27385Y23397D01*
X27399Y23500D01*
X27385Y23603D01*
X27345Y23699D01*
X27282Y23782D01*
X27199Y23845D01*
X27103Y23885D01*
X27000Y23899D01*
D02*
G37*
G36*
X28000D02*
X27897Y23885D01*
X27801Y23845D01*
X27718Y23782D01*
X27655Y23699D01*
X27615Y23603D01*
X27601Y23500D01*
X27615Y23397D01*
X27655Y23301D01*
X27718Y23218D01*
X27757Y23188D01*
X27730Y23108D01*
X27699D01*
Y22046D01*
X27699D01*
X27711Y22000D01*
X27699Y21954D01*
X27699D01*
Y20892D01*
X28301D01*
Y21954D01*
X28301D01*
X28289Y22000D01*
X28301Y22046D01*
X28301D01*
Y23108D01*
X28270D01*
X28243Y23188D01*
X28282Y23218D01*
X28345Y23301D01*
X28385Y23397D01*
X28399Y23500D01*
X28385Y23603D01*
X28345Y23699D01*
X28282Y23782D01*
X28199Y23845D01*
X28103Y23885D01*
X28000Y23899D01*
D02*
G37*
G36*
X29000D02*
X28897Y23885D01*
X28801Y23845D01*
X28718Y23782D01*
X28655Y23699D01*
X28615Y23603D01*
X28601Y23500D01*
X28615Y23397D01*
X28655Y23301D01*
X28718Y23218D01*
X28757Y23188D01*
X28730Y23108D01*
X28699D01*
Y22046D01*
X28699D01*
X28711Y22000D01*
X28699Y21954D01*
X28699D01*
Y20892D01*
X29301D01*
Y21954D01*
X29301D01*
X29289Y22000D01*
X29301Y22046D01*
X29301D01*
Y23108D01*
X29270D01*
X29243Y23188D01*
X29282Y23218D01*
X29345Y23301D01*
X29385Y23397D01*
X29399Y23500D01*
X29385Y23603D01*
X29345Y23699D01*
X29282Y23782D01*
X29199Y23845D01*
X29103Y23885D01*
X29000Y23899D01*
D02*
G37*
G36*
X25000D02*
X24897Y23885D01*
X24801Y23845D01*
X24718Y23782D01*
X24655Y23699D01*
X24615Y23603D01*
X24601Y23500D01*
X24615Y23397D01*
X24655Y23301D01*
X24718Y23218D01*
X24757Y23188D01*
X24730Y23108D01*
X24699D01*
Y22046D01*
X24699D01*
X24711Y22000D01*
X24699Y21954D01*
X24699D01*
Y20892D01*
X25301D01*
Y21954D01*
X25301D01*
X25289Y22000D01*
X25301Y22046D01*
X25301D01*
Y23108D01*
X25270D01*
X25243Y23188D01*
X25282Y23218D01*
X25345Y23301D01*
X25385Y23397D01*
X25399Y23500D01*
X25385Y23603D01*
X25345Y23699D01*
X25282Y23782D01*
X25199Y23845D01*
X25103Y23885D01*
X25000Y23899D01*
D02*
G37*
G36*
X23000D02*
X22897Y23885D01*
X22801Y23845D01*
X22718Y23782D01*
X22655Y23699D01*
X22615Y23603D01*
X22601Y23500D01*
X22615Y23397D01*
X22655Y23301D01*
X22718Y23218D01*
X22757Y23188D01*
X22730Y23108D01*
X22699D01*
Y22046D01*
X22699D01*
X22711Y22000D01*
X22699Y21954D01*
X22699D01*
Y20892D01*
X23301D01*
Y21954D01*
X23301D01*
X23289Y22000D01*
X23301Y22046D01*
X23301D01*
Y23108D01*
X23270D01*
X23243Y23188D01*
X23282Y23218D01*
X23345Y23301D01*
X23385Y23397D01*
X23399Y23500D01*
X23385Y23603D01*
X23345Y23699D01*
X23282Y23782D01*
X23199Y23845D01*
X23103Y23885D01*
X23000Y23899D01*
D02*
G37*
G36*
X24000D02*
X23897Y23885D01*
X23801Y23845D01*
X23718Y23782D01*
X23655Y23699D01*
X23615Y23603D01*
X23601Y23500D01*
X23615Y23397D01*
X23655Y23301D01*
X23718Y23218D01*
X23757Y23188D01*
X23730Y23108D01*
X23699D01*
Y22046D01*
X23699D01*
X23711Y22000D01*
X23699Y21954D01*
X23699D01*
Y20892D01*
X24301D01*
Y21954D01*
X24301D01*
X24289Y22000D01*
X24301Y22046D01*
X24301D01*
Y23108D01*
X24270D01*
X24243Y23188D01*
X24282Y23218D01*
X24345Y23301D01*
X24385Y23397D01*
X24399Y23500D01*
X24385Y23603D01*
X24345Y23699D01*
X24282Y23782D01*
X24199Y23845D01*
X24103Y23885D01*
X24000Y23899D01*
D02*
G37*
%LPD*%
G36*
X24287Y8916D02*
Y8039D01*
X24207Y7985D01*
X24160Y7994D01*
X24074Y7977D01*
X24001Y7929D01*
X23984Y7903D01*
X23795D01*
X23763Y7935D01*
Y8496D01*
X24213Y8946D01*
X24287Y8916D01*
D02*
G37*
D10*
X13439Y11877D02*
G03*
X12876Y12110I-563J-563D01*
G01*
X13717Y11599D02*
G03*
X14424Y11306I707J707D01*
G01*
X15516Y12350D02*
G03*
X15233Y13033I-966J0D01*
G01*
X15259Y11729D02*
G03*
X15516Y12350I-621J621D01*
G01*
X14169Y14097D02*
G03*
X13462Y14390I-707J-707D01*
G01*
X13066Y14390D02*
X13462D01*
X13439Y11877D02*
X13717Y11599D01*
X14424Y11306D02*
X15176D01*
X14169Y14097D02*
X15233Y13033D01*
X15176Y11646D02*
X15259Y11729D01*
D12*
X12480Y9556D02*
X13086Y8950D01*
X12480Y9556D02*
Y11250D01*
X11783Y11947D02*
X12480Y11250D01*
X10947Y11947D02*
X11783D01*
X10650Y11650D02*
X10947Y11947D01*
X33930Y10730D02*
X34460Y11260D01*
X32810Y10900D02*
X32980Y10730D01*
X33930D01*
X33240Y11100D02*
X33490Y10850D01*
X33880D02*
X34410Y11380D01*
X33490Y10850D02*
X33880D01*
X34190Y11500D02*
X37450D01*
X33750Y11060D02*
X34190Y11500D01*
X34410Y11380D02*
X37500D01*
X34460Y11260D02*
X37780D01*
X44390Y10210D02*
X45760D01*
X43960Y9780D02*
X44390Y10210D01*
X45760D02*
X45830Y10280D01*
X45830Y10280D02*
X45890Y10340D01*
X45805Y10425D02*
X45840Y10460D01*
X43910Y9900D02*
X44340Y10330D01*
X45805Y10425D02*
X45805D01*
X45710Y10330D02*
X45805Y10425D01*
X44340Y10330D02*
X45710D01*
X43861Y10020D02*
X44291Y10450D01*
X45661D02*
X45791Y10580D01*
X44291Y10450D02*
X45661D01*
X43811Y10140D02*
X44241Y10570D01*
X45741Y10700D02*
X46969D01*
X45611Y10570D02*
X45741Y10700D01*
X44241Y10570D02*
X45611D01*
X45660Y10789D02*
X45691Y10820D01*
X43761Y10260D02*
X44191Y10690D01*
X45660Y10789D02*
X45660D01*
X45561Y10690D02*
X45660Y10789D01*
X44191Y10690D02*
X45561D01*
X45586Y10884D02*
X45641Y10940D01*
X43711Y10380D02*
X44141Y10810D01*
X45511D02*
X45586Y10884D01*
X44141Y10810D02*
X45511D01*
X45462Y10930D02*
X45592Y11060D01*
X43662Y10500D02*
X44092Y10930D01*
X45462D01*
X45412Y11050D02*
X45542Y11180D01*
X43612Y10620D02*
X44042Y11050D01*
X45412D01*
X45362Y11170D02*
X45492Y11300D01*
X43562Y10740D02*
X43992Y11170D01*
X45362D01*
X41481Y11530D02*
X45213D01*
X38857Y11680D02*
X39037Y11500D01*
X41451D02*
X41481Y11530D01*
X39037Y11500D02*
X41451D01*
X41500Y11380D02*
Y11380D01*
X38987D02*
X41500D01*
X41440Y11260D02*
X41550D01*
X41440Y11260D02*
X41440Y11260D01*
X37970Y11260D02*
X41440D01*
X41537Y11140D02*
X41937Y10740D01*
X41368Y11140D02*
X41537D01*
X41368Y11140D02*
X41368Y11140D01*
X35240Y11140D02*
X41368D01*
X41488Y11020D02*
X41888Y10620D01*
X35417Y11020D02*
X41488D01*
X41438Y10900D02*
X41838Y10500D01*
X35470Y10900D02*
X41438D01*
X41388Y10780D02*
X41788Y10380D01*
X35520Y10780D02*
X41388D01*
X41339Y10660D02*
X41739Y10260D01*
X35570Y10660D02*
X41339D01*
X41289Y10540D02*
X41689Y10140D01*
X35619Y10540D02*
X41289D01*
X41239Y10420D02*
X41639Y10020D01*
X35690Y10420D02*
X41239D01*
X41189Y10300D02*
X41589Y9900D01*
X36727Y10300D02*
X41189D01*
X41140Y10180D02*
X41540Y9780D01*
X36777Y10180D02*
X41140D01*
X41090Y10060D02*
X41700Y9450D01*
X37350Y10060D02*
X41090D01*
X41500Y11380D02*
X41530Y11410D01*
X41550Y11260D02*
X41580Y11290D01*
X41530Y11410D02*
X45263D01*
X34729Y9650D02*
X35619Y10540D01*
X36475Y9879D02*
X36777Y10180D01*
X36426Y9999D02*
X36727Y10300D01*
X34640Y9370D02*
X35690Y10420D01*
X38807Y11560D02*
X38987Y11380D01*
X41580Y11290D02*
X45313D01*
X37780Y11260D02*
X37880Y11360D01*
Y11350D02*
X37970Y11260D01*
X40810Y11650D02*
X45164D01*
X41090Y11770D02*
X45114D01*
X41838Y10500D02*
X43662D01*
X41788Y10380D02*
X43711D01*
X41739Y10260D02*
X43761D01*
X41689Y10140D02*
X43811D01*
X41639Y10020D02*
X43861D01*
X41589Y9900D02*
X43910D01*
X41540Y9780D02*
X43960D01*
X41937Y10740D02*
X43562D01*
X41888Y10620D02*
X43612D01*
X41387Y9450D02*
X41647Y9190D01*
X41427Y9240D02*
X41597Y9070D01*
X41120Y9240D02*
X41427D01*
X39086Y11620D02*
X39600D01*
X39690Y11710D01*
X37531Y11920D02*
X38956D01*
X39046Y11830D01*
X39410D01*
X37640Y7650D02*
X40730D01*
X37153Y7470D02*
X37460D01*
X37640Y7650D01*
X37463Y7770D02*
X41340D01*
X37373Y7680D02*
X37463Y7770D01*
X30600Y13380D02*
X39310D01*
X37680Y11560D02*
X38807D01*
X37630Y11680D02*
X38857D01*
X37581Y11800D02*
X38906D01*
X37500Y11380D02*
X37680Y11560D01*
X37450Y11500D02*
X37630Y11680D01*
X37401Y11620D02*
X37581Y11800D01*
X38906D02*
X39086Y11620D01*
X37351Y11740D02*
X37531Y11920D01*
X37260Y10060D02*
X37350Y9970D01*
X36826Y10060D02*
X37260D01*
X35150Y11050D02*
X35240Y11140D01*
X35490Y11620D02*
X37401D01*
X35680Y11740D02*
X37351D01*
X35410Y12010D02*
X35680Y11740D01*
X35400Y11710D02*
X35490Y11620D01*
X35608Y9999D02*
X36426D01*
X35658Y9879D02*
X36475D01*
X36525Y9759D02*
X36826Y10060D01*
X35708Y9759D02*
X36525D01*
X35638Y10199D02*
X35781D01*
X34699Y9090D02*
X35608Y9999D01*
X40730Y7650D02*
X40820Y7560D01*
X41120D01*
X40940Y11920D02*
X41090Y11770D01*
X40750Y11710D02*
X40810Y11650D01*
X46651Y11780D02*
X47101Y12230D01*
X46601Y11900D02*
X47051Y12350D01*
X45244Y11900D02*
X46601D01*
X46701Y11660D02*
X47151Y12110D01*
X47110Y11900D02*
X48060D01*
X46750Y11540D02*
X47110Y11900D01*
X47070Y11690D02*
X47840D01*
X46800Y11420D02*
X47070Y11690D01*
X47118Y11480D02*
X48060D01*
X46938Y11300D02*
X47118Y11480D01*
X47051Y12350D02*
X47613D01*
X45164Y11650D02*
X45294Y11780D01*
X16070Y16740D02*
Y19379D01*
X15950Y15860D02*
Y19379D01*
Y15860D02*
X16320Y15490D01*
X15830Y15517D02*
Y19330D01*
X16157Y15190D02*
X16290D01*
X15710Y15467D02*
X16280Y14897D01*
X15030Y15978D02*
X16160Y14848D01*
X16040Y14450D02*
Y14798D01*
X14910Y15928D02*
X16040Y14798D01*
X15710Y15467D02*
Y19280D01*
X15030Y15978D02*
Y19180D01*
X14910Y15928D02*
Y19130D01*
X15830Y15517D02*
X16157Y15190D01*
X16280Y14680D02*
Y14897D01*
X16160Y14630D02*
Y14848D01*
Y14630D02*
X16320Y14470D01*
Y14150D02*
Y14470D01*
X16280Y14680D02*
X16440Y14520D01*
Y12690D02*
Y14520D01*
X16040Y14450D02*
X16110Y14380D01*
X16220Y14050D02*
X16320Y14150D01*
X16210Y12460D02*
X16440Y12690D01*
X16970Y14760D02*
X17020Y14810D01*
X16970Y12470D02*
Y14760D01*
X38593Y14220D02*
X39223Y14850D01*
X38643Y14100D02*
X39183Y14640D01*
X38692Y13980D02*
X39142Y14430D01*
X39102Y14220D02*
X39310D01*
X38742Y13860D02*
X39102Y14220D01*
X39062Y14010D02*
X39530D01*
X38792Y13740D02*
X39062Y14010D01*
X39022Y13800D02*
X39310D01*
X38842Y13620D02*
X39022Y13800D01*
X38981Y13590D02*
X39530D01*
X38891Y13500D02*
X38981Y13590D01*
X34730Y14220D02*
X38593D01*
X34680Y14100D02*
X38643D01*
X34631Y13980D02*
X38692D01*
X34581Y13860D02*
X38742D01*
X31153Y13620D02*
X38842D01*
X31104Y13500D02*
X38891D01*
X45313Y11290D02*
X45443Y11420D01*
X45263Y11410D02*
X45393Y11540D01*
X45213Y11530D02*
X45343Y11660D01*
X35270Y12010D02*
X35410D01*
X28410Y10510D02*
X32283D01*
X28200Y10300D02*
X28410Y10510D01*
X29133Y9430D02*
X33024D01*
X28120Y10630D02*
X32333D01*
X33024Y9430D02*
X33934Y8520D01*
X36580Y8950D02*
X36680Y8850D01*
X35337Y8950D02*
X36580D01*
X34907Y8520D02*
X35337Y8950D01*
X33934Y8520D02*
X34907D01*
X34909Y8961D02*
X35708Y9759D01*
X34589Y8640D02*
X34909Y8961D01*
X34980Y8890D01*
X34539Y8760D02*
X35658Y9879D01*
X34033Y8760D02*
X34539D01*
X33984Y8640D02*
X34589D01*
X33074Y9550D02*
X33984Y8640D01*
X32283Y10510D02*
X34033Y8760D01*
X34693Y9090D02*
X34699D01*
X34500Y8897D02*
X34693Y9090D01*
X34500Y8891D02*
Y8897D01*
X34489Y8880D02*
X34500Y8891D01*
X34083Y8880D02*
X34489D01*
X32333Y10630D02*
X34083Y8880D01*
X34650Y9210D02*
X35638Y10199D01*
X34644Y9210D02*
X34650D01*
X34524Y9090D02*
X34644Y9210D01*
X34310Y9090D02*
X34524D01*
X37153Y7890D02*
X40742D01*
X37661Y8010D02*
X40692D01*
X37571Y8100D02*
X37661Y8010D01*
X37710Y8130D02*
X40642D01*
X37530Y8310D02*
X37710Y8130D01*
X37760Y8250D02*
X40592D01*
X37490Y8520D02*
X37760Y8250D01*
X37820Y8370D02*
X40543D01*
X37460Y8730D02*
X37820Y8370D01*
X37870Y8490D02*
X40493D01*
X37420Y8940D02*
X37870Y8490D01*
X37373Y8100D02*
X37571D01*
X37153Y8310D02*
X37530D01*
X37373Y8520D02*
X37490D01*
X37153Y8730D02*
X37460D01*
X37373Y8940D02*
X37420D01*
X39142Y14430D02*
X39530D01*
X39183Y14640D02*
X39310D01*
X39223Y14850D02*
X39530D01*
X34510Y14440D02*
X34730Y14220D01*
X33894Y14440D02*
X34510D01*
X33554Y14100D02*
X33894Y14440D01*
X31610Y14100D02*
X33554D01*
X30900Y14810D02*
X31610Y14100D01*
X28650Y14810D02*
X30900D01*
X31253Y13860D02*
X33653D01*
X31203Y13740D02*
X33703D01*
X30543Y14570D02*
X31253Y13860D01*
X30493Y14450D02*
X31203Y13740D01*
X30443Y14330D02*
X31153Y13620D01*
X29260Y14330D02*
X30443D01*
X30394Y14210D02*
X31104Y13500D01*
X29580Y14210D02*
X30394D01*
X31557Y13980D02*
X33604D01*
X28934Y14690D02*
X30847D01*
X31557Y13980D01*
X33604D02*
X33944Y14320D01*
X34460D01*
X34680Y14100D01*
X34411Y14200D02*
X34631Y13980D01*
X33993Y14200D02*
X34411D01*
X33653Y13860D02*
X33993Y14200D01*
X33703Y13740D02*
X34043Y14080D01*
X34361D01*
X30000Y12780D02*
X30600Y13380D01*
X34361Y14080D02*
X34581Y13860D01*
X29490Y14120D02*
X29580Y14210D01*
X1380Y22240D02*
X2964D01*
X1380Y22740D02*
X2634D01*
X1380Y23240D02*
X2304D01*
X1630Y23990D02*
X1723D01*
X1380Y24240D02*
X1630Y23990D01*
X1680Y24203D02*
Y24240D01*
X17423Y7558D02*
X19193D01*
X28240Y7460D02*
X28283Y7503D01*
X17196Y5844D02*
X17723D01*
X23120Y8380D02*
X24516Y9776D01*
Y9904D01*
X24304Y10116D02*
X24306Y10114D01*
X23510Y8600D02*
X24601Y9692D01*
X24728D01*
X24938Y9482D02*
X24941Y9479D01*
X22380Y7260D02*
Y7810D01*
X23120Y7857D02*
Y8380D01*
X23510Y7830D02*
Y8600D01*
X46569Y9101D02*
Y9921D01*
Y9101D02*
X47100Y8570D01*
X46350Y10130D02*
X46351Y10131D01*
X46840Y9330D02*
X47100Y9070D01*
X46351Y10131D02*
X46699D01*
X46840Y9990D01*
Y9330D02*
Y9990D01*
X45592Y11060D02*
X48060D01*
X47159Y10850D02*
X47840D01*
X45641Y10940D02*
X47069D01*
X47159Y10850D01*
X45691Y10820D02*
X47019D01*
X47199Y10640D01*
X48060D01*
X47239Y10430D02*
X47840D01*
X46969Y10700D02*
X47239Y10430D01*
X46919Y10580D02*
X47279Y10220D01*
X45791Y10580D02*
X46919D01*
X47279Y10220D02*
X48060D01*
X45840Y10460D02*
X46870D01*
X47230Y10100D01*
X47883D02*
X48613Y9370D01*
X47230Y10100D02*
X47883D01*
X48613Y9370D02*
X49972D01*
X45890Y10340D02*
X46820D01*
X47180Y9980D02*
X47820D01*
X46820Y10340D02*
X47180Y9980D01*
X48470Y9080D02*
Y9330D01*
X47820Y9980D02*
X48470Y9330D01*
X45542Y11180D02*
X46988D01*
X47078Y11270D01*
X47840D01*
X45492Y11300D02*
X46938D01*
X45443Y11420D02*
X46800D01*
X45393Y11540D02*
X46750D01*
X45343Y11660D02*
X46701D01*
X47151Y12110D02*
X47840D01*
X45294Y11780D02*
X46651D01*
X47101Y12230D02*
X47663D01*
X47753Y12320D01*
X48060D01*
X45114Y11770D02*
X45244Y11900D01*
X34670Y9930D02*
X34840D01*
X35030Y10770D02*
X35167D01*
X34550Y9650D02*
X34729D01*
X34430Y9370D02*
X34640D01*
X41033Y9030D02*
X41340D01*
X35167Y10770D02*
X35417Y11020D01*
X27980Y14190D02*
X28773D01*
X28190Y14410D02*
X28823D01*
X28983Y14570D01*
X29033Y14450D02*
X30493D01*
X28773Y14190D02*
X29033Y14450D01*
X28983Y14570D02*
X30543D01*
X28400Y14630D02*
X28874D01*
X28934Y14690D01*
X28610Y14850D02*
X28650Y14810D01*
X29050Y14120D02*
X29260Y14330D01*
X23630Y8551D02*
X24561Y9482D01*
X24938D01*
X22380Y7810D02*
X24306Y9736D01*
Y10114D01*
X28283Y7503D02*
Y8580D01*
X23740Y7770D02*
X24160D01*
X23630Y7880D02*
X23740Y7770D01*
X23630Y7880D02*
Y8551D01*
X23510Y7830D02*
X24210Y7130D01*
Y7040D02*
Y7130D01*
X24677Y12000D02*
Y12404D01*
X28283Y8580D02*
X29133Y9430D01*
X26110Y13450D02*
X26560Y13000D01*
X26662D01*
X24438D02*
Y13108D01*
X24800Y13470D01*
X24438Y14108D02*
X24800Y14470D01*
X24438Y14000D02*
Y14108D01*
X24202Y14000D02*
X24438D01*
X41597Y9070D02*
X42600D01*
X41340Y9450D02*
X41387D01*
X41647Y9190D02*
X42220D01*
X42600Y9570D01*
X5944Y19260D02*
X14780D01*
X2964Y22240D02*
X5944Y19260D01*
X14780D02*
X14910Y19130D01*
X5994Y19380D02*
X14830D01*
X15030Y19180D01*
X2634Y22740D02*
X5994Y19380D01*
X6044Y19500D02*
X15490D01*
X2304Y23240D02*
X6044Y19500D01*
X15490D02*
X15710Y19280D01*
X15540Y19620D02*
X15830Y19330D01*
X6093Y19620D02*
X15540D01*
X1723Y23990D02*
X6093Y19620D01*
X6143Y19740D02*
X15589D01*
X1680Y24203D02*
X6143Y19740D01*
X15589D02*
X15950Y19379D01*
X40493Y8490D02*
X41033Y9030D01*
X40543Y8370D02*
X40993Y8820D01*
X41120D01*
X40952Y8610D02*
X41340D01*
X40592Y8250D02*
X40952Y8610D01*
X40642Y8130D02*
X40912Y8400D01*
X41120D01*
X40692Y8010D02*
X40872Y8190D01*
X41340D01*
X40832Y7980D02*
X41120D01*
X40742Y7890D02*
X40832Y7980D01*
X34910Y10490D02*
X35060D01*
X35470Y10900D01*
X34790Y10210D02*
X34950D01*
X35520Y10780D01*
X34840Y9930D02*
X35570Y10660D01*
X29000Y14070D02*
X29050Y14120D01*
X47613Y12350D02*
X47817Y12553D01*
X34350Y13740D02*
X38792D01*
X34220Y13870D02*
X34350Y13740D01*
X31100Y9920D02*
X31470Y9550D01*
X33074D01*
X30720Y3200D02*
Y4690D01*
X30280Y5130D02*
X30720Y4690D01*
D24*
X5411Y1120D02*
D03*
X50973Y23600D02*
D03*
D48*
X16400Y18577D02*
D03*
X15400D02*
D03*
X18400Y18577D02*
D03*
X17400Y18577D02*
D03*
X14400D02*
D03*
X13400D02*
D03*
X12400Y18577D02*
D03*
X11400Y18577D02*
D03*
X18400Y17423D02*
D03*
X17400Y17423D02*
D03*
X16400D02*
D03*
X13400D02*
D03*
X12400Y17423D02*
D03*
X15400Y17423D02*
D03*
X14400D02*
D03*
X10400Y18577D02*
D03*
X9400D02*
D03*
X8400Y18577D02*
D03*
X7400D02*
D03*
X11400Y17423D02*
D03*
X10400D02*
D03*
X9400D02*
D03*
X8400Y17423D02*
D03*
X7400D02*
D03*
X17000Y2423D02*
D03*
Y3577D02*
D03*
X18000Y2423D02*
D03*
Y3577D02*
D03*
X12000Y2423D02*
D03*
Y3577D02*
D03*
X13000D02*
D03*
Y2423D02*
D03*
X14000Y3577D02*
D03*
Y2423D02*
D03*
X16000Y3577D02*
D03*
Y2423D02*
D03*
X15000Y3577D02*
D03*
Y2423D02*
D03*
X11000D02*
D03*
Y3577D02*
D03*
X19000Y22577D02*
D03*
Y21423D02*
D03*
X18000Y22577D02*
D03*
Y21423D02*
D03*
X24000Y22577D02*
D03*
Y21423D02*
D03*
X23000D02*
D03*
Y22577D02*
D03*
X22000Y21423D02*
D03*
Y22577D02*
D03*
X20000Y21423D02*
D03*
Y22577D02*
D03*
X21000Y21423D02*
D03*
Y22577D02*
D03*
X25000D02*
D03*
Y21423D02*
D03*
X8400Y22577D02*
D03*
Y21423D02*
D03*
X7400Y22577D02*
D03*
Y21423D02*
D03*
X16400D02*
D03*
Y22577D02*
D03*
X12400D02*
D03*
Y21423D02*
D03*
X11400Y22577D02*
D03*
Y21423D02*
D03*
X13400Y22577D02*
D03*
Y21423D02*
D03*
X14400Y22577D02*
D03*
Y21423D02*
D03*
X15400D02*
D03*
Y22577D02*
D03*
X9400Y21423D02*
D03*
Y22577D02*
D03*
X10400Y21423D02*
D03*
Y22577D02*
D03*
X20000Y3577D02*
D03*
Y2423D02*
D03*
X24000D02*
D03*
Y3577D02*
D03*
X25000Y2423D02*
D03*
Y3577D02*
D03*
X23000Y2423D02*
D03*
Y3577D02*
D03*
X22000Y2423D02*
D03*
Y3577D02*
D03*
X21000D02*
D03*
Y2423D02*
D03*
X28000Y22577D02*
D03*
Y21423D02*
D03*
X27000Y22577D02*
D03*
Y21423D02*
D03*
X33000Y22577D02*
D03*
Y21423D02*
D03*
X32000D02*
D03*
Y22577D02*
D03*
X31000Y21423D02*
D03*
Y22577D02*
D03*
X29000Y21423D02*
D03*
Y22577D02*
D03*
X30000Y21423D02*
D03*
Y22577D02*
D03*
X34000D02*
D03*
Y21423D02*
D03*
D85*
X43150Y8050D02*
X44200Y7000D01*
X43060Y8050D02*
X43150D01*
X21100Y16520D02*
X21360Y16780D01*
X21100Y14880D02*
Y16520D01*
Y14880D02*
X23040Y12940D01*
Y9714D02*
Y12940D01*
D86*
X2570Y1660D02*
X5011D01*
X5160Y1809D02*
X6380D01*
X5011Y1660D02*
X5160Y1809D01*
X6380D02*
X8859D01*
X40640Y15720D02*
X40920Y16000D01*
X40610Y19350D02*
X41140Y18820D01*
Y18016D02*
Y18820D01*
X40920Y17796D02*
X41140Y18016D01*
X40920Y16000D02*
Y17796D01*
X41430Y15447D02*
X42713Y16730D01*
Y16621D02*
X43465D01*
X42713Y16730D02*
Y18647D01*
Y16621D02*
Y16730D01*
X7450Y9010D02*
X8630D01*
X9730D01*
X9700Y8680D02*
Y8980D01*
X9730Y9010D02*
X10490D01*
X10180Y7880D02*
X10815Y7245D01*
X9700Y8680D02*
X10180Y8200D01*
Y7880D02*
Y8200D01*
X11220Y11010D02*
X11390Y11180D01*
X11220Y9740D02*
Y11010D01*
X40040Y21320D02*
X42713Y18647D01*
X41650Y12250D02*
X42010D01*
X40640Y13260D02*
X41650Y12250D01*
X22187Y15180D02*
X23007Y16000D01*
X21657Y15180D02*
X22187D01*
X23007Y16000D02*
X23640D01*
X23910Y15730D01*
X18070Y15010D02*
X20110D01*
X17700Y14640D02*
X18070Y15010D01*
X17700Y14530D02*
Y14640D01*
X23267Y5080D02*
X27520Y9333D01*
X26662Y13502D02*
X27368D01*
X27520Y9333D02*
Y9347D01*
X27570Y9397D01*
Y13300D01*
X27368Y13502D02*
X27570Y13300D01*
X6726Y20752D02*
X7023Y20455D01*
X14000Y2423D02*
Y3577D01*
X12000Y2423D02*
Y3577D01*
X11000Y2423D02*
Y3577D01*
X15170Y4330D02*
X15920Y5080D01*
X19800Y13314D02*
X20420D01*
X20896Y12838D01*
X16696Y9590D02*
X20420Y13314D01*
X16746Y10260D02*
X19800Y13314D01*
X26662Y13502D02*
Y14000D01*
X20246Y9110D02*
X20846Y8510D01*
X13286Y10865D02*
X16755D01*
X20300Y14410D01*
Y14550D01*
Y14820D01*
X20110Y15010D02*
X20300Y14820D01*
X13706Y10260D02*
X16746D01*
X13336Y9890D02*
X13706Y10260D01*
X20896Y12332D02*
Y12838D01*
X20246Y11682D02*
X20896Y12332D01*
X20246Y9110D02*
Y11682D01*
X15000Y2423D02*
Y3000D01*
Y3577D01*
X14247Y4330D02*
X15000Y3577D01*
X16696Y6453D02*
X16699Y6450D01*
X16696Y6453D02*
Y9590D01*
X10490Y9010D02*
X11220Y9740D01*
X11930Y4330D02*
X14247D01*
X10815Y5445D02*
Y7245D01*
Y5445D02*
X11930Y4330D01*
X15920Y5080D02*
X23267D01*
X16400Y19380D02*
X16700Y19680D01*
X17030Y19350D01*
X16400Y17423D02*
Y18000D01*
Y18577D01*
Y19380D01*
X41430Y13670D02*
Y15447D01*
Y13670D02*
X41973Y13127D01*
X42313D01*
X15400Y18000D02*
Y18577D01*
Y17423D02*
Y18000D01*
X17400D02*
Y18577D01*
Y17423D02*
Y18000D01*
X18400Y18000D02*
Y18577D01*
Y17423D02*
Y18000D01*
X39380Y21320D02*
X40040D01*
X38515Y20455D02*
X39380Y21320D01*
X7023Y20455D02*
X38515D01*
X17030Y19350D02*
X40610D01*
X40640Y13260D02*
Y15720D01*
X10410Y3360D02*
Y4689D01*
X8859Y1809D02*
X10410Y3360D01*
X8830Y6970D02*
X9570D01*
X8580Y6720D02*
X8830Y6970D01*
X14247Y4330D02*
X14850D01*
X15170D01*
X10169Y4930D02*
Y6371D01*
X9570Y6970D02*
X10169Y6371D01*
Y4930D02*
X10410Y4689D01*
D87*
X13086Y8950D02*
X13776Y9640D01*
X12430Y8294D02*
X13086Y8950D01*
X44608Y22260D02*
X48160D01*
X43880Y22710D02*
X44159D01*
X44608Y22260D01*
X23910Y6810D02*
X24305D01*
X23540Y7180D02*
X23910Y6810D01*
X24305D02*
X24440Y6945D01*
Y9090D01*
X24550Y9200D01*
X25400D01*
X33790Y7320D02*
X33955Y7485D01*
X32020Y7090D02*
X32250Y7320D01*
X33790D01*
X33955Y7485D02*
X36395D01*
X36610Y7700D01*
X3630Y21150D02*
X6160Y18620D01*
X3260Y21150D02*
X3630D01*
X4710Y21390D02*
Y22890D01*
X4900Y23080D01*
X6160Y16340D02*
Y18620D01*
X6220Y19880D02*
X15670D01*
X4710Y21390D02*
X6220Y19880D01*
X16580Y12400D02*
Y15460D01*
X16600Y15440D02*
X18757D01*
X16090Y16440D02*
X16580Y15950D01*
Y15460D02*
Y15950D01*
Y15460D02*
X16600Y15440D01*
X16090Y16440D02*
Y16740D01*
X15900Y14525D02*
Y14740D01*
X14770Y15870D02*
X15900Y14740D01*
X14770Y15870D02*
Y19072D01*
X20305Y17275D02*
X21420Y18390D01*
X20305Y16988D02*
Y17275D01*
X18757Y15440D02*
X20305Y16988D01*
X18813Y15270D02*
X20553Y17010D01*
X17150Y15270D02*
X18813D01*
X16740Y14860D02*
X17150Y15270D01*
X16740Y12120D02*
Y14860D01*
X15880Y14505D02*
X15900Y14525D01*
X15880Y14190D02*
Y14505D01*
Y14190D02*
X15930Y14140D01*
Y12310D02*
Y14140D01*
Y12310D02*
X16580Y11660D01*
X16090Y19379D02*
Y19460D01*
X16400Y12220D02*
X16580Y12400D01*
X14970Y9640D02*
X16020D01*
X13776D02*
X14970D01*
X16020D02*
X16100Y9560D01*
X16580Y11660D02*
X16680D01*
X16650Y12030D02*
X16740Y12120D01*
X3370Y21460D02*
X3546D01*
X13686Y8790D02*
X15036D01*
X13686Y8490D02*
X15026D01*
X26990Y12020D02*
Y12394D01*
X47098Y20777D02*
X47118Y20757D01*
X47098Y20777D02*
Y22257D01*
X48160Y22260D02*
X48700Y22800D01*
X12430Y7360D02*
Y8294D01*
X3546Y21460D02*
X5886Y19120D01*
X14722D01*
X14770Y19072D01*
X15060Y21165D02*
Y22590D01*
X15670Y19880D02*
X16090Y19460D01*
X44470Y20896D02*
X44608Y20757D01*
X44470Y20896D02*
Y22122D01*
X44608Y22260D01*
D88*
X13000Y2423D02*
Y3000D01*
Y3577D01*
X18000Y2423D02*
Y3000D01*
Y3577D01*
X19000Y21423D02*
Y22000D01*
Y22577D01*
X18000Y21423D02*
Y22000D01*
Y22577D01*
X8400Y21423D02*
Y22000D01*
Y22577D01*
X7400Y21423D02*
Y22000D01*
Y22577D01*
X20000Y2423D02*
Y3000D01*
X21000Y2423D02*
Y3000D01*
Y3577D01*
X22000Y2423D02*
Y3000D01*
Y3577D01*
X23000Y2423D02*
Y3000D01*
X24000Y2423D02*
Y3000D01*
X25000Y2423D02*
Y3000D01*
Y3577D01*
X20000Y3000D02*
Y3810D01*
X23000Y3000D02*
Y3800D01*
X24000Y3000D02*
Y3800D01*
X23000Y21423D02*
Y22000D01*
Y22577D01*
X22000Y21423D02*
Y22000D01*
Y22577D01*
X21000Y21423D02*
Y22000D01*
Y22577D01*
X20000Y21423D02*
Y22000D01*
Y22577D01*
X24000Y21423D02*
Y22000D01*
Y22577D01*
X25000Y21184D02*
Y22000D01*
Y22577D01*
X9400Y21200D02*
Y22000D01*
Y22577D01*
X11400Y21423D02*
Y22000D01*
Y22577D01*
X12400Y21423D02*
Y22000D01*
Y22577D01*
X13400Y21423D02*
Y22000D01*
Y22577D01*
X14400Y21423D02*
Y22000D01*
Y22577D01*
X15400Y21423D02*
Y22000D01*
Y22577D01*
X16400Y22000D02*
Y22577D01*
Y21423D02*
Y22000D01*
X29000Y21423D02*
Y22000D01*
Y22577D01*
X28000Y21423D02*
Y22000D01*
Y22577D01*
X27000Y21423D02*
Y22000D01*
Y22577D01*
X30000Y21423D02*
Y22000D01*
Y22577D01*
X31000Y21423D02*
Y22000D01*
Y22577D01*
X32000Y22000D02*
Y22577D01*
Y21423D02*
Y22000D01*
X33000D02*
Y22577D01*
Y21423D02*
Y22000D01*
X34000D02*
Y22577D01*
Y21423D02*
Y22000D01*
D90*
X10630Y12010D02*
Y14290D01*
X10315Y11695D02*
X10630Y12010D01*
Y14290D02*
X11020Y14680D01*
X11440D01*
D91*
X5920Y5660D02*
X6180Y5400D01*
X5920Y5660D02*
Y6360D01*
X6380D01*
X5810Y6470D02*
X5920Y6360D01*
X5374Y6470D02*
X5810D01*
X4500Y7344D02*
X5374Y6470D01*
X14760Y5100D02*
X14850Y5010D01*
Y4330D02*
Y5010D01*
D92*
X11140Y11530D02*
Y11737D01*
X10830Y11220D02*
X11140Y11530D01*
X10830Y10404D02*
Y11220D01*
X10396Y9970D02*
X10830Y10404D01*
X7910Y9970D02*
X10396D01*
X7026Y9086D02*
X7910Y9970D01*
X7026Y6560D02*
Y9086D01*
X6356Y5890D02*
X7026Y6560D01*
X9700Y8980D02*
X9730Y9010D01*
X1650Y6750D02*
X3906D01*
X220Y8180D02*
X1650Y6750D01*
X220Y8180D02*
Y15720D01*
X3906Y6750D02*
X4500Y7344D01*
X6240Y5890D02*
X6356D01*
X5030Y6000D02*
X5040Y6010D01*
X8605Y9035D02*
X8630Y9010D01*
X8400Y17423D02*
Y18000D01*
Y18577D01*
X7400Y18000D02*
Y18577D01*
Y17423D02*
Y18000D01*
X9400Y18000D02*
Y18577D01*
Y17423D02*
Y18000D01*
X10400D02*
Y18577D01*
Y17423D02*
Y18000D01*
X11400D02*
Y18577D01*
Y17423D02*
Y18000D01*
X12400Y18000D02*
Y18577D01*
Y17423D02*
Y18000D01*
X13400Y18000D02*
Y18577D01*
Y17423D02*
Y18000D01*
X14400D02*
Y18577D01*
Y17423D02*
Y18000D01*
X5190Y6000D02*
X5480Y5710D01*
Y5632D02*
Y5710D01*
X5030Y6000D02*
X5190D01*
X5480Y5632D02*
X7000Y4112D01*
Y2850D02*
Y4112D01*
X220Y15720D02*
X2144Y17644D01*
X4500D01*
X7850Y2730D02*
X7920Y2800D01*
Y4875D01*
D96*
X27880Y2870D02*
X27880Y5490D01*
X27790Y17720D02*
X30910D01*
X35710Y6710D02*
X38830D01*
D105*
X36626Y800D02*
D03*
X34027D02*
D03*
D106*
X26000Y5000D02*
D03*
Y16000D02*
D03*
X5500Y3000D02*
D03*
X6000Y22000D02*
D03*
X38000Y3000D02*
D03*
X35500Y22000D02*
D03*
D107*
X12000Y9000D02*
D03*
X3220Y5490D02*
D03*
D108*
X12000Y10000D02*
D03*
Y11000D02*
D03*
X26750Y2250D02*
D03*
X49250Y24000D02*
D03*
X23000Y24500D02*
D03*
X22000D02*
D03*
X24000D02*
D03*
X25000Y23500D02*
D03*
X23000D02*
D03*
X22000D02*
D03*
X24000D02*
D03*
X21000Y24500D02*
D03*
Y23500D02*
D03*
X19000Y24500D02*
D03*
X18000D02*
D03*
X20000D02*
D03*
Y23500D02*
D03*
X18000D02*
D03*
X19000D02*
D03*
X13400Y24500D02*
D03*
X12400D02*
D03*
X15400D02*
D03*
X14400D02*
D03*
X16400Y23500D02*
D03*
X15400D02*
D03*
X13400D02*
D03*
X12400D02*
D03*
X14400D02*
D03*
X11400Y24500D02*
D03*
X10400Y23500D02*
D03*
Y24500D02*
D03*
X8400D02*
D03*
X7400D02*
D03*
X9400D02*
D03*
Y23500D02*
D03*
X11400D02*
D03*
X7400D02*
D03*
X8400D02*
D03*
X32000Y24500D02*
D03*
X31000D02*
D03*
X33000D02*
D03*
X34000Y23500D02*
D03*
X32000D02*
D03*
X31000D02*
D03*
X33000D02*
D03*
X30000Y24500D02*
D03*
Y23500D02*
D03*
X28000Y24500D02*
D03*
X27000D02*
D03*
X29000D02*
D03*
Y23500D02*
D03*
X27000D02*
D03*
X28000D02*
D03*
X3220Y4490D02*
D03*
X25000Y1500D02*
D03*
X24000D02*
D03*
Y500D02*
D03*
X22000Y1500D02*
D03*
X21000D02*
D03*
X23000D02*
D03*
X25000Y500D02*
D03*
X23000D02*
D03*
X21000D02*
D03*
X22000D02*
D03*
X20000Y1500D02*
D03*
X18000D02*
D03*
X17000D02*
D03*
X18000Y500D02*
D03*
X16000Y1500D02*
D03*
X14000D02*
D03*
X13000D02*
D03*
X15000D02*
D03*
X17000Y500D02*
D03*
X16000D02*
D03*
X14000D02*
D03*
X13000D02*
D03*
X15000D02*
D03*
X12000Y1500D02*
D03*
X11000D02*
D03*
X12000Y500D02*
D03*
D109*
X23900Y18500D02*
D03*
X23500Y15500D02*
D03*
X23100Y18500D02*
D03*
D110*
X765Y13799D02*
D03*
Y11201D02*
D03*
D111*
X25000Y24500D02*
D03*
X16400D02*
D03*
X34000D02*
D03*
X20000Y500D02*
D03*
X11000D02*
D03*
D112*
X2880Y7590D02*
D03*
Y16929D02*
D03*
Y20157D02*
D03*
D113*
X44931Y15519D02*
D03*
X45404D02*
D03*
X45876D02*
D03*
X46349D02*
D03*
X44931Y15046D02*
D03*
X45404D02*
D03*
X45876D02*
D03*
X46349D02*
D03*
X44931Y14574D02*
D03*
X45404D02*
D03*
X45876D02*
D03*
X46349D02*
D03*
X44931Y14101D02*
D03*
X45404D02*
D03*
X45876D02*
D03*
X46349D02*
D03*
X2090Y1470D02*
D03*
X4010Y1290D02*
D03*
X2840Y2050D02*
D03*
X4330Y2140D02*
D03*
X2080Y3170D02*
D03*
X2570Y1660D02*
D03*
X3030Y1130D02*
D03*
X1586Y1720D02*
D03*
X1121Y1035D02*
D03*
X2041D02*
D03*
X27220Y18440D02*
D03*
X30010Y18480D02*
D03*
X32020Y17490D02*
D03*
X31200Y18160D02*
D03*
X33150Y18260D02*
D03*
X10650Y11650D02*
D03*
X11140Y11737D02*
D03*
X12110Y12010D02*
D03*
X10315Y11695D02*
D03*
X33250Y5880D02*
D03*
X33100Y5020D02*
D03*
X34190Y3975D02*
D03*
X35060Y5350D02*
D03*
X42870Y21250D02*
D03*
X42430Y21910D02*
D03*
X43880Y22710D02*
D03*
X41800Y20950D02*
D03*
X41460Y21100D02*
D03*
X36930Y18520D02*
D03*
X36300Y23430D02*
D03*
X3260Y21150D02*
D03*
X6400Y18730D02*
D03*
X4900Y23080D02*
D03*
X10200Y9410D02*
D03*
X7450Y9010D02*
D03*
X11390Y11180D02*
D03*
X3370Y4990D02*
D03*
X3290Y6040D02*
D03*
X33650Y11060D02*
D03*
X33240Y11100D02*
D03*
X44200Y7000D02*
D03*
X27880Y2870D02*
D03*
X27880Y5490D02*
D03*
X27790Y17720D02*
D03*
X30910D02*
D03*
X39430Y15340D02*
D03*
X39310Y15060D02*
D03*
X39990Y9800D02*
D03*
X39760Y12080D02*
D03*
X40930Y12490D02*
D03*
X40080Y20560D02*
D03*
X43060Y8050D02*
D03*
X38830Y6710D02*
D03*
X35710D02*
D03*
X43020Y11070D02*
D03*
X42650Y10950D02*
D03*
X41700Y9450D02*
D03*
X39190Y5170D02*
D03*
X41350Y17700D02*
D03*
X40090Y15320D02*
D03*
X39280Y9220D02*
D03*
X36770Y4390D02*
D03*
X38270Y5970D02*
D03*
X38020Y5750D02*
D03*
X39690Y11710D02*
D03*
X39410Y11830D02*
D03*
X37800Y8970D02*
D03*
X38040Y12510D02*
D03*
X39310Y13380D02*
D03*
X37860Y9680D02*
D03*
X37580Y9550D02*
D03*
X37890Y14500D02*
D03*
X37880Y11350D02*
D03*
X37410Y15540D02*
D03*
X37340Y9360D02*
D03*
X36140Y10210D02*
D03*
X36610Y7700D02*
D03*
X37373Y7680D02*
D03*
X37153Y7470D02*
D03*
X41120Y7560D02*
D03*
X42560Y6760D02*
D03*
X41340Y7770D02*
D03*
X40750Y11710D02*
D03*
X40970Y11930D02*
D03*
X29290Y3000D02*
D03*
X31910Y5210D02*
D03*
X30280Y5130D02*
D03*
X31750Y6480D02*
D03*
X30720Y3200D02*
D03*
X31930Y3180D02*
D03*
X33989Y3257D02*
D03*
X32350Y3970D02*
D03*
X17570Y15010D02*
D03*
X16320Y15490D02*
D03*
X16290Y15190D02*
D03*
X17700Y14530D02*
D03*
X16110Y14380D02*
D03*
X16220Y14050D02*
D03*
X21100Y4310D02*
D03*
X19000Y17600D02*
D03*
X9900Y18800D02*
D03*
X9800Y16600D02*
D03*
X11600Y15829D02*
D03*
X11900Y14600D02*
D03*
X21360Y16780D02*
D03*
X18030Y15670D02*
D03*
X17020Y14810D02*
D03*
X20553Y17010D02*
D03*
X14698Y15255D02*
D03*
X11440Y14680D02*
D03*
X10940Y16160D02*
D03*
X36450Y12280D02*
D03*
X35270Y12010D02*
D03*
X35400Y11710D02*
D03*
X38340Y21490D02*
D03*
X39250Y18620D02*
D03*
X39310Y18270D02*
D03*
X39330Y20530D02*
D03*
X37040Y16570D02*
D03*
X37370Y16400D02*
D03*
X37340Y18480D02*
D03*
X37500Y17510D02*
D03*
X37840D02*
D03*
X38640Y21440D02*
D03*
X28200Y10300D02*
D03*
X36240Y7790D02*
D03*
X34980Y8890D02*
D03*
X36240Y8100D02*
D03*
X37350Y9970D02*
D03*
X36610Y8840D02*
D03*
X37270Y21700D02*
D03*
X28040Y10630D02*
D03*
X38160Y18510D02*
D03*
X33350Y14340D02*
D03*
X29490Y14120D02*
D03*
X30000Y12780D02*
D03*
X6726Y20752D02*
D03*
X1590Y10630D02*
D03*
X10480Y10760D02*
D03*
X9960Y10750D02*
D03*
X10340Y10310D02*
D03*
X11000Y7780D02*
D03*
X47760Y22660D02*
D03*
X1410Y4790D02*
D03*
X4570Y23540D02*
D03*
X4420Y21800D02*
D03*
X5930Y15480D02*
D03*
X6310Y14550D02*
D03*
X6620Y11560D02*
D03*
X23480Y4530D02*
D03*
X21410Y4540D02*
D03*
X20670Y5840D02*
D03*
X21970Y5980D02*
D03*
X22710Y6690D02*
D03*
X24780Y7360D02*
D03*
X26460Y6940D02*
D03*
X28520Y6250D02*
D03*
X34420Y3620D02*
D03*
X37850Y1090D02*
D03*
X37510D02*
D03*
X37170D02*
D03*
X41830Y15330D02*
D03*
X30170Y15800D02*
D03*
X28340Y15910D02*
D03*
X27020Y11050D02*
D03*
X28840Y5790D02*
D03*
X48550Y21950D02*
D03*
X25767Y10603D02*
D03*
X31030Y11780D02*
D03*
X32990Y12580D02*
D03*
X32490Y12560D02*
D03*
X33500Y12460D02*
D03*
Y15750D02*
D03*
X31330Y16790D02*
D03*
X14864Y6168D02*
D03*
X27000Y6350D02*
D03*
X28090Y6260D02*
D03*
X27590Y5880D02*
D03*
X23910Y15730D02*
D03*
X50697Y22255D02*
D03*
Y21255D02*
D03*
Y20255D02*
D03*
Y19255D02*
D03*
Y18255D02*
D03*
X49697Y24255D02*
D03*
Y23255D02*
D03*
Y22255D02*
D03*
Y21255D02*
D03*
Y20255D02*
D03*
Y19255D02*
D03*
Y18255D02*
D03*
Y17255D02*
D03*
Y16255D02*
D03*
Y13255D02*
D03*
Y12255D02*
D03*
Y11255D02*
D03*
Y10255D02*
D03*
Y4255D02*
D03*
Y1255D02*
D03*
X48698Y24255D02*
D03*
Y23255D02*
D03*
Y18255D02*
D03*
Y3255D02*
D03*
Y2255D02*
D03*
Y1255D02*
D03*
X47698Y24255D02*
D03*
Y23255D02*
D03*
Y18255D02*
D03*
Y3255D02*
D03*
Y1255D02*
D03*
X46698Y24255D02*
D03*
Y23255D02*
D03*
Y5255D02*
D03*
Y3255D02*
D03*
Y1255D02*
D03*
X45697Y24255D02*
D03*
Y23255D02*
D03*
Y8255D02*
D03*
Y6255D02*
D03*
Y5255D02*
D03*
Y4255D02*
D03*
Y3255D02*
D03*
Y1255D02*
D03*
X44697Y24255D02*
D03*
Y23255D02*
D03*
Y8255D02*
D03*
Y5255D02*
D03*
Y3255D02*
D03*
Y1255D02*
D03*
X43698Y24255D02*
D03*
Y23255D02*
D03*
X43397Y17255D02*
D03*
X43698Y3255D02*
D03*
Y1255D02*
D03*
X42698Y24255D02*
D03*
Y23255D02*
D03*
Y8255D02*
D03*
Y5255D02*
D03*
Y3255D02*
D03*
Y1255D02*
D03*
X41698Y7255D02*
D03*
Y6255D02*
D03*
Y5155D02*
D03*
Y4255D02*
D03*
Y3255D02*
D03*
Y1255D02*
D03*
X40697Y5155D02*
D03*
Y3255D02*
D03*
Y1255D02*
D03*
X39697Y23255D02*
D03*
Y1255D02*
D03*
X38698Y24255D02*
D03*
Y23255D02*
D03*
Y22255D02*
D03*
Y4255D02*
D03*
Y1255D02*
D03*
X37698Y24255D02*
D03*
Y23255D02*
D03*
Y22255D02*
D03*
X36697Y24255D02*
D03*
Y23255D02*
D03*
Y22255D02*
D03*
Y7255D02*
D03*
X35698Y23255D02*
D03*
Y7255D02*
D03*
Y6255D02*
D03*
X34697Y24255D02*
D03*
Y23255D02*
D03*
Y7255D02*
D03*
Y6255D02*
D03*
X33698Y17255D02*
D03*
Y16255D02*
D03*
Y6255D02*
D03*
X32698Y16255D02*
D03*
Y1255D02*
D03*
X31697Y16255D02*
D03*
X30698Y17255D02*
D03*
Y11255D02*
D03*
Y10255D02*
D03*
Y8255D02*
D03*
Y1255D02*
D03*
X29697Y11255D02*
D03*
Y10255D02*
D03*
X27698Y17255D02*
D03*
Y15255D02*
D03*
Y1255D02*
D03*
X26697Y17255D02*
D03*
Y10255D02*
D03*
Y1255D02*
D03*
X25698Y24255D02*
D03*
Y23255D02*
D03*
Y22255D02*
D03*
Y21255D02*
D03*
Y17255D02*
D03*
Y10255D02*
D03*
Y6255D02*
D03*
Y2255D02*
D03*
Y1255D02*
D03*
X24697Y5255D02*
D03*
X23698Y14255D02*
D03*
Y13255D02*
D03*
Y12255D02*
D03*
Y11255D02*
D03*
X22698Y18255D02*
D03*
Y9255D02*
D03*
X21697Y17255D02*
D03*
Y11255D02*
D03*
Y9255D02*
D03*
X19698Y4255D02*
D03*
X18698Y1255D02*
D03*
X17697Y9255D02*
D03*
Y8255D02*
D03*
Y4255D02*
D03*
X16697D02*
D03*
X15697D02*
D03*
X13698Y15255D02*
D03*
Y5255D02*
D03*
X12697D02*
D03*
X11697D02*
D03*
X9697Y14255D02*
D03*
X6697Y24255D02*
D03*
Y12255D02*
D03*
Y2255D02*
D03*
X5698Y24255D02*
D03*
Y23255D02*
D03*
X4697Y24255D02*
D03*
Y15255D02*
D03*
Y1255D02*
D03*
X3697Y24255D02*
D03*
Y20255D02*
D03*
Y19255D02*
D03*
X2697Y21255D02*
D03*
Y19255D02*
D03*
Y18255D02*
D03*
Y16255D02*
D03*
Y8255D02*
D03*
Y4255D02*
D03*
X1698Y21255D02*
D03*
Y20255D02*
D03*
Y19255D02*
D03*
Y18255D02*
D03*
Y16255D02*
D03*
Y8255D02*
D03*
Y7255D02*
D03*
Y6255D02*
D03*
Y4255D02*
D03*
Y2255D02*
D03*
X698Y21255D02*
D03*
Y20255D02*
D03*
Y19255D02*
D03*
Y18255D02*
D03*
Y17255D02*
D03*
Y15255D02*
D03*
Y9255D02*
D03*
Y8255D02*
D03*
Y5255D02*
D03*
Y3255D02*
D03*
Y2255D02*
D03*
Y1255D02*
D03*
X16100Y9560D02*
D03*
X16400Y12220D02*
D03*
X16650Y12030D02*
D03*
X16680Y11660D02*
D03*
X19050Y4470D02*
D03*
Y2570D02*
D03*
X36810Y3000D02*
D03*
X36590Y2680D02*
D03*
X31440Y6370D02*
D03*
X5110Y5630D02*
D03*
X7960Y9460D02*
D03*
X12910Y9430D02*
D03*
X9152Y7352D02*
D03*
X4260Y5640D02*
D03*
X5470Y5243D02*
D03*
X5870Y4320D02*
D03*
X6380Y6360D02*
D03*
X3370Y21460D02*
D03*
X1380Y22240D02*
D03*
Y22740D02*
D03*
Y23240D02*
D03*
Y24240D02*
D03*
X1680D02*
D03*
X8563Y15150D02*
D03*
X7490Y7960D02*
D03*
X8320Y7430D02*
D03*
X8010Y7440D02*
D03*
X8320Y8480D02*
D03*
X8000Y8500D02*
D03*
X47100Y8570D02*
D03*
X50030Y8150D02*
D03*
X48450Y7820D02*
D03*
X47100Y9070D02*
D03*
X12159Y6855D02*
D03*
X11495Y6296D02*
D03*
X6180Y5400D02*
D03*
X2940Y23240D02*
D03*
X42600Y9570D02*
D03*
Y9070D02*
D03*
X45908Y17714D02*
D03*
X48204Y14757D02*
D03*
X49416Y14771D02*
D03*
X48317Y16001D02*
D03*
Y16345D02*
D03*
X48986Y16779D02*
D03*
X48366Y17034D02*
D03*
X46960Y17860D02*
D03*
X46427Y17763D02*
D03*
X46350Y18580D02*
D03*
X48179Y15489D02*
D03*
X49406Y15499D02*
D03*
X48465Y14013D02*
D03*
X47106Y12576D02*
D03*
X45760Y12290D02*
D03*
X44587Y11990D02*
D03*
X44147D02*
D03*
X43278Y12251D02*
D03*
X42687D02*
D03*
X41830Y14940D02*
D03*
X43081Y15204D02*
D03*
X42854Y15947D02*
D03*
X42727Y16277D02*
D03*
X44640Y17280D02*
D03*
X41880Y12710D02*
D03*
X42313Y13127D02*
D03*
X42634Y14607D02*
D03*
X46329Y16956D02*
D03*
X46841Y16306D02*
D03*
X43465Y16621D02*
D03*
X44911Y16317D02*
D03*
X46044Y12989D02*
D03*
X47589Y16651D02*
D03*
X47105Y12989D02*
D03*
X43681Y12251D02*
D03*
X46010Y12565D02*
D03*
X47067Y13342D02*
D03*
X42694Y13487D02*
D03*
X19193Y7558D02*
D03*
X17423D02*
D03*
X19708Y10787D02*
D03*
X17871Y8018D02*
D03*
X17911Y10168D02*
D03*
X17000Y11730D02*
D03*
X21030Y18644D02*
D03*
X22830Y15270D02*
D03*
X24677Y12404D02*
D03*
X21056Y10020D02*
D03*
X14970Y9640D02*
D03*
X47098Y22257D02*
D03*
X44608Y22260D02*
D03*
X3370Y15434D02*
D03*
X2790Y13554D02*
D03*
X1360Y11844D02*
D03*
Y12754D02*
D03*
X45368Y20633D02*
D03*
X500Y14500D02*
D03*
X10500Y1500D02*
D03*
Y500D02*
D03*
X2450Y290D02*
D03*
X2550Y24710D02*
D03*
X350Y24720D02*
D03*
X19900Y14600D02*
D03*
X7900Y18500D02*
D03*
X8880Y18720D02*
D03*
X8950Y17440D02*
D03*
X7890Y17070D02*
D03*
X11000Y3000D02*
D03*
X8400Y18000D02*
D03*
X20485Y4500D02*
D03*
X15650Y7850D02*
D03*
X16020Y9910D02*
D03*
X2320Y17350D02*
D03*
X500Y16500D02*
D03*
X1000Y16020D02*
D03*
X34500Y22750D02*
D03*
X22240Y12540D02*
D03*
X20420Y13350D02*
D03*
X17600Y14043D02*
D03*
X14920Y13710D02*
D03*
X26662Y13502D02*
D03*
X4326Y11795D02*
D03*
X21657Y15180D02*
D03*
X44608Y20757D02*
D03*
X47118D02*
D03*
X18080Y14540D02*
D03*
X13716Y9130D02*
D03*
X13686Y8790D02*
D03*
Y8490D02*
D03*
X20846Y8510D02*
D03*
X20300Y14550D02*
D03*
X32520Y21204D02*
D03*
X32500Y23000D02*
D03*
X15520Y11240D02*
D03*
X14770Y9890D02*
D03*
X15036Y8790D02*
D03*
X15026Y8490D02*
D03*
X13336Y9890D02*
D03*
X18896Y14600D02*
D03*
X19416Y14610D02*
D03*
X13740Y7130D02*
D03*
X12910Y10210D02*
D03*
X15006Y7570D02*
D03*
X13720Y8060D02*
D03*
X15290Y9380D02*
D03*
X12849Y6293D02*
D03*
X13183D02*
D03*
X14550Y14140D02*
D03*
X3700Y13504D02*
D03*
X5296Y11670D02*
D03*
X12876Y12110D02*
D03*
X13066Y14390D02*
D03*
X15670Y14620D02*
D03*
X17606Y12470D02*
D03*
X17220Y8450D02*
D03*
X19000Y9500D02*
D03*
X18601Y10728D02*
D03*
X21467Y10004D02*
D03*
X15176Y11307D02*
D03*
Y11646D02*
D03*
X13296Y10500D02*
D03*
X15264Y6168D02*
D03*
X21530Y12670D02*
D03*
X21770Y11589D02*
D03*
X18860Y13790D02*
D03*
X20840Y14200D02*
D03*
X20506Y12630D02*
D03*
X16000Y6100D02*
D03*
X20696Y11610D02*
D03*
X20706Y9370D02*
D03*
X15790Y12030D02*
D03*
X13346Y14940D02*
D03*
X4500Y14500D02*
D03*
X19690Y12000D02*
D03*
X19546Y7960D02*
D03*
X19666Y9710D02*
D03*
X12726Y10930D02*
D03*
X16340Y7850D02*
D03*
X16140Y8450D02*
D03*
X17220Y9500D02*
D03*
X21770Y10810D02*
D03*
X21256Y11273D02*
D03*
X13286Y10865D02*
D03*
X15454Y7538D02*
D03*
X17576Y13470D02*
D03*
X19890Y6420D02*
D03*
X13346Y11210D02*
D03*
X18000Y3000D02*
D03*
X14000D02*
D03*
X12000D02*
D03*
X13000D02*
D03*
X17270Y14043D02*
D03*
X14476Y14790D02*
D03*
X15400Y13900D02*
D03*
X15000Y3000D02*
D03*
X15530Y3530D02*
D03*
X15490Y2510D02*
D03*
X16460Y2480D02*
D03*
X16470Y3520D02*
D03*
X17520Y3490D02*
D03*
X17460Y2460D02*
D03*
X19470Y2240D02*
D03*
X18500Y4500D02*
D03*
X16500D02*
D03*
X5920Y7410D02*
D03*
X9900Y23000D02*
D03*
X10400Y22004D02*
D03*
X10900Y23000D02*
D03*
X6910D02*
D03*
X490Y6500D02*
D03*
X11510Y2500D02*
D03*
Y3930D02*
D03*
X12500Y2500D02*
D03*
X12490Y3910D02*
D03*
X14440Y4684D02*
D03*
X12500Y4710D02*
D03*
X50150Y17250D02*
D03*
X20230Y7300D02*
D03*
X34400Y21380D02*
D03*
X16890Y5804D02*
D03*
X49860Y15910D02*
D03*
X16920Y18800D02*
D03*
X12900Y18810D02*
D03*
X10900Y18790D02*
D03*
X18900Y8580D02*
D03*
X14759Y9079D02*
D03*
X26990Y12394D02*
D03*
X21696Y16382D02*
D03*
X21276Y17622D02*
D03*
X26677Y14634D02*
D03*
X12268Y6296D02*
D03*
X17210Y22760D02*
D03*
X16210Y12460D02*
D03*
X16970Y12470D02*
D03*
X4216Y11080D02*
D03*
X2446Y11870D02*
D03*
X33776Y2610D02*
D03*
X48700Y22800D02*
D03*
X29900Y7680D02*
D03*
X27770Y8250D02*
D03*
X28240Y7460D02*
D03*
X28073Y8243D02*
D03*
X19000Y22000D02*
D03*
X18000D02*
D03*
X8400D02*
D03*
X7400D02*
D03*
X16720Y6450D02*
D03*
X17723Y5844D02*
D03*
X17196D02*
D03*
X18830Y6430D02*
D03*
X24060Y16820D02*
D03*
X23750Y6030D02*
D03*
X23040Y6740D02*
D03*
X23560Y7480D02*
D03*
X23900Y8100D02*
D03*
X6300Y12360D02*
D03*
X8201Y4481D02*
D03*
Y5131D02*
D03*
Y5781D02*
D03*
X8460Y10980D02*
D03*
X7026Y6560D02*
D03*
X6240Y5890D02*
D03*
X5040Y6010D02*
D03*
X36050Y3200D02*
D03*
X36840Y3340D02*
D03*
X9700Y8680D02*
D03*
X2983Y3193D02*
D03*
X9570Y6970D02*
D03*
X48450Y13340D02*
D03*
X48130Y13570D02*
D03*
X24516Y9904D02*
D03*
X24304Y10116D02*
D03*
X24728Y9692D02*
D03*
X24941Y9479D02*
D03*
X22380Y7260D02*
D03*
X23120Y7857D02*
D03*
X24160Y7770D02*
D03*
X20000Y3000D02*
D03*
X21000D02*
D03*
X22000D02*
D03*
X23000D02*
D03*
X24000D02*
D03*
X25000D02*
D03*
X46350Y10130D02*
D03*
X45950Y9840D02*
D03*
X46569Y9921D02*
D03*
X48060Y11060D02*
D03*
X23000Y22000D02*
D03*
X47840Y10850D02*
D03*
X22000Y22000D02*
D03*
X48060Y10640D02*
D03*
X21000Y22000D02*
D03*
X47840Y10430D02*
D03*
X20000Y22000D02*
D03*
X48060Y10220D02*
D03*
X49972Y9370D02*
D03*
X48470Y9080D02*
D03*
X47840Y11270D02*
D03*
X24000Y22000D02*
D03*
X48060Y11480D02*
D03*
X25000Y22000D02*
D03*
X47840Y11690D02*
D03*
X48060Y11900D02*
D03*
X47840Y12110D02*
D03*
X41120Y9240D02*
D03*
X41340Y9450D02*
D03*
X40810Y18153D02*
D03*
Y18453D02*
D03*
X40030Y18903D02*
D03*
X40310Y18783D02*
D03*
X40590Y18663D02*
D03*
X9400Y22000D02*
D03*
X11400D02*
D03*
X12400D02*
D03*
X13400D02*
D03*
X14400D02*
D03*
X15400D02*
D03*
X16400D02*
D03*
X28500Y8500D02*
D03*
X29000Y22000D02*
D03*
X28000D02*
D03*
X27000D02*
D03*
X30000D02*
D03*
X31000D02*
D03*
X32000D02*
D03*
X33000D02*
D03*
X34000D02*
D03*
X47840Y12530D02*
D03*
X48060Y12320D02*
D03*
X43450Y11980D02*
D03*
X35150Y11050D02*
D03*
X34310Y9090D02*
D03*
X34430Y9370D02*
D03*
X34910Y10490D02*
D03*
X35030Y10770D02*
D03*
X34790Y10210D02*
D03*
X34670Y9930D02*
D03*
X34550Y9650D02*
D03*
X37153Y7890D02*
D03*
X37373Y8100D02*
D03*
X37153Y8310D02*
D03*
X37373Y8940D02*
D03*
X37153Y8730D02*
D03*
X37373Y8520D02*
D03*
X41120Y8400D02*
D03*
X41340Y8190D02*
D03*
X41120Y7980D02*
D03*
X41340Y8610D02*
D03*
X41120Y8820D02*
D03*
X41340Y9030D02*
D03*
X39530Y14010D02*
D03*
X39310Y13800D02*
D03*
X39530Y14430D02*
D03*
X39310Y14220D02*
D03*
X39530Y14850D02*
D03*
X39310Y14640D02*
D03*
X39530Y13590D02*
D03*
X41350Y17400D02*
D03*
X41470Y17120D02*
D03*
Y17980D02*
D03*
X35781Y10209D02*
D03*
X36190Y9480D02*
D03*
X35170Y8450D02*
D03*
X35580Y8700D02*
D03*
X40160Y8790D02*
D03*
X12430Y7360D02*
D03*
X34220Y13870D02*
D03*
X42010Y12250D02*
D03*
X16400Y18000D02*
D03*
X16700Y19680D02*
D03*
X7010Y17810D02*
D03*
X27980Y14190D02*
D03*
X28190Y14410D02*
D03*
X28400Y14630D02*
D03*
X28610Y14850D02*
D03*
X29050Y14120D02*
D03*
X31000Y14240D02*
D03*
X28210Y8970D02*
D03*
X32430Y7760D02*
D03*
X20510Y3870D02*
D03*
X23540Y7180D02*
D03*
X24210Y7040D02*
D03*
X25400Y9200D02*
D03*
X30890Y7570D02*
D03*
X33040Y7600D02*
D03*
X31210D02*
D03*
X32030Y12580D02*
D03*
X32690Y7050D02*
D03*
X30030Y8980D02*
D03*
X32810Y10900D02*
D03*
X7340Y15200D02*
D03*
X21420Y18390D02*
D03*
X7400Y18000D02*
D03*
X9400Y18000D02*
D03*
X10400D02*
D03*
X11400D02*
D03*
X12400Y18000D02*
D03*
X13400Y18000D02*
D03*
X14400D02*
D03*
X15400D02*
D03*
X17400D02*
D03*
X18400Y18000D02*
D03*
X19380Y18510D02*
D03*
X26110Y13450D02*
D03*
X24800Y13470D02*
D03*
Y14470D02*
D03*
X24830Y19000D02*
D03*
X25290Y18940D02*
D03*
X25630Y18980D02*
D03*
X6380Y1809D02*
D03*
X7750Y15170D02*
D03*
X8480Y11675D02*
D03*
X7180Y15890D02*
D03*
X8460Y12180D02*
D03*
X9360Y12140D02*
D03*
X23040Y9714D02*
D03*
X9800Y12140D02*
D03*
X10220Y12230D02*
D03*
X1100Y14320D02*
D03*
X1770Y9540D02*
D03*
X3210Y14500D02*
D03*
X34646Y2201D02*
D03*
X3880Y24570D02*
D03*
X29100Y12560D02*
D03*
X27920Y12670D02*
D03*
X27910Y13480D02*
D03*
X29080Y11680D02*
D03*
X28950Y10190D02*
D03*
X27950Y11590D02*
D03*
X32250Y10900D02*
D03*
X25990Y11500D02*
D03*
X24250Y11450D02*
D03*
X23890Y10440D02*
D03*
X31460Y8920D02*
D03*
X30580Y8960D02*
D03*
X33640Y7660D02*
D03*
X35780Y12000D02*
D03*
X35680Y12500D02*
D03*
X35900Y15510D02*
D03*
X36340Y17500D02*
D03*
X35290Y18450D02*
D03*
X33860Y20090D02*
D03*
X34850Y20820D02*
D03*
X41000Y15600D02*
D03*
X38610Y16510D02*
D03*
X38750Y15520D02*
D03*
X38490Y17500D02*
D03*
X36190Y16510D02*
D03*
X46570Y20610D02*
D03*
X43660Y18120D02*
D03*
X44300D02*
D03*
X50697Y24255D02*
D03*
X51698D02*
D03*
Y22255D02*
D03*
Y21255D02*
D03*
Y20255D02*
D03*
Y19255D02*
D03*
Y18255D02*
D03*
Y23255D02*
D03*
X45220Y21950D02*
D03*
X48320Y3970D02*
D03*
X48410Y6700D02*
D03*
X49670Y6750D02*
D03*
X48698Y285D02*
D03*
X49697D02*
D03*
X47698D02*
D03*
X45697D02*
D03*
X41698D02*
D03*
X38698D02*
D03*
X32698D02*
D03*
X31697D02*
D03*
X30698D02*
D03*
X29697D02*
D03*
X28698D02*
D03*
X27590Y290D02*
D03*
X26697Y285D02*
D03*
X25698D02*
D03*
X18698D02*
D03*
X8698D02*
D03*
X4697D02*
D03*
X698D02*
D03*
X33698D02*
D03*
X33568Y1515D02*
D03*
X37698Y285D02*
D03*
X28698Y3255D02*
D03*
X7697Y285D02*
D03*
X6697D02*
D03*
X5698D02*
D03*
X9697D02*
D03*
X9690Y2160D02*
D03*
X10390Y2840D02*
D03*
X1520Y23770D02*
D03*
X3650Y23600D02*
D03*
X7900Y21000D02*
D03*
X8900D02*
D03*
X9900D02*
D03*
X10900D02*
D03*
X11900D02*
D03*
X12900D02*
D03*
X13900D02*
D03*
X14900D02*
D03*
X15900D02*
D03*
X16800Y21200D02*
D03*
X17500D02*
D03*
X17210Y24580D02*
D03*
X13900Y23000D02*
D03*
X14900D02*
D03*
X15900D02*
D03*
X12900D02*
D03*
X11900Y23000D02*
D03*
X8900Y23000D02*
D03*
X7900D02*
D03*
X18500D02*
D03*
X19500D02*
D03*
X20500D02*
D03*
X21500D02*
D03*
X22500D02*
D03*
X23500D02*
D03*
X24500D02*
D03*
Y21000D02*
D03*
X23500D02*
D03*
X22500D02*
D03*
X21500D02*
D03*
X20500D02*
D03*
X19500D02*
D03*
X18500Y21500D02*
D03*
X27500Y23000D02*
D03*
X28500D02*
D03*
X29500D02*
D03*
X30500D02*
D03*
X31500D02*
D03*
Y21750D02*
D03*
X30500Y21250D02*
D03*
X29500D02*
D03*
X28500D02*
D03*
X27500Y21750D02*
D03*
X35698Y24255D02*
D03*
X19250Y11500D02*
D03*
X21100Y8200D02*
D03*
X20600Y7000D02*
D03*
X22600Y9900D02*
D03*
X22100Y8400D02*
D03*
X24800Y5800D02*
D03*
X18950Y6050D02*
D03*
X26950Y7890D02*
D03*
X27420Y7910D02*
D03*
X30150Y3970D02*
D03*
X34690Y2810D02*
D03*
X34700Y290D02*
D03*
X36700D02*
D03*
X35700D02*
D03*
X35710Y2480D02*
D03*
X38030Y5130D02*
D03*
X40030Y3940D02*
D03*
X39330Y2330D02*
D03*
X47370Y7140D02*
D03*
X43690Y6780D02*
D03*
X46670Y7960D02*
D03*
X44640Y7920D02*
D03*
X42120Y8450D02*
D03*
X23880Y15340D02*
D03*
X24410Y14910D02*
D03*
X22990Y14510D02*
D03*
X24270Y13490D02*
D03*
X22030Y13310D02*
D03*
X21300Y13620D02*
D03*
X16910Y16930D02*
D03*
X17900Y17100D02*
D03*
X20970Y16950D02*
D03*
X17880Y18920D02*
D03*
X19880Y18620D02*
D03*
X18940Y18760D02*
D03*
X12880Y17400D02*
D03*
X11920Y17390D02*
D03*
X11910Y18840D02*
D03*
X13890Y18800D02*
D03*
X13910Y17410D02*
D03*
X10870Y17390D02*
D03*
X8990Y16140D02*
D03*
X5680Y16340D02*
D03*
X6660Y16360D02*
D03*
X3570Y16450D02*
D03*
X5760Y20780D02*
D03*
X3780Y22450D02*
D03*
X3010Y21750D02*
D03*
X4460Y22290D02*
D03*
X3560Y20880D02*
D03*
X2760Y15190D02*
D03*
X7140Y14630D02*
D03*
X6110Y6750D02*
D03*
X10610Y5110D02*
D03*
X12060Y7370D02*
D03*
X12150Y8420D02*
D03*
X12630Y8940D02*
D03*
X12180Y9520D02*
D03*
X12190Y10480D02*
D03*
X12320Y12350D02*
D03*
X11570Y10750D02*
D03*
X11650Y12400D02*
D03*
X9480Y14680D02*
D03*
X22330Y14240D02*
D03*
X21930Y18440D02*
D03*
X22610Y17330D02*
D03*
X24370Y18230D02*
D03*
X28880Y18480D02*
D03*
X31490Y15750D02*
D03*
X32520Y15770D02*
D03*
X33020D02*
D03*
X40840Y9540D02*
D03*
X37700Y6130D02*
D03*
X32342Y5557D02*
D03*
X27250Y4820D02*
D03*
X24550Y4390D02*
D03*
X24510Y2000D02*
D03*
X23480D02*
D03*
X22480D02*
D03*
X21440D02*
D03*
X20500D02*
D03*
X22470Y4610D02*
D03*
X8160Y6590D02*
D03*
X3140Y11780D02*
D03*
X4860Y18900D02*
D03*
X18080Y19700D02*
D03*
X41840Y16620D02*
D03*
X36570Y18500D02*
D03*
X33030Y9100D02*
D03*
X5730Y18420D02*
D03*
X8580Y6720D02*
D03*
X17250Y19710D02*
D03*
X7870Y20120D02*
D03*
X6430Y20910D02*
D03*
X7340Y20790D02*
D03*
X48740Y19130D02*
D03*
X46390Y19220D02*
D03*
X47890Y19180D02*
D03*
X42698Y22255D02*
D03*
X43698D02*
D03*
Y21255D02*
D03*
X45697D02*
D03*
X44710Y21230D02*
D03*
X39697Y24255D02*
D03*
X32020Y7090D02*
D03*
X40020Y21800D02*
D03*
X40960Y24050D02*
D03*
X42040Y23180D02*
D03*
X41570Y24410D02*
D03*
X40970Y21100D02*
D03*
X50200Y2920D02*
D03*
X48430Y5450D02*
D03*
X49660Y5540D02*
D03*
X49490Y3250D02*
D03*
X49530Y2270D02*
D03*
X8120Y1350D02*
D03*
X6950Y880D02*
D03*
X7000Y2780D02*
D03*
X48340Y8510D02*
D03*
X49870Y8550D02*
D03*
X6160Y16340D02*
D03*
X6690Y3850D02*
D03*
X9250Y3550D02*
D03*
X8220Y3260D02*
D03*
X9710Y3850D02*
D03*
X10080Y3550D02*
D03*
X29870Y5800D02*
D03*
X31110Y6590D02*
D03*
X31240Y5610D02*
D03*
X19620Y17010D02*
D03*
X20080Y17330D02*
D03*
X32210Y8400D02*
D03*
X31100Y9920D02*
D03*
X31600Y10960D02*
D03*
X31060Y8570D02*
D03*
X32990Y8280D02*
D03*
X48710Y10020D02*
D03*
X2050Y5630D02*
D03*
X1420Y5250D02*
D03*
X6970Y5374D02*
D03*
X7920Y4875D02*
D03*
X8680Y5450D02*
D03*
X9840Y6000D02*
D03*
X12100Y15550D02*
D03*
X11600Y7620D02*
D03*
X8850Y9490D02*
D03*
X2670Y11360D02*
D03*
X4650Y10990D02*
D03*
X5060D02*
D03*
X5020Y9660D02*
D03*
X4670D02*
D03*
X5736Y8880D02*
D03*
X45244Y8729D02*
D03*
X44850D02*
D03*
X44456D02*
D03*
X45244Y9123D02*
D03*
X44850D02*
D03*
X44456D02*
D03*
X45244Y9517D02*
D03*
X44850D02*
D03*
X44456D02*
D03*
X45244Y9911D02*
D03*
X44850D02*
D03*
X44456D02*
D03*
X15330Y5164D02*
D03*
X14760Y5100D02*
D03*
X14140Y5500D02*
D03*
X2960Y2480D02*
D03*
X7850Y2730D02*
D03*
X5110Y4300D02*
D03*
D115*
X7059Y12494D02*
G03*
X7059Y12494I-2559J0D01*
G01*
D116*
X4500Y17644D02*
D03*
Y7344D02*
D03*
D117*
Y12494D02*
D03*
D118*
X24438Y12000D02*
D03*
X26662D02*
D03*
X24438Y13000D02*
D03*
Y14000D02*
D03*
X26662Y13000D02*
D03*
Y14000D02*
D03*
D119*
X32100Y5020D02*
X33100D01*
X31910Y5210D02*
X32100Y5020D01*
D120*
X43465Y16621D02*
X43799Y16956D01*
X42313Y13127D02*
X42825D01*
X43691Y12261D01*
X46044Y12989D02*
X47105D01*
X43799Y16956D02*
X46299D01*
X43691Y12261D02*
X45315D01*
X46044Y12989D01*
M02*
