G04 Layer_Color=32896*
%FSLAX24Y24*%
%MOIN*%
G70*
G01*
G75*
%ADD10C,0.0065*%
%ADD90C,0.0080*%
D10*
X36657Y5997D02*
G03*
X36693Y6084I-87J87D01*
G01*
X36602Y5521D02*
G03*
X36689Y5731I-210J210D01*
G01*
X45442Y12850D02*
G03*
X45330Y13120I-382J0D01*
G01*
X45380Y11800D02*
G03*
X45442Y11950I-150J150D01*
G01*
X45181Y13410D02*
G03*
X45281Y13169I341J0D01*
G01*
X45037Y11541D02*
G03*
X45180Y11600I0J202D01*
G01*
X42673Y11541D02*
G03*
X41867Y11207I0J-1141D01*
G01*
X37038Y6428D02*
G03*
X37124Y6464I0J122D01*
G01*
X36991Y6428D02*
G03*
X36780Y6341I0J-298D01*
G01*
D02*
G03*
X36693Y6131I210J-210D01*
G01*
X35428Y4768D02*
G03*
X35135Y4061I707J-707D01*
G01*
X45581Y12850D02*
G03*
X45428Y13218I-521J0D01*
G01*
X45483Y11703D02*
G03*
X45581Y11940I-237J237D01*
G01*
X45320Y13410D02*
G03*
X45379Y13267I202J0D01*
G01*
X45037Y11400D02*
G03*
X45280Y11500I0J343D01*
G01*
X42673Y11400D02*
G03*
X41966Y11107I0J-1000D01*
G01*
X36725Y5865D02*
G03*
X36689Y5778I87J-87D01*
G01*
X36391Y5434D02*
G03*
X36602Y5521I0J298D01*
G01*
X36344Y5434D02*
G03*
X36258Y5398I0J-122D01*
G01*
X35529Y4669D02*
G03*
X35276Y4059I611J-611D01*
G01*
X6124Y13316D02*
G03*
X5748Y13161I0J-535D01*
G01*
X6124Y13457D02*
G03*
X5641Y13255I4J-688D01*
G01*
X4978Y12700D02*
G03*
X5166Y12778I0J266D01*
G01*
X4976Y12560D02*
G03*
X5266Y12680I0J410D01*
G01*
X45379Y13267D02*
X45428Y13218D01*
X45281Y13169D02*
X45330Y13120D01*
X45442Y11950D02*
Y12850D01*
X45180Y11600D02*
X45380Y11800D01*
X42673Y11541D02*
X45037D01*
X37124Y6464D02*
X41867Y11207D01*
X36991Y6428D02*
X37038D01*
X36693Y6084D02*
Y6131D01*
X35428Y4768D02*
X36657Y5997D01*
X35135Y3712D02*
Y4061D01*
X45581Y11940D02*
Y12850D01*
X45280Y11500D02*
X45483Y11703D01*
X42673Y11400D02*
X45037D01*
X36740Y5881D02*
X41966Y11107D01*
X36689Y5731D02*
Y5778D01*
X36344Y5434D02*
X36391D01*
X35529Y4669D02*
X36257Y5398D01*
X35276Y3711D02*
Y4059D01*
X45181Y13410D02*
Y13503D01*
X45154Y13530D02*
X45181Y13503D01*
X45320Y13410D02*
Y13499D01*
X45351Y13530D01*
X3367Y12700D02*
X4978D01*
X6124Y13457D02*
X13546D01*
X5266Y12680D02*
X5750Y13163D01*
X6124Y13316D02*
X13546D01*
X5166Y12778D02*
X5642Y13254D01*
X3367Y12560D02*
X4976D01*
D90*
X2920Y13997D02*
X2987Y13930D01*
X3120D01*
X3187Y13997D01*
Y14263D01*
X3120Y14330D01*
X2987D01*
X2920Y14263D01*
Y14197D01*
X2987Y14130D01*
X3187D01*
X3320Y14263D02*
X3387Y14330D01*
X3520D01*
X3586Y14263D01*
Y13997D01*
X3520Y13930D01*
X3387D01*
X3320Y13997D01*
Y14263D01*
X3786Y13930D02*
X3920D01*
X3986Y13997D01*
Y14130D01*
X3920Y14197D01*
X3786D01*
X3720Y14130D01*
Y13997D01*
X3786Y13930D01*
X4120Y14330D02*
Y13930D01*
Y14130D01*
X4186Y14197D01*
X4320D01*
X4386Y14130D01*
Y13930D01*
X4519D02*
Y14197D01*
X4586D01*
X4653Y14130D01*
Y13930D01*
Y14130D01*
X4719Y14197D01*
X4786Y14130D01*
Y13930D01*
X5586Y14330D02*
Y13930D01*
X5386D01*
X5319Y13997D01*
Y14130D01*
X5386Y14197D01*
X5586D01*
X5719Y13930D02*
X5852D01*
X5786D01*
Y14197D01*
X5719D01*
X6119Y13930D02*
Y14263D01*
Y14130D01*
X6052D01*
X6186D01*
X6119D01*
Y14263D01*
X6186Y14330D01*
X6452Y13930D02*
Y14263D01*
Y14130D01*
X6386D01*
X6519D01*
X6452D01*
Y14263D01*
X6519Y14330D01*
X6919Y13930D02*
X6785D01*
X6719Y13997D01*
Y14130D01*
X6785Y14197D01*
X6919D01*
X6985Y14130D01*
Y14063D01*
X6719D01*
X7119Y14197D02*
Y13930D01*
Y14063D01*
X7185Y14130D01*
X7252Y14197D01*
X7319D01*
X7718Y13930D02*
X7585D01*
X7519Y13997D01*
Y14130D01*
X7585Y14197D01*
X7718D01*
X7785Y14130D01*
Y14063D01*
X7519D01*
X7918Y13930D02*
Y14197D01*
X8118D01*
X8185Y14130D01*
Y13930D01*
X8318D02*
X8518D01*
X8585Y13997D01*
X8518Y14063D01*
X8385D01*
X8318Y14130D01*
X8385Y14197D01*
X8585D01*
X8718Y13930D02*
X8851D01*
X8785D01*
Y14197D01*
X8718D01*
X9118D02*
X9251D01*
X9318Y14130D01*
Y13930D01*
X9118D01*
X9051Y13997D01*
X9118Y14063D01*
X9318D01*
X9451Y13930D02*
X9585D01*
X9518D01*
Y14330D01*
X9451D01*
X10184Y13930D02*
X10318D01*
X10251D01*
Y14197D01*
X10184D01*
X10518Y13930D02*
Y14197D01*
X10584D01*
X10651Y14130D01*
Y13930D01*
Y14130D01*
X10717Y14197D01*
X10784Y14130D01*
Y13930D01*
X10917Y13797D02*
Y14197D01*
X11117D01*
X11184Y14130D01*
Y13997D01*
X11117Y13930D01*
X10917D01*
X11517D02*
X11384D01*
X11317Y13997D01*
Y14130D01*
X11384Y14197D01*
X11517D01*
X11584Y14130D01*
Y14063D01*
X11317D01*
X11984Y14330D02*
Y13930D01*
X11784D01*
X11717Y13997D01*
Y14130D01*
X11784Y14197D01*
X11984D01*
X12184D02*
X12317D01*
X12384Y14130D01*
Y13930D01*
X12184D01*
X12117Y13997D01*
X12184Y14063D01*
X12384D01*
X12517Y13930D02*
Y14197D01*
X12717D01*
X12783Y14130D01*
Y13930D01*
X13183Y14197D02*
X12983D01*
X12917Y14130D01*
Y13997D01*
X12983Y13930D01*
X13183D01*
X13517D02*
X13383D01*
X13317Y13997D01*
Y14130D01*
X13383Y14197D01*
X13517D01*
X13583Y14130D01*
Y14063D01*
X13317D01*
M02*
