G04 Layer_Color=8421504*
%FSLAX24Y24*%
%MOIN*%
G70*
G01*
G75*
%ADD14R,0.1909X0.1909*%
%ADD15R,0.0157X0.0532*%
%ADD16R,0.0748X0.0610*%
%ADD17R,0.0630X0.0551*%
%ADD18R,0.0472X0.0630*%
%ADD19R,0.0236X0.0217*%
G04:AMPARAMS|DCode=21|XSize=21.7mil|YSize=23.6mil|CornerRadius=0mil|HoleSize=0mil|Usage=FLASHONLY|Rotation=315.000|XOffset=0mil|YOffset=0mil|HoleType=Round|Shape=Rectangle|*
%AMROTATEDRECTD21*
4,1,4,-0.0160,-0.0007,0.0007,0.0160,0.0160,0.0007,-0.0007,-0.0160,-0.0160,-0.0007,0.0*
%
%ADD21ROTATEDRECTD21*%

%ADD22R,0.0315X0.0295*%
%ADD23R,0.0197X0.0236*%
%ADD25R,0.0098X0.0142*%
%ADD26R,0.0551X0.0236*%
%ADD27R,0.0669X0.0236*%
%ADD31R,0.0217X0.0236*%
%ADD32R,0.0354X0.0138*%
%ADD33R,0.0433X0.0551*%
%ADD34R,0.0295X0.0315*%
%ADD35R,0.0236X0.0197*%
%ADD36R,0.0315X0.0295*%
%ADD37R,0.0228X0.0197*%
%ADD38R,0.0256X0.0197*%
%ADD39R,0.0374X0.0335*%
%ADD40R,0.0157X0.0276*%
%ADD41R,0.0157X0.0098*%
%ADD43R,0.0532X0.0157*%
%ADD44R,0.0551X0.0630*%
%ADD45R,0.0610X0.0748*%
%ADD46O,0.0650X0.0118*%
%ADD47O,0.0118X0.0650*%
%ADD48R,0.0402X0.0862*%
%ADD49R,0.0472X0.0787*%
%ADD50R,0.0945X0.0299*%
%ADD51R,0.0299X0.0945*%
%ADD52R,0.0335X0.0236*%
%ADD53R,0.0335X0.0394*%
%ADD54R,0.0197X0.0256*%
%ADD55R,0.0138X0.0315*%
%ADD56R,0.0236X0.1024*%
%ADD57R,0.1083X0.0551*%
%ADD58R,0.0453X0.0177*%
%ADD62C,0.0098*%
%ADD63R,0.1000X0.1051*%
%ADD64R,0.0500X0.0300*%
%ADD65R,0.0394X0.0630*%
%ADD66R,0.1500X0.0500*%
%ADD67R,0.1252X0.0500*%
%ADD68R,0.0472X0.0433*%
%ADD69R,0.0256X0.0335*%
%ADD70R,0.1063X0.0315*%
%ADD71R,0.0394X0.0236*%
%ADD72O,0.0551X0.0177*%
%ADD73R,0.0236X0.0335*%
%ADD74R,0.0394X0.0335*%
%ADD75R,0.0610X0.0236*%
%ADD76R,0.0709X0.0472*%
%ADD77R,0.0394X0.0709*%
%ADD78R,0.0300X0.0320*%
%ADD79R,0.0236X0.0394*%
%ADD80R,0.0276X0.0157*%
%ADD81R,0.0098X0.0157*%
%ADD135O,0.0591X0.0787*%
%ADD136O,0.0787X0.0591*%
%ADD137R,0.0138X0.0098*%
%ADD138R,0.0138X0.0138*%
%ADD139R,0.0315X0.0118*%
%ADD140R,0.0197X0.0148*%
%ADD141R,0.0366X0.0445*%
%ADD142R,0.0138X0.0118*%
%ADD143R,0.0138X0.0098*%
%ADD144R,0.0551X0.0197*%
%ADD145C,0.0118*%
%ADD146R,0.0138X0.0059*%
%ADD147R,0.0138X0.0098*%
%ADD148R,0.0000X0.0236*%
%ADD149O,0.0240X0.0071*%
%ADD150O,0.0071X0.0240*%
%ADD151R,0.0108X0.0118*%
%ADD152R,0.0138X0.0059*%
G36*
X11334Y8518D02*
Y8282D01*
X11078Y8026D01*
X10291D01*
X10035Y8282D01*
Y8518D01*
X10291Y8774D01*
X11078D01*
X11334Y8518D01*
D02*
G37*
D14*
X45640Y14810D02*
D03*
D15*
X35326Y1854D02*
D03*
X35071D02*
D03*
X34815D02*
D03*
X35582D02*
D03*
X35838D02*
D03*
D16*
X34854Y800D02*
D03*
X35799D02*
D03*
D17*
X36586Y1765D02*
D03*
X34067D02*
D03*
D18*
X10925Y15711D02*
D03*
X10137D02*
D03*
X8563D02*
D03*
X10925Y14609D02*
D03*
X10137D02*
D03*
X7775D02*
D03*
X8563D02*
D03*
X7775Y15711D02*
D03*
D19*
X31787Y8580D02*
D03*
X31393D02*
D03*
X8073Y7120D02*
D03*
X8467Y7120D02*
D03*
X7697Y7120D02*
D03*
X7303D02*
D03*
X21377Y15600D02*
D03*
X20983D02*
D03*
X17627Y6440D02*
D03*
X17233D02*
D03*
X49705Y9370D02*
D03*
X49312D02*
D03*
X21483Y10800D02*
D03*
X21089D02*
D03*
X21377Y16390D02*
D03*
X20983D02*
D03*
X32503Y8580D02*
D03*
X32897D02*
D03*
X9783Y1820D02*
D03*
X10177D02*
D03*
X31587Y5150D02*
D03*
X31193Y5150D02*
D03*
X48885Y9370D02*
D03*
X48492D02*
D03*
X5563Y14540D02*
D03*
X5957D02*
D03*
X10653Y6540D02*
D03*
X11047Y6540D02*
D03*
X5453Y5570D02*
D03*
X5847D02*
D03*
X18387Y6440D02*
D03*
X17993D02*
D03*
X21377Y15960D02*
D03*
X20983D02*
D03*
X21377Y15180D02*
D03*
X20983D02*
D03*
X13637Y5880D02*
D03*
X13243D02*
D03*
X995Y10590D02*
D03*
X602D02*
D03*
D21*
X39271Y8260D02*
D03*
X39550Y8539D02*
D03*
X39017Y8515D02*
D03*
X39295Y8793D02*
D03*
D22*
X33560Y3856D02*
D03*
Y3324D02*
D03*
X43681Y13127D02*
D03*
Y12595D02*
D03*
X43967Y16769D02*
D03*
Y17300D02*
D03*
X42667Y13127D02*
D03*
Y12595D02*
D03*
X36466Y3375D02*
D03*
Y3906D02*
D03*
X43219Y13127D02*
D03*
Y12595D02*
D03*
X44144Y12841D02*
D03*
Y12310D02*
D03*
X44607Y12841D02*
D03*
Y12310D02*
D03*
X18530Y15694D02*
D03*
Y16226D02*
D03*
X3500Y9724D02*
D03*
Y10256D02*
D03*
X3970Y9724D02*
D03*
Y10256D02*
D03*
D23*
X32765Y2582D02*
D03*
Y2188D02*
D03*
X50187Y15631D02*
D03*
Y15238D02*
D03*
X45906Y17408D02*
D03*
Y17015D02*
D03*
X46831Y12989D02*
D03*
Y12595D02*
D03*
X48018Y17407D02*
D03*
Y17013D02*
D03*
X45738Y12989D02*
D03*
Y12595D02*
D03*
X46618Y17407D02*
D03*
Y17013D02*
D03*
X47432Y15509D02*
D03*
Y15115D02*
D03*
X13596Y10937D02*
D03*
Y10543D02*
D03*
X12726Y11657D02*
D03*
Y11263D02*
D03*
X13596Y11657D02*
D03*
Y11263D02*
D03*
X13566Y14667D02*
D03*
Y14273D02*
D03*
X23460Y6457D02*
D03*
Y6063D02*
D03*
X36076Y3543D02*
D03*
Y3937D02*
D03*
X37513Y1768D02*
D03*
Y1374D02*
D03*
X8250Y3573D02*
D03*
Y3967D02*
D03*
X10120Y4367D02*
D03*
Y3973D02*
D03*
X33463Y2587D02*
D03*
Y2193D02*
D03*
X15386Y14637D02*
D03*
Y14243D02*
D03*
X20836Y12467D02*
D03*
Y12073D02*
D03*
X20986Y11667D02*
D03*
Y11273D02*
D03*
X21016Y9357D02*
D03*
Y8963D02*
D03*
X18056Y14207D02*
D03*
Y13813D02*
D03*
X42184Y15374D02*
D03*
Y14980D02*
D03*
X48550Y15115D02*
D03*
Y15509D02*
D03*
X2380Y9663D02*
D03*
Y10057D02*
D03*
D25*
X10010Y11884D02*
D03*
Y11553D02*
D03*
X9370Y11884D02*
D03*
Y11553D02*
D03*
X9690Y11884D02*
D03*
Y11553D02*
D03*
X9050Y11884D02*
D03*
Y11553D02*
D03*
D26*
X9641Y8991D02*
D03*
Y7809D02*
D03*
D27*
X9700Y8400D02*
D03*
D31*
X6430Y20327D02*
D03*
Y19933D02*
D03*
X4630Y4557D02*
D03*
Y4163D02*
D03*
X25400Y10997D02*
D03*
Y10603D02*
D03*
X4050Y22087D02*
D03*
Y21693D02*
D03*
X13076Y11657D02*
D03*
Y11263D02*
D03*
X12660Y13214D02*
D03*
Y12820D02*
D03*
X12520Y15307D02*
D03*
Y14913D02*
D03*
X6740Y15427D02*
D03*
Y15033D02*
D03*
X48900Y8947D02*
D03*
Y8553D02*
D03*
X49290Y8947D02*
D03*
Y8553D02*
D03*
X44608Y21934D02*
D03*
Y21540D02*
D03*
X47098Y21934D02*
D03*
Y21540D02*
D03*
X44608Y20434D02*
D03*
Y20040D02*
D03*
X47118Y20434D02*
D03*
Y20040D02*
D03*
X37173Y1768D02*
D03*
Y1374D02*
D03*
X4289Y5307D02*
D03*
X4289Y4913D02*
D03*
X6430Y17136D02*
D03*
Y16742D02*
D03*
X4639Y5307D02*
D03*
Y4913D02*
D03*
X20836Y13237D02*
D03*
Y12843D02*
D03*
X12660Y13956D02*
D03*
Y13563D02*
D03*
X13203Y6987D02*
D03*
Y6593D02*
D03*
X12829Y6987D02*
D03*
Y6593D02*
D03*
X3410Y23207D02*
D03*
Y22813D02*
D03*
X37400Y23323D02*
D03*
Y23717D02*
D03*
X19683Y18217D02*
D03*
Y17823D02*
D03*
X14500Y5613D02*
D03*
Y6007D02*
D03*
X3090Y9913D02*
D03*
Y10307D02*
D03*
X2730Y10047D02*
D03*
Y9653D02*
D03*
D32*
X5854Y4810D02*
D03*
X5854Y5066D02*
D03*
Y4554D02*
D03*
X5106Y4554D02*
D03*
Y5066D02*
D03*
Y4810D02*
D03*
X8926Y4106D02*
D03*
Y3850D02*
D03*
Y3594D02*
D03*
X9674D02*
D03*
Y4106D02*
D03*
X7056Y4106D02*
D03*
Y3850D02*
D03*
Y3594D02*
D03*
X7804D02*
D03*
X7804Y3850D02*
D03*
X7804Y4106D02*
D03*
X5576Y15250D02*
D03*
Y14994D02*
D03*
Y15506D02*
D03*
X6324Y15250D02*
D03*
X6324Y14994D02*
D03*
Y15506D02*
D03*
X10204Y5494D02*
D03*
Y5750D02*
D03*
Y6006D02*
D03*
X9456D02*
D03*
Y5494D02*
D03*
X4534Y22754D02*
D03*
Y23010D02*
D03*
Y23266D02*
D03*
X3786D02*
D03*
Y23010D02*
D03*
Y22754D02*
D03*
X20927Y17624D02*
D03*
Y17880D02*
D03*
Y18136D02*
D03*
X20179D02*
D03*
X20179Y17880D02*
D03*
X20179Y17624D02*
D03*
D33*
X8605Y8970D02*
D03*
X8015D02*
D03*
D34*
X6886Y7070D02*
D03*
X6354Y7070D02*
D03*
X4192Y11440D02*
D03*
X3660D02*
D03*
X20816Y13810D02*
D03*
X20284D02*
D03*
X43622Y16317D02*
D03*
X43091D02*
D03*
X44981Y16769D02*
D03*
X44449D02*
D03*
X19592Y14230D02*
D03*
X19060D02*
D03*
X4694Y9280D02*
D03*
X5226D02*
D03*
D35*
X7707Y6760D02*
D03*
X7313D02*
D03*
X46910Y16601D02*
D03*
X46516D02*
D03*
X43331Y14587D02*
D03*
X42937D02*
D03*
X48002Y16355D02*
D03*
X47608D02*
D03*
X43538Y15927D02*
D03*
X43144D02*
D03*
X48160Y14023D02*
D03*
X47766D02*
D03*
X48002Y16011D02*
D03*
X47608D02*
D03*
X49697Y8137D02*
D03*
X49303D02*
D03*
X48877D02*
D03*
X48483D02*
D03*
X4013Y11840D02*
D03*
X3619D02*
D03*
X13613Y9420D02*
D03*
X13219D02*
D03*
X21443Y9740D02*
D03*
X21049D02*
D03*
X19527Y6430D02*
D03*
X19133D02*
D03*
X15253Y6440D02*
D03*
X14859D02*
D03*
X43773Y8050D02*
D03*
X44167D02*
D03*
X9797Y4880D02*
D03*
X9403D02*
D03*
X1999Y15197D02*
D03*
X2393D02*
D03*
X2817Y14520D02*
D03*
X2423D02*
D03*
X30953Y7860D02*
D03*
X31347D02*
D03*
X28187Y7950D02*
D03*
X27793D02*
D03*
X35593Y8430D02*
D03*
X35987D02*
D03*
X10573Y11100D02*
D03*
X10967D02*
D03*
X15573Y13580D02*
D03*
X15179D02*
D03*
X19633Y13830D02*
D03*
X19239D02*
D03*
X17693Y13750D02*
D03*
X17299D02*
D03*
X16437Y6450D02*
D03*
X16043D02*
D03*
X13583Y10220D02*
D03*
X13189D02*
D03*
X5873Y11100D02*
D03*
X6267D02*
D03*
X995Y10240D02*
D03*
X602D02*
D03*
D36*
X49043Y14711D02*
D03*
Y15518D02*
D03*
X49791D02*
D03*
Y14711D02*
D03*
D37*
X48960Y15115D02*
D03*
X49873D02*
D03*
D38*
X44341Y17714D02*
D03*
X43967D02*
D03*
X48179Y15112D02*
D03*
X47805D02*
D03*
X2386Y14856D02*
D03*
X2012D02*
D03*
X609Y9897D02*
D03*
X983D02*
D03*
D39*
X47603Y16983D02*
D03*
Y17436D02*
D03*
X47032D02*
D03*
Y16983D02*
D03*
D40*
X12148Y7890D02*
D03*
D41*
X11872Y7979D02*
D03*
Y7801D02*
D03*
D43*
X1818Y13012D02*
D03*
Y12500D02*
D03*
Y12756D02*
D03*
Y11988D02*
D03*
Y12244D02*
D03*
D44*
X1730Y13760D02*
D03*
Y11240D02*
D03*
D45*
X765Y12972D02*
D03*
Y12028D02*
D03*
D46*
X20208Y11575D02*
D03*
Y11772D02*
D03*
Y11181D02*
D03*
Y11378D02*
D03*
Y12362D02*
D03*
Y11968D02*
D03*
Y12165D02*
D03*
Y10197D02*
D03*
Y10394D02*
D03*
Y9803D02*
D03*
Y10000D02*
D03*
Y10787D02*
D03*
Y10984D02*
D03*
Y10591D02*
D03*
Y9409D02*
D03*
Y9606D02*
D03*
Y9016D02*
D03*
Y9213D02*
D03*
Y8819D02*
D03*
Y8425D02*
D03*
Y8622D02*
D03*
Y8031D02*
D03*
Y8228D02*
D03*
Y7638D02*
D03*
Y7835D02*
D03*
X14244Y12362D02*
D03*
Y11181D02*
D03*
Y11378D02*
D03*
Y10787D02*
D03*
Y10984D02*
D03*
Y11968D02*
D03*
Y12165D02*
D03*
Y11575D02*
D03*
Y11772D02*
D03*
Y9803D02*
D03*
Y10000D02*
D03*
Y9409D02*
D03*
Y9606D02*
D03*
Y10394D02*
D03*
Y10591D02*
D03*
Y10197D02*
D03*
Y8622D02*
D03*
Y9213D02*
D03*
Y8819D02*
D03*
Y9016D02*
D03*
Y8228D02*
D03*
Y8425D02*
D03*
Y7835D02*
D03*
Y8031D02*
D03*
Y7638D02*
D03*
D47*
X19588Y12982D02*
D03*
X18998D02*
D03*
X18801D02*
D03*
X19391D02*
D03*
X19195D02*
D03*
X18210D02*
D03*
X18013D02*
D03*
X18604D02*
D03*
X18407D02*
D03*
X17817D02*
D03*
X17620D02*
D03*
X17423D02*
D03*
X17226D02*
D03*
X17029D02*
D03*
X19588Y7018D02*
D03*
X17620D02*
D03*
X17423D02*
D03*
X18013D02*
D03*
X17817D02*
D03*
X17029D02*
D03*
X16832D02*
D03*
X17226D02*
D03*
X18998D02*
D03*
X18801D02*
D03*
X19391D02*
D03*
X19195D02*
D03*
X18407D02*
D03*
X18210D02*
D03*
X18604D02*
D03*
X16439Y12982D02*
D03*
X16242D02*
D03*
X16832D02*
D03*
X16636D02*
D03*
X15061D02*
D03*
X16045D02*
D03*
X15848D02*
D03*
X15258D02*
D03*
X14864D02*
D03*
X15651D02*
D03*
X15454D02*
D03*
X16242Y7018D02*
D03*
X16045D02*
D03*
X16636D02*
D03*
X16439D02*
D03*
X15454D02*
D03*
X15258D02*
D03*
X15848D02*
D03*
X15651D02*
D03*
X15061D02*
D03*
X14864D02*
D03*
D48*
X16400Y22577D02*
D03*
X13400D02*
D03*
X12400D02*
D03*
X15400D02*
D03*
X14400D02*
D03*
X16400Y21423D02*
D03*
X15400D02*
D03*
X12400D02*
D03*
X14400Y21423D02*
D03*
X13400D02*
D03*
X10400Y22577D02*
D03*
X11400D02*
D03*
X9400D02*
D03*
X8400D02*
D03*
X7400D02*
D03*
X11400Y21423D02*
D03*
X10400D02*
D03*
X9400D02*
D03*
X8400Y21423D02*
D03*
X7400D02*
D03*
X25000Y22577D02*
D03*
X23000D02*
D03*
X22000D02*
D03*
X24000D02*
D03*
X25000Y21423D02*
D03*
X23000D02*
D03*
X22000D02*
D03*
X24000D02*
D03*
X19000Y22577D02*
D03*
X18000D02*
D03*
X21000D02*
D03*
X20000D02*
D03*
X20000Y21423D02*
D03*
X21000Y21423D02*
D03*
X19000D02*
D03*
X18000D02*
D03*
X34000Y22577D02*
D03*
X32000D02*
D03*
X31000D02*
D03*
X33000D02*
D03*
X34000Y21423D02*
D03*
X32000D02*
D03*
X31000D02*
D03*
X33000D02*
D03*
X28000Y22577D02*
D03*
X27000D02*
D03*
X30000D02*
D03*
X29000D02*
D03*
X29000Y21423D02*
D03*
X30000Y21423D02*
D03*
X28000D02*
D03*
X27000D02*
D03*
X18000Y3577D02*
D03*
X17000D02*
D03*
X16000Y3577D02*
D03*
X13000Y3577D02*
D03*
X12000D02*
D03*
X15000D02*
D03*
X14000D02*
D03*
X18000Y2423D02*
D03*
X17000D02*
D03*
X16000D02*
D03*
X14000D02*
D03*
X13000D02*
D03*
X15000D02*
D03*
X11000Y3577D02*
D03*
X12000Y2423D02*
D03*
X11000D02*
D03*
X25000Y3577D02*
D03*
X24000D02*
D03*
X22000D02*
D03*
X21000D02*
D03*
X23000D02*
D03*
X25000Y2423D02*
D03*
X24000D02*
D03*
X22000D02*
D03*
X21000D02*
D03*
X23000D02*
D03*
X20000Y3577D02*
D03*
Y2423D02*
D03*
X17400Y18577D02*
D03*
X16400D02*
D03*
X18400D02*
D03*
X13400D02*
D03*
X12400D02*
D03*
X15400D02*
D03*
X14400D02*
D03*
X16400Y17423D02*
D03*
X15400D02*
D03*
X18400D02*
D03*
X17400D02*
D03*
X12400D02*
D03*
X11400D02*
D03*
X14400D02*
D03*
X13400D02*
D03*
X10400Y18577D02*
D03*
X9400D02*
D03*
X11400D02*
D03*
X8400D02*
D03*
X7400D02*
D03*
X9400Y17423D02*
D03*
X10400D02*
D03*
X7400D02*
D03*
X8400D02*
D03*
D49*
X3554Y3193D02*
D03*
X1586D02*
D03*
X2570D02*
D03*
Y1027D02*
D03*
X1586D02*
D03*
X3554D02*
D03*
X39506Y23813D02*
D03*
X41474D02*
D03*
X40490D02*
D03*
Y21647D02*
D03*
X41474D02*
D03*
X39506D02*
D03*
D50*
X2298Y22740D02*
D03*
Y23240D02*
D03*
Y24240D02*
D03*
Y23740D02*
D03*
Y22240D02*
D03*
X762Y24240D02*
D03*
Y23740D02*
D03*
Y23240D02*
D03*
Y22740D02*
D03*
Y22240D02*
D03*
D51*
X33500Y15018D02*
D03*
X33000D02*
D03*
X32000D02*
D03*
X31500D02*
D03*
X32500D02*
D03*
X33500Y13482D02*
D03*
X33000D02*
D03*
X32000D02*
D03*
X31500D02*
D03*
X32500D02*
D03*
X31000Y15018D02*
D03*
Y13482D02*
D03*
X30500Y15018D02*
D03*
X29500D02*
D03*
X29000D02*
D03*
X30000D02*
D03*
X30500Y13482D02*
D03*
X30000D02*
D03*
X29000D02*
D03*
X29500D02*
D03*
X33500Y11768D02*
D03*
X33000D02*
D03*
X33500Y10232D02*
D03*
X32500D02*
D03*
X33000D02*
D03*
X32500Y11768D02*
D03*
X31500D02*
D03*
X32000D02*
D03*
Y10232D02*
D03*
X31500D02*
D03*
D52*
X35611Y3945D02*
D03*
Y3197D02*
D03*
X34804D02*
D03*
D53*
Y3866D02*
D03*
D54*
X33113Y2577D02*
D03*
Y2203D02*
D03*
X36886Y2657D02*
D03*
Y2283D02*
D03*
X37843Y1758D02*
D03*
Y1384D02*
D03*
X2336Y11143D02*
D03*
Y11517D02*
D03*
D55*
X49487Y3673D02*
D03*
X48897D02*
D03*
X49290D02*
D03*
X49094D02*
D03*
X48700D02*
D03*
D56*
X49842Y2767D02*
D03*
X48346D02*
D03*
D57*
X31759Y2245D02*
D03*
Y670D02*
D03*
X29101Y2245D02*
D03*
Y670D02*
D03*
X42924Y2245D02*
D03*
Y670D02*
D03*
X40267Y2245D02*
D03*
Y670D02*
D03*
X46964Y2245D02*
D03*
Y670D02*
D03*
X44307Y2245D02*
D03*
Y670D02*
D03*
X46964Y6075D02*
D03*
Y4500D02*
D03*
X44307D02*
D03*
Y6075D02*
D03*
X42924D02*
D03*
Y4500D02*
D03*
X40267D02*
D03*
Y6075D02*
D03*
D58*
X45941Y8570D02*
D03*
Y9070D02*
D03*
Y9570D02*
D03*
Y10070D02*
D03*
X43759Y8570D02*
D03*
Y9070D02*
D03*
Y9570D02*
D03*
Y10070D02*
D03*
D62*
X8201Y6179D02*
D03*
X8359D02*
D03*
X8201Y6021D02*
D03*
X8359D02*
D03*
X8201Y5529D02*
D03*
X8359D02*
D03*
X8201Y5371D02*
D03*
X8359D02*
D03*
X8201Y4879D02*
D03*
X8359D02*
D03*
X8201Y4721D02*
D03*
X8359D02*
D03*
X11937Y6687D02*
D03*
X11779D02*
D03*
X11937Y6845D02*
D03*
X11779D02*
D03*
X10149Y6961D02*
D03*
X9991D02*
D03*
X10149Y7119D02*
D03*
X9991D02*
D03*
X9159Y6961D02*
D03*
X9001D02*
D03*
X9159Y7119D02*
D03*
X9001D02*
D03*
X42349Y21311D02*
D03*
X42191D02*
D03*
X42349Y21469D02*
D03*
X42191D02*
D03*
X10899Y12029D02*
D03*
Y11871D02*
D03*
X10741Y12029D02*
D03*
Y11871D02*
D03*
D63*
X7680Y10736D02*
D03*
D64*
Y9810D02*
D03*
D65*
X8809Y872D02*
D03*
X8120Y872D02*
D03*
X7431Y872D02*
D03*
Y2328D02*
D03*
X8120Y2328D02*
D03*
X8809Y2328D02*
D03*
X32500Y17703D02*
D03*
X31811Y16797D02*
D03*
X33189D02*
D03*
D66*
X38375Y18000D02*
D03*
Y19000D02*
D03*
Y17000D02*
D03*
Y21000D02*
D03*
Y20000D02*
D03*
Y15000D02*
D03*
Y16000D02*
D03*
Y14000D02*
D03*
Y13000D02*
D03*
X36625Y18000D02*
D03*
Y19000D02*
D03*
Y17000D02*
D03*
Y21000D02*
D03*
Y20000D02*
D03*
Y16000D02*
D03*
Y15000D02*
D03*
Y14000D02*
D03*
Y13000D02*
D03*
X26425D02*
D03*
Y14000D02*
D03*
Y12000D02*
D03*
X24675Y14000D02*
D03*
Y13000D02*
D03*
Y12000D02*
D03*
D67*
X4650Y8090D02*
D03*
Y7090D02*
D03*
Y17429D02*
D03*
Y16429D02*
D03*
Y20657D02*
D03*
Y19657D02*
D03*
D68*
X14946Y14109D02*
D03*
Y14811D02*
D03*
X14006Y14109D02*
D03*
Y14811D02*
D03*
D69*
X13183Y8275D02*
D03*
Y7705D02*
D03*
X12849D02*
D03*
Y8275D02*
D03*
D70*
X6850Y7547D02*
D03*
Y8413D02*
D03*
X6340Y9777D02*
D03*
Y10643D02*
D03*
D71*
X19099Y16236D02*
D03*
Y16984D02*
D03*
X20161D02*
D03*
X20161Y16610D02*
D03*
X20161Y16236D02*
D03*
D72*
X10981Y10278D02*
D03*
Y10534D02*
D03*
Y10022D02*
D03*
Y9766D02*
D03*
X8659Y10278D02*
D03*
Y10534D02*
D03*
Y10022D02*
D03*
Y9766D02*
D03*
D73*
X3600Y12226D02*
D03*
X2852D02*
D03*
Y13034D02*
D03*
D74*
X3521D02*
D03*
D75*
X2010Y5227D02*
D03*
Y4833D02*
D03*
D76*
X484Y5857D02*
D03*
Y4203D02*
D03*
D77*
X42592Y15167D02*
D03*
X43576D02*
D03*
D78*
X43583Y21727D02*
D03*
X44133D02*
D03*
X46083D02*
D03*
X46633D02*
D03*
X43583Y20227D02*
D03*
X44133D02*
D03*
X46083D02*
D03*
X46633D02*
D03*
D79*
X33564Y4408D02*
D03*
X32816D02*
D03*
Y5472D02*
D03*
X33190Y5471D02*
D03*
X33564Y5472D02*
D03*
D80*
X14110Y6058D02*
D03*
D81*
X14021Y5782D02*
D03*
X14199D02*
D03*
D135*
X34027Y800D02*
D03*
X36626D02*
D03*
D136*
X765Y13799D02*
D03*
Y11201D02*
D03*
D137*
X8544Y8157D02*
D03*
Y7960D02*
D03*
Y7763D02*
D03*
X7776D02*
D03*
Y7960D02*
D03*
D138*
Y8177D02*
D03*
D139*
X8160Y7783D02*
D03*
X8160Y8137D02*
D03*
D140*
X8160Y7758D02*
D03*
Y8162D02*
D03*
D141*
X45295Y8796D02*
D03*
Y9320D02*
D03*
Y9844D02*
D03*
X44850Y8796D02*
D03*
Y9320D02*
D03*
Y9844D02*
D03*
X44405Y8796D02*
D03*
Y9320D02*
D03*
Y9844D02*
D03*
D142*
X4360Y10143D02*
D03*
X4360Y9887D02*
D03*
X5360Y9887D02*
D03*
X5360Y10143D02*
D03*
D143*
X4360Y10399D02*
D03*
Y10596D02*
D03*
Y10793D02*
D03*
X5360Y10399D02*
D03*
X5360Y10793D02*
D03*
Y10596D02*
D03*
D144*
X4860Y10025D02*
D03*
X4860Y10655D02*
D03*
D145*
X46526Y16090D02*
D03*
X45148D02*
D03*
X45345D02*
D03*
X45542D02*
D03*
X45738D02*
D03*
X45935D02*
D03*
X46132D02*
D03*
X46329D02*
D03*
X46723D02*
D03*
X44360Y15893D02*
D03*
X44656D02*
D03*
X44853D02*
D03*
X45049D02*
D03*
X45246D02*
D03*
X45443D02*
D03*
X45640D02*
D03*
X45837D02*
D03*
X46034D02*
D03*
X46231D02*
D03*
X46920D02*
D03*
X46723Y15597D02*
D03*
X44360Y15696D02*
D03*
X44557Y15597D02*
D03*
X46920Y15499D02*
D03*
X44557Y15401D02*
D03*
X46723D02*
D03*
X44360Y15302D02*
D03*
X44557Y15204D02*
D03*
X46723D02*
D03*
X44360Y15105D02*
D03*
X46920D02*
D03*
X44557Y15007D02*
D03*
X44360Y14908D02*
D03*
X46920D02*
D03*
X44557Y14810D02*
D03*
X44360Y14712D02*
D03*
X46920D02*
D03*
X44557Y14613D02*
D03*
X46723D02*
D03*
X44360Y14515D02*
D03*
X46920D02*
D03*
X44557Y14416D02*
D03*
X46723D02*
D03*
X44360Y14318D02*
D03*
X46920D02*
D03*
X46723Y14219D02*
D03*
X44360Y14121D02*
D03*
X46920D02*
D03*
X44557Y14023D02*
D03*
X46723D02*
D03*
X46920Y13924D02*
D03*
X44557Y13826D02*
D03*
X44853Y13727D02*
D03*
X45246D02*
D03*
X45443D02*
D03*
X45640D02*
D03*
X45837D02*
D03*
X46034D02*
D03*
X46231D02*
D03*
X46427D02*
D03*
X46920D02*
D03*
X44557Y13530D02*
D03*
X44754D02*
D03*
X44951D02*
D03*
X45148D02*
D03*
X45345D02*
D03*
X45542D02*
D03*
X45738D02*
D03*
X45935D02*
D03*
X46132D02*
D03*
X46329D02*
D03*
X46526D02*
D03*
X46723D02*
D03*
D146*
X8544Y8157D02*
D03*
Y7960D02*
D03*
Y7763D02*
D03*
X7776D02*
D03*
Y7960D02*
D03*
D147*
Y8177D02*
D03*
D148*
X44850Y9320D02*
D03*
D149*
X29592Y7996D02*
D03*
Y7681D02*
D03*
Y7839D02*
D03*
Y7524D02*
D03*
X28628D02*
D03*
Y7996D02*
D03*
Y7681D02*
D03*
Y7839D02*
D03*
X31778D02*
D03*
Y7996D02*
D03*
Y7681D02*
D03*
X32742Y7839D02*
D03*
Y7996D02*
D03*
Y7681D02*
D03*
Y7524D02*
D03*
X31778D02*
D03*
X23865Y7546D02*
D03*
Y7389D02*
D03*
Y7074D02*
D03*
Y7231D02*
D03*
X23215Y7546D02*
D03*
X23215Y7231D02*
D03*
X23215Y7389D02*
D03*
Y7074D02*
D03*
X35875Y9064D02*
D03*
Y9379D02*
D03*
Y9221D02*
D03*
Y9536D02*
D03*
X36525Y9221D02*
D03*
Y9064D02*
D03*
Y9379D02*
D03*
X36525Y9536D02*
D03*
D150*
X29189Y8085D02*
D03*
X29346D02*
D03*
X29031D02*
D03*
X29189Y7435D02*
D03*
X29346D02*
D03*
X29031D02*
D03*
X28874D02*
D03*
Y8085D02*
D03*
X32024D02*
D03*
X32339D02*
D03*
X32181D02*
D03*
X32496D02*
D03*
X32181Y7435D02*
D03*
X32024D02*
D03*
X32339D02*
D03*
X32496Y7435D02*
D03*
X23619Y7792D02*
D03*
X23776Y7792D02*
D03*
X23461Y7792D02*
D03*
X23776Y6828D02*
D03*
X23619D02*
D03*
X23461D02*
D03*
X23304Y7792D02*
D03*
Y6828D02*
D03*
X36121Y8818D02*
D03*
X35964D02*
D03*
X36279D02*
D03*
X36121Y9782D02*
D03*
X35964D02*
D03*
X36279D02*
D03*
X36436D02*
D03*
Y8818D02*
D03*
D151*
X4360Y10143D02*
D03*
X4360Y9887D02*
D03*
X5360Y10143D02*
D03*
X5360Y9887D02*
D03*
D152*
X4360Y10399D02*
D03*
Y10596D02*
D03*
Y10793D02*
D03*
X5360Y10399D02*
D03*
Y10793D02*
D03*
Y10596D02*
D03*
M02*
