M48
;Layer_Color=9474304
;FILE_FORMAT=2:4
INCH,TZ
;TYPE=PLATED
T1F00S00C0.0120
T2F00S00C0.0130
T4F00S00C0.0354
T5F00S00C0.0394
T6F00S00C0.0701
T7F00S00C0.1260
;TYPE=NON_PLATED
T8F00S00C0.0390
%
T01
X500Y496
Y2496
Y4496
X490Y6496
X500Y8496
X1710Y8980
X3310Y9006
X2830Y6376
X4050Y5692
X3164Y4742
X2660Y4306
X2170Y5106
X3164Y2476
X3620Y1791
X2700
X1700Y1496
X2500Y496
X4500
X6500
X6950Y1796
X6860Y3006
X6600Y4696
X5980Y6096
X5920Y6716
X5770Y7616
X5960Y8716
X6640Y8296
X7966Y8516
X8349Y7289
X8683
X7380Y6916
X8500Y5686
X8270Y3606
X9280Y2986
X9620Y1796
X10500Y1496
Y496
X9000
X11000Y2996
X12000
X11510Y2496
X12500
X13000Y2996
X14000
X15000
X15490Y2506
X16460Y2476
X17460Y2456
X18000Y2996
X17520Y3486
X16470Y3516
X15530Y3526
X15330Y5160
X14440Y4680
X14220Y6416
X14050Y7036
X14104Y7494
X14770Y7456
Y7026
X15330Y7080
X16010Y7606
X15482Y8256
X15046Y8956
X14301Y8534
X13710
X13371Y9014
X14101Y9324
X11840Y8846
X11150
X10506Y8566
X9876Y8096
X10364Y6998
X10736Y7116
X11036Y7186
X11660Y7036
X11570Y7456
X12529Y7494
X12350Y7106
X12500Y6416
X11470Y6496
X10500
Y4706
X11510Y3926
X12490Y3906
X12500Y4706
X13224Y6840
X16967Y7320
Y8540
Y9130
X18967Y7430
X18980Y6200
X18500Y4496
X16500
Y5476
X19470Y2236
X9220Y9056
X20467Y7790
X20010Y6230
X20500Y5566
X20485Y4496
X21420Y4950
X22270Y5610
Y6230
X21970
X22150Y6650
X22810Y7130
X23120Y8370
X22350Y8500
X21970Y8940
X22770Y9060
X24120Y8370
X24620
X25120
X25520Y8082
X26170Y7440
X26990Y7350
Y7650
Y7950
Y8250
X26670Y8510
X27810Y8250
Y7950
Y7650
Y7350
Y6200
Y5900
Y5600
Y4820
Y3920
Y3620
Y2640
X26990Y2630
Y3300
X26780Y3520
X26310Y3216
X25000Y2996
X24000
X23000
X22000
X21000
X20000
X22500Y4496
X23440
X24067Y5770
X24120Y6802
X24620
X25120Y6800
X26990Y6200
Y5900
Y5600
Y4200
X28500Y5346
X30500
X30500Y4046
X31780Y4196
X31777Y4940
Y5240
Y5540
X32227Y5910
X32437Y5320
X32780Y5340
X32907Y4680
X32607
X33290Y4206
X33527Y5030
X34500Y5346
X33860Y6030
X32791Y6673
X32500Y7536
Y8896
X34140Y9346
X34169Y8247
X34500Y7526
X34829Y4089
X34500Y3096
X34170Y2202
X35440
X34500Y496
X32500
X30500
X28500
X26310
X28500Y3016
X29780Y2197
X31050
X32500Y3096
X30650Y7320
X31050Y8240
X29960Y8210
X29180Y8760
X28880
X28580
X28280
X28380Y8080
X29753Y9350
X35449Y8247
X37100Y8496
Y6496
X36500Y5346
X37100Y4496
Y2250
X36500Y496
X37100Y10496
X36790Y11746
X36050
X36059Y13262
X36869
X37150Y14496
Y16496
X36967Y17910
X36810Y18870
X36510
X36260Y19420
X36299Y19910
X36020Y19790
X36299Y20330
X36577Y21000
X37247Y20540
X37510Y20100
Y19620
Y19320
X36890Y19440
X35450Y18970
X35585Y15602
X38500Y18496
Y20496
Y22496
X36500
Y24486
X38500Y24496
X34500Y22746
X35000Y21996
X34000
X33000
X32000
X31000
X30000
X29000
X28000
X27000
X26440Y22766
X25620Y22716
X25000Y21996
X24000
X23000
X22000
X21000
X20000
X20483Y19270
X20419Y18608
X20163Y17998
X20666Y17678
X21043Y17138
X22366
X21989Y17586
Y18006
Y18426
Y18846
Y19266
X21299Y18580
X22233Y16340
X22933Y16190
X22123Y14825
X22130Y14120
X22370Y13760
X22490Y13480
X21243Y13940
X20383Y13770
X20653Y14558
X20383Y15908
X19960Y16256
X20900Y12390
X21200
X21500
X21800
X21890Y10950
X22110Y10740
X22330Y10530
X22550Y10320
X22770Y10110
X23070
X23370
X23670
X23970
X24270
X24570
X24870
X25170
X25470
X25287Y10750
X25590Y11100
X25890
X26190
X26490
X26790
X27090
X27390
X27690
X28955Y11403
X29606Y12388
X29855Y13434
X29755Y13834
X29745Y14425
X30356Y14129
X31295Y14240
X32210Y14268
X33395Y14262
Y14692
X33675Y14975
X34005
X34405Y15062
X34115Y15985
X34700Y15996
X33335Y16065
X33125Y15845
X32905Y15635
X32685Y15425
X32465Y15215
X32225Y16085
X32250Y17470
X33010Y17046
X33060Y18020
X32250Y18973
X30317Y18910
X29337
X29380Y17850
Y17550
X30285Y17685
X30495Y17905
X30705Y18125
X31105Y17985
X30150Y16910
X29745Y15775
X29120Y16360
X28425Y16635
X26857Y16870
X26440Y17770
X26140
X25840
X25540
X25840Y18670
X26060Y18880
X25957Y19350
X26660Y19034
X27160
X27660
X28160
X26410Y20620
X24940Y18890
X24720Y19100
X24500Y19310
X24280Y19520
X25167Y16840
X24990Y14720
X24593Y14723
X24130Y13600
Y12600
X24677Y12400
X26425Y12616
X26990Y12390
X26662Y13498
X26677Y14630
X28470Y14440
X30855Y15995
X33545Y16285
X33755Y16505
X34760Y17470
X34740Y18970
X34490Y21000
X32520Y21200
X32500Y22726
X26140Y23586
X26560Y9960
X26550Y9430
X28250
X28230Y9960
X31141Y10757
X31515Y10752
X32060Y10780
X32270Y10560
X32690
X32900Y10340
X32480
X31850Y11000
X31275Y11501
X33710Y11470
X33920Y11250
X34130Y11030
X34340Y10810
X34550Y10590
X35300Y10496
X34850Y11380
Y12126
X35200Y11806
X34850Y12856
X35045Y13362
Y13692
X35405Y13982
X33260Y10960
X33470Y10740
X33680Y10520
X22770Y9480
X22550Y9690
X22330Y9480
X20960Y9500
Y9900
X20713Y10330
Y11930
X19610Y12996
X19520Y13746
X19590Y14996
X18400Y14696
X18070Y14086
X17740Y13536
X17030Y13666
X17010Y12966
X16816Y12296
X16196Y12606
Y11806
X17270Y11806
X16967Y11000
X16556Y11016
X16206Y10366
X16346Y9506
X17517Y10230
X15166Y10706
X14500Y10496
X14101Y11724
X13411Y11164
X12720Y10496
Y9446
X11640
X10526Y9486
X10536Y9786
X10260Y10106
Y10406
X10470Y10636
X10860Y10606
X11630Y10696
X10270Y10886
X8836Y10886
X8796Y11496
X8786Y11861
X8846Y12206
X8866Y12506
X8376Y13106
X8226Y11926
X7916Y12236
X8410Y11206
X8716Y10096
X9126Y10116
X9186Y9786
Y9486
X7766Y9866
X6500Y10496
X5250Y10236
X4410Y10246
X4546Y11396
X4326Y11791
X5296Y11666
X6500Y12496
X6350Y15280
X5240Y15440
X4500Y14496
X5690Y17546
X6850Y17586
X6820Y16456
X6500Y16746
X7890Y17066
X8950Y17436
X9910Y17536
X9900Y18696
X8900Y19096
X7900Y18496
X8400Y17996
X7400Y19306
X7790Y20496
X6500
X5610Y20596
X5600Y20156
X4760Y19876
X4910Y21206
X4500Y22496
X6500Y23216
X6900Y24496
X5400
X7400Y21996
X8400
X9400
X10400Y22000
X11400Y21996
X12400
X13400
X14400
X15400
X16400
X18000
X19000
X19330Y21090
X18400Y20430
X18315Y19160
X18266Y18558
Y18258
X17621Y18152
Y17852
X17523Y17458
X17153Y17378
X17157Y17016
Y16596
Y16176
X17447Y16386
X17447Y16806
X17447Y15756
X18293Y16250
X18791Y17030
X18470Y17458
X19211Y17630
X17621Y18624
X17223Y18228
X16960Y19166
X15970Y19350
X14680
X15213Y18698
X15203Y17008
X15400Y15596
X15800Y15546
X16340Y15196
X15920Y14346
X16006Y13626
X15190Y12996
X13106Y13466
X13076Y14466
X13070Y15039
X12770
X12520Y15669
X11710
X11170Y15616
X10900Y14896
X10420Y14706
X10050Y15136
X9976Y15786
X8846Y15936
X8566Y15386
X13200Y15526
X13540Y15506
X13200Y16006
X13228Y16396
X13888Y16376
X14396Y15596
X14916Y15606
X14360Y14786
X12651Y12814
X12180Y13026
X11980Y13316
X11380Y13106
X10676Y12642
Y12303
X11020Y12236
X10890Y19350
X12910
X10890Y22596
X9890Y22576
X6500Y18496
X18430Y12626
X3700Y13500
X2790Y13550
X2500Y14870
X1200Y14990
X1010Y15916
X500Y16496
Y18496
X2250Y19166
X3380Y19306
X3100Y20996
X3000Y22496
X2500Y22996
Y24496
X500
Y22996
X2320Y17346
X3370Y15430
X500Y14496
X1360Y12750
Y11840
X2390Y11866
X2510Y11260
X3140Y10066
X3100Y9426
X500Y10496
T02
X31746Y11973
X32218
X32691
X33163
Y12445
X32691
X32218
X31746
Y12918
X32218
Y13390
X31746
X32691
Y12918
X33163
Y13390
T04
X11000Y496
Y1496
X12000
Y496
X13000
X14000
Y1496
X13000
X15000
X16000
X17000
Y496
X16000
X15000
X18000
Y1496
X20000
X21000
X22000
Y496
X21000
X20000
X23000
X24000
Y1496
X23000
X25000
Y496
Y23496
Y24496
X24000
Y23496
X23000
X22000
Y24496
X23000
X21000
X20000
Y23496
X21000
X27000Y23496
Y24496
X28000
X29000
Y23496
X30000
Y24496
X31000
X32000
Y23496
X33000
X34000
X35000
Y24496
X34000
X33000
X31000Y23496
X28000
X19000Y23496
Y24496
X18000
Y23496
X16400
X15400
X14400
Y24496
X15400
X16400
X13400
X12400
Y23496
X13400
X11400
Y24496
X10400
X9400
Y23496
X10400
X8400
Y24496
X7400
Y23496
T05
X18600Y5780
X1530Y24306
T06
X2880Y6996
Y17996
T07
X5500Y2996
X26000Y4996
X38000Y2996
X26000Y15996
X6000Y21996
T08
X19000Y12496
X18600Y15496
X19400
M30
