G04 Layer_Color=8421504*
%FSLAX24Y24*%
%MOIN*%
G70*
G01*
G75*
%ADD17R,0.0236X0.0197*%
%ADD18R,0.0197X0.0236*%
%ADD19R,0.0236X0.0217*%
%ADD23R,0.0217X0.0236*%
%ADD24R,0.0709X0.0394*%
%ADD25R,0.0295X0.0315*%
%ADD26R,0.0402X0.0862*%
%ADD27R,0.0472X0.0984*%
%ADD28R,0.1252X0.0500*%
%ADD29R,0.0945X0.0299*%
%ADD30R,0.1083X0.0551*%
%ADD31O,0.0650X0.0118*%
%ADD32O,0.0118X0.0650*%
%ADD33R,0.0472X0.0433*%
%ADD34R,0.0315X0.0295*%
%ADD35R,0.0276X0.0118*%
%ADD36R,0.0394X0.0335*%
%ADD37R,0.0236X0.0335*%
%ADD38R,0.0256X0.0335*%
%ADD40R,0.0400X0.0300*%
%ADD41R,0.0354X0.0138*%
%ADD42R,0.1500X0.0500*%
%ADD43R,0.0315X0.0295*%
%ADD44R,0.0228X0.0197*%
%ADD45R,0.0551X0.0630*%
%ADD46R,0.0610X0.0748*%
%ADD47R,0.0532X0.0157*%
%ADD48R,0.0300X0.0320*%
G04:AMPARAMS|DCode=49|XSize=19.7mil|YSize=25.6mil|CornerRadius=0mil|HoleSize=0mil|Usage=FLASHONLY|Rotation=40.000|XOffset=0mil|YOffset=0mil|HoleType=Round|Shape=Rectangle|*
%AMROTATEDRECTD49*
4,1,4,0.0007,-0.0161,-0.0158,0.0035,-0.0007,0.0161,0.0158,-0.0035,0.0007,-0.0161,0.0*
%
%ADD49ROTATEDRECTD49*%

G04:AMPARAMS|DCode=50|XSize=31.5mil|YSize=29.5mil|CornerRadius=0mil|HoleSize=0mil|Usage=FLASHONLY|Rotation=40.000|XOffset=0mil|YOffset=0mil|HoleType=Round|Shape=Rectangle|*
%AMROTATEDRECTD50*
4,1,4,-0.0026,-0.0214,-0.0216,0.0012,0.0026,0.0214,0.0216,-0.0012,-0.0026,-0.0214,0.0*
%
%ADD50ROTATEDRECTD50*%

%ADD51R,0.0256X0.0197*%
%ADD53R,0.1850X0.1850*%
%ADD54O,0.0079X0.0256*%
%ADD55O,0.0256X0.0079*%
%ADD56R,0.0299X0.0945*%
%ADD57R,0.0157X0.0197*%
%ADD58R,0.0374X0.0335*%
%ADD59R,0.0138X0.0315*%
%ADD60R,0.0236X0.1024*%
%ADD90O,0.0787X0.0591*%
%ADD91O,0.0071X0.0240*%
%ADD92O,0.0240X0.0071*%
D17*
X36573Y20540D02*
D03*
X36967D02*
D03*
X27227Y9350D02*
D03*
X26833D02*
D03*
X34712Y13362D02*
D03*
X34318D02*
D03*
X34712Y13692D02*
D03*
X34318D02*
D03*
X30158Y13432D02*
D03*
X30552D02*
D03*
X3987Y9016D02*
D03*
X3593D02*
D03*
X15133Y14826D02*
D03*
X14739D02*
D03*
X4013Y11806D02*
D03*
X3619D02*
D03*
X13193Y14746D02*
D03*
X12799D02*
D03*
X29653Y11408D02*
D03*
X29259D02*
D03*
X31138Y11072D02*
D03*
X31532D02*
D03*
X822Y10236D02*
D03*
X1215D02*
D03*
X9083Y11216D02*
D03*
X8689D02*
D03*
X9113Y10416D02*
D03*
X8719D02*
D03*
X10753Y7436D02*
D03*
X10359D02*
D03*
X16943Y10736D02*
D03*
X16549D02*
D03*
X11073Y14576D02*
D03*
X10679D02*
D03*
X27967Y9350D02*
D03*
X27573D02*
D03*
X20663Y15908D02*
D03*
X21057D02*
D03*
X21048Y14818D02*
D03*
X20654D02*
D03*
X22780Y14825D02*
D03*
X22386D02*
D03*
X23444Y15937D02*
D03*
X23838D02*
D03*
X20873Y17478D02*
D03*
X21267D02*
D03*
X17796Y17458D02*
D03*
X18190D02*
D03*
D18*
X33527Y5687D02*
D03*
Y5293D02*
D03*
X34005Y14688D02*
D03*
Y14295D02*
D03*
X14500Y7049D02*
D03*
Y7443D02*
D03*
X11936Y7049D02*
D03*
Y7443D02*
D03*
X9096Y12259D02*
D03*
Y12653D02*
D03*
X8226Y12259D02*
D03*
Y12653D02*
D03*
X13556Y15203D02*
D03*
Y14809D02*
D03*
X37189Y12605D02*
D03*
Y12998D02*
D03*
X30016Y12845D02*
D03*
Y12452D02*
D03*
X35405Y14295D02*
D03*
Y14689D02*
D03*
X34105Y12485D02*
D03*
Y12878D02*
D03*
X9066Y15269D02*
D03*
Y15663D02*
D03*
X16336Y13463D02*
D03*
Y13069D02*
D03*
X16486Y12269D02*
D03*
Y12663D02*
D03*
X16516Y10353D02*
D03*
Y9959D02*
D03*
X10886Y15239D02*
D03*
Y15633D02*
D03*
X35200Y12089D02*
D03*
Y12483D02*
D03*
X9096Y11539D02*
D03*
Y11933D02*
D03*
X33675Y14688D02*
D03*
Y14295D02*
D03*
D19*
X24987Y14990D02*
D03*
X24593D02*
D03*
X20163Y18258D02*
D03*
X19769D02*
D03*
X822Y10586D02*
D03*
X1215D02*
D03*
X16482Y17386D02*
D03*
X16875D02*
D03*
X16482Y16176D02*
D03*
X16875D02*
D03*
X16482Y17016D02*
D03*
X16875D02*
D03*
X16482Y16596D02*
D03*
X16875D02*
D03*
X16983Y11796D02*
D03*
X16589D02*
D03*
X15333Y7366D02*
D03*
X15727D02*
D03*
X22646Y18006D02*
D03*
X22253D02*
D03*
X20663Y16248D02*
D03*
X21057D02*
D03*
X22646Y17586D02*
D03*
X22253D02*
D03*
X22646Y18426D02*
D03*
X22253D02*
D03*
X22646Y18846D02*
D03*
X22253D02*
D03*
X22646Y19266D02*
D03*
X22253D02*
D03*
X20654Y15158D02*
D03*
X21048D02*
D03*
X22386Y15165D02*
D03*
X22780D02*
D03*
X23444Y16277D02*
D03*
X23838D02*
D03*
X21710Y17138D02*
D03*
X21316D02*
D03*
X22104D02*
D03*
X21710D02*
D03*
X20163Y18608D02*
D03*
X19769D02*
D03*
X20163Y18958D02*
D03*
X19769D02*
D03*
X26832Y9686D02*
D03*
X27225D02*
D03*
X27965D02*
D03*
X27572D02*
D03*
X27965Y9986D02*
D03*
X27572D02*
D03*
X26832D02*
D03*
X27225D02*
D03*
D23*
X7460Y14210D02*
D03*
Y13816D02*
D03*
X7460Y14559D02*
D03*
Y14952D02*
D03*
X13513Y7447D02*
D03*
Y7053D02*
D03*
X12924Y7447D02*
D03*
Y7053D02*
D03*
X8576Y12259D02*
D03*
Y12653D02*
D03*
X8703Y7589D02*
D03*
Y7983D02*
D03*
X8329Y7589D02*
D03*
Y7983D02*
D03*
X3720Y20379D02*
D03*
Y20773D02*
D03*
X32250Y17147D02*
D03*
Y16753D02*
D03*
X34760D02*
D03*
Y17147D02*
D03*
X34740Y18253D02*
D03*
Y18647D02*
D03*
X32250Y18253D02*
D03*
Y18647D02*
D03*
X4360Y19653D02*
D03*
Y19259D02*
D03*
X5260Y20189D02*
D03*
Y20583D02*
D03*
X15630Y18429D02*
D03*
Y18823D02*
D03*
X16336Y14233D02*
D03*
Y13839D02*
D03*
X6520Y18013D02*
D03*
Y17619D02*
D03*
D24*
X29456Y12811D02*
D03*
Y11826D02*
D03*
D25*
X30620Y13832D02*
D03*
X30089D02*
D03*
X3956Y9436D02*
D03*
X3424D02*
D03*
X3660Y11406D02*
D03*
X4192D02*
D03*
X15092Y15226D02*
D03*
X14560D02*
D03*
X16316Y14806D02*
D03*
X15784D02*
D03*
D26*
X23000Y3573D02*
D03*
X23000Y2419D02*
D03*
X25000Y3573D02*
D03*
X24000D02*
D03*
X21000D02*
D03*
X20000D02*
D03*
X25000Y2419D02*
D03*
X24000D02*
D03*
X21000D02*
D03*
X20000D02*
D03*
X22000Y3573D02*
D03*
Y2419D02*
D03*
X13000Y2419D02*
D03*
X17000D02*
D03*
X13000Y3573D02*
D03*
X17000D02*
D03*
X12000Y2419D02*
D03*
X11000D02*
D03*
X16000D02*
D03*
X15000D02*
D03*
X18000D02*
D03*
X12000Y3573D02*
D03*
X11000D02*
D03*
X16000Y3573D02*
D03*
X15000Y3573D02*
D03*
X18000D02*
D03*
X14000Y2419D02*
D03*
Y3573D02*
D03*
X14400Y22573D02*
D03*
X10400D02*
D03*
X14400Y21419D02*
D03*
X10400Y21419D02*
D03*
X16400Y22573D02*
D03*
X15400D02*
D03*
X12400D02*
D03*
X11400D02*
D03*
X9400D02*
D03*
X8400D02*
D03*
X16400Y21419D02*
D03*
X15400D02*
D03*
X12400D02*
D03*
X11400D02*
D03*
X9400D02*
D03*
X8400Y21419D02*
D03*
X13400Y22573D02*
D03*
X7400D02*
D03*
X13400Y21419D02*
D03*
X7400D02*
D03*
X23000Y22573D02*
D03*
X19000D02*
D03*
X23000Y21419D02*
D03*
X19000D02*
D03*
X24000Y22573D02*
D03*
X25000D02*
D03*
X20000D02*
D03*
X21000D02*
D03*
X18000D02*
D03*
X24000Y21419D02*
D03*
X25000D02*
D03*
X20000Y21419D02*
D03*
X21000Y21419D02*
D03*
X18000D02*
D03*
X22000Y22573D02*
D03*
Y21419D02*
D03*
X32000Y21419D02*
D03*
Y22573D02*
D03*
X28000Y21419D02*
D03*
X31000D02*
D03*
X30000Y21419D02*
D03*
X35000Y21419D02*
D03*
X34000D02*
D03*
X28000Y22573D02*
D03*
X31000D02*
D03*
X30000D02*
D03*
X35000D02*
D03*
X34000D02*
D03*
X29000Y21419D02*
D03*
X33000D02*
D03*
X29000Y22573D02*
D03*
X33000D02*
D03*
X27000D02*
D03*
Y21419D02*
D03*
X13400Y18573D02*
D03*
Y17419D02*
D03*
X14400Y18573D02*
D03*
Y17419D02*
D03*
X8400Y18573D02*
D03*
Y17419D02*
D03*
X9400D02*
D03*
Y18573D02*
D03*
X10400Y17419D02*
D03*
Y18573D02*
D03*
X12400Y17419D02*
D03*
Y18573D02*
D03*
X11400Y17419D02*
D03*
Y18573D02*
D03*
X7400D02*
D03*
Y17419D02*
D03*
D27*
X3164Y3949D02*
D03*
X1196D02*
D03*
X2180D02*
D03*
Y1783D02*
D03*
X1196D02*
D03*
X3164D02*
D03*
D28*
X4650Y6496D02*
D03*
Y7496D02*
D03*
Y18496D02*
D03*
Y17496D02*
D03*
D29*
X762Y20506D02*
D03*
Y21006D02*
D03*
Y21506D02*
D03*
Y22006D02*
D03*
Y22506D02*
D03*
X2298Y20506D02*
D03*
Y21006D02*
D03*
Y21506D02*
D03*
Y22006D02*
D03*
Y22506D02*
D03*
D30*
X29091Y6669D02*
D03*
Y8244D02*
D03*
X31749Y6669D02*
D03*
Y8244D02*
D03*
X33491Y6669D02*
D03*
Y8244D02*
D03*
X36149Y6669D02*
D03*
Y8244D02*
D03*
X9599Y3783D02*
D03*
Y2209D02*
D03*
X6941Y3783D02*
D03*
Y2209D02*
D03*
X36149Y3774D02*
D03*
Y2199D02*
D03*
X33491Y3774D02*
D03*
Y2199D02*
D03*
X31749Y3774D02*
D03*
Y2199D02*
D03*
X29091Y3774D02*
D03*
Y2199D02*
D03*
D31*
X15708Y12571D02*
D03*
Y12768D02*
D03*
Y12177D02*
D03*
Y12374D02*
D03*
Y13358D02*
D03*
Y12965D02*
D03*
Y13161D02*
D03*
Y11193D02*
D03*
Y11390D02*
D03*
Y10799D02*
D03*
Y10996D02*
D03*
Y11783D02*
D03*
Y11980D02*
D03*
Y11587D02*
D03*
Y10405D02*
D03*
Y10602D02*
D03*
Y10012D02*
D03*
Y10209D02*
D03*
Y9815D02*
D03*
Y9421D02*
D03*
Y9618D02*
D03*
Y9028D02*
D03*
Y9224D02*
D03*
Y8634D02*
D03*
Y8831D02*
D03*
X9744Y13358D02*
D03*
Y12177D02*
D03*
Y12374D02*
D03*
Y11783D02*
D03*
Y11980D02*
D03*
Y12965D02*
D03*
Y13161D02*
D03*
Y12571D02*
D03*
Y12768D02*
D03*
Y10799D02*
D03*
Y10996D02*
D03*
Y10405D02*
D03*
Y10602D02*
D03*
Y11390D02*
D03*
Y11587D02*
D03*
Y11193D02*
D03*
Y9618D02*
D03*
Y10209D02*
D03*
Y9815D02*
D03*
Y10012D02*
D03*
Y9224D02*
D03*
Y9421D02*
D03*
Y8831D02*
D03*
Y9028D02*
D03*
Y8634D02*
D03*
D32*
X15088Y13978D02*
D03*
X14498D02*
D03*
X14301D02*
D03*
X14891D02*
D03*
X14695D02*
D03*
X13710D02*
D03*
X13513D02*
D03*
X14104D02*
D03*
X13907D02*
D03*
X13317D02*
D03*
X13120D02*
D03*
X12923D02*
D03*
X12726D02*
D03*
X12529D02*
D03*
X15088Y8014D02*
D03*
X13120D02*
D03*
X12923D02*
D03*
X13513D02*
D03*
X13317D02*
D03*
X12529D02*
D03*
X12332D02*
D03*
X12726D02*
D03*
X14498D02*
D03*
X14301D02*
D03*
X14891D02*
D03*
X14695D02*
D03*
X13907D02*
D03*
X13710D02*
D03*
X14104D02*
D03*
X11939Y13978D02*
D03*
X11742D02*
D03*
X12332D02*
D03*
X12136D02*
D03*
X10561D02*
D03*
X11545D02*
D03*
X11348D02*
D03*
X10758D02*
D03*
X10364D02*
D03*
X11151D02*
D03*
X10954D02*
D03*
X11742Y8014D02*
D03*
X11545D02*
D03*
X12136D02*
D03*
X11939D02*
D03*
X10954D02*
D03*
X10758D02*
D03*
X11348D02*
D03*
X11151D02*
D03*
X10561D02*
D03*
X10364D02*
D03*
D33*
X10446Y15807D02*
D03*
Y15105D02*
D03*
X9506Y15807D02*
D03*
Y15105D02*
D03*
D34*
X3470Y10612D02*
D03*
Y10080D02*
D03*
X31705Y14897D02*
D03*
Y14366D02*
D03*
D35*
X5080Y5948D02*
D03*
Y5692D02*
D03*
Y5436D02*
D03*
X4450Y5692D02*
D03*
Y5948D02*
D03*
Y5436D02*
D03*
D36*
X3521Y13030D02*
D03*
D37*
X2852D02*
D03*
X3600Y12222D02*
D03*
X2852D02*
D03*
D38*
X8683Y9271D02*
D03*
Y8701D02*
D03*
X8349Y9271D02*
D03*
Y8701D02*
D03*
D40*
X4827Y10252D02*
D03*
X4000Y9878D02*
D03*
Y10626D02*
D03*
D41*
X4096Y20320D02*
D03*
Y20576D02*
D03*
Y20832D02*
D03*
X4844D02*
D03*
Y20576D02*
D03*
Y20320D02*
D03*
X16126Y18230D02*
D03*
X16126Y18486D02*
D03*
X16126Y18742D02*
D03*
X16874D02*
D03*
Y18486D02*
D03*
Y18230D02*
D03*
D42*
X24675Y13996D02*
D03*
X26425D02*
D03*
X24675Y12996D02*
D03*
X26425D02*
D03*
X24675Y11996D02*
D03*
X26425D02*
D03*
D43*
X36793Y12885D02*
D03*
Y12078D02*
D03*
X36045Y12885D02*
D03*
Y12078D02*
D03*
D44*
X36875Y12482D02*
D03*
X35962D02*
D03*
D45*
X1730Y13756D02*
D03*
Y11236D02*
D03*
D46*
X765Y12024D02*
D03*
Y12968D02*
D03*
D47*
X1818Y11984D02*
D03*
Y12240D02*
D03*
Y13008D02*
D03*
Y12752D02*
D03*
Y12496D02*
D03*
D48*
X34275Y16940D02*
D03*
X33725D02*
D03*
X31775D02*
D03*
X31225D02*
D03*
X34275Y18440D02*
D03*
X33725D02*
D03*
X31775D02*
D03*
X31225D02*
D03*
D49*
X31125Y15595D02*
D03*
X31365Y15308D02*
D03*
D50*
X31344Y15995D02*
D03*
X31686Y15588D02*
D03*
D51*
X34468Y12482D02*
D03*
X34842D02*
D03*
D53*
X32455Y12682D02*
D03*
D54*
X31589Y13873D02*
D03*
X31746D02*
D03*
X31904D02*
D03*
X32061D02*
D03*
X32218D02*
D03*
X32376D02*
D03*
X32533D02*
D03*
X32691D02*
D03*
X32848D02*
D03*
X33006D02*
D03*
X33163D02*
D03*
X33321D02*
D03*
Y11491D02*
D03*
X33163D02*
D03*
X33006D02*
D03*
X32848D02*
D03*
X32691D02*
D03*
X32533D02*
D03*
X32376D02*
D03*
X32218D02*
D03*
X32061D02*
D03*
X31904D02*
D03*
X31746D02*
D03*
X31589D02*
D03*
D55*
X33646Y13548D02*
D03*
Y13390D02*
D03*
Y13233D02*
D03*
Y13075D02*
D03*
Y12918D02*
D03*
Y12760D02*
D03*
Y12603D02*
D03*
Y12445D02*
D03*
Y12288D02*
D03*
Y12130D02*
D03*
Y11973D02*
D03*
Y11815D02*
D03*
X31264D02*
D03*
Y11973D02*
D03*
Y12130D02*
D03*
Y12288D02*
D03*
Y12445D02*
D03*
Y12603D02*
D03*
Y12760D02*
D03*
Y12918D02*
D03*
Y13075D02*
D03*
Y13233D02*
D03*
Y13390D02*
D03*
Y13548D02*
D03*
D56*
X25120Y7430D02*
D03*
X24620D02*
D03*
X24120D02*
D03*
X23620D02*
D03*
X23120D02*
D03*
X25120Y8965D02*
D03*
X24620D02*
D03*
X24120D02*
D03*
X23620D02*
D03*
X23120D02*
D03*
D57*
X21138Y16618D02*
D03*
X20587D02*
D03*
X21139Y15528D02*
D03*
X20587D02*
D03*
X22859D02*
D03*
X22308D02*
D03*
X23909Y16650D02*
D03*
X23358D02*
D03*
D58*
X34419Y14265D02*
D03*
Y14718D02*
D03*
X34990D02*
D03*
Y14265D02*
D03*
D59*
X27797Y1520D02*
D03*
X27010D02*
D03*
X27207D02*
D03*
X27404D02*
D03*
X27601D02*
D03*
D60*
X26656Y614D02*
D03*
X28152D02*
D03*
D90*
X765Y11197D02*
D03*
Y13795D02*
D03*
D91*
X32833Y5645D02*
D03*
X32675D02*
D03*
X32518D02*
D03*
X32360D02*
D03*
Y4995D02*
D03*
X32518D02*
D03*
X32675D02*
D03*
X32833D02*
D03*
X21536Y18882D02*
D03*
X21378D02*
D03*
X21221D02*
D03*
X21063D02*
D03*
Y17918D02*
D03*
X21221D02*
D03*
X21378D02*
D03*
X21536D02*
D03*
X18472Y18870D02*
D03*
X18315D02*
D03*
X18158D02*
D03*
X18000D02*
D03*
Y17905D02*
D03*
X18158D02*
D03*
X18315D02*
D03*
X18472D02*
D03*
X36654Y19138D02*
D03*
X36811D02*
D03*
X36969D02*
D03*
X37126D02*
D03*
Y20102D02*
D03*
X36969D02*
D03*
X36811D02*
D03*
X36654D02*
D03*
D92*
X32114Y5556D02*
D03*
Y5399D02*
D03*
Y5241D02*
D03*
Y5084D02*
D03*
X33079D02*
D03*
Y5241D02*
D03*
Y5399D02*
D03*
Y5556D02*
D03*
X21624Y18164D02*
D03*
Y18321D02*
D03*
Y18479D02*
D03*
Y18636D02*
D03*
X20975D02*
D03*
Y18479D02*
D03*
Y18321D02*
D03*
Y18164D02*
D03*
X18561Y18152D02*
D03*
Y18309D02*
D03*
Y18466D02*
D03*
Y18624D02*
D03*
X17911D02*
D03*
Y18466D02*
D03*
Y18309D02*
D03*
Y18152D02*
D03*
X36565Y19856D02*
D03*
Y19699D02*
D03*
Y19541D02*
D03*
Y19384D02*
D03*
X37215D02*
D03*
Y19541D02*
D03*
Y19699D02*
D03*
Y19856D02*
D03*
M02*
