G04 Layer_Color=8388736*
%FSLAX24Y24*%
%MOIN*%
G70*
G01*
G75*
%ADD93C,0.0240*%
%ADD94R,0.0296X0.0257*%
%ADD95R,0.0257X0.0296*%
%ADD96R,0.0296X0.0277*%
%ADD97C,0.0139*%
%ADD98O,0.0136X0.0305*%
%ADD99O,0.0305X0.0136*%
%ADD100R,0.0277X0.0296*%
%ADD101R,0.0769X0.0454*%
%ADD102R,0.0355X0.0375*%
%ADD103R,0.0462X0.0922*%
%ADD104R,0.0532X0.1044*%
%ADD105R,0.1312X0.0560*%
%ADD106R,0.1005X0.0359*%
%ADD107R,0.1143X0.0611*%
%ADD108O,0.0710X0.0178*%
%ADD109O,0.0178X0.0710*%
%ADD110R,0.0532X0.0493*%
%ADD111R,0.0375X0.0355*%
%ADD112R,0.0336X0.0178*%
%ADD113R,0.0454X0.0395*%
%ADD114R,0.0296X0.0395*%
%ADD115R,0.0316X0.0395*%
%ADD116C,0.0787*%
%ADD117C,0.0454*%
%ADD118R,0.0460X0.0360*%
%ADD119R,0.0414X0.0198*%
%ADD120R,0.1560X0.0560*%
%ADD121R,0.0375X0.0355*%
%ADD122R,0.0288X0.0257*%
%ADD123R,0.0611X0.0690*%
%ADD124R,0.0670X0.0808*%
%ADD125R,0.0592X0.0217*%
%ADD126R,0.0360X0.0380*%
G04:AMPARAMS|DCode=127|XSize=25.7mil|YSize=31.6mil|CornerRadius=0mil|HoleSize=0mil|Usage=FLASHONLY|Rotation=40.000|XOffset=0mil|YOffset=0mil|HoleType=Round|Shape=Rectangle|*
%AMROTATEDRECTD127*
4,1,4,0.0003,-0.0204,-0.0200,0.0038,-0.0003,0.0204,0.0200,-0.0038,0.0003,-0.0204,0.0*
%
%ADD127ROTATEDRECTD127*%

G04:AMPARAMS|DCode=128|XSize=37.5mil|YSize=35.5mil|CornerRadius=0mil|HoleSize=0mil|Usage=FLASHONLY|Rotation=40.000|XOffset=0mil|YOffset=0mil|HoleType=Round|Shape=Rectangle|*
%AMROTATEDRECTD128*
4,1,4,-0.0029,-0.0257,-0.0258,0.0016,0.0029,0.0257,0.0258,-0.0016,-0.0029,-0.0257,0.0*
%
%ADD128ROTATEDRECTD128*%

%ADD129R,0.0316X0.0257*%
%ADD130C,0.0370*%
%ADD131R,0.1910X0.1910*%
%ADD132O,0.0139X0.0316*%
%ADD133O,0.0316X0.0139*%
%ADD134R,0.0359X0.1005*%
%ADD135R,0.0217X0.0257*%
%ADD136R,0.0434X0.0395*%
%ADD137R,0.0198X0.0375*%
%ADD138R,0.0296X0.1084*%
%ADD139C,0.0651*%
%ADD140R,0.0651X0.0651*%
%ADD141C,0.1320*%
%ADD142C,0.0761*%
%ADD143O,0.0690X0.0414*%
%ADD144C,0.0300*%
D93*
X27276Y15340D02*
G03*
X27276Y15340I-110J0D01*
G01*
X27298D02*
G03*
X27298Y15340I-110J0D01*
G01*
X27292Y14820D02*
G03*
X27292Y14820I-110J0D01*
G01*
X21640Y10838D02*
G03*
X21640Y10838I-110J0D01*
G01*
X35733Y17430D02*
G03*
X35733Y17430I-110J0D01*
G01*
X35711D02*
G03*
X35711Y17430I-110J0D01*
G01*
X35733Y16870D02*
G03*
X35733Y16870I-110J0D01*
G01*
X35711D02*
G03*
X35711Y16870I-110J0D01*
G01*
X6020Y17852D02*
G03*
X6020Y17852I-110J0D01*
G01*
Y17874D02*
G03*
X6020Y17874I-110J0D01*
G01*
X6488Y6596D02*
G03*
X6488Y6596I-110J0D01*
G01*
Y6096D02*
G03*
X6488Y6096I-110J0D01*
G01*
Y5596D02*
G03*
X6488Y5596I-110J0D01*
G01*
X28270Y19366D02*
G03*
X28270Y19366I-110J0D01*
G01*
Y19388D02*
G03*
X28270Y19388I-110J0D01*
G01*
X27770Y19366D02*
G03*
X27770Y19366I-110J0D01*
G01*
Y19388D02*
G03*
X27770Y19388I-110J0D01*
G01*
X27270Y19366D02*
G03*
X27270Y19366I-110J0D01*
G01*
Y19388D02*
G03*
X27270Y19388I-110J0D01*
G01*
X26770Y19366D02*
G03*
X26770Y19366I-110J0D01*
G01*
Y19388D02*
G03*
X26770Y19388I-110J0D01*
G01*
X29070Y17054D02*
G03*
X29070Y17054I-110J0D01*
G01*
Y17032D02*
G03*
X29070Y17032I-110J0D01*
G01*
X29920Y17054D02*
G03*
X29920Y17054I-110J0D01*
G01*
Y17032D02*
G03*
X29920Y17032I-110J0D01*
G01*
Y17572D02*
G03*
X29920Y17572I-110J0D01*
G01*
X29070D02*
G03*
X29070Y17572I-110J0D01*
G01*
X35711Y18550D02*
G03*
X35711Y18550I-110J0D01*
G01*
X35733D02*
G03*
X35733Y18550I-110J0D01*
G01*
X35711Y17990D02*
G03*
X35711Y17990I-110J0D01*
G01*
X35733D02*
G03*
X35733Y17990I-110J0D01*
G01*
X16536Y6440D02*
G03*
X16536Y6440I-110J0D01*
G01*
X16558D02*
G03*
X16558Y6440I-110J0D01*
G01*
X16546Y6940D02*
G03*
X16546Y6940I-110J0D01*
G01*
X16568D02*
G03*
X16568Y6940I-110J0D01*
G01*
X18596Y8496D02*
G03*
X18596Y8496I-110J0D01*
G01*
X18618D02*
G03*
X18618Y8496I-110J0D01*
G01*
X18596Y11496D02*
G03*
X18596Y11496I-110J0D01*
G01*
X18618D02*
G03*
X18618Y11496I-110J0D01*
G01*
X19596D02*
G03*
X19596Y11496I-110J0D01*
G01*
X19618D02*
G03*
X19618Y11496I-110J0D01*
G01*
X19596Y8496D02*
G03*
X19596Y8496I-110J0D01*
G01*
X19618D02*
G03*
X19618Y8496I-110J0D01*
G01*
D94*
X36573Y20540D02*
D03*
X36967D02*
D03*
X27227Y9350D02*
D03*
X26833D02*
D03*
X34712Y13362D02*
D03*
X34318D02*
D03*
X34712Y13692D02*
D03*
X34318D02*
D03*
X30158Y13432D02*
D03*
X30552D02*
D03*
X3987Y9016D02*
D03*
X3593D02*
D03*
X15133Y14826D02*
D03*
X14739D02*
D03*
X4013Y11806D02*
D03*
X3619D02*
D03*
X13193Y14746D02*
D03*
X12799D02*
D03*
X29653Y11408D02*
D03*
X29259D02*
D03*
X31138Y11072D02*
D03*
X31532D02*
D03*
X822Y10236D02*
D03*
X1215D02*
D03*
X9083Y11216D02*
D03*
X8689D02*
D03*
X9113Y10416D02*
D03*
X8719D02*
D03*
X10753Y7436D02*
D03*
X10359D02*
D03*
X16943Y10736D02*
D03*
X16549D02*
D03*
X11073Y14576D02*
D03*
X10679D02*
D03*
X27967Y9350D02*
D03*
X27573D02*
D03*
X20663Y15908D02*
D03*
X21057D02*
D03*
X21048Y14818D02*
D03*
X20654D02*
D03*
X22780Y14825D02*
D03*
X22386D02*
D03*
X23444Y15937D02*
D03*
X23838D02*
D03*
X20873Y17478D02*
D03*
X21267D02*
D03*
X17796Y17458D02*
D03*
X18190D02*
D03*
D95*
X33527Y5687D02*
D03*
Y5293D02*
D03*
X34005Y14688D02*
D03*
Y14295D02*
D03*
X14500Y7049D02*
D03*
Y7443D02*
D03*
X11936Y7049D02*
D03*
Y7443D02*
D03*
X9096Y12259D02*
D03*
Y12653D02*
D03*
X8226Y12259D02*
D03*
Y12653D02*
D03*
X13556Y15203D02*
D03*
Y14809D02*
D03*
X37189Y12605D02*
D03*
Y12998D02*
D03*
X30016Y12845D02*
D03*
Y12452D02*
D03*
X35405Y14295D02*
D03*
Y14689D02*
D03*
X34105Y12485D02*
D03*
Y12878D02*
D03*
X9066Y15269D02*
D03*
Y15663D02*
D03*
X16336Y13463D02*
D03*
Y13069D02*
D03*
X16486Y12269D02*
D03*
Y12663D02*
D03*
X16516Y10353D02*
D03*
Y9959D02*
D03*
X10886Y15239D02*
D03*
Y15633D02*
D03*
X35200Y12089D02*
D03*
Y12483D02*
D03*
X9096Y11539D02*
D03*
Y11933D02*
D03*
X33675Y14688D02*
D03*
Y14295D02*
D03*
D96*
X24987Y14990D02*
D03*
X24593D02*
D03*
X20163Y18258D02*
D03*
X19769D02*
D03*
X822Y10586D02*
D03*
X1215D02*
D03*
X16482Y17386D02*
D03*
X16875D02*
D03*
X16482Y16176D02*
D03*
X16875D02*
D03*
X16482Y17016D02*
D03*
X16875D02*
D03*
X16482Y16596D02*
D03*
X16875D02*
D03*
X16983Y11796D02*
D03*
X16589D02*
D03*
X15333Y7366D02*
D03*
X15727D02*
D03*
X22646Y18006D02*
D03*
X22253D02*
D03*
X20663Y16248D02*
D03*
X21057D02*
D03*
X22646Y17586D02*
D03*
X22253D02*
D03*
X22646Y18426D02*
D03*
X22253D02*
D03*
X22646Y18846D02*
D03*
X22253D02*
D03*
X22646Y19266D02*
D03*
X22253D02*
D03*
X20654Y15158D02*
D03*
X21048D02*
D03*
X22386Y15165D02*
D03*
X22780D02*
D03*
X23444Y16277D02*
D03*
X23838D02*
D03*
X21710Y17138D02*
D03*
X21316D02*
D03*
X22104D02*
D03*
X21710D02*
D03*
X20163Y18608D02*
D03*
X19769D02*
D03*
X20163Y18958D02*
D03*
X19769D02*
D03*
X26832Y9686D02*
D03*
X27225D02*
D03*
X27965D02*
D03*
X27572D02*
D03*
X27965Y9986D02*
D03*
X27572D02*
D03*
X26832D02*
D03*
X27225D02*
D03*
D97*
X27044Y15340D02*
D03*
X27310D02*
D03*
X27060Y14820D02*
D03*
X27306D02*
D03*
X21530Y10714D02*
D03*
Y10960D02*
D03*
X35745Y17430D02*
D03*
X35479D02*
D03*
X35745Y16870D02*
D03*
X35479D02*
D03*
X5910Y17730D02*
D03*
Y17996D02*
D03*
X6500Y6596D02*
D03*
X6254D02*
D03*
X6500Y6096D02*
D03*
X6254D02*
D03*
X6500Y5596D02*
D03*
X6254D02*
D03*
X28160Y19244D02*
D03*
Y19510D02*
D03*
X27660Y19244D02*
D03*
Y19510D02*
D03*
X27160Y19244D02*
D03*
Y19510D02*
D03*
X26660Y19244D02*
D03*
Y19510D02*
D03*
X28960Y17176D02*
D03*
Y16910D02*
D03*
X29810Y17176D02*
D03*
Y16910D02*
D03*
Y17696D02*
D03*
Y17450D02*
D03*
X28960Y17696D02*
D03*
Y17450D02*
D03*
X35479Y18550D02*
D03*
X35745D02*
D03*
X35479Y17990D02*
D03*
X35745D02*
D03*
X16304Y6440D02*
D03*
X16570D02*
D03*
X16314Y6940D02*
D03*
X16580D02*
D03*
X18364Y8496D02*
D03*
X18630D02*
D03*
X18364Y11496D02*
D03*
X18630D02*
D03*
X19364D02*
D03*
X19630D02*
D03*
X19364Y8496D02*
D03*
X19630D02*
D03*
D98*
X32833Y5645D02*
D03*
X32675D02*
D03*
X32518D02*
D03*
X32360D02*
D03*
Y4995D02*
D03*
X32518D02*
D03*
X32675D02*
D03*
X32833D02*
D03*
X21536Y18882D02*
D03*
X21378D02*
D03*
X21221D02*
D03*
X21063D02*
D03*
Y17918D02*
D03*
X21221D02*
D03*
X21378D02*
D03*
X21536D02*
D03*
X18472Y18870D02*
D03*
X18315D02*
D03*
X18158D02*
D03*
X18000D02*
D03*
Y17905D02*
D03*
X18158D02*
D03*
X18315D02*
D03*
X18472D02*
D03*
X36654Y19138D02*
D03*
X36811D02*
D03*
X36969D02*
D03*
X37126D02*
D03*
Y20102D02*
D03*
X36969D02*
D03*
X36811D02*
D03*
X36654D02*
D03*
D99*
X32114Y5556D02*
D03*
Y5399D02*
D03*
Y5241D02*
D03*
Y5084D02*
D03*
X33079D02*
D03*
Y5241D02*
D03*
Y5399D02*
D03*
Y5556D02*
D03*
X21624Y18164D02*
D03*
Y18321D02*
D03*
Y18479D02*
D03*
Y18636D02*
D03*
X20975D02*
D03*
Y18479D02*
D03*
Y18321D02*
D03*
Y18164D02*
D03*
X18561Y18152D02*
D03*
Y18309D02*
D03*
Y18466D02*
D03*
Y18624D02*
D03*
X17911D02*
D03*
Y18466D02*
D03*
Y18309D02*
D03*
Y18152D02*
D03*
X36565Y19856D02*
D03*
Y19699D02*
D03*
Y19541D02*
D03*
Y19384D02*
D03*
X37215D02*
D03*
Y19541D02*
D03*
Y19699D02*
D03*
Y19856D02*
D03*
D100*
X7460Y14210D02*
D03*
Y13816D02*
D03*
X7460Y14559D02*
D03*
Y14952D02*
D03*
X13513Y7447D02*
D03*
Y7053D02*
D03*
X12924Y7447D02*
D03*
Y7053D02*
D03*
X8576Y12259D02*
D03*
Y12653D02*
D03*
X8703Y7589D02*
D03*
Y7983D02*
D03*
X8329Y7589D02*
D03*
Y7983D02*
D03*
X3720Y20379D02*
D03*
Y20773D02*
D03*
X32250Y17147D02*
D03*
Y16753D02*
D03*
X34760D02*
D03*
Y17147D02*
D03*
X34740Y18253D02*
D03*
Y18647D02*
D03*
X32250Y18253D02*
D03*
Y18647D02*
D03*
X4360Y19653D02*
D03*
Y19259D02*
D03*
X5260Y20189D02*
D03*
Y20583D02*
D03*
X15630Y18429D02*
D03*
Y18823D02*
D03*
X16336Y14233D02*
D03*
Y13839D02*
D03*
X6520Y18013D02*
D03*
Y17619D02*
D03*
D101*
X29456Y12811D02*
D03*
Y11826D02*
D03*
D102*
X30620Y13832D02*
D03*
X30089D02*
D03*
X3956Y9436D02*
D03*
X3424D02*
D03*
X3660Y11406D02*
D03*
X4192D02*
D03*
X15092Y15226D02*
D03*
X14560D02*
D03*
X16316Y14806D02*
D03*
X15784D02*
D03*
D103*
X23000Y3573D02*
D03*
X23000Y2419D02*
D03*
X25000Y3573D02*
D03*
X24000D02*
D03*
X21000D02*
D03*
X20000D02*
D03*
X25000Y2419D02*
D03*
X24000D02*
D03*
X21000D02*
D03*
X20000D02*
D03*
X22000Y3573D02*
D03*
Y2419D02*
D03*
X13000Y2419D02*
D03*
X17000D02*
D03*
X13000Y3573D02*
D03*
X17000D02*
D03*
X12000Y2419D02*
D03*
X11000D02*
D03*
X16000D02*
D03*
X15000D02*
D03*
X18000D02*
D03*
X12000Y3573D02*
D03*
X11000D02*
D03*
X16000Y3573D02*
D03*
X15000Y3573D02*
D03*
X18000D02*
D03*
X14000Y2419D02*
D03*
Y3573D02*
D03*
X14400Y22573D02*
D03*
X10400D02*
D03*
X14400Y21419D02*
D03*
X10400Y21419D02*
D03*
X16400Y22573D02*
D03*
X15400D02*
D03*
X12400D02*
D03*
X11400D02*
D03*
X9400D02*
D03*
X8400D02*
D03*
X16400Y21419D02*
D03*
X15400D02*
D03*
X12400D02*
D03*
X11400D02*
D03*
X9400D02*
D03*
X8400Y21419D02*
D03*
X13400Y22573D02*
D03*
X7400D02*
D03*
X13400Y21419D02*
D03*
X7400D02*
D03*
X23000Y22573D02*
D03*
X19000D02*
D03*
X23000Y21419D02*
D03*
X19000D02*
D03*
X24000Y22573D02*
D03*
X25000D02*
D03*
X20000D02*
D03*
X21000D02*
D03*
X18000D02*
D03*
X24000Y21419D02*
D03*
X25000D02*
D03*
X20000Y21419D02*
D03*
X21000Y21419D02*
D03*
X18000D02*
D03*
X22000Y22573D02*
D03*
Y21419D02*
D03*
X32000Y21419D02*
D03*
Y22573D02*
D03*
X28000Y21419D02*
D03*
X31000D02*
D03*
X30000Y21419D02*
D03*
X35000Y21419D02*
D03*
X34000D02*
D03*
X28000Y22573D02*
D03*
X31000D02*
D03*
X30000D02*
D03*
X35000D02*
D03*
X34000D02*
D03*
X29000Y21419D02*
D03*
X33000D02*
D03*
X29000Y22573D02*
D03*
X33000D02*
D03*
X27000D02*
D03*
Y21419D02*
D03*
X13400Y18573D02*
D03*
Y17419D02*
D03*
X14400Y18573D02*
D03*
Y17419D02*
D03*
X8400Y18573D02*
D03*
Y17419D02*
D03*
X9400D02*
D03*
Y18573D02*
D03*
X10400Y17419D02*
D03*
Y18573D02*
D03*
X12400Y17419D02*
D03*
Y18573D02*
D03*
X11400Y17419D02*
D03*
Y18573D02*
D03*
X7400D02*
D03*
Y17419D02*
D03*
D104*
X3164Y3949D02*
D03*
X1196D02*
D03*
X2180D02*
D03*
Y1783D02*
D03*
X1196D02*
D03*
X3164D02*
D03*
D105*
X4650Y6496D02*
D03*
Y7496D02*
D03*
Y18496D02*
D03*
Y17496D02*
D03*
D106*
X762Y20506D02*
D03*
Y21006D02*
D03*
Y21506D02*
D03*
Y22006D02*
D03*
Y22506D02*
D03*
X2298Y20506D02*
D03*
Y21006D02*
D03*
Y21506D02*
D03*
Y22006D02*
D03*
Y22506D02*
D03*
D107*
X29091Y6669D02*
D03*
Y8244D02*
D03*
X31749Y6669D02*
D03*
Y8244D02*
D03*
X33491Y6669D02*
D03*
Y8244D02*
D03*
X36149Y6669D02*
D03*
Y8244D02*
D03*
X9599Y3783D02*
D03*
Y2209D02*
D03*
X6941Y3783D02*
D03*
Y2209D02*
D03*
X36149Y3774D02*
D03*
Y2199D02*
D03*
X33491Y3774D02*
D03*
Y2199D02*
D03*
X31749Y3774D02*
D03*
Y2199D02*
D03*
X29091Y3774D02*
D03*
Y2199D02*
D03*
D108*
X15708Y12571D02*
D03*
Y12768D02*
D03*
Y12177D02*
D03*
Y12374D02*
D03*
Y13358D02*
D03*
Y12965D02*
D03*
Y13161D02*
D03*
Y11193D02*
D03*
Y11390D02*
D03*
Y10799D02*
D03*
Y10996D02*
D03*
Y11783D02*
D03*
Y11980D02*
D03*
Y11587D02*
D03*
Y10405D02*
D03*
Y10602D02*
D03*
Y10012D02*
D03*
Y10209D02*
D03*
Y9815D02*
D03*
Y9421D02*
D03*
Y9618D02*
D03*
Y9028D02*
D03*
Y9224D02*
D03*
Y8634D02*
D03*
Y8831D02*
D03*
X9744Y13358D02*
D03*
Y12177D02*
D03*
Y12374D02*
D03*
Y11783D02*
D03*
Y11980D02*
D03*
Y12965D02*
D03*
Y13161D02*
D03*
Y12571D02*
D03*
Y12768D02*
D03*
Y10799D02*
D03*
Y10996D02*
D03*
Y10405D02*
D03*
Y10602D02*
D03*
Y11390D02*
D03*
Y11587D02*
D03*
Y11193D02*
D03*
Y9618D02*
D03*
Y10209D02*
D03*
Y9815D02*
D03*
Y10012D02*
D03*
Y9224D02*
D03*
Y9421D02*
D03*
Y8831D02*
D03*
Y9028D02*
D03*
Y8634D02*
D03*
D109*
X15088Y13978D02*
D03*
X14498D02*
D03*
X14301D02*
D03*
X14891D02*
D03*
X14695D02*
D03*
X13710D02*
D03*
X13513D02*
D03*
X14104D02*
D03*
X13907D02*
D03*
X13317D02*
D03*
X13120D02*
D03*
X12923D02*
D03*
X12726D02*
D03*
X12529D02*
D03*
X15088Y8014D02*
D03*
X13120D02*
D03*
X12923D02*
D03*
X13513D02*
D03*
X13317D02*
D03*
X12529D02*
D03*
X12332D02*
D03*
X12726D02*
D03*
X14498D02*
D03*
X14301D02*
D03*
X14891D02*
D03*
X14695D02*
D03*
X13907D02*
D03*
X13710D02*
D03*
X14104D02*
D03*
X11939Y13978D02*
D03*
X11742D02*
D03*
X12332D02*
D03*
X12136D02*
D03*
X10561D02*
D03*
X11545D02*
D03*
X11348D02*
D03*
X10758D02*
D03*
X10364D02*
D03*
X11151D02*
D03*
X10954D02*
D03*
X11742Y8014D02*
D03*
X11545D02*
D03*
X12136D02*
D03*
X11939D02*
D03*
X10954D02*
D03*
X10758D02*
D03*
X11348D02*
D03*
X11151D02*
D03*
X10561D02*
D03*
X10364D02*
D03*
D110*
X10446Y15807D02*
D03*
Y15105D02*
D03*
X9506Y15807D02*
D03*
Y15105D02*
D03*
D111*
X3470Y10612D02*
D03*
Y10080D02*
D03*
X31705Y14897D02*
D03*
Y14366D02*
D03*
D112*
X5080Y5948D02*
D03*
Y5692D02*
D03*
Y5436D02*
D03*
X4450Y5692D02*
D03*
Y5948D02*
D03*
Y5436D02*
D03*
D113*
X3521Y13030D02*
D03*
D114*
X2852D02*
D03*
X3600Y12222D02*
D03*
X2852D02*
D03*
D115*
X8683Y9271D02*
D03*
Y8701D02*
D03*
X8349Y9271D02*
D03*
Y8701D02*
D03*
D116*
X4580Y1310D02*
D03*
X37973Y23596D02*
D03*
D117*
X5000Y12246D02*
D03*
Y12996D02*
D03*
X4000Y13996D02*
D03*
Y14996D02*
D03*
X18500Y9496D02*
D03*
Y10496D02*
D03*
X19500Y9496D02*
D03*
Y10496D02*
D03*
X21500Y8496D02*
D03*
Y7496D02*
D03*
X7000Y7246D02*
D03*
X21500Y6496D02*
D03*
X20500Y9496D02*
D03*
D118*
X4827Y10252D02*
D03*
X4000Y9878D02*
D03*
Y10626D02*
D03*
D119*
X4096Y20320D02*
D03*
Y20576D02*
D03*
Y20832D02*
D03*
X4844D02*
D03*
Y20576D02*
D03*
Y20320D02*
D03*
X16126Y18230D02*
D03*
X16126Y18486D02*
D03*
X16126Y18742D02*
D03*
X16874D02*
D03*
Y18486D02*
D03*
Y18230D02*
D03*
D120*
X24675Y13996D02*
D03*
X26425D02*
D03*
X24675Y12996D02*
D03*
X26425D02*
D03*
X24675Y11996D02*
D03*
X26425D02*
D03*
D121*
X36793Y12885D02*
D03*
Y12078D02*
D03*
X36045Y12885D02*
D03*
Y12078D02*
D03*
D122*
X36875Y12482D02*
D03*
X35962D02*
D03*
D123*
X1730Y13756D02*
D03*
Y11236D02*
D03*
D124*
X765Y12024D02*
D03*
Y12968D02*
D03*
D125*
X1818Y11984D02*
D03*
Y12240D02*
D03*
Y13008D02*
D03*
Y12752D02*
D03*
Y12496D02*
D03*
D126*
X34275Y16940D02*
D03*
X33725D02*
D03*
X31775D02*
D03*
X31225D02*
D03*
X34275Y18440D02*
D03*
X33725D02*
D03*
X31775D02*
D03*
X31225D02*
D03*
D127*
X31125Y15595D02*
D03*
X31365Y15308D02*
D03*
D128*
X31344Y15995D02*
D03*
X31686Y15588D02*
D03*
D129*
X34468Y12482D02*
D03*
X34842D02*
D03*
D130*
X18750Y13496D02*
D03*
Y12996D02*
D03*
Y13996D02*
D03*
Y14496D02*
D03*
X19250D02*
D03*
X18750Y14996D02*
D03*
X19250Y12996D02*
D03*
Y13996D02*
D03*
Y13496D02*
D03*
Y14996D02*
D03*
D131*
X32455Y12682D02*
D03*
D132*
X31589Y13873D02*
D03*
X31746D02*
D03*
X31904D02*
D03*
X32061D02*
D03*
X32218D02*
D03*
X32376D02*
D03*
X32533D02*
D03*
X32691D02*
D03*
X32848D02*
D03*
X33006D02*
D03*
X33163D02*
D03*
X33321D02*
D03*
Y11491D02*
D03*
X33163D02*
D03*
X33006D02*
D03*
X32848D02*
D03*
X32691D02*
D03*
X32533D02*
D03*
X32376D02*
D03*
X32218D02*
D03*
X32061D02*
D03*
X31904D02*
D03*
X31746D02*
D03*
X31589D02*
D03*
D133*
X33646Y13548D02*
D03*
Y13390D02*
D03*
Y13233D02*
D03*
Y13075D02*
D03*
Y12918D02*
D03*
Y12760D02*
D03*
Y12603D02*
D03*
Y12445D02*
D03*
Y12288D02*
D03*
Y12130D02*
D03*
Y11973D02*
D03*
Y11815D02*
D03*
X31264D02*
D03*
Y11973D02*
D03*
Y12130D02*
D03*
Y12288D02*
D03*
Y12445D02*
D03*
Y12603D02*
D03*
Y12760D02*
D03*
Y12918D02*
D03*
Y13075D02*
D03*
Y13233D02*
D03*
Y13390D02*
D03*
Y13548D02*
D03*
D134*
X25120Y7430D02*
D03*
X24620D02*
D03*
X24120D02*
D03*
X23620D02*
D03*
X23120D02*
D03*
X25120Y8965D02*
D03*
X24620D02*
D03*
X24120D02*
D03*
X23620D02*
D03*
X23120D02*
D03*
D135*
X21138Y16618D02*
D03*
X20587D02*
D03*
X21139Y15528D02*
D03*
X20587D02*
D03*
X22859D02*
D03*
X22308D02*
D03*
X23909Y16650D02*
D03*
X23358D02*
D03*
D136*
X34419Y14265D02*
D03*
Y14718D02*
D03*
X34990D02*
D03*
Y14265D02*
D03*
D137*
X27797Y1520D02*
D03*
X27010D02*
D03*
X27207D02*
D03*
X27404D02*
D03*
X27601D02*
D03*
D138*
X26656Y614D02*
D03*
X28152D02*
D03*
D139*
X9400Y24496D02*
D03*
Y23496D02*
D03*
X12400D02*
D03*
Y24496D02*
D03*
X14400Y23496D02*
D03*
Y24496D02*
D03*
X15400Y23496D02*
D03*
Y24496D02*
D03*
X16400Y23496D02*
D03*
X13400Y24496D02*
D03*
Y23496D02*
D03*
X11400Y24496D02*
D03*
Y23496D02*
D03*
X10400D02*
D03*
Y24496D02*
D03*
X8400D02*
D03*
Y23496D02*
D03*
X7400D02*
D03*
Y24496D02*
D03*
X19000D02*
D03*
Y23496D02*
D03*
X20000D02*
D03*
Y24496D02*
D03*
X22000Y23496D02*
D03*
Y24496D02*
D03*
X25000Y23496D02*
D03*
X24000Y24496D02*
D03*
Y23496D02*
D03*
X23000Y24496D02*
D03*
Y23496D02*
D03*
X21000Y24496D02*
D03*
Y23496D02*
D03*
X18000D02*
D03*
Y24496D02*
D03*
X17000Y496D02*
D03*
Y1496D02*
D03*
X16000D02*
D03*
Y496D02*
D03*
X14000Y1496D02*
D03*
Y496D02*
D03*
X11000Y1496D02*
D03*
X12000Y496D02*
D03*
Y1496D02*
D03*
X13000Y496D02*
D03*
Y1496D02*
D03*
X15000Y496D02*
D03*
Y1496D02*
D03*
X18000D02*
D03*
Y496D02*
D03*
X24000Y1496D02*
D03*
Y496D02*
D03*
X22000Y1496D02*
D03*
Y496D02*
D03*
X21000Y1496D02*
D03*
Y496D02*
D03*
X20000Y1496D02*
D03*
X23000Y496D02*
D03*
Y1496D02*
D03*
X25000Y496D02*
D03*
Y1496D02*
D03*
X27000Y23496D02*
D03*
Y24496D02*
D03*
X29000D02*
D03*
Y23496D02*
D03*
X30000D02*
D03*
Y24496D02*
D03*
X32000Y23496D02*
D03*
Y24496D02*
D03*
X35000Y23496D02*
D03*
X34000Y24496D02*
D03*
Y23496D02*
D03*
X33000Y24496D02*
D03*
Y23496D02*
D03*
X31000Y24496D02*
D03*
Y23496D02*
D03*
X28000D02*
D03*
Y24496D02*
D03*
X18600Y5780D02*
D03*
X1530Y24306D02*
D03*
D140*
X16400Y24496D02*
D03*
X25000D02*
D03*
X11000Y496D02*
D03*
X20000D02*
D03*
X35000Y24496D02*
D03*
D141*
X38000Y2996D02*
D03*
X6000Y21996D02*
D03*
X5500Y2996D02*
D03*
X26000Y15996D02*
D03*
Y4996D02*
D03*
D142*
X2880Y6996D02*
D03*
Y17996D02*
D03*
D143*
X765Y13795D02*
D03*
Y11197D02*
D03*
D144*
X5250Y10236D02*
D03*
X4410Y10246D02*
D03*
X3140Y10066D02*
D03*
X3100Y9426D02*
D03*
X4500Y14496D02*
D03*
X4546Y11396D02*
D03*
X2390Y11866D02*
D03*
X6500Y10496D02*
D03*
X7916Y12236D02*
D03*
X5296Y11666D02*
D03*
X3700Y13500D02*
D03*
X6500Y12496D02*
D03*
X6350Y15280D02*
D03*
X4326Y11791D02*
D03*
X1360Y12750D02*
D03*
Y11840D02*
D03*
X2510Y11260D02*
D03*
X2790Y13550D02*
D03*
X2500Y14870D02*
D03*
X5240Y15440D02*
D03*
X3370Y15430D02*
D03*
M02*
