G04 Layer_Color=128*
%FSLAX24Y24*%
%MOIN*%
G70*
G01*
G75*
%ADD26R,0.0402X0.0862*%
%ADD80R,0.2000X0.2000*%
%ADD81R,0.0874X0.0402*%
D26*
X20000Y3573D02*
D03*
Y2419D02*
D03*
X24000D02*
D03*
Y3573D02*
D03*
X25000Y2419D02*
D03*
Y3573D02*
D03*
X23000Y2419D02*
D03*
Y3573D02*
D03*
X22000Y2419D02*
D03*
Y3573D02*
D03*
X21000D02*
D03*
Y2419D02*
D03*
X10400Y22573D02*
D03*
Y21419D02*
D03*
X9400Y22573D02*
D03*
Y21419D02*
D03*
X15400Y22573D02*
D03*
Y21419D02*
D03*
X14400D02*
D03*
Y22573D02*
D03*
X13400Y21419D02*
D03*
Y22573D02*
D03*
X11400Y21419D02*
D03*
Y22573D02*
D03*
X12400Y21419D02*
D03*
Y22573D02*
D03*
X16400D02*
D03*
Y21419D02*
D03*
X7400D02*
D03*
Y22573D02*
D03*
X8400Y21419D02*
D03*
Y22573D02*
D03*
X19000D02*
D03*
Y21419D02*
D03*
X18000Y22573D02*
D03*
Y21419D02*
D03*
X24000Y22573D02*
D03*
Y21419D02*
D03*
X23000D02*
D03*
Y22573D02*
D03*
X22000Y21419D02*
D03*
Y22573D02*
D03*
X20000Y21419D02*
D03*
Y22573D02*
D03*
X21000Y21419D02*
D03*
Y22573D02*
D03*
X25000D02*
D03*
Y21419D02*
D03*
X17000Y2419D02*
D03*
Y3573D02*
D03*
X18000Y2419D02*
D03*
Y3573D02*
D03*
X12000Y2419D02*
D03*
Y3573D02*
D03*
X13000D02*
D03*
Y2419D02*
D03*
X14000Y3573D02*
D03*
Y2419D02*
D03*
X16000Y3573D02*
D03*
Y2419D02*
D03*
X15000Y3573D02*
D03*
Y2419D02*
D03*
X11000D02*
D03*
Y3573D02*
D03*
X29000Y22573D02*
D03*
Y21419D02*
D03*
X28000Y22573D02*
D03*
Y21419D02*
D03*
X34000Y22573D02*
D03*
Y21419D02*
D03*
X33000D02*
D03*
Y22573D02*
D03*
X32000Y21419D02*
D03*
Y22573D02*
D03*
X30000Y21419D02*
D03*
Y22573D02*
D03*
X31000Y21419D02*
D03*
Y22573D02*
D03*
X35000D02*
D03*
Y21419D02*
D03*
X27000D02*
D03*
Y22573D02*
D03*
D80*
X4500Y17640D02*
D03*
Y7340D02*
D03*
D81*
X26662Y13996D02*
D03*
Y12996D02*
D03*
X24438Y13996D02*
D03*
Y12996D02*
D03*
X26662Y11996D02*
D03*
X24438D02*
D03*
M02*
