G04 Layer_Color=16711935*
%FSLAX24Y24*%
%MOIN*%
G70*
G01*
G75*
%ADD103R,0.0462X0.0922*%
%ADD116C,0.0787*%
%ADD139C,0.0651*%
%ADD140R,0.0651X0.0651*%
%ADD141C,0.1320*%
%ADD142C,0.0761*%
%ADD143O,0.0690X0.0414*%
%ADD144C,0.0300*%
%ADD145C,0.7087*%
G04:AMPARAMS|DCode=146|XSize=399.7mil|YSize=399.7mil|CornerRadius=101.4mil|HoleSize=0mil|Usage=FLASHONLY|Rotation=270.000|XOffset=0mil|YOffset=0mil|HoleType=Round|Shape=RoundedRectangle|*
%AMROUNDEDRECTD146*
21,1,0.3997,0.1969,0,0,270.0*
21,1,0.1969,0.3997,0,0,270.0*
1,1,0.2029,-0.0984,-0.0984*
1,1,0.2029,-0.0984,0.0984*
1,1,0.2029,0.0984,0.0984*
1,1,0.2029,0.0984,-0.0984*
%
%ADD146ROUNDEDRECTD146*%
%ADD147R,0.2060X0.2060*%
%ADD148R,0.0934X0.0462*%
D103*
X20000Y3573D02*
D03*
Y2419D02*
D03*
X24000D02*
D03*
Y3573D02*
D03*
X25000Y2419D02*
D03*
Y3573D02*
D03*
X23000Y2419D02*
D03*
Y3573D02*
D03*
X22000Y2419D02*
D03*
Y3573D02*
D03*
X21000D02*
D03*
Y2419D02*
D03*
X10400Y22573D02*
D03*
Y21419D02*
D03*
X9400Y22573D02*
D03*
Y21419D02*
D03*
X15400Y22573D02*
D03*
Y21419D02*
D03*
X14400D02*
D03*
Y22573D02*
D03*
X13400Y21419D02*
D03*
Y22573D02*
D03*
X11400Y21419D02*
D03*
Y22573D02*
D03*
X12400Y21419D02*
D03*
Y22573D02*
D03*
X16400D02*
D03*
Y21419D02*
D03*
X7400D02*
D03*
Y22573D02*
D03*
X8400Y21419D02*
D03*
Y22573D02*
D03*
X19000D02*
D03*
Y21419D02*
D03*
X18000Y22573D02*
D03*
Y21419D02*
D03*
X24000Y22573D02*
D03*
Y21419D02*
D03*
X23000D02*
D03*
Y22573D02*
D03*
X22000Y21419D02*
D03*
Y22573D02*
D03*
X20000Y21419D02*
D03*
Y22573D02*
D03*
X21000Y21419D02*
D03*
Y22573D02*
D03*
X25000D02*
D03*
Y21419D02*
D03*
X17000Y2419D02*
D03*
Y3573D02*
D03*
X18000Y2419D02*
D03*
Y3573D02*
D03*
X12000Y2419D02*
D03*
Y3573D02*
D03*
X13000D02*
D03*
Y2419D02*
D03*
X14000Y3573D02*
D03*
Y2419D02*
D03*
X16000Y3573D02*
D03*
Y2419D02*
D03*
X15000Y3573D02*
D03*
Y2419D02*
D03*
X11000D02*
D03*
Y3573D02*
D03*
X29000Y22573D02*
D03*
Y21419D02*
D03*
X28000Y22573D02*
D03*
Y21419D02*
D03*
X34000Y22573D02*
D03*
Y21419D02*
D03*
X33000D02*
D03*
Y22573D02*
D03*
X32000Y21419D02*
D03*
Y22573D02*
D03*
X30000Y21419D02*
D03*
Y22573D02*
D03*
X31000Y21419D02*
D03*
Y22573D02*
D03*
X35000D02*
D03*
Y21419D02*
D03*
X27000D02*
D03*
Y22573D02*
D03*
D116*
X4580Y1310D02*
D03*
X37973Y23596D02*
D03*
D139*
X9400Y24496D02*
D03*
Y23496D02*
D03*
X12400D02*
D03*
Y24496D02*
D03*
X14400Y23496D02*
D03*
Y24496D02*
D03*
X15400Y23496D02*
D03*
Y24496D02*
D03*
X16400Y23496D02*
D03*
X13400Y24496D02*
D03*
Y23496D02*
D03*
X11400Y24496D02*
D03*
Y23496D02*
D03*
X10400D02*
D03*
Y24496D02*
D03*
X8400D02*
D03*
Y23496D02*
D03*
X7400D02*
D03*
Y24496D02*
D03*
X19000D02*
D03*
Y23496D02*
D03*
X20000D02*
D03*
Y24496D02*
D03*
X22000Y23496D02*
D03*
Y24496D02*
D03*
X25000Y23496D02*
D03*
X24000Y24496D02*
D03*
Y23496D02*
D03*
X23000Y24496D02*
D03*
Y23496D02*
D03*
X21000Y24496D02*
D03*
Y23496D02*
D03*
X18000D02*
D03*
Y24496D02*
D03*
X17000Y496D02*
D03*
Y1496D02*
D03*
X16000D02*
D03*
Y496D02*
D03*
X14000Y1496D02*
D03*
Y496D02*
D03*
X11000Y1496D02*
D03*
X12000Y496D02*
D03*
Y1496D02*
D03*
X13000Y496D02*
D03*
Y1496D02*
D03*
X15000Y496D02*
D03*
Y1496D02*
D03*
X18000D02*
D03*
Y496D02*
D03*
X24000Y1496D02*
D03*
Y496D02*
D03*
X22000Y1496D02*
D03*
Y496D02*
D03*
X21000Y1496D02*
D03*
Y496D02*
D03*
X20000Y1496D02*
D03*
X23000Y496D02*
D03*
Y1496D02*
D03*
X25000Y496D02*
D03*
Y1496D02*
D03*
X27000Y23496D02*
D03*
Y24496D02*
D03*
X29000D02*
D03*
Y23496D02*
D03*
X30000D02*
D03*
Y24496D02*
D03*
X32000Y23496D02*
D03*
Y24496D02*
D03*
X35000Y23496D02*
D03*
X34000Y24496D02*
D03*
Y23496D02*
D03*
X33000Y24496D02*
D03*
Y23496D02*
D03*
X31000Y24496D02*
D03*
Y23496D02*
D03*
X28000D02*
D03*
Y24496D02*
D03*
X18600Y5780D02*
D03*
X1530Y24306D02*
D03*
D140*
X16400Y24496D02*
D03*
X25000D02*
D03*
X11000Y496D02*
D03*
X20000D02*
D03*
X35000Y24496D02*
D03*
D141*
X38000Y2996D02*
D03*
X6000Y21996D02*
D03*
X5500Y2996D02*
D03*
X26000Y15996D02*
D03*
Y4996D02*
D03*
D142*
X2880Y6996D02*
D03*
Y17996D02*
D03*
D143*
X765Y13795D02*
D03*
Y11197D02*
D03*
D144*
X5250Y10236D02*
D03*
X4410Y10246D02*
D03*
X3140Y10066D02*
D03*
X3100Y9426D02*
D03*
X4500Y14496D02*
D03*
X4546Y11396D02*
D03*
X2390Y11866D02*
D03*
X6500Y10496D02*
D03*
X7916Y12236D02*
D03*
X5296Y11666D02*
D03*
X3700Y13500D02*
D03*
X6500Y12496D02*
D03*
X6350Y15280D02*
D03*
X4326Y11791D02*
D03*
X1360Y12750D02*
D03*
Y11840D02*
D03*
X2510Y11260D02*
D03*
X2790Y13550D02*
D03*
X2500Y14870D02*
D03*
X5240Y15440D02*
D03*
X3370Y15430D02*
D03*
D145*
X4500Y12490D02*
D03*
D146*
D03*
D147*
Y17640D02*
D03*
Y7340D02*
D03*
D148*
X26662Y13996D02*
D03*
Y12996D02*
D03*
X24438Y13996D02*
D03*
Y12996D02*
D03*
X26662Y11996D02*
D03*
X24438D02*
D03*
M02*
