M48
;Layer_Color=9474304
;FILE_FORMAT=2:4
INCH,TZ
;TYPE=PLATED
T1F00S00C0.0059
;TYPE=NON_PLATED
%
T01
X3920Y4400
X3880Y8100
X3960Y9300
X4740Y8930
X4620Y7610
X5410Y5930
X5390Y4920
X5590Y4810
X5510Y4570
X6210Y4260
X7490Y4360
X7260Y4610
X7200Y5170
X7620Y5870
X7560Y6480
X8450Y5810
X8940
X8960Y5600
X8460Y5160
X8640Y4420
X8610Y3920
X7180Y3280
X7550Y1510
X9183Y1530
X10530Y4540
X9830Y5500
X10730Y6020
X10389Y7119
X10950Y7330
X10200Y7810
X9640Y7396
X8870Y7250
X9230Y6360
X12820Y5860
X13730Y6350
X16400Y5220
X17640Y5210
X19430
X4950Y5310
X4430Y3740
X5990Y9200
X20270Y6830
X20510Y3400
X25640Y3620
X26980Y3860
X30080Y4600
X31670Y4300
X33160Y4410
X33520Y4960
X34090Y4420
X33190Y3110
X32500Y2180
X30930Y2530
X29930Y1960
X29870Y6720
X31270Y7080
X32170Y6890
X32100Y7720
X32890Y7240
X33820Y9340
X29097Y7737
X36220Y9080
X36730Y9350
X39380Y7840
X43820Y8830
X43450Y9320
X46300
X46090Y10260
X45980Y10910
X45790Y10780
X45730Y11230
X45410Y11210
X46320Y11030
X46650Y11020
X46850Y10990
X47030Y10390
X47200Y10520
X46710Y11910
X46660Y12200
X46330Y12190
X46190Y12330
X45990Y11950
X46034Y13727
X46231
X46427
X46723Y14023
Y14219
Y14416
X46723Y14613
X45837Y13727
X45640
X45443Y13727
X45246
X44557Y14416
Y14613
Y14810
Y15007
Y15204
X45246Y15893
X45443
X45640
X45837
X46034
X46231
X46329Y16280
X45370Y18240
X45490Y18420
X45690Y18780
X44880Y18720
X44550Y18450
X42780Y17057
X42324Y17054
X42080Y16010
X43240Y15440
X43010Y11790
X40670Y10780
X38550Y10480
X37500Y11210
X36850Y9530
X35620Y9550
X35792Y9772
X35560Y10730
X39660Y18690
X40440Y20270
X40610Y20430
X40810Y20510
X40990Y20330
X41100Y20000
X41300
X43130Y20670
X40640Y23020
X40110Y22500
X46580Y22170
X48440Y19200
X48590Y19350
X48740Y19500
X48890Y19650
X47560Y12810
X30930Y12630
X30030Y14290
X28480Y14110
X22570Y14610
X22270Y14550
X21947Y14760
X21800Y15390
X22270Y16070
X22570Y16030
X20310Y15690
X24940Y10630
X32862Y18588
X32698Y18762
X32556Y18904
X32414Y19046
X32273Y19187
X32131Y19329
X31989Y19471
X31848Y19612
X31706Y19754
X31564Y19896
X18000Y16200
X18380Y15340
X16110Y14820
X15800Y16030
X13790Y16090
X13580Y20650
X12680Y20540
X10940Y20470
X9710Y20340
X8770Y20300
X7020Y18740
X6180Y19520
X5950Y15140
X8160Y15630
X8660Y12480
X9530Y12470
X10741Y12291
X10504Y12010
X12490Y11690
X13366Y11540
X9140Y10950
X9000Y9950
X9840Y10040
X8150Y11670
X6430Y11010
X6340Y10130
X5547Y9887
X4140Y10800
X270Y10860
X1640Y22100
X4160Y23650
M30
