M48
;Layer_Color=9474304
;FILE_FORMAT=2:4
INCH,TZ
;TYPE=PLATED
T2F00S00C0.0120
T4F00S00C0.0354
T5F00S00C0.0394
;TYPE=NON_PLATED
T6F00S00C0.0390
T7F00S00C0.0701
T8F00S00C0.1260
%
T02
X698Y285
Y1255
X1121Y1035
X2041
X2090Y1470
X2570Y1660
X2840Y2050
X2960Y2480
X2983Y3193
X2080Y3170
X1698Y2255
X1586Y1720
X698Y2255
Y3255
X1698Y4255
X1410Y4790
X1420Y5250
X698Y5255
X490Y6500
X1698Y6255
X2050Y5630
X3290Y6040
X3370Y4990
X2697Y4255
X3030Y1130
X4010Y1290
X2450Y290
X1698Y7255
Y8255
X2697
X698
Y9255
X5736Y8880
X5920Y7410
X6110Y6750
X6380Y6360
X6240Y5890
X6180Y5400
X6970Y5374
X7026Y6560
X8160Y6590
X8580Y6720
X8320Y7430
X8010Y7440
X7490Y7960
X8000Y8500
X8320Y8480
X7450Y9010
X9700Y8680
X9570Y6970
X9152Y7352
X9840Y6000
X10610Y5110
X11697Y5255
X12697
X12500Y4710
X12490Y3910
X11510Y3930
X12000Y3000
X11510Y2500
X12500
X13000Y3000
X14000
X15000
X15490Y2510
X16460Y2480
X17460Y2460
X18000Y3000
X17520Y3490
X17697Y4255
X16697
X16500Y4500
X16470Y3520
X15530Y3530
X15697Y4255
X15330Y5164
X14760Y5100
X14440Y4684
X14140Y5500
X13698Y5255
X13183Y6293
X12849
X12268Y6296
X12159Y6855
X12060Y7370
X12430Y7360
X11600Y7620
X11000Y7780
X12150Y8420
X12630Y8940
X13686Y8790
Y8490
X13720Y8060
X13740Y7130
X15006Y7570
X15454Y7538
X15650Y7850
X16340
X16140Y8450
X17220
X17697Y8255
X17871Y8018
X17423Y7558
X19193
X19546Y7960
X18900Y8580
X17697Y9255
X14759Y9079
X15036Y8790
X15026Y8490
X13716Y9130
X14864Y6168
X15264
X16000Y6100
X16720Y6450
X16890Y5804
X17196Y5844
X17723
X18950Y6050
X18830Y6430
X19050Y4470
X18500Y4500
X19698Y4255
X19470Y2240
X19050Y2570
X18698Y1255
Y285
X10500Y500
Y1500
X10390Y2840
X11000Y3000
X10080Y3550
X9710Y3850
X9250Y3550
X8220Y3260
X7850Y2730
X7000Y2780
X6697Y2255
X6380Y1809
X6950Y880
X6697Y285
X7697
X8698
X9697
X9690Y2160
X8120Y1350
X8201Y4481
Y5131
X7920Y4875
X8201Y5781
X8680Y5450
X5470Y5243
X5110Y5630
X5040Y6010
X4260Y5640
X5110Y4300
X5870Y4320
X6690Y3850
X4330Y2140
X4697Y1255
Y285
X5698
X11495Y6296
X19890Y6420
X20230Y7300
X20600Y7000
X20670Y5840
X21970Y5980
X22710Y6690
X23040Y6740
X23540Y7180
X23560Y7480
X23120Y7857
X23900Y8100
X24160Y7770
X24210Y7040
X24780Y7360
X24800Y5800
X24697Y5255
X24550Y4390
X23480Y4530
X22470Y4610
X21410Y4540
X21100Y4310
X20485Y4500
X20510Y3870
X21000Y3000
X20000
X20500Y2000
X21440
X22480
X23480
X24510
X25698Y2255
Y1255
Y285
X26697
X27590Y290
X27698Y1255
X26697
X27880Y2870
X28698Y3255
X29290Y3000
X30720Y3200
X31930Y3180
X32350Y3970
X32342Y5557
X31910Y5210
X31240Y5610
X31440Y6370
X31750Y6480
X31110Y6590
X31210Y7600
X30890Y7570
X30698Y8255
X31060Y8570
X31460Y8920
X30580Y8960
X30030Y8980
X29900Y7680
X28240Y7460
X28073Y8243
X27770Y8250
X27420Y7910
X26950Y7890
X26460Y6940
X27000Y6350
X27590Y5880
X27880Y5490
X28090Y6260
X28520Y6250
X28840Y5790
X29870Y5800
X30280Y5130
X30150Y3970
X30698Y1255
Y285
X31697
X32698
Y1255
X33568Y1515
X33776Y2610
X33989Y3257
X34420Y3620
X34190Y3975
X34690Y2810
X34646Y2201
X34700Y290
X33698Y285
X29697
X28698
X27250Y4820
X25698Y6255
X23750Y6030
X22380Y7260
X22100Y8400
X21100Y8200
X20846Y8510
X20706Y9370
X21697Y9255
X22698
X25400Y9200
X28210Y8970
X28500Y8500
X32210Y8400
X32430Y7760
X33040Y7600
X33640Y7660
X32990Y8280
X33030Y9100
X34310Y9090
X34430Y9370
X34980Y8890
X35170Y8450
X34697Y7255
Y6255
X33698
X33250Y5880
X33100Y5020
X35060Y5350
X32690Y7050
X32020Y7090
X25000Y3000
X24000
X23000
X22000
X35710Y2480
X36050Y3200
X36840Y3340
X36810Y3000
X36590Y2680
X36770Y4390
X38030Y5130
X38020Y5750
X38270Y5970
X37700Y6130
X38830Y6710
X39190Y5170
X38698Y4255
X40030Y3940
X40697Y3255
X41698
X42698
X43698
X44697
X45697
X46698
X47698
X48698
X49490Y3250
X49530Y2270
X48698Y2255
Y1255
Y285
X49697
Y1255
X47698
Y285
X46698Y1255
X45697
Y285
X44697Y1255
X43698
X42698
X41698
Y285
X40697Y1255
X39697
X38698
Y285
X37698
X37850Y1090
X37510
X37170
X36700Y290
X35700
X39330Y2330
X40697Y5155
X41698
Y4255
X42698Y5255
X42560Y6760
X43690Y6780
X44200Y7000
X44640Y7920
X44697Y8255
X44850Y8729
X45244
Y9123
X44850
X44456
Y8729
X45697Y8255
X46670Y7960
X47100Y8570
Y9070
X48470Y9080
X48340Y8510
X48450Y7820
X48410Y6700
X48430Y5450
X49660Y5540
X49670Y6750
X50030Y8150
X49870Y8550
X49972Y9370
X47370Y7140
X46698Y5255
X45697
Y6255
Y4255
X44697Y5255
X41698Y6255
Y7255
X41340Y7770
Y8190
Y8610
Y9030
X41120Y9240
Y8820
Y8400
Y7980
Y7560
X42120Y8450
X42698Y8255
X43060Y8050
X42600Y9070
X40160Y8790
X39280Y9220
X37800Y8970
X37373Y8940
Y8520
Y8100
Y7680
X37153Y7470
Y7890
Y8310
Y8730
X36610Y8840
X36240Y8100
Y7790
X36610Y7700
X36697Y7255
X35698
X35710Y6710
X35698Y6255
X35580Y8700
X37340Y9360
X48320Y3970
X49697Y4255
X50200Y2920
X51698Y18255
Y19255
Y20255
Y21255
Y22255
Y23255
Y24255
X50697
X49697
Y23255
Y22255
X50697
Y21255
Y20255
Y19255
Y18255
X49697
Y19255
Y20255
Y21255
X48550Y21950
X48700Y22800
X48698Y23255
Y24255
X47698
Y23255
X47760Y22660
X47098Y22257
X46698Y23255
Y24255
X45697
Y23255
X44697
Y24255
X43698
Y23255
X43880Y22710
X43698Y22255
X44608Y22260
X45220Y21950
X45697Y21255
X45368Y20633
X44608Y20757
X44710Y21230
X43698Y21255
X42870Y21250
X42430Y21910
X42698Y22255
Y23255
X42040Y23180
X41570Y24410
X40960Y24050
X39697Y24255
Y23255
X38698
Y24255
X37698
Y23255
Y22255
X37270Y21700
X36697Y22255
Y23255
X36300Y23430
X35698Y23255
Y24255
X36697
X38698Y22255
X38640Y21440
X38340Y21490
X39330Y20530
X40080Y20560
X40020Y21800
X40970Y21100
X41460
X41800Y20950
X41470Y17980
X41350Y17700
Y17400
X41470Y17120
X41840Y16620
X42727Y16277
X42854Y15947
X43081Y15204
X42634Y14607
X41830Y14940
Y15330
X41000Y15600
X40090Y15320
X39430Y15340
X39310Y15060
Y14640
Y14220
Y13800
Y13380
X39530Y13590
Y14010
Y14430
Y14850
X38750Y15520
X38610Y16510
X38490Y17500
X37840Y17510
X37500
X37340Y18480
X36930Y18520
X36570Y18500
X36340Y17500
X36190Y16510
X37040Y16570
X37370Y16400
X37410Y15540
X37890Y14500
X38040Y12510
X37880Y11350
X37860Y9680
X37580Y9550
X37350Y9970
X36140Y10210
X35781Y10209
X36190Y9480
X35780Y12000
X35680Y12500
X36450Y12280
X39410Y11830
X39690Y11710
X39760Y12080
X40750Y11710
X40970Y11930
X40930Y12490
X41880Y12710
X42010Y12250
X42687Y12251
X43278
X43681
X43450Y11980
X44147Y11990
X44587
X45760Y12290
X46010Y12565
X46044Y12989
X47105Y12989
X47067Y13342
X47106Y12576
X47840Y12530
Y12110
Y11690
Y11270
Y10850
Y10430
X48060Y10640
Y11060
Y11480
Y11900
Y12320
X48130Y13570
X48450Y13340
X48465Y14013
X48204Y14757
X48179Y15489
X48317Y16001
Y16345
X48366Y17034
X48986Y16779
X49697Y17255
X50150Y17250
X49697Y16255
X49860Y15910
X49406Y15499
X49416Y14771
X49697Y13255
Y12255
Y11255
Y10255
X48710Y10020
X48060Y10220
X46569Y9921
X46350Y10130
X45950Y9840
X45244Y9911
Y9517
X44850
X44456
Y9911
X44850
X42600Y9570
X41700Y9450
X41340
X40840Y9540
X39990Y9800
X42650Y10950
X43020Y11070
X42694Y13487
X42313Y13127
X44931Y14101
X45404
Y14574
X44931
Y15046
X45404
Y15519
X44931
X44911Y16317
X44640Y17280
X44300Y18120
X43660
X43397Y17255
X43465Y16621
X46329Y16956
X46427Y17763
X45908Y17714
X46960Y17860
X47698Y18255
X48698
X48740Y19130
X47890Y19180
X46390Y19220
X46350Y18580
X46570Y20610
X47118Y20757
X47589Y16651
X46841Y16306
X46349Y15519
X45876
Y15046
X46349
Y14574
X45876
Y14101
X46349
X40810Y18153
Y18453
X40590Y18663
X40310Y18783
X40030Y18903
X39250Y18620
X39310Y18270
X38160Y18510
X35900Y15510
X42698Y24255
X34697
Y23255
X34500Y22750
X34000Y22000
X33000
X32000
X31500Y21750
X31000Y22000
X30000
X29000
X28000
X27500Y21750
X27000Y22000
X27500Y23000
X28500
X29500
X30500
X31500
X32500
X32520Y21204
X34400Y21380
X34850Y20820
X33860Y20090
X33150Y18260
X33698Y17255
Y16255
X33500Y15750
X33020Y15770
X32520
X32698Y16255
X31697
X31490Y15750
X31330Y16790
X30698Y17255
X30910Y17720
X31200Y18160
X32020Y17490
X30010Y18480
X28880
X27220Y18440
X27790Y17720
X27698Y17255
X26697
X25698
X25630Y18980
X25290Y18940
X24830Y19000
X24370Y18230
X22698Y18255
X21930Y18440
X21420Y18390
X21030Y18644
X19880Y18620
X20080Y17330
X20553Y17010
X20970Y16950
X21360Y16780
X21696Y16382
X21697Y17255
X21276Y17622
X22610Y17330
X24060Y16820
X23910Y15730
X23880Y15340
X24410Y14910
X24800Y14470
Y13470
X24270Y13490
X23698Y13255
Y14255
X22990Y14510
X22830Y15270
X21657Y15180
X22330Y14240
X22030Y13310
X22240Y12540
X21530Y12670
X20506Y12630
X20420Y13350
X21300Y13620
X20840Y14200
X20300Y14550
X19900Y14600
X20696Y11610
X21256Y11273
X21697Y11255
X21770Y11589
X21770Y10810
X21467Y10004
X21056Y10020
X22600Y9900
X23040Y9714
X23890Y10440
X24304Y10116
X24516Y9904
X24728Y9692
X24941Y9479
X25698Y10255
X25767Y10603
X25990Y11500
X27020Y11050
X26697Y10255
X28200Y10300
X28040Y10630
X27950Y11590
X27920Y12670
X27910Y13480
X27980Y14190
X28190Y14410
X28400Y14630
X28610Y14850
X29050Y14120
X29490
X31000Y14240
X30170Y15800
X28340Y15910
X27698Y15255
X26677Y14634
X26662Y13502
X26110Y13450
X26990Y12394
X29100Y12560
X29080Y11680
X29697Y11255
X30698
X31030Y11780
X31600Y10960
X32250Y10900
X32810Y10900
X33240Y11100
X33650Y11060
X35150Y11050
X35030Y10770
X34910Y10490
X34790Y10210
X34670Y9930
X34550Y9650
X35400Y11710
X35270Y12010
X33500Y12460
X32990Y12580
X32490Y12560
X32030Y12580
X30000Y12780
X29697Y10255
X28950Y10190
X30698Y10255
X31100Y9920
X33350Y14340
X34220Y13870
X35290Y18450
X30500Y21250
X29500
X28500
X25698Y21255
Y22255
X25000Y22000
X24000
X23000
X22000
X21000
X20000
X20500Y23000
X21500
X22500
X23500
X24500
X25698Y23255
Y24255
X24500Y21000
X23500
X22500
X21500
X20500
X23698Y12255
Y11255
X24250Y11450
X24677Y12404
X19690Y12000
X19250Y11500
X19708Y10787
X19666Y9710
X19000Y9500
X18601Y10728
X17911Y10168
X17220Y9500
X16100Y9560
X16020Y9910
X15290Y9380
X14970Y9640
X14770Y9890
X13336Y9890
X13296Y10500
X13286Y10865
X13346Y11210
X12726Y10930
X12910Y10210
X12910Y9430
X12180Y9520
X12190Y10480
X11570Y10750
X11390Y11180
X11140Y11737
X10650Y11650
X10315Y11695
X10220Y12230
X9800Y12140
X9360
X8460Y12180
X8480Y11675
X8460Y10980
X9960Y10750
X10480Y10760
X10340Y10310
X10200Y9410
X8850Y9490
X7960Y9460
X5020Y9660
X4670
X4650Y10990
X5060
X5296Y11670
X4326Y11795
X4216Y11080
X6620Y11560
X6697Y12255
X6300Y12360
X6310Y14550
X7140Y14630
X7340Y15200
X7750Y15170
X8563Y15150
X9480Y14680
X9697Y14255
X11440Y14680
X11900Y14600
X12100Y15550
X11600Y15829
X10940Y16160
X10870Y17390
X11920
X12880Y17400
X13910Y17410
X14400Y18000
X13400
X12400Y18000
X11400Y18000
X10400
X9400
X8400
X7900Y18500
X7400Y18000
X7010Y17810
X6400Y18730
X5730Y18420
X4860Y18900
X5760Y20780
X6430Y20910
X6726Y20752
X7340Y20790
X7900Y21000
X7870Y20120
X8900Y21000
X9900
X10900
X11900
X12900
X13900
X14900
X15900
X16800Y21200
X17500
X18000Y22000
X19000
X18500Y21500
Y23000
X19500
Y21000
X19380Y18510
X18940Y18760
X19000Y17600
X18400Y18000
X17400Y18000
X16400
X15400
X13890Y18800
X12900Y18810
X11910Y18840
X10900Y18790
X9900Y18800
X8880Y18720
X8950Y17440
X8990Y16140
X9800Y16600
X7890Y17070
X7180Y15890
X6660Y16360
X6160Y16340
X5680
X5930Y15480
X4697Y15255
X4500Y14500
X4420Y21800
X4460Y22290
X4900Y23080
X4570Y23540
X4697Y24255
X5698
X6697
X6910Y23000
X7900
X8900
X9900
X10900
X11900Y23000
X12900Y23000
X13900
X14900
X15900
X15400Y22000
X14400
X13400
X12400
X11400
X10400Y22004
X9400Y22000
X8400
X7400
X5698Y23255
X16400Y22000
X17210Y22760
X17210Y24580
X17250Y19710
X16700Y19680
X16920Y18800
X17880Y18920
X18080Y19700
X17900Y17100
X16910Y16930
X16320Y15490
X16290Y15190
X16110Y14380
X16220Y14050
X15400Y13900
X14920Y13710
X14550Y14140
X14476Y14790
X14698Y15255
X13698
X13346Y14940
X13066Y14390
X12876Y12110
X12320Y12350
X12110Y12010
X11650Y12400
X15176Y11646
Y11307
X15520Y11240
X15790Y12030
X16400Y12220
X16210Y12460
X16970Y12470
X17606Y12470
X17576Y13470
X17600Y14043
X17270
X17700Y14530
X18080Y14540
X18896Y14600
X19416Y14610
X18860Y13790
X17570Y15010
X17020Y14810
X15670Y14620
X18030Y15670
X19620Y17010
X17000Y11730
X16680Y11660
X16650Y12030
X3140Y11780
X2446Y11870
X2670Y11360
X1360Y11844
Y12754
X1100Y14320
X500Y14500
X698Y15255
X1000Y16020
X1698Y16255
X2697
X3570Y16450
X3370Y15434
X2760Y15190
X3210Y14500
X2790Y13554
X3700Y13504
X1590Y10630
X1770Y9540
X500Y16500
X698Y17255
Y18255
X1698
X2697
Y19255
X3697
Y20255
X3560Y20880
X3260Y21150
X3370Y21460
X3010Y21750
X2697Y21255
X1698
Y20255
Y19255
X698
Y20255
Y21255
X1380Y22240
Y22740
Y23240
X1520Y23770
X1380Y24240
X1680
X2550Y24710
X3880Y24570
X3697Y24255
X3650Y23600
X2940Y23240
X3780Y22450
X350Y24720
X2320Y17350
T04
X3220Y4490
Y5490
X11000Y1500
X12000
X13000
X14000
X15000
X16000
X17000
X18000
Y500
X17000
X16000
X15000
X14000
X13000
X12000
X11000
X12000Y9000
X20000Y1500
X21000
X22000
X23000
X24000
X25000
Y500
X24000
X23000
X22000
X21000
X20000
Y23500
X21000
X22000
Y24500
X23000
X24000
X25000
Y23500
X24000
X23000
X21000Y24500
X20000
X27000
X28000
X29000
X30000
X31000
X32000
X33000
X34000
Y23500
X33000
X32000
X31000
X30000
X29000
X28000
X27000
X19000
Y24500
X18000
Y23500
X16400
Y24500
X15400
X14400
X13400
X12400
Y23500
X13400
X14400
X15400
X11400
Y24500
X10400
Y23500
X9400
Y24500
X8400
X7400
Y23500
X8400
X12000Y11000
Y10000
T05
X26750Y2250
X49250Y24000
T06
X23500Y15500
X23900Y18500
X23100
T07
X2880Y7590
Y16929
Y20157
T08
X5500Y3000
X26000Y5000
X38000Y3000
X35500Y22000
X26000Y16000
X6000Y22000
M30
