G04 Layer_Color=8421504*
%FSLAX24Y24*%
%MOIN*%
G70*
G01*
G75*
%ADD10R,0.0197X0.0236*%
%ADD11C,0.0076*%
%ADD12R,0.0197X0.0118*%
%ADD13R,0.0118X0.0197*%
%ADD14R,0.0295X0.0551*%
%ADD15R,0.0295X0.0315*%
%ADD16R,0.0374X0.0335*%
D10*
X410Y1437D02*
D03*
Y1043D02*
D03*
D11*
X472Y-551D02*
D03*
X315D02*
D03*
X157D02*
D03*
X0D02*
D03*
X-157D02*
D03*
X-315D02*
D03*
X-472D02*
D03*
X472Y-394D02*
D03*
X315D02*
D03*
X157D02*
D03*
X0D02*
D03*
X-157D02*
D03*
X-315D02*
D03*
X-472D02*
D03*
X472Y-236D02*
D03*
X315D02*
D03*
X157D02*
D03*
X0D02*
D03*
X-157D02*
D03*
X-315D02*
D03*
X-472D02*
D03*
X472Y-79D02*
D03*
X315D02*
D03*
X-157D02*
D03*
X-315D02*
D03*
X-472D02*
D03*
X472Y79D02*
D03*
X315D02*
D03*
X-157D02*
D03*
X-315D02*
D03*
X-472D02*
D03*
X472Y236D02*
D03*
X315D02*
D03*
X157D02*
D03*
X0D02*
D03*
X-157D02*
D03*
X-315D02*
D03*
X472Y394D02*
D03*
X315D02*
D03*
X157D02*
D03*
X0D02*
D03*
X-157D02*
D03*
X-315D02*
D03*
X472Y551D02*
D03*
X315D02*
D03*
X157D02*
D03*
X0D02*
D03*
X-157D02*
D03*
X-315D02*
D03*
X-472D02*
D03*
D12*
X-1242Y640D02*
D03*
X-1518D02*
D03*
X-1118Y93D02*
D03*
X-1394Y93D02*
D03*
X-1048Y-367D02*
D03*
X-1324D02*
D03*
X441Y-919D02*
D03*
X717D02*
D03*
X-972Y2190D02*
D03*
X-1248D02*
D03*
X1598Y560D02*
D03*
X1322D02*
D03*
D13*
X-400Y1308D02*
D03*
Y1032D02*
D03*
X-1750Y1492D02*
D03*
Y1768D02*
D03*
X1370Y-542D02*
D03*
Y-818D02*
D03*
X1650Y-542D02*
D03*
Y-818D02*
D03*
D14*
X1055Y-50D02*
D03*
X1625D02*
D03*
D15*
X1726Y920D02*
D03*
X1194D02*
D03*
D16*
X-835Y1866D02*
D03*
Y1414D02*
D03*
X-1405D02*
D03*
Y1866D02*
D03*
M02*
