G04 Layer_Physical_Order=4*
G04 Layer_Color=16711680*
%FSLAX24Y24*%
%MOIN*%
G70*
G01*
G75*
%ADD18C,0.0080*%
%ADD23C,0.0240*%
%ADD25C,0.0210*%
G36*
X2182Y-1272D02*
X667D01*
X660Y-1267D01*
X632Y-1222D01*
X632Y-1221D01*
X637Y-1195D01*
X639Y-1169D01*
X637Y-1143D01*
X632Y-1117D01*
X624Y-1092D01*
X612Y-1069D01*
X598Y-1047D01*
X580Y-1027D01*
X561Y-1010D01*
X559Y-1009D01*
Y-801D01*
X1235Y-125D01*
X1247Y-111D01*
X1257Y-95D01*
X1264Y-77D01*
X1269Y-59D01*
X1270Y-40D01*
Y1120D01*
X1272Y1121D01*
X1292Y1138D01*
X1309Y1158D01*
X1324Y1180D01*
X1335Y1203D01*
X1344Y1228D01*
X1349Y1254D01*
X1350Y1280D01*
X1349Y1306D01*
X1344Y1332D01*
X1335Y1357D01*
X1324Y1380D01*
X1309Y1402D01*
X1292Y1422D01*
X1272Y1439D01*
X1250Y1454D01*
X1227Y1465D01*
X1202Y1474D01*
X1176Y1479D01*
X1150Y1480D01*
X1124Y1479D01*
X1098Y1474D01*
X1073Y1465D01*
X1050Y1454D01*
X1028Y1439D01*
X1008Y1422D01*
X991Y1402D01*
X976Y1380D01*
X965Y1357D01*
X956Y1332D01*
X951Y1306D01*
X950Y1280D01*
X951Y1254D01*
X956Y1228D01*
X965Y1203D01*
X976Y1180D01*
X991Y1158D01*
X1008Y1138D01*
X1028Y1121D01*
X1030Y1120D01*
Y10D01*
X354Y-666D01*
X341Y-681D01*
X331Y-697D01*
X324Y-714D01*
X320Y-732D01*
X318Y-751D01*
Y-1009D01*
X317Y-1010D01*
X297Y-1027D01*
X280Y-1047D01*
X265Y-1069D01*
X254Y-1092D01*
X245Y-1117D01*
X240Y-1143D01*
X238Y-1169D01*
X240Y-1195D01*
X245Y-1221D01*
X245Y-1222D01*
X218Y-1267D01*
X211Y-1272D01*
X-2100D01*
Y2272D01*
X2182D01*
Y-1272D01*
D02*
G37*
D18*
X439Y-751D02*
X1150Y-40D01*
Y1280D01*
X439Y-1169D02*
Y-751D01*
D23*
X410Y1780D02*
D03*
X-1980Y-690D02*
D03*
X-1100Y-1150D02*
D03*
X2050D02*
D03*
X1420D02*
D03*
X2060Y2150D02*
D03*
X340D02*
D03*
X1990Y260D02*
D03*
X-1819Y331D02*
D03*
X-1980Y-1150D02*
D03*
X2060Y1520D02*
D03*
X-1990Y1250D02*
D03*
X2080Y911D02*
D03*
X739Y-1169D02*
D03*
X-986Y353D02*
D03*
X-1376Y373D02*
D03*
X-1976Y-47D02*
D03*
X-690Y1070D02*
D03*
X750Y860D02*
D03*
X-1760Y2160D02*
D03*
X1150Y1280D02*
D03*
X439Y-1169D02*
D03*
X-460Y1690D02*
D03*
D25*
X109Y-59D02*
D03*
M02*
