G04 Layer_Physical_Order=2*
G04 Layer_Color=36540*
%FSLAX24Y24*%
%MOIN*%
G70*
G01*
G75*
%ADD19C,0.0050*%
%ADD20C,0.0080*%
%ADD22C,0.0060*%
%ADD25C,0.0240*%
%ADD26C,0.0118*%
%ADD27C,0.0210*%
G36*
X-360Y2260D02*
Y678D01*
X-385Y654D01*
X-396Y641D01*
X-405Y626D01*
X-411Y610D01*
X-416Y593D01*
X-417Y576D01*
Y327D01*
X-416Y315D01*
X-419Y305D01*
X-444Y272D01*
X-454Y265D01*
X-505D01*
X-510Y270D01*
Y491D01*
X-2100Y491D01*
Y2272D01*
X-371D01*
X-360Y2260D01*
D02*
G37*
G36*
X176Y234D02*
X177Y214D01*
X182Y193D01*
X191Y173D01*
X200Y157D01*
X191Y142D01*
X182Y122D01*
X177Y101D01*
X175Y79D01*
X177Y57D01*
X182Y36D01*
X191Y15D01*
X200Y0D01*
X191Y-15D01*
X182Y-36D01*
X177Y-57D01*
X175Y-79D01*
X177Y-101D01*
X182Y-122D01*
X191Y-142D01*
X192Y-145D01*
X183Y-171D01*
X163Y-181D01*
X126Y-178D01*
X124Y-173D01*
X113Y-154D01*
X99Y-138D01*
X82Y-123D01*
X63Y-112D01*
X43Y-104D01*
X30Y-100D01*
X15Y-86D01*
Y-54D01*
X74Y6D01*
X85Y18D01*
X94Y32D01*
X100Y47D01*
X104Y64D01*
X105Y80D01*
Y180D01*
X104Y196D01*
X100Y213D01*
X99Y215D01*
X99Y215D01*
X122Y247D01*
X133Y254D01*
X176Y234D01*
D02*
G37*
G36*
X2182Y-1272D02*
X1309D01*
X1300Y-1262D01*
Y-530D01*
X1299Y-513D01*
X1295Y-496D01*
X1288Y-480D01*
X1279Y-465D01*
X1268Y-452D01*
X502Y314D01*
X489Y325D01*
X474Y335D01*
X458Y341D01*
X453Y372D01*
X454Y394D01*
X453Y416D01*
X448Y437D01*
X439Y457D01*
X435Y463D01*
Y665D01*
X496Y726D01*
X503Y727D01*
X523Y736D01*
X542Y747D01*
X559Y761D01*
X573Y778D01*
X584Y797D01*
X593Y817D01*
X598Y838D01*
X599Y860D01*
X598Y882D01*
X593Y903D01*
X584Y923D01*
X573Y942D01*
X559Y959D01*
X542Y973D01*
X523Y984D01*
X503Y993D01*
X482Y998D01*
X460Y999D01*
X438Y998D01*
X417Y993D01*
X397Y984D01*
X378Y973D01*
X361Y959D01*
X347Y942D01*
X336Y923D01*
X327Y903D01*
X326Y896D01*
X272Y842D01*
X222Y863D01*
Y2260D01*
X233Y2272D01*
X2182D01*
Y-1272D01*
D02*
G37*
G36*
X840Y-676D02*
Y-1260D01*
X829Y-1272D01*
X667D01*
X660Y-1267D01*
X632Y-1222D01*
X632Y-1221D01*
X637Y-1195D01*
X639Y-1169D01*
X637Y-1143D01*
X632Y-1117D01*
X624Y-1092D01*
X612Y-1069D01*
X598Y-1047D01*
X580Y-1027D01*
X561Y-1010D01*
X539Y-995D01*
X515Y-984D01*
X491Y-975D01*
X465Y-970D01*
X439Y-968D01*
X413Y-970D01*
X389Y-975D01*
X387Y-975D01*
X339Y-942D01*
Y-774D01*
X547Y-566D01*
X558Y-553D01*
X568Y-538D01*
X574Y-522D01*
X578Y-505D01*
X580Y-488D01*
X579Y-486D01*
X590Y-476D01*
X625Y-461D01*
X840Y-676D01*
D02*
G37*
G36*
X-1000Y-1260D02*
X-1011Y-1272D01*
X-2100D01*
Y-609D01*
X-1000Y-609D01*
Y-1260D01*
D02*
G37*
%LPC*%
G36*
X1150Y1480D02*
X1124Y1479D01*
X1098Y1474D01*
X1073Y1465D01*
X1050Y1454D01*
X1028Y1439D01*
X1008Y1422D01*
X991Y1402D01*
X976Y1380D01*
X965Y1357D01*
X956Y1332D01*
X951Y1306D01*
X950Y1280D01*
X951Y1254D01*
X956Y1228D01*
X965Y1203D01*
X976Y1180D01*
X991Y1158D01*
X1008Y1138D01*
X1028Y1121D01*
X1050Y1106D01*
X1073Y1095D01*
X1098Y1086D01*
X1124Y1081D01*
X1150Y1080D01*
X1176Y1081D01*
X1202Y1086D01*
X1227Y1095D01*
X1250Y1106D01*
X1272Y1121D01*
X1292Y1138D01*
X1309Y1158D01*
X1324Y1180D01*
X1335Y1203D01*
X1344Y1228D01*
X1349Y1254D01*
X1350Y1280D01*
X1349Y1306D01*
X1344Y1332D01*
X1335Y1357D01*
X1324Y1380D01*
X1309Y1402D01*
X1292Y1422D01*
X1272Y1439D01*
X1250Y1454D01*
X1227Y1465D01*
X1202Y1474D01*
X1176Y1479D01*
X1150Y1480D01*
D02*
G37*
%LPD*%
D19*
X0Y-236D02*
Y-219D01*
X-90Y270D02*
X0Y180D01*
X-470Y20D02*
X-440Y50D01*
X0Y80D02*
Y180D01*
X-90Y-129D02*
X0Y-219D01*
X-200Y-178D02*
Y-39D01*
Y-178D02*
X-167Y-211D01*
X-90Y-10D02*
X0Y80D01*
X-90Y-129D02*
Y-10D01*
X-440Y50D02*
X-289D01*
X-200Y-39D01*
X-250Y270D02*
X-90D01*
D20*
X315Y394D02*
Y715D01*
X460Y860D01*
D22*
X469Y-487D02*
Y-327D01*
X377Y-236D02*
X469Y-327D01*
X950Y-1260D02*
Y-630D01*
X-157Y-447D02*
Y-394D01*
X0Y-460D02*
Y-394D01*
X157Y-473D02*
Y-394D01*
X315Y-473D02*
Y-394D01*
Y-236D02*
X377D01*
X399Y-79D02*
X950Y-630D01*
X-390Y-79D02*
X-315D01*
X315D02*
X399D01*
X315Y79D02*
X411D01*
X1070Y-580D01*
Y-1260D02*
Y-580D01*
X229Y-1260D02*
Y-728D01*
X469Y-488D01*
X109Y-1260D02*
Y-679D01*
X315Y-473D01*
X-49Y-1260D02*
Y-679D01*
X157Y-473D01*
X-409Y-1260D02*
Y-487D01*
X-289Y-579D02*
X-157Y-447D01*
X-169Y-1260D02*
Y-628D01*
X0Y-460D01*
X-289Y-1260D02*
Y-579D01*
X-409Y-487D02*
X-315Y-394D01*
X-649Y-1260D02*
Y-338D01*
X-529Y-1260D02*
Y-387D01*
X-377Y-236D01*
X-315D01*
X-649Y-338D02*
X-390Y-79D01*
X-890Y-1260D02*
Y-230D01*
X315Y236D02*
X424D01*
X1190Y-530D01*
Y-1262D02*
Y-530D01*
X-157Y394D02*
Y540D01*
X-307Y576D02*
X-250Y632D01*
Y2260D01*
X-157Y540D02*
X-130Y567D01*
Y2260D01*
X-770Y-1260D02*
Y-280D01*
X-480Y10D01*
X-890Y-230D02*
X-505Y155D01*
X-214D01*
X-157Y98D01*
X-307Y327D02*
Y576D01*
Y327D02*
X-250Y270D01*
X157Y394D02*
Y513D01*
X112Y558D02*
X157Y513D01*
X-8Y402D02*
X0Y394D01*
X-8Y402D02*
Y2260D01*
X112Y558D02*
Y2260D01*
D25*
X-1980Y-690D02*
D03*
X-1100Y-1150D02*
D03*
X2050D02*
D03*
X1420D02*
D03*
X2060Y2150D02*
D03*
X370Y2160D02*
D03*
X1990Y260D02*
D03*
X-1980Y-1150D02*
D03*
X2060Y1520D02*
D03*
X-1990Y1250D02*
D03*
X2080Y911D02*
D03*
X739Y-1169D02*
D03*
X-1376Y373D02*
D03*
X-690Y1070D02*
D03*
X370Y1090D02*
D03*
X-1760Y2160D02*
D03*
X-460Y1690D02*
D03*
D26*
X157Y-394D02*
D03*
X315D02*
D03*
X157Y394D02*
D03*
X315Y-236D02*
D03*
Y394D02*
D03*
X0D02*
D03*
X315Y-79D02*
D03*
X460Y860D02*
D03*
X315Y79D02*
D03*
Y236D02*
D03*
X0Y-236D02*
D03*
X-157Y-394D02*
D03*
X0D02*
D03*
X-157Y-236D02*
D03*
X-335Y-79D02*
D03*
X-315Y-394D02*
D03*
X-157Y394D02*
D03*
X-316Y-236D02*
D03*
X-157Y98D02*
D03*
D27*
X109Y-59D02*
D03*
M02*
