G04 Layer_Physical_Order=1*
G04 Layer_Color=255*
%FSLAX24Y24*%
%MOIN*%
G70*
G01*
G75*
%ADD10R,0.0197X0.0118*%
%ADD11R,0.0374X0.0335*%
%ADD12R,0.0295X0.0315*%
%ADD13R,0.0315X0.0295*%
%ADD14R,0.0256X0.0197*%
%ADD15R,0.0295X0.0551*%
%ADD16R,0.0197X0.0236*%
%ADD17R,0.0118X0.0197*%
%ADD18C,0.0076*%
%ADD19C,0.0050*%
%ADD20C,0.0100*%
%ADD21C,0.0060*%
%ADD22C,0.0080*%
%ADD23C,0.0300*%
%ADD24R,0.0407X0.0300*%
%ADD25C,0.0394*%
%ADD26C,0.0118*%
%ADD27C,0.0240*%
%ADD28C,0.0210*%
G36*
X-360Y2260D02*
Y1506D01*
X-548D01*
Y1681D01*
X-568D01*
Y2114D01*
X-733D01*
X-736Y2122D01*
X-745Y2137D01*
X-757Y2150D01*
X-794Y2188D01*
Y2272D01*
X-371D01*
X-360Y2260D01*
D02*
G37*
G36*
X2182Y1449D02*
X2160Y1400D01*
X1310D01*
X1309Y1402D01*
X1292Y1422D01*
X1272Y1439D01*
X1250Y1454D01*
X1227Y1465D01*
X1202Y1474D01*
X1176Y1479D01*
X1150Y1480D01*
X1124Y1479D01*
X1098Y1474D01*
X1073Y1465D01*
X1050Y1454D01*
X1028Y1439D01*
X1017Y1430D01*
X985Y1439D01*
X967Y1451D01*
Y1524D01*
X1125Y1682D01*
X1279D01*
Y2038D01*
X489D01*
Y2035D01*
X142D01*
X100Y2056D01*
Y2260D01*
X111Y2272D01*
X2182D01*
Y1449D01*
D02*
G37*
G36*
X370Y1225D02*
X518D01*
Y1228D01*
X926D01*
X941Y1199D01*
X912Y1152D01*
X493D01*
Y1040D01*
X487Y1039D01*
X470Y1032D01*
X454Y1022D01*
X439Y1009D01*
X424Y994D01*
X417Y993D01*
X397Y984D01*
X378Y973D01*
X361Y959D01*
X306Y964D01*
X242Y1028D01*
Y1225D01*
X270D01*
Y1443D01*
X370D01*
Y1225D01*
D02*
G37*
G36*
X-1446Y2240D02*
X-1248D01*
Y2140D01*
X-1446D01*
Y2134D01*
X-1692D01*
Y1966D01*
X-1700D01*
Y1768D01*
X-1750D01*
Y1718D01*
X-1909D01*
Y1569D01*
X-1889D01*
Y1314D01*
X-1672D01*
Y1166D01*
X-1412D01*
X-1075Y829D01*
X-1096Y779D01*
X-1319D01*
Y799D01*
X-1468D01*
Y640D01*
Y481D01*
X-1319D01*
Y501D01*
X-1064D01*
Y528D01*
X-944D01*
X-692Y276D01*
X-676Y233D01*
X-870Y39D01*
X-879Y43D01*
X-1118D01*
Y93D01*
X-1168D01*
Y252D01*
X-1317D01*
Y233D01*
X-1476D01*
Y232D01*
X-1572D01*
Y-46D01*
X-1483D01*
X-1479Y-51D01*
X-1476Y-54D01*
Y-167D01*
X-1693D01*
X-1693Y-167D01*
X-2100D01*
Y2272D01*
X-1446D01*
Y2240D01*
D02*
G37*
G36*
X-559Y1109D02*
X-539D01*
Y854D01*
X-490D01*
Y797D01*
X-514Y782D01*
X-540Y776D01*
X-864Y1100D01*
X-845Y1146D01*
X-559D01*
Y1109D01*
D02*
G37*
G36*
X95Y113D02*
X115Y104D01*
X136Y99D01*
X175Y79D01*
X177Y57D01*
X182Y36D01*
X191Y15D01*
X200Y0D01*
X191Y-15D01*
X182Y-36D01*
X177Y-57D01*
X175Y-79D01*
X136Y-99D01*
X115Y-104D01*
X95Y-113D01*
X80Y-122D01*
X63Y-112D01*
X43Y-104D01*
X22Y-98D01*
X0Y-97D01*
X-21Y-57D01*
X-26Y-36D01*
X-34Y-16D01*
X-45Y3D01*
X-51Y9D01*
X-45Y16D01*
X-33Y35D01*
X-25Y55D01*
X-20Y77D01*
X0Y98D01*
X22Y99D01*
X43Y104D01*
X63Y113D01*
X79Y123D01*
X95Y113D01*
D02*
G37*
G36*
X2182Y1111D02*
Y-2050D01*
X1679D01*
X1670Y-2040D01*
Y-1590D01*
X1669Y-1573D01*
X1665Y-1556D01*
X1658Y-1540D01*
X1649Y-1525D01*
X1638Y-1512D01*
X1299Y-1173D01*
Y-1016D01*
X1320D01*
Y-818D01*
X1420D01*
Y-1016D01*
X1600D01*
Y-818D01*
X1650D01*
Y-768D01*
X1809D01*
Y-619D01*
X1789D01*
Y-406D01*
X1853D01*
Y306D01*
X1480D01*
X1435Y351D01*
X1456Y401D01*
X1548D01*
Y560D01*
X1598D01*
Y610D01*
X1796D01*
Y663D01*
X1973D01*
Y870D01*
X1726D01*
Y970D01*
X1973D01*
Y1160D01*
X2160D01*
X2182Y1111D01*
D02*
G37*
G36*
X767Y-1078D02*
X838D01*
Y-1301D01*
X651D01*
X642Y-1294D01*
X621Y-1251D01*
X624Y-1245D01*
X632Y-1221D01*
X637Y-1195D01*
X639Y-1169D01*
X637Y-1143D01*
X635Y-1128D01*
X650Y-1099D01*
X667Y-1083D01*
Y-919D01*
X767D01*
Y-1078D01*
D02*
G37*
G36*
X1210Y-1735D02*
Y-2040D01*
X1201Y-2050D01*
X883D01*
X875Y-2043D01*
X855Y-2000D01*
X860Y-1990D01*
X872Y-1962D01*
X880Y-1932D01*
X886Y-1901D01*
X887Y-1870D01*
X886Y-1839D01*
X880Y-1808D01*
X872Y-1778D01*
X860Y-1750D01*
X845Y-1722D01*
X827Y-1697D01*
X806Y-1674D01*
X801Y-1669D01*
X820Y-1619D01*
X996D01*
Y-1587D01*
X1042Y-1568D01*
X1210Y-1735D01*
D02*
G37*
G36*
X-276Y-1587D02*
Y-1619D01*
X-100D01*
X-81Y-1669D01*
X-86Y-1674D01*
X-107Y-1697D01*
X-125Y-1722D01*
X-140Y-1750D01*
X-152Y-1778D01*
X-160Y-1808D01*
X-166Y-1839D01*
X-167Y-1870D01*
X-166Y-1901D01*
X-160Y-1932D01*
X-152Y-1962D01*
X-140Y-1990D01*
X-135Y-2000D01*
X-155Y-2043D01*
X-163Y-2050D01*
X-361D01*
X-370Y-2040D01*
Y-1615D01*
X-322Y-1568D01*
X-276Y-1587D01*
D02*
G37*
G36*
X-1038Y-614D02*
X-1518Y-1094D01*
X-1529Y-1107D01*
X-1538Y-1122D01*
X-1545Y-1138D01*
X-1549Y-1155D01*
X-1550Y-1172D01*
Y-2040D01*
X-1559Y-2050D01*
X-2100D01*
Y-568D01*
X-1693D01*
X-1693Y-568D01*
X-1374D01*
X-1367Y-567D01*
X-1057D01*
X-1038Y-614D01*
D02*
G37*
%LPC*%
G36*
X-1800Y1966D02*
X-1909D01*
Y1818D01*
X-1800D01*
Y1966D01*
D02*
G37*
G36*
X-1568Y799D02*
X-1716D01*
Y690D01*
X-1568D01*
Y799D01*
D02*
G37*
G36*
Y590D02*
X-1716D01*
Y481D01*
X-1568D01*
Y590D01*
D02*
G37*
G36*
X-920Y252D02*
X-1068D01*
Y143D01*
X-920D01*
Y252D01*
D02*
G37*
G36*
X1796Y510D02*
X1648D01*
Y401D01*
X1796D01*
Y510D01*
D02*
G37*
G36*
X1809Y-868D02*
X1700D01*
Y-1016D01*
X1809D01*
Y-868D01*
D02*
G37*
%LPD*%
D10*
X798Y-1460D02*
D03*
X522D02*
D03*
X198D02*
D03*
X-78D02*
D03*
X1322Y560D02*
D03*
X1598D02*
D03*
X-1248Y2190D02*
D03*
X-972D02*
D03*
X717Y-919D02*
D03*
X441D02*
D03*
X-1324Y-367D02*
D03*
X-1048D02*
D03*
X-1394Y93D02*
D03*
X-1118Y93D02*
D03*
X-1518Y640D02*
D03*
X-1242D02*
D03*
D11*
X-1405Y1866D02*
D03*
Y1414D02*
D03*
X-835D02*
D03*
Y1866D02*
D03*
D12*
X1194Y920D02*
D03*
X1726D02*
D03*
D13*
X730Y924D02*
D03*
Y1456D02*
D03*
D14*
X1071Y1860D02*
D03*
X697D02*
D03*
D15*
X1625Y-50D02*
D03*
X1055D02*
D03*
D16*
X320Y1443D02*
D03*
Y1837D02*
D03*
D17*
X1650Y-818D02*
D03*
Y-542D02*
D03*
X1370Y-818D02*
D03*
Y-542D02*
D03*
X-1750Y1768D02*
D03*
Y1492D02*
D03*
X-400Y1032D02*
D03*
Y1308D02*
D03*
D18*
X-472Y551D02*
D03*
X-315D02*
D03*
X-157D02*
D03*
X0D02*
D03*
X157D02*
D03*
X315D02*
D03*
X472D02*
D03*
X-315Y394D02*
D03*
X-157D02*
D03*
X0D02*
D03*
X157D02*
D03*
X315D02*
D03*
X472D02*
D03*
X-315Y236D02*
D03*
X-157D02*
D03*
X0D02*
D03*
X157D02*
D03*
X315D02*
D03*
X472D02*
D03*
X-472Y79D02*
D03*
X-315D02*
D03*
X-157D02*
D03*
X315D02*
D03*
X472D02*
D03*
X-472Y-79D02*
D03*
X-315D02*
D03*
X-157D02*
D03*
X315D02*
D03*
X472D02*
D03*
X-472Y-236D02*
D03*
X-315D02*
D03*
X-157D02*
D03*
X0D02*
D03*
X157D02*
D03*
X315D02*
D03*
X472D02*
D03*
X-472Y-394D02*
D03*
X-315D02*
D03*
X-157D02*
D03*
X0D02*
D03*
X157D02*
D03*
X315D02*
D03*
X472D02*
D03*
X-472Y-551D02*
D03*
X-315D02*
D03*
X-157D02*
D03*
X0D02*
D03*
X157D02*
D03*
X315D02*
D03*
X472D02*
D03*
D19*
X-315Y79D02*
X-157Y-79D01*
X-315Y79D02*
X-315D01*
D20*
X739Y-1401D02*
Y-1169D01*
Y-1401D02*
X798Y-1460D01*
X990Y-1652D01*
Y-1830D02*
Y-1652D01*
X-270D02*
X-78Y-1460D01*
X-270Y-1830D02*
Y-1652D01*
X-1760Y2160D02*
X-1466Y1866D01*
X-1405D01*
X-1248Y2024D02*
Y2190D01*
X-1405Y1866D02*
X-1248Y2024D01*
X-1750Y1768D02*
X-1504D01*
X-1405Y1866D01*
X-1058Y93D02*
X-886D01*
X-836Y143D01*
X980Y600D02*
X1194Y814D01*
Y920D01*
X521Y600D02*
X980D01*
X472Y551D02*
X521Y600D01*
X-835Y1145D02*
X-760Y1070D01*
X-690D01*
X-835Y1145D02*
Y1414D01*
X-400Y1308D02*
Y1480D01*
X-460Y1540D02*
X-400Y1480D01*
X-460Y1570D02*
Y1690D01*
Y1540D02*
Y1570D01*
D21*
X532Y-1792D02*
X610Y-1870D01*
X532Y-1792D02*
Y-1470D01*
X110Y-1870D02*
X198Y-1782D01*
Y-1460D01*
X1560Y-2040D02*
Y-1590D01*
X1440Y-2040D02*
Y-1640D01*
X1320Y-2040D02*
Y-1689D01*
X-480Y-1570D02*
X210Y-880D01*
X-480Y-2040D02*
Y-1570D01*
X210Y-880D02*
Y-706D01*
X-600Y-1520D02*
X90Y-830D01*
X-32Y-782D02*
Y-602D01*
X-720Y-1470D02*
X-32Y-782D01*
X-840Y-1421D02*
X-157Y-738D01*
X-960Y-1371D02*
X-315Y-726D01*
X-472Y-714D02*
Y-551D01*
X-1080Y-1321D02*
X-472Y-714D01*
X-601Y-672D02*
Y-496D01*
X-1200Y-1271D02*
X-601Y-672D01*
X-721Y-622D02*
Y-441D01*
X-1320Y-1222D02*
X-721Y-622D01*
X-841Y-573D02*
Y-391D01*
X-1440Y-1172D02*
X-841Y-573D01*
X-32Y-602D02*
X0Y-570D01*
X-600Y-2040D02*
Y-1520D01*
X-840Y-2040D02*
Y-1421D01*
X-960Y-2040D02*
Y-1371D01*
X-1080Y-2040D02*
Y-1321D01*
X-1200Y-2040D02*
Y-1271D01*
X-1320Y-2040D02*
Y-1222D01*
X-1440Y-2040D02*
Y-1172D01*
X-720Y-2040D02*
Y-1470D01*
X0Y-570D02*
Y-551D01*
X1069Y-1268D02*
X1440Y-1640D01*
X949Y-1318D02*
X1320Y-1689D01*
X1189Y-1219D02*
X1560Y-1590D01*
X315Y-601D02*
Y-551D01*
X210Y-706D02*
X315Y-601D01*
X90Y-830D02*
Y-657D01*
X-157Y-738D02*
Y-551D01*
X90Y-657D02*
X157Y-589D01*
X-315Y-726D02*
Y-551D01*
X-841Y-391D02*
X-529Y-79D01*
X-721Y-441D02*
X-516Y-236D01*
X-601Y-496D02*
X-498Y-394D01*
X-472D01*
X157Y-589D02*
Y-551D01*
X1189Y-1219D02*
Y-738D01*
X-351Y430D02*
X-315Y394D01*
X-776Y333D02*
X-654Y210D01*
X1069Y-1268D02*
Y-788D01*
X949Y-1318D02*
Y-838D01*
X472Y-79D02*
X529D01*
X1189Y-738D01*
X472Y-394D02*
X505D01*
X949Y-838D01*
X-315Y551D02*
Y722D01*
X-380Y787D02*
X-315Y722D01*
X472Y-236D02*
X517D01*
X1069Y-788D01*
X-520Y430D02*
X-351D01*
X-157Y551D02*
Y734D01*
X0Y551D02*
Y746D01*
X157Y551D02*
Y759D01*
X1150Y560D02*
X1322D01*
X1030Y440D02*
X1150Y560D01*
X-130Y876D02*
X0Y746D01*
X-250Y827D02*
X-157Y734D01*
X-10Y926D02*
Y2260D01*
Y926D02*
X157Y759D01*
X-130Y876D02*
Y2260D01*
X-250Y827D02*
Y2260D01*
X-380Y787D02*
Y1032D01*
X-894Y1866D02*
X-835D01*
X-1120Y1640D02*
X-894Y1866D01*
X-1750Y1492D02*
X-1484D01*
X-1405Y1414D01*
X-472Y551D02*
Y552D01*
X-899Y639D02*
X-580Y320D01*
X-399D01*
X-1241Y639D02*
X-1119D01*
X-835Y1866D02*
Y2072D01*
X-972Y2210D02*
X-835Y2072D01*
X550Y394D02*
X596Y440D01*
X472Y394D02*
X550D01*
X596Y440D02*
X1030D01*
X472Y236D02*
X596D01*
X680Y320D01*
X1310D02*
X1625Y5D01*
Y-50D02*
Y5D01*
X680Y320D02*
X1310D01*
X472Y79D02*
X926D01*
X1055Y-50D01*
X1370Y-542D02*
Y-365D01*
X1055Y-50D02*
X1370Y-365D01*
X1650Y-542D02*
Y-75D01*
X1625Y-50D02*
X1650Y-75D01*
X-1230Y639D02*
X-899D01*
X-446Y210D02*
X-315Y79D01*
X-654Y210D02*
X-446D01*
X-516Y-236D02*
X-472D01*
X-529Y-79D02*
X-472D01*
X-399Y320D02*
X-315Y236D01*
X-1405Y1315D02*
Y1414D01*
Y1315D02*
X-520Y430D01*
X-1120Y1200D02*
X-472Y552D01*
X-1120Y1200D02*
Y1640D01*
D22*
X30Y-79D02*
X109Y0D01*
X-157Y-79D02*
X30D01*
X0Y109D02*
X109Y0D01*
X0Y109D02*
Y236D01*
X109Y0D02*
X157Y49D01*
Y236D01*
X109Y0D02*
X157Y-49D01*
Y-236D02*
Y-49D01*
X1071Y1798D02*
Y1861D01*
X730Y1457D02*
X1071Y1798D01*
X-560Y79D02*
X-472D01*
X-988Y-350D02*
X-560Y79D01*
X310Y1860D02*
X697D01*
X315Y551D02*
Y785D01*
X-1394Y34D02*
Y93D01*
Y34D02*
X-1048Y-312D01*
Y-367D02*
Y-312D01*
X122Y978D02*
X315Y785D01*
X122Y978D02*
Y1672D01*
X310Y1860D01*
X472Y-1135D02*
Y-551D01*
X1150Y964D02*
Y1280D01*
Y964D02*
X1194Y920D01*
X1150Y1280D02*
X2160D01*
X460Y860D02*
X524Y924D01*
X730D01*
X439Y-1169D02*
X472Y-1135D01*
D23*
X-1872Y-367D02*
X-1374D01*
D24*
X-1896Y-367D02*
D03*
D25*
X110Y-1870D02*
D03*
X610D02*
D03*
D26*
X315Y-394D02*
D03*
X157D02*
D03*
Y394D02*
D03*
X315Y-236D02*
D03*
Y394D02*
D03*
X0D02*
D03*
X315Y-79D02*
D03*
X460Y860D02*
D03*
X315Y79D02*
D03*
Y236D02*
D03*
X0Y-236D02*
D03*
X-157Y-394D02*
D03*
X0D02*
D03*
X-157Y-236D02*
D03*
X-335Y-79D02*
D03*
X-315Y-394D02*
D03*
X-157Y394D02*
D03*
X-316Y-236D02*
D03*
X-157Y98D02*
D03*
D27*
X2060Y-1930D02*
D03*
X-1980D02*
D03*
X-270Y-1830D02*
D03*
X990D02*
D03*
X-1980Y-690D02*
D03*
X2050Y-1150D02*
D03*
X1420D02*
D03*
X2060Y2150D02*
D03*
X370Y2160D02*
D03*
X1990Y260D02*
D03*
X-1819Y331D02*
D03*
X-1980Y-1150D02*
D03*
X2060Y1520D02*
D03*
X-1990Y1250D02*
D03*
X2080Y911D02*
D03*
X739Y-1169D02*
D03*
X-986Y353D02*
D03*
X-1376Y373D02*
D03*
X-1976Y-47D02*
D03*
X-690Y1070D02*
D03*
X370Y1090D02*
D03*
X-1760Y2160D02*
D03*
X1150Y1280D02*
D03*
X439Y-1169D02*
D03*
X-460Y1690D02*
D03*
D28*
X109Y-59D02*
D03*
M02*
