G04 Layer_Physical_Order=1*
G04 Layer_Color=255*
%FSLAX24Y24*%
%MOIN*%
G70*
G01*
G75*
%ADD10R,0.0374X0.0335*%
%ADD11R,0.0295X0.0315*%
%ADD12R,0.0295X0.0551*%
%ADD13R,0.0197X0.0236*%
%ADD14R,0.0118X0.0197*%
%ADD15R,0.0197X0.0118*%
%ADD16C,0.0076*%
%ADD17C,0.0050*%
%ADD18C,0.0080*%
%ADD19C,0.0100*%
%ADD20C,0.0060*%
%ADD21C,0.0300*%
%ADD22R,0.0407X0.0300*%
%ADD23C,0.0240*%
%ADD24C,0.0118*%
%ADD25C,0.0210*%
G36*
X-360Y2260D02*
Y1506D01*
X-548D01*
Y1681D01*
X-568D01*
Y2114D01*
X-733D01*
X-736Y2122D01*
X-745Y2137D01*
X-757Y2150D01*
X-794Y2188D01*
Y2272D01*
X-371D01*
X-360Y2260D01*
D02*
G37*
G36*
X2182Y1449D02*
X2160Y1400D01*
X1310D01*
X1309Y1402D01*
X1292Y1422D01*
X1272Y1439D01*
X1250Y1454D01*
X1227Y1465D01*
X1202Y1474D01*
X1176Y1479D01*
X1150Y1480D01*
X1124Y1479D01*
X1098Y1474D01*
X1073Y1465D01*
X1050Y1454D01*
X1028Y1439D01*
X1008Y1422D01*
X991Y1402D01*
X976Y1380D01*
X965Y1357D01*
X956Y1332D01*
X951Y1306D01*
X950Y1280D01*
X951Y1254D01*
X956Y1228D01*
X964Y1206D01*
X967Y1157D01*
X967Y1157D01*
X967Y1157D01*
Y771D01*
X926Y730D01*
X538D01*
X530Y738D01*
Y845D01*
X588D01*
Y1219D01*
X608D01*
Y1387D01*
X212D01*
Y1219D01*
X232D01*
Y911D01*
X182Y891D01*
X100Y972D01*
Y2260D01*
X111Y2272D01*
X2182D01*
Y1449D01*
D02*
G37*
G36*
X-1446Y2240D02*
X-1248D01*
Y2140D01*
X-1446D01*
Y2134D01*
X-1692D01*
Y1966D01*
X-1700D01*
Y1768D01*
X-1750D01*
Y1718D01*
X-1909D01*
Y1569D01*
X-1889D01*
Y1314D01*
X-1672D01*
Y1166D01*
X-1412D01*
X-1075Y829D01*
X-1096Y779D01*
X-1319D01*
Y799D01*
X-1468D01*
Y640D01*
Y481D01*
X-1319D01*
Y501D01*
X-1064D01*
Y528D01*
X-944D01*
X-692Y276D01*
X-676Y233D01*
X-870Y39D01*
X-879Y43D01*
X-1118D01*
Y93D01*
X-1168D01*
Y252D01*
X-1317D01*
Y233D01*
X-1476D01*
Y232D01*
X-1572D01*
Y-46D01*
X-1483D01*
X-1479Y-51D01*
X-1476Y-54D01*
Y-167D01*
X-1693D01*
X-1693Y-167D01*
X-2100D01*
Y2272D01*
X-1446D01*
Y2240D01*
D02*
G37*
G36*
X-559Y1109D02*
X-539D01*
Y854D01*
X-490D01*
Y797D01*
X-514Y782D01*
X-540Y776D01*
X-864Y1100D01*
X-845Y1146D01*
X-559D01*
Y1109D01*
D02*
G37*
G36*
X95Y113D02*
X115Y104D01*
X136Y99D01*
X175Y79D01*
X177Y57D01*
X182Y36D01*
X191Y15D01*
X200Y0D01*
X191Y-15D01*
X182Y-36D01*
X177Y-57D01*
X175Y-79D01*
X136Y-99D01*
X115Y-104D01*
X95Y-113D01*
X80Y-122D01*
X63Y-112D01*
X43Y-104D01*
X22Y-98D01*
X0Y-97D01*
X-21Y-57D01*
X-26Y-36D01*
X-34Y-16D01*
X-45Y3D01*
X-51Y9D01*
X-45Y16D01*
X-33Y35D01*
X-25Y55D01*
X-20Y77D01*
X0Y98D01*
X22Y99D01*
X43Y104D01*
X63Y113D01*
X79Y123D01*
X95Y113D01*
D02*
G37*
G36*
X2182Y1111D02*
Y-1272D01*
X1310D01*
X1299Y-1260D01*
Y-1016D01*
X1320D01*
Y-818D01*
X1420D01*
Y-1016D01*
X1600D01*
Y-818D01*
X1650D01*
Y-768D01*
X1809D01*
Y-619D01*
X1789D01*
Y-406D01*
X1853D01*
Y306D01*
X1480D01*
X1435Y351D01*
X1456Y401D01*
X1548D01*
Y560D01*
X1598D01*
Y610D01*
X1796D01*
Y663D01*
X1973D01*
Y870D01*
X1726D01*
Y970D01*
X1973D01*
Y1160D01*
X2160D01*
X2182Y1111D01*
D02*
G37*
G36*
X767Y-1078D02*
X838D01*
Y-1259D01*
X827Y-1272D01*
X667D01*
X660Y-1267D01*
X632Y-1222D01*
X632Y-1221D01*
X637Y-1195D01*
X639Y-1169D01*
X637Y-1143D01*
X635Y-1128D01*
X650Y-1099D01*
X667Y-1083D01*
Y-919D01*
X767D01*
Y-1078D01*
D02*
G37*
G36*
X-950Y-1260D02*
X-961Y-1272D01*
X-2100D01*
Y-568D01*
X-1693D01*
X-1693Y-568D01*
X-1374D01*
X-1367Y-567D01*
X-950D01*
Y-1260D01*
D02*
G37*
%LPC*%
G36*
X608Y1655D02*
X460D01*
Y1487D01*
X608D01*
Y1655D01*
D02*
G37*
G36*
X360D02*
X212D01*
Y1487D01*
X360D01*
Y1655D01*
D02*
G37*
G36*
X-1800Y1966D02*
X-1909D01*
Y1818D01*
X-1800D01*
Y1966D01*
D02*
G37*
G36*
X-1568Y799D02*
X-1716D01*
Y690D01*
X-1568D01*
Y799D01*
D02*
G37*
G36*
Y590D02*
X-1716D01*
Y481D01*
X-1568D01*
Y590D01*
D02*
G37*
G36*
X-920Y252D02*
X-1068D01*
Y143D01*
X-920D01*
Y252D01*
D02*
G37*
G36*
X1796Y510D02*
X1648D01*
Y401D01*
X1796D01*
Y510D01*
D02*
G37*
G36*
X1809Y-868D02*
X1700D01*
Y-1016D01*
X1809D01*
Y-868D01*
D02*
G37*
%LPD*%
D10*
X-1405Y1866D02*
D03*
Y1414D02*
D03*
X-835D02*
D03*
Y1866D02*
D03*
D11*
X1194Y920D02*
D03*
X1726D02*
D03*
D12*
X1625Y-50D02*
D03*
X1055D02*
D03*
D13*
X410Y1437D02*
D03*
Y1043D02*
D03*
D14*
X1650Y-818D02*
D03*
Y-542D02*
D03*
X1370Y-818D02*
D03*
Y-542D02*
D03*
X-1750Y1768D02*
D03*
Y1492D02*
D03*
X-400Y1032D02*
D03*
Y1308D02*
D03*
D15*
X1322Y560D02*
D03*
X1598D02*
D03*
X-1248Y2190D02*
D03*
X-972D02*
D03*
X717Y-919D02*
D03*
X441D02*
D03*
X-1324Y-367D02*
D03*
X-1048D02*
D03*
X-1394Y93D02*
D03*
X-1118Y93D02*
D03*
X-1518Y640D02*
D03*
X-1242D02*
D03*
D16*
X-472Y551D02*
D03*
X-315D02*
D03*
X-157D02*
D03*
X0D02*
D03*
X157D02*
D03*
X315D02*
D03*
X472D02*
D03*
X-315Y394D02*
D03*
X-157D02*
D03*
X0D02*
D03*
X157D02*
D03*
X315D02*
D03*
X472D02*
D03*
X-315Y236D02*
D03*
X-157D02*
D03*
X0D02*
D03*
X157D02*
D03*
X315D02*
D03*
X472D02*
D03*
X-472Y79D02*
D03*
X-315D02*
D03*
X-157D02*
D03*
X315D02*
D03*
X472D02*
D03*
X-472Y-79D02*
D03*
X-315D02*
D03*
X-157D02*
D03*
X315D02*
D03*
X472D02*
D03*
X-472Y-236D02*
D03*
X-315D02*
D03*
X-157D02*
D03*
X0D02*
D03*
X157D02*
D03*
X315D02*
D03*
X472D02*
D03*
X-472Y-394D02*
D03*
X-315D02*
D03*
X-157D02*
D03*
X0D02*
D03*
X157D02*
D03*
X315D02*
D03*
X472D02*
D03*
X-472Y-551D02*
D03*
X-315D02*
D03*
X-157D02*
D03*
X0D02*
D03*
X157D02*
D03*
X315D02*
D03*
X472D02*
D03*
D17*
X-315Y79D02*
X-157Y-79D01*
X-315Y79D02*
X-315D01*
D18*
X410Y738D02*
Y1043D01*
X315Y643D02*
X410Y738D01*
X315Y551D02*
Y643D01*
X109Y0D02*
X157Y49D01*
Y236D01*
X109Y0D02*
X157Y-49D01*
Y-236D02*
Y-49D01*
X30Y-79D02*
X109Y0D01*
X-157Y-79D02*
X30D01*
X-560Y79D02*
X-472D01*
X-988Y-350D02*
X-560Y79D01*
X-1394Y34D02*
Y93D01*
Y34D02*
X-1048Y-312D01*
Y-367D02*
Y-312D01*
X472Y-1135D02*
Y-551D01*
X1150Y964D02*
Y1280D01*
Y964D02*
X1194Y920D01*
X1150Y1280D02*
X2160D01*
X439Y-1169D02*
X472Y-1135D01*
X0Y109D02*
Y236D01*
Y109D02*
X109Y0D01*
D19*
X-1760Y2160D02*
X-1466Y1866D01*
X-1405D01*
X-1248Y2024D02*
Y2190D01*
X-1405Y1866D02*
X-1248Y2024D01*
X-1750Y1768D02*
X-1504D01*
X-1405Y1866D01*
X-1058Y93D02*
X-886D01*
X-836Y143D01*
X980Y600D02*
X1194Y814D01*
Y920D01*
X521Y600D02*
X980D01*
X472Y551D02*
X521Y600D01*
X-835Y1145D02*
X-760Y1070D01*
X-690D01*
X-835Y1145D02*
Y1414D01*
X-400Y1308D02*
Y1480D01*
X-460Y1540D02*
X-400Y1480D01*
X-460Y1570D02*
Y1690D01*
Y1540D02*
Y1570D01*
D20*
X1189Y-1260D02*
Y-738D01*
X-351Y430D02*
X-315Y394D01*
X-776Y333D02*
X-654Y210D01*
X1069Y-1260D02*
Y-788D01*
X949Y-1259D02*
Y-838D01*
X315Y-627D02*
Y-551D01*
X472Y-79D02*
X529D01*
X1189Y-738D01*
X472Y-394D02*
X505D01*
X949Y-838D01*
X157Y-589D02*
Y-551D01*
X-315Y551D02*
Y722D01*
X-380Y787D02*
X-315Y722D01*
X472Y-236D02*
X517D01*
X1069Y-788D01*
X-520Y430D02*
X-351D01*
X-157Y551D02*
Y734D01*
X0Y551D02*
Y746D01*
X157Y551D02*
Y759D01*
X1150Y560D02*
X1322D01*
X1030Y440D02*
X1150Y560D01*
X-130Y876D02*
X0Y746D01*
X-250Y827D02*
X-157Y734D01*
X-10Y926D02*
Y2260D01*
Y926D02*
X157Y759D01*
X-130Y876D02*
Y2260D01*
X-250Y827D02*
Y2260D01*
X-380Y787D02*
Y1032D01*
X-894Y1866D02*
X-835D01*
X-1120Y1640D02*
X-894Y1866D01*
X-1750Y1492D02*
X-1484D01*
X-1405Y1414D01*
X-472Y551D02*
Y552D01*
X-899Y639D02*
X-580Y320D01*
X-399D01*
X-1241Y639D02*
X-1119D01*
X-835Y1866D02*
Y2072D01*
X-972Y2210D02*
X-835Y2072D01*
X550Y394D02*
X596Y440D01*
X472Y394D02*
X550D01*
X596Y440D02*
X1030D01*
X472Y236D02*
X596D01*
X680Y320D01*
X1310D02*
X1625Y5D01*
Y-50D02*
Y5D01*
X680Y320D02*
X1310D01*
X472Y79D02*
X926D01*
X1055Y-50D01*
X1370Y-542D02*
Y-365D01*
X1055Y-50D02*
X1370Y-365D01*
X1650Y-542D02*
Y-75D01*
X1625Y-50D02*
X1650Y-75D01*
X-1230Y639D02*
X-899D01*
X-446Y210D02*
X-315Y79D01*
X-654Y210D02*
X-446D01*
X-840Y-1260D02*
Y-390D01*
X-720Y-1260D02*
Y-440D01*
X-472Y-1260D02*
Y-551D01*
X-600Y-1260D02*
Y-496D01*
X-498Y-394D01*
X-472D01*
X210Y-1260D02*
Y-732D01*
X315Y-627D01*
X90Y-1260D02*
Y-657D01*
X157Y-589D01*
X0Y-570D02*
Y-551D01*
X-32Y-1260D02*
Y-602D01*
X0Y-570D01*
X-157Y-1260D02*
Y-551D01*
X-315Y-1260D02*
Y-551D01*
X-720Y-440D02*
X-516Y-236D01*
X-472D01*
X-840Y-390D02*
X-529Y-79D01*
X-472D01*
X-399Y320D02*
X-315Y236D01*
X-1405Y1315D02*
Y1414D01*
Y1315D02*
X-520Y430D01*
X-1120Y1200D02*
X-472Y552D01*
X-1120Y1200D02*
Y1640D01*
D21*
X-1872Y-367D02*
X-1374D01*
D22*
X-1896Y-367D02*
D03*
D23*
X410Y1780D02*
D03*
X-1980Y-690D02*
D03*
X-1100Y-1150D02*
D03*
X2050D02*
D03*
X1420D02*
D03*
X2060Y2150D02*
D03*
X340D02*
D03*
X1990Y260D02*
D03*
X-1819Y331D02*
D03*
X-1980Y-1150D02*
D03*
X2060Y1520D02*
D03*
X-1990Y1250D02*
D03*
X2080Y911D02*
D03*
X739Y-1169D02*
D03*
X-986Y353D02*
D03*
X-1376Y373D02*
D03*
X-1976Y-47D02*
D03*
X-690Y1070D02*
D03*
X750Y860D02*
D03*
X-1760Y2160D02*
D03*
X1150Y1280D02*
D03*
X439Y-1169D02*
D03*
X-460Y1690D02*
D03*
D24*
X157Y-394D02*
D03*
X315D02*
D03*
X157Y394D02*
D03*
X315Y-236D02*
D03*
X0Y394D02*
D03*
X315Y-79D02*
D03*
Y79D02*
D03*
Y236D02*
D03*
X0Y-236D02*
D03*
X-157Y-394D02*
D03*
X0D02*
D03*
X-157Y-236D02*
D03*
X-335Y-79D02*
D03*
X-315Y-394D02*
D03*
X-157Y394D02*
D03*
X-316Y-236D02*
D03*
X-157Y98D02*
D03*
D25*
X109Y-59D02*
D03*
M02*
