G04 Layer_Color=8388736*
%FSLAX24Y24*%
%MOIN*%
G70*
G01*
G75*
%ADD31R,0.0257X0.0178*%
%ADD32R,0.0434X0.0395*%
%ADD33R,0.0355X0.0375*%
%ADD34R,0.0375X0.0355*%
%ADD35R,0.0316X0.0257*%
%ADD36R,0.0355X0.0611*%
%ADD37R,0.0257X0.0296*%
%ADD38R,0.0178X0.0257*%
%ADD39C,0.0136*%
%ADD40C,0.0454*%
D31*
X798Y-1460D02*
D03*
X522D02*
D03*
X198D02*
D03*
X-78D02*
D03*
X1322Y560D02*
D03*
X1598D02*
D03*
X-1248Y2190D02*
D03*
X-972D02*
D03*
X717Y-919D02*
D03*
X441D02*
D03*
X-1324Y-367D02*
D03*
X-1048D02*
D03*
X-1394Y93D02*
D03*
X-1118Y93D02*
D03*
X-1518Y640D02*
D03*
X-1242D02*
D03*
D32*
X-1405Y1866D02*
D03*
Y1414D02*
D03*
X-835D02*
D03*
Y1866D02*
D03*
D33*
X1194Y920D02*
D03*
X1726D02*
D03*
D34*
X730Y924D02*
D03*
Y1456D02*
D03*
D35*
X1071Y1860D02*
D03*
X697D02*
D03*
D36*
X1625Y-50D02*
D03*
X1055D02*
D03*
D37*
X320Y1443D02*
D03*
Y1837D02*
D03*
D38*
X1650Y-818D02*
D03*
Y-542D02*
D03*
X1370Y-818D02*
D03*
Y-542D02*
D03*
X-1750Y1768D02*
D03*
Y1492D02*
D03*
X-400Y1032D02*
D03*
Y1308D02*
D03*
D39*
X-472Y551D02*
D03*
X-315D02*
D03*
X-157D02*
D03*
X0D02*
D03*
X157D02*
D03*
X315D02*
D03*
X472D02*
D03*
X-315Y394D02*
D03*
X-157D02*
D03*
X0D02*
D03*
X157D02*
D03*
X315D02*
D03*
X472D02*
D03*
X-315Y236D02*
D03*
X-157D02*
D03*
X0D02*
D03*
X157D02*
D03*
X315D02*
D03*
X472D02*
D03*
X-472Y79D02*
D03*
X-315D02*
D03*
X-157D02*
D03*
X315D02*
D03*
X472D02*
D03*
X-472Y-79D02*
D03*
X-315D02*
D03*
X-157D02*
D03*
X315D02*
D03*
X472D02*
D03*
X-472Y-236D02*
D03*
X-315D02*
D03*
X-157D02*
D03*
X0D02*
D03*
X157D02*
D03*
X315D02*
D03*
X472D02*
D03*
X-472Y-394D02*
D03*
X-315D02*
D03*
X-157D02*
D03*
X0D02*
D03*
X157D02*
D03*
X315D02*
D03*
X472D02*
D03*
X-472Y-551D02*
D03*
X-315D02*
D03*
X-157D02*
D03*
X0D02*
D03*
X157D02*
D03*
X315D02*
D03*
X472D02*
D03*
D40*
X110Y-1870D02*
D03*
X610D02*
D03*
M02*
