G04 Layer_Physical_Order=2*
G04 Layer_Color=36540*
%FSLAX24Y24*%
%MOIN*%
G70*
G01*
G75*
%ADD19C,0.0050*%
%ADD21C,0.0060*%
%ADD22C,0.0080*%
%ADD25C,0.0394*%
%ADD26C,0.0118*%
%ADD27C,0.0240*%
%ADD28C,0.0210*%
G36*
X-360Y2260D02*
Y678D01*
X-385Y654D01*
X-396Y641D01*
X-405Y626D01*
X-411Y610D01*
X-416Y593D01*
X-417Y576D01*
Y327D01*
X-416Y315D01*
X-419Y305D01*
X-444Y272D01*
X-454Y265D01*
X-505D01*
X-510Y270D01*
Y491D01*
X-2100Y491D01*
Y2272D01*
X-371D01*
X-360Y2260D01*
D02*
G37*
G36*
X176Y234D02*
X177Y214D01*
X182Y193D01*
X191Y173D01*
X200Y157D01*
X191Y142D01*
X182Y122D01*
X177Y101D01*
X175Y79D01*
X177Y57D01*
X182Y36D01*
X191Y15D01*
X200Y0D01*
X191Y-15D01*
X182Y-36D01*
X177Y-57D01*
X175Y-79D01*
X177Y-101D01*
X182Y-122D01*
X191Y-142D01*
X192Y-145D01*
X183Y-171D01*
X163Y-181D01*
X126Y-178D01*
X124Y-173D01*
X113Y-154D01*
X99Y-138D01*
X82Y-123D01*
X63Y-112D01*
X43Y-104D01*
X30Y-100D01*
X15Y-86D01*
Y-54D01*
X74Y6D01*
X85Y18D01*
X94Y32D01*
X100Y47D01*
X104Y64D01*
X105Y80D01*
Y180D01*
X104Y196D01*
X100Y213D01*
X99Y215D01*
X99Y215D01*
X122Y247D01*
X133Y254D01*
X176Y234D01*
D02*
G37*
G36*
X840Y-676D02*
Y-1268D01*
X840Y-1268D01*
X665D01*
X633Y-1221D01*
X633Y-1218D01*
X637Y-1195D01*
X639Y-1169D01*
X637Y-1143D01*
X632Y-1117D01*
X624Y-1092D01*
X612Y-1069D01*
X598Y-1047D01*
X580Y-1027D01*
X561Y-1010D01*
X539Y-995D01*
X515Y-984D01*
X491Y-975D01*
X465Y-970D01*
X439Y-968D01*
X413Y-970D01*
X387Y-975D01*
X362Y-984D01*
X352Y-989D01*
X316Y-973D01*
X302Y-960D01*
Y-824D01*
X547Y-578D01*
X558Y-565D01*
X568Y-550D01*
X574Y-534D01*
X578Y-517D01*
X580Y-500D01*
Y-488D01*
X579Y-486D01*
X590Y-476D01*
X625Y-461D01*
X840Y-676D01*
D02*
G37*
G36*
X2182Y-2050D02*
X1679D01*
X1670Y-2040D01*
Y-1590D01*
X1669Y-1573D01*
X1665Y-1556D01*
X1658Y-1540D01*
X1649Y-1525D01*
X1638Y-1512D01*
X1300Y-1174D01*
Y-530D01*
X1299Y-513D01*
X1295Y-496D01*
X1288Y-480D01*
X1279Y-465D01*
X1268Y-452D01*
X502Y314D01*
X489Y325D01*
X474Y335D01*
X458Y341D01*
X453Y372D01*
X454Y394D01*
X453Y416D01*
X448Y437D01*
X439Y457D01*
X435Y463D01*
Y665D01*
X496Y726D01*
X503Y727D01*
X523Y736D01*
X542Y747D01*
X559Y761D01*
X573Y778D01*
X584Y797D01*
X593Y817D01*
X598Y838D01*
X599Y860D01*
X598Y882D01*
X593Y903D01*
X584Y923D01*
X573Y942D01*
X559Y959D01*
X542Y973D01*
X523Y984D01*
X503Y993D01*
X482Y998D01*
X460Y999D01*
X438Y998D01*
X417Y993D01*
X397Y984D01*
X378Y973D01*
X361Y959D01*
X347Y942D01*
X336Y923D01*
X327Y903D01*
X326Y896D01*
X272Y842D01*
X222Y863D01*
Y2260D01*
X233Y2272D01*
X2182D01*
Y-2050D01*
D02*
G37*
G36*
X1090Y-1785D02*
Y-2040D01*
X1081Y-2050D01*
X883D01*
X875Y-2043D01*
X855Y-2000D01*
X860Y-1990D01*
X872Y-1962D01*
X880Y-1932D01*
X886Y-1901D01*
X887Y-1870D01*
X886Y-1839D01*
X880Y-1808D01*
X872Y-1778D01*
X860Y-1750D01*
X845Y-1722D01*
X827Y-1697D01*
X806Y-1674D01*
X783Y-1653D01*
X758Y-1635D01*
X730Y-1620D01*
X702Y-1608D01*
X672Y-1600D01*
X641Y-1594D01*
X610Y-1593D01*
X579Y-1594D01*
X555Y-1599D01*
X492Y-1535D01*
X511Y-1489D01*
X794D01*
X1090Y-1785D01*
D02*
G37*
G36*
X-159Y-1470D02*
Y-1671D01*
X-158Y-1689D01*
X-154Y-1705D01*
X-147Y-1721D01*
X-138Y-1736D01*
X-135Y-1740D01*
X-140Y-1750D01*
X-152Y-1778D01*
X-160Y-1808D01*
X-166Y-1839D01*
X-167Y-1870D01*
X-166Y-1901D01*
X-160Y-1932D01*
X-152Y-1962D01*
X-140Y-1990D01*
X-135Y-2000D01*
X-155Y-2043D01*
X-163Y-2050D01*
X-361D01*
X-370Y-2040D01*
Y-1615D01*
X-205Y-1451D01*
X-159Y-1470D01*
D02*
G37*
G36*
X-1000Y-914D02*
X-1279Y-1193D01*
X-1291Y-1206D01*
X-1300Y-1221D01*
X-1306Y-1237D01*
X-1310Y-1254D01*
X-1312Y-1271D01*
Y-2040D01*
X-1321Y-2050D01*
X-2100D01*
Y-609D01*
X-1000Y-609D01*
Y-914D01*
D02*
G37*
%LPC*%
G36*
X1150Y1480D02*
X1124Y1479D01*
X1098Y1474D01*
X1073Y1465D01*
X1050Y1454D01*
X1028Y1439D01*
X1008Y1422D01*
X991Y1402D01*
X976Y1380D01*
X965Y1357D01*
X956Y1332D01*
X951Y1306D01*
X950Y1280D01*
X951Y1254D01*
X956Y1228D01*
X965Y1203D01*
X976Y1180D01*
X991Y1158D01*
X1008Y1138D01*
X1028Y1121D01*
X1050Y1106D01*
X1073Y1095D01*
X1098Y1086D01*
X1124Y1081D01*
X1150Y1080D01*
X1176Y1081D01*
X1202Y1086D01*
X1227Y1095D01*
X1250Y1106D01*
X1272Y1121D01*
X1292Y1138D01*
X1309Y1158D01*
X1324Y1180D01*
X1335Y1203D01*
X1344Y1228D01*
X1349Y1254D01*
X1350Y1280D01*
X1349Y1306D01*
X1344Y1332D01*
X1335Y1357D01*
X1324Y1380D01*
X1309Y1402D01*
X1292Y1422D01*
X1272Y1439D01*
X1250Y1454D01*
X1227Y1465D01*
X1202Y1474D01*
X1176Y1479D01*
X1150Y1480D01*
D02*
G37*
%LPD*%
D19*
X-90Y-129D02*
X0Y-219D01*
X-90Y-129D02*
Y-10D01*
X-200Y-178D02*
Y-39D01*
X-289Y50D02*
X-200Y-39D01*
X-440Y50D02*
X-289D01*
X-250Y270D02*
X-90D01*
X-200Y-178D02*
X-167Y-211D01*
X0Y-236D02*
Y-219D01*
X-90Y-10D02*
X0Y80D01*
Y180D01*
X-90Y270D02*
X0Y180D01*
X-470Y20D02*
X-440Y50D01*
D21*
X-1201Y-2040D02*
Y-1271D01*
X-1081Y-2040D02*
Y-1321D01*
X-960Y-2040D02*
Y-1371D01*
X-840Y-2040D02*
Y-1421D01*
X-720Y-2040D02*
Y-1470D01*
X-600Y-2040D02*
Y-1520D01*
X-480Y-2040D02*
Y-1570D01*
X-1201Y-1271D02*
X-890Y-960D01*
X-1081Y-1321D02*
X-770Y-1009D01*
X-960Y-1371D02*
X-649Y-1060D01*
X-840Y-1421D02*
X-529Y-1109D01*
X-720Y-1470D02*
X-409Y-1159D01*
X-600Y-1520D02*
X-289Y-1209D01*
X-480Y-1570D02*
X-169Y-1258D01*
X1560Y-2040D02*
Y-1590D01*
X1440Y-2040D02*
Y-1640D01*
X1320Y-2040D02*
Y-1689D01*
X1200Y-2040D02*
Y-1739D01*
X191Y-1221D02*
X349Y-1379D01*
X71Y-728D02*
X315Y-485D01*
Y-394D01*
X191Y-778D02*
X469Y-500D01*
Y-488D01*
X191Y-1221D02*
Y-778D01*
X71Y-1271D02*
Y-728D01*
Y-1271D02*
X610Y-1810D01*
X-49Y-1671D02*
Y-679D01*
Y-1671D02*
X110Y-1830D01*
X610D02*
Y-1810D01*
X950Y-1319D02*
Y-630D01*
Y-1319D02*
X1320Y-1689D01*
X1070Y-1270D02*
Y-580D01*
Y-1270D02*
X1440Y-1640D01*
X1190Y-1220D02*
Y-530D01*
Y-1220D02*
X1560Y-1590D01*
X349Y-1379D02*
X840D01*
X1200Y-1739D01*
X-505Y155D02*
X-214D01*
X-307Y327D02*
X-250Y270D01*
X469Y-487D02*
Y-327D01*
X377Y-236D02*
X469Y-327D01*
X-157Y-447D02*
Y-394D01*
X0Y-460D02*
Y-394D01*
X157Y-473D02*
Y-394D01*
X315Y-236D02*
X377D01*
X399Y-79D02*
X950Y-630D01*
X-390Y-79D02*
X-315D01*
X315D02*
X399D01*
X315Y79D02*
X411D01*
X1070Y-580D01*
X-49Y-679D02*
X157Y-473D01*
X-409Y-1159D02*
Y-487D01*
X-289Y-579D02*
X-157Y-447D01*
X-169Y-1258D02*
Y-628D01*
X0Y-460D01*
X-289Y-1209D02*
Y-579D01*
X-409Y-487D02*
X-315Y-394D01*
X-649Y-1060D02*
Y-338D01*
X-529Y-1109D02*
Y-387D01*
X-377Y-236D01*
X-315D01*
X-649Y-338D02*
X-390Y-79D01*
X-890Y-960D02*
Y-230D01*
X315Y236D02*
X424D01*
X1190Y-530D01*
X-157Y394D02*
Y540D01*
X-307Y576D02*
X-250Y632D01*
Y2260D01*
X-157Y540D02*
X-130Y567D01*
Y2260D01*
X-770Y-1009D02*
Y-280D01*
X-480Y10D01*
X-890Y-230D02*
X-505Y155D01*
X-214D02*
X-157Y98D01*
X-307Y327D02*
Y576D01*
X157Y394D02*
Y513D01*
X112Y558D02*
X157Y513D01*
X-8Y402D02*
X0Y394D01*
X-8Y402D02*
Y2260D01*
X112Y558D02*
Y2260D01*
D22*
X315Y394D02*
Y715D01*
X460Y860D01*
D25*
X110Y-1870D02*
D03*
X610D02*
D03*
D26*
X315Y-394D02*
D03*
X157D02*
D03*
Y394D02*
D03*
X315Y-236D02*
D03*
Y394D02*
D03*
X0D02*
D03*
X315Y-79D02*
D03*
X460Y860D02*
D03*
X315Y79D02*
D03*
Y236D02*
D03*
X0Y-236D02*
D03*
X-157Y-394D02*
D03*
X0D02*
D03*
X-157Y-236D02*
D03*
X-335Y-79D02*
D03*
X-315Y-394D02*
D03*
X-157Y394D02*
D03*
X-316Y-236D02*
D03*
X-157Y98D02*
D03*
D27*
X2060Y-1930D02*
D03*
X-1980D02*
D03*
X-270Y-1830D02*
D03*
X990D02*
D03*
X-1980Y-690D02*
D03*
X2050Y-1150D02*
D03*
X1420D02*
D03*
X2060Y2150D02*
D03*
X370Y2160D02*
D03*
X1990Y260D02*
D03*
X-1980Y-1150D02*
D03*
X2060Y1520D02*
D03*
X-1990Y1250D02*
D03*
X2080Y911D02*
D03*
X739Y-1169D02*
D03*
X-1376Y373D02*
D03*
X-690Y1070D02*
D03*
X370Y1090D02*
D03*
X-1760Y2160D02*
D03*
X-460Y1690D02*
D03*
D28*
X109Y-59D02*
D03*
M02*
