G04 Layer_Color=8421504*
%FSLAX24Y24*%
%MOIN*%
G70*
G01*
G75*
%ADD10R,0.0197X0.0118*%
%ADD11R,0.0374X0.0335*%
%ADD12R,0.0295X0.0315*%
%ADD13R,0.0315X0.0295*%
%ADD14R,0.0256X0.0197*%
%ADD15R,0.0295X0.0551*%
%ADD16R,0.0197X0.0236*%
%ADD17R,0.0118X0.0197*%
%ADD18C,0.0076*%
D10*
X798Y-1460D02*
D03*
X522D02*
D03*
X198D02*
D03*
X-78D02*
D03*
X1322Y560D02*
D03*
X1598D02*
D03*
X-1248Y2190D02*
D03*
X-972D02*
D03*
X717Y-919D02*
D03*
X441D02*
D03*
X-1324Y-367D02*
D03*
X-1048D02*
D03*
X-1394Y93D02*
D03*
X-1118Y93D02*
D03*
X-1518Y640D02*
D03*
X-1242D02*
D03*
D11*
X-1405Y1866D02*
D03*
Y1414D02*
D03*
X-835D02*
D03*
Y1866D02*
D03*
D12*
X1194Y920D02*
D03*
X1726D02*
D03*
D13*
X730Y924D02*
D03*
Y1456D02*
D03*
D14*
X1071Y1860D02*
D03*
X697D02*
D03*
D15*
X1625Y-50D02*
D03*
X1055D02*
D03*
D16*
X320Y1443D02*
D03*
Y1837D02*
D03*
D17*
X1650Y-818D02*
D03*
Y-542D02*
D03*
X1370Y-818D02*
D03*
Y-542D02*
D03*
X-1750Y1768D02*
D03*
Y1492D02*
D03*
X-400Y1032D02*
D03*
Y1308D02*
D03*
D18*
X-472Y551D02*
D03*
X-315D02*
D03*
X-157D02*
D03*
X0D02*
D03*
X157D02*
D03*
X315D02*
D03*
X472D02*
D03*
X-315Y394D02*
D03*
X-157D02*
D03*
X0D02*
D03*
X157D02*
D03*
X315D02*
D03*
X472D02*
D03*
X-315Y236D02*
D03*
X-157D02*
D03*
X0D02*
D03*
X157D02*
D03*
X315D02*
D03*
X472D02*
D03*
X-472Y79D02*
D03*
X-315D02*
D03*
X-157D02*
D03*
X315D02*
D03*
X472D02*
D03*
X-472Y-79D02*
D03*
X-315D02*
D03*
X-157D02*
D03*
X315D02*
D03*
X472D02*
D03*
X-472Y-236D02*
D03*
X-315D02*
D03*
X-157D02*
D03*
X0D02*
D03*
X157D02*
D03*
X315D02*
D03*
X472D02*
D03*
X-472Y-394D02*
D03*
X-315D02*
D03*
X-157D02*
D03*
X0D02*
D03*
X157D02*
D03*
X315D02*
D03*
X472D02*
D03*
X-472Y-551D02*
D03*
X-315D02*
D03*
X-157D02*
D03*
X0D02*
D03*
X157D02*
D03*
X315D02*
D03*
X472D02*
D03*
M02*
