G04 Layer_Physical_Order=2*
G04 Layer_Color=16711680*
%FSLAX24Y24*%
%MOIN*%
G70*
G01*
G75*
%ADD23C,0.0150*%
%ADD24C,0.0100*%
%ADD27C,0.0240*%
%ADD28C,0.0260*%
G36*
X3247Y-2047D02*
X-698D01*
X-729Y-1997D01*
X-716Y-1930D01*
X-733Y-1844D01*
X-781Y-1771D01*
X-854Y-1723D01*
X-905Y-1713D01*
X-1281Y-1337D01*
Y-72D01*
X-1281Y-72D01*
X-1295Y-4D01*
X-1333Y54D01*
X-1920Y640D01*
Y1167D01*
X680D01*
X739Y1179D01*
X788Y1212D01*
X933Y1357D01*
X940Y1356D01*
X1026Y1373D01*
X1099Y1421D01*
X1147Y1494D01*
X1164Y1580D01*
X1147Y1666D01*
X1099Y1739D01*
X1026Y1787D01*
X940Y1804D01*
X854Y1787D01*
X781Y1739D01*
X733Y1666D01*
X716Y1580D01*
X717Y1573D01*
X617Y1473D01*
X-1879D01*
X-1891Y1533D01*
X-1940Y1606D01*
X-2013Y1655D01*
X-2098Y1672D01*
X-2184Y1655D01*
X-2257Y1606D01*
X-2306Y1533D01*
X-2323Y1448D01*
X-2306Y1362D01*
X-2277Y1319D01*
Y567D01*
X-2263Y498D01*
X-2225Y440D01*
X-1638Y-146D01*
Y-1411D01*
X-1624Y-1479D01*
X-1586Y-1537D01*
X-1157Y-1965D01*
X-1151Y-1997D01*
X-1182Y-2047D01*
X-3277D01*
Y3037D01*
X3247D01*
Y-2047D01*
D02*
G37*
D23*
X-1459Y-1411D02*
Y-72D01*
X-2098Y567D02*
X-1459Y-72D01*
X-2098Y567D02*
Y1448D01*
X-1459Y-1411D02*
X-940Y-1930D01*
D24*
X680Y1320D02*
X940Y1580D01*
X-1971Y1320D02*
X680D01*
X-2098Y1448D02*
X-1971Y1320D01*
D27*
X-320Y1590D02*
D03*
X2372Y138D02*
D03*
X-2130Y2920D02*
D03*
X-1370D02*
D03*
X2590Y1010D02*
D03*
Y680D02*
D03*
X-2620Y750D02*
D03*
X-1180Y-1181D02*
D03*
X-940Y-1930D02*
D03*
X2750Y-940D02*
D03*
X-1310Y-1940D02*
D03*
X940Y1580D02*
D03*
X-2720Y1150D02*
D03*
X-2098Y1448D02*
D03*
X-3160Y2920D02*
D03*
X-2070Y1790D02*
D03*
X-3160Y1490D02*
D03*
X-360Y2920D02*
D03*
X980D02*
D03*
X1220Y2340D02*
D03*
X1550D02*
D03*
X940Y2010D02*
D03*
X3130Y2920D02*
D03*
X1940Y2410D02*
D03*
X2950Y1280D02*
D03*
X3130Y140D02*
D03*
X2400Y-530D02*
D03*
X3130D02*
D03*
X2030Y-1890D02*
D03*
X3130D02*
D03*
X-3160Y-1930D02*
D03*
Y-1380D02*
D03*
X-2790Y-80D02*
D03*
X-1480Y2060D02*
D03*
D28*
X-709Y709D02*
D03*
X-236D02*
D03*
X236D02*
D03*
X709D02*
D03*
X-709Y236D02*
D03*
X-236D02*
D03*
X236D02*
D03*
X709D02*
D03*
X-709Y-236D02*
D03*
X-236D02*
D03*
X236D02*
D03*
X709D02*
D03*
X-709Y-709D02*
D03*
X-236D02*
D03*
X236D02*
D03*
X709D02*
D03*
M02*
