G04 Layer_Physical_Order=1*
G04 Layer_Color=255*
%FSLAX24Y24*%
%MOIN*%
G70*
G01*
G75*
%ADD10R,0.0374X0.0335*%
%ADD11R,0.0197X0.0236*%
%ADD12R,0.0236X0.0197*%
%ADD13R,0.0256X0.0197*%
%ADD14O,0.0256X0.0079*%
%ADD15O,0.0079X0.0256*%
%ADD16R,0.1850X0.1850*%
%ADD17R,0.0295X0.0315*%
%ADD18R,0.0709X0.0394*%
%ADD19R,0.0300X0.0300*%
%ADD20C,0.0090*%
%ADD21C,0.0060*%
%ADD22C,0.0300*%
%ADD23C,0.0150*%
%ADD24C,0.0100*%
%ADD25C,0.0080*%
%ADD26C,0.0200*%
%ADD27C,0.0240*%
%ADD28C,0.0260*%
G36*
X-120Y1474D02*
X-171Y1424D01*
X-184Y1409D01*
X-193Y1412D01*
X-214Y1418D01*
X-236Y1419D01*
X-258Y1418D01*
X-279Y1412D01*
X-300Y1404D01*
X-315Y1395D01*
X-330Y1404D01*
X-351Y1412D01*
X-372Y1418D01*
X-394Y1419D01*
X-406Y1430D01*
Y1507D01*
X-408Y1530D01*
X-413Y1552D01*
X-422Y1573D01*
X-434Y1592D01*
X-448Y1610D01*
X-467Y1628D01*
Y1927D01*
X-948D01*
X-962Y1927D01*
X-998D01*
X-1012Y1927D01*
X-1196D01*
Y1670D01*
Y1413D01*
X-1003Y1413D01*
X-972Y1374D01*
X-974Y1368D01*
X-979Y1362D01*
X-991Y1343D01*
X-998Y1327D01*
X-1587D01*
Y1407D01*
X-1820D01*
X-1879Y1467D01*
X-1880Y1476D01*
X-1885Y1505D01*
X-1895Y1532D01*
X-1908Y1558D01*
X-1924Y1582D01*
X-1943Y1604D01*
X-1964Y1623D01*
X-1988Y1639D01*
X-2014Y1651D01*
X-2041Y1661D01*
X-2070Y1666D01*
X-2098Y1668D01*
X-2127Y1666D01*
X-2155Y1661D01*
X-2183Y1651D01*
X-2209Y1639D01*
X-2233Y1623D01*
X-2254Y1604D01*
X-2273Y1582D01*
X-2289Y1558D01*
X-2302Y1532D01*
X-2311Y1505D01*
X-2317Y1476D01*
X-2319Y1448D01*
X-2363Y1407D01*
X-2613D01*
Y1200D01*
X-2366D01*
Y1100D01*
X-2613D01*
Y893D01*
X-2515D01*
Y790D01*
X-2297D01*
Y690D01*
X-2515D01*
Y639D01*
X-3280D01*
Y3040D01*
X-120D01*
Y1474D01*
D02*
G37*
G36*
X-2578Y33D02*
X-2380D01*
Y-67D01*
X-2578D01*
Y-235D01*
X-2501D01*
X-2482Y-281D01*
X-2546Y-345D01*
X-3280D01*
Y45D01*
X-2578D01*
Y33D01*
D02*
G37*
G36*
X3249Y3D02*
X3144D01*
X3137Y3D01*
X2400D01*
X2374Y1D01*
X2348Y-4D01*
X2323Y-12D01*
X2300Y-24D01*
X2258Y-5D01*
X2250Y3D01*
Y482D01*
X2495D01*
Y630D01*
X2277D01*
Y730D01*
X2495D01*
Y832D01*
X2495D01*
Y980D01*
X2277D01*
Y1080D01*
X2495D01*
Y1228D01*
X2403D01*
X2384Y1260D01*
X2380Y1273D01*
X2408Y1316D01*
X2505D01*
Y1584D01*
X2605D01*
Y1316D01*
X2842D01*
Y1395D01*
X2920D01*
Y1613D01*
X2970D01*
Y1663D01*
X3168D01*
Y1789D01*
Y2225D01*
X2842D01*
Y2304D01*
X2035D01*
Y2036D01*
X1935D01*
Y2304D01*
X1698D01*
Y2225D01*
X1620D01*
Y2007D01*
X1520D01*
Y2225D01*
X1270D01*
Y2007D01*
X1220D01*
Y1957D01*
X1022D01*
Y1837D01*
X1017Y1829D01*
X972Y1798D01*
X969Y1799D01*
X940Y1800D01*
X911Y1799D01*
X910Y1798D01*
X860Y1833D01*
Y3040D01*
X3249D01*
Y3D01*
D02*
G37*
G36*
X-3087Y-1258D02*
X-2620D01*
Y-2050D01*
X-3280D01*
Y-1258D01*
X-3187D01*
Y-1060D01*
X-3087D01*
Y-1258D01*
D02*
G37*
G36*
X2323Y-383D02*
X2348Y-391D01*
X2374Y-396D01*
X2400Y-398D01*
X3137D01*
X3144Y-397D01*
X3249D01*
Y-2050D01*
X1900D01*
Y-663D01*
X1944Y-630D01*
X2250D01*
Y-448D01*
X2251Y-398D01*
X2300Y-371D01*
X2323Y-383D01*
D02*
G37*
G36*
X-1025Y-1025D02*
X-1003Y-1075D01*
X-1004Y-1080D01*
X-1006Y-1102D01*
Y-1152D01*
X-1010Y-1168D01*
X-1012Y-1191D01*
Y-1412D01*
X-1267D01*
Y-1610D01*
Y-1808D01*
X-1181D01*
X-1164Y-1825D01*
X-1148Y-1858D01*
X-1153Y-1873D01*
X-1159Y-1901D01*
X-1160Y-1930D01*
X-1159Y-1959D01*
X-1153Y-1987D01*
X-1149Y-2000D01*
X-1167Y-2036D01*
X-1182Y-2050D01*
X-1398D01*
Y-1808D01*
X-1367D01*
Y-1610D01*
Y-1412D01*
X-1398D01*
Y-1096D01*
X-1305Y-1003D01*
X-1301Y-1004D01*
X-1280Y-1006D01*
X-1102D01*
X-1080Y-1004D01*
X-1075Y-1003D01*
X-1025Y-1025D01*
D02*
G37*
%LPC*%
G36*
X-1296Y1927D02*
X-1493D01*
Y1720D01*
X-1296D01*
Y1927D01*
D02*
G37*
G36*
X1170Y2225D02*
X1022D01*
Y2057D01*
X1170D01*
Y2225D01*
D02*
G37*
G36*
X3168Y1563D02*
X3020D01*
Y1395D01*
X3168D01*
Y1563D01*
D02*
G37*
G36*
X-1296Y1620D02*
X-1493D01*
Y1413D01*
X-1296D01*
Y1620D01*
D02*
G37*
%LPD*%
D10*
X1985Y1584D02*
D03*
Y2036D02*
D03*
X2555D02*
D03*
Y1584D02*
D03*
D11*
X2970Y1613D02*
D03*
Y2007D02*
D03*
X1570Y2007D02*
D03*
Y1613D02*
D03*
X1650Y-197D02*
D03*
Y197D02*
D03*
X1220Y2007D02*
D03*
Y1613D02*
D03*
X-2380Y-17D02*
D03*
Y377D02*
D03*
D12*
X-2297Y740D02*
D03*
X-1903D02*
D03*
X-1317Y-1610D02*
D03*
X-923D02*
D03*
X1883Y680D02*
D03*
X2277D02*
D03*
X2277Y1030D02*
D03*
X1883D02*
D03*
X-3137Y-1060D02*
D03*
X-2743D02*
D03*
D13*
X2023Y-200D02*
D03*
X2397D02*
D03*
D14*
X-1191Y866D02*
D03*
Y709D02*
D03*
Y551D02*
D03*
Y394D02*
D03*
Y236D02*
D03*
Y79D02*
D03*
Y-79D02*
D03*
Y-236D02*
D03*
Y-394D02*
D03*
Y-551D02*
D03*
Y-709D02*
D03*
Y-866D02*
D03*
X1191D02*
D03*
Y-709D02*
D03*
Y-551D02*
D03*
Y-394D02*
D03*
Y-236D02*
D03*
Y-79D02*
D03*
Y79D02*
D03*
Y236D02*
D03*
Y394D02*
D03*
Y551D02*
D03*
Y709D02*
D03*
Y866D02*
D03*
D15*
X-866Y-1191D02*
D03*
X-709D02*
D03*
X-551D02*
D03*
X-394D02*
D03*
X-236D02*
D03*
X-79D02*
D03*
X79D02*
D03*
X236D02*
D03*
X394D02*
D03*
X551D02*
D03*
X709D02*
D03*
X866D02*
D03*
Y1191D02*
D03*
X709D02*
D03*
X551D02*
D03*
X394D02*
D03*
X236D02*
D03*
X79D02*
D03*
X-79D02*
D03*
X-236D02*
D03*
X-394D02*
D03*
X-551D02*
D03*
X-709D02*
D03*
X-866D02*
D03*
D16*
X0Y0D02*
D03*
D17*
X-1834Y1150D02*
D03*
X-2366D02*
D03*
X-1246Y1670D02*
D03*
X-714D02*
D03*
D18*
X-2940Y342D02*
D03*
Y-642D02*
D03*
D19*
X3137Y-197D02*
D03*
D20*
X-394Y1191D02*
Y1396D01*
X-320Y1470D02*
Y1590D01*
X-394Y1396D02*
X-320Y1470D01*
X-394Y866D02*
Y1191D01*
X-940Y-1930D02*
X-866Y-1856D01*
Y-1191D01*
X-2098Y1448D02*
X-2066D01*
X-1799Y1181D02*
X-870D01*
X-2066Y1448D02*
X-1833Y1215D01*
X-1799Y1181D01*
X1191Y-79D02*
X1378D01*
X1500Y-201D01*
X1653D01*
X1378Y80D02*
X1491Y193D01*
X1653D01*
X243Y80D02*
X1378D01*
X-551Y1191D02*
Y1507D01*
X-714Y1670D02*
X-551Y1507D01*
D21*
X2200Y1280D02*
X2270Y1350D01*
X1784Y1280D02*
X2200D01*
X1529Y1025D02*
X1784Y1280D01*
X1409Y1074D02*
X1894Y1560D01*
X1409Y813D02*
Y1074D01*
X1894Y1560D02*
X1980D01*
X2270Y1790D02*
X2487Y2007D01*
X2270Y1350D02*
Y1790D01*
X2487Y2007D02*
X2970D01*
X1191Y-709D02*
X1305D01*
X1409Y-813D01*
Y-2060D02*
Y-813D01*
X1191Y-2060D02*
Y-866D01*
X-1477Y709D02*
X-1191D01*
X-2658Y-642D02*
X-1465Y551D01*
X-1191D01*
X-2490Y-644D02*
X-1452Y394D01*
X-1191D01*
X-2370Y-694D02*
X-1440Y236D01*
X-1191D01*
X-2250Y-744D02*
X-1427Y79D01*
X-1191D01*
X-2129Y-794D02*
X-1414Y-79D01*
X-1191D01*
X-1769Y-943D02*
X-1377Y-551D01*
X-1191D01*
X-1649Y-992D02*
X-1365Y-709D01*
X-1191D01*
X-2009Y-843D02*
X-1401Y-236D01*
X-1191D01*
X-1889Y-893D02*
X-1389Y-394D01*
X-1191D01*
X1319Y-551D02*
X1529Y-762D01*
X1331Y-394D02*
X1650Y-713D01*
X1343Y-236D02*
X1770Y-663D01*
X-709Y-2060D02*
Y-1191D01*
X-236Y-2060D02*
Y-1191D01*
X-394Y-2060D02*
Y-1191D01*
X1191Y-236D02*
X1343D01*
X1191Y-394D02*
X1331D01*
X1770Y-2060D02*
Y-663D01*
X1650Y812D02*
X1841Y1002D01*
X1787Y680D02*
X1890D01*
X1191Y709D02*
X1305D01*
X1409Y813D01*
X1191Y551D02*
X1319D01*
X1529Y762D01*
X1191Y394D02*
X1331D01*
X1650Y713D01*
X1650Y812D01*
X1191Y236D02*
X1343D01*
X1787Y680D01*
X866Y-2060D02*
Y-1191D01*
X1529Y-2060D02*
Y-762D01*
X1191Y-551D02*
X1319D01*
X1650Y-2060D02*
Y-713D01*
X1529Y762D02*
Y1025D01*
X-79Y1191D02*
Y1332D01*
X10Y1420D01*
Y3049D01*
X79Y1191D02*
Y1319D01*
X130Y1371D01*
Y3049D01*
X250Y1321D02*
Y3049D01*
X236Y1191D02*
Y1307D01*
X250Y1321D01*
X370Y1323D02*
X394Y1299D01*
X370Y1323D02*
Y3049D01*
X394Y1191D02*
Y1299D01*
X490Y1373D02*
X551Y1312D01*
X490Y1373D02*
Y3049D01*
X551Y1191D02*
Y1312D01*
X610Y1423D02*
X709Y1324D01*
X610Y1423D02*
Y3049D01*
X709Y1191D02*
Y1324D01*
X730Y1472D02*
X866Y1336D01*
X730Y1472D02*
Y3049D01*
X866Y1191D02*
Y1336D01*
X1927Y1613D02*
X2005Y1534D01*
X1550Y1613D02*
X1927D01*
X709Y-2060D02*
Y-1191D01*
X551Y-2060D02*
Y-1191D01*
X394Y-2060D02*
Y-1191D01*
X236Y-2060D02*
Y-1191D01*
X79Y-2060D02*
Y-1191D01*
X-79Y-2060D02*
Y-1191D01*
X-551Y-2060D02*
Y-1191D01*
X-1353Y-866D02*
X-1191D01*
X-1529Y-1042D02*
X-1353Y-866D01*
X-1529Y-2058D02*
Y-1042D01*
X-2490Y-2058D02*
Y-644D01*
X-2370Y-2058D02*
Y-694D01*
X-2129Y-2058D02*
Y-794D01*
X-2009Y-2058D02*
Y-843D01*
X-2250Y-2058D02*
Y-744D01*
X-1769Y-2058D02*
Y-943D01*
X-1889Y-2058D02*
Y-893D01*
X-1649Y-2058D02*
Y-992D01*
X-2940Y-642D02*
X-2658D01*
X-2743Y-1060D02*
Y-839D01*
X-2940Y-642D02*
X-2743Y-839D01*
X-2940Y342D02*
X-1844D01*
X-1477Y709D01*
D22*
X2400Y-197D02*
X3137D01*
D23*
X-969Y-1930D02*
X-940D01*
X-1833Y1148D02*
Y1215D01*
D24*
X1191Y866D02*
X1220Y895D01*
Y1573D01*
X940Y1580D02*
X947Y1573D01*
X1220D01*
D25*
X-1783Y866D02*
X-1191D01*
X-1902Y748D02*
X-1783Y866D01*
D26*
X1650Y-199D02*
X2003D01*
D27*
X-320Y1590D02*
D03*
X2372Y138D02*
D03*
X-2130Y2920D02*
D03*
X-1370D02*
D03*
X2590Y1010D02*
D03*
Y680D02*
D03*
X-2620Y750D02*
D03*
X-1180Y-1181D02*
D03*
X-940Y-1930D02*
D03*
X2750Y-940D02*
D03*
X-1310Y-1940D02*
D03*
X940Y1580D02*
D03*
X-2720Y1150D02*
D03*
X-2098Y1448D02*
D03*
X-3160Y2920D02*
D03*
X-2070Y1790D02*
D03*
X-3160Y1490D02*
D03*
X-360Y2920D02*
D03*
X980D02*
D03*
X1220Y2340D02*
D03*
X1550D02*
D03*
X940Y2010D02*
D03*
X3130Y2920D02*
D03*
X1940Y2410D02*
D03*
X2950Y1280D02*
D03*
X3130Y140D02*
D03*
X2400Y-530D02*
D03*
X3130D02*
D03*
X2030Y-1890D02*
D03*
X3130D02*
D03*
X-3160Y-1930D02*
D03*
Y-1380D02*
D03*
X-2790Y-80D02*
D03*
X-1480Y2060D02*
D03*
D28*
X-709Y709D02*
D03*
X-236D02*
D03*
X236D02*
D03*
X709D02*
D03*
X-709Y236D02*
D03*
X-236D02*
D03*
X236D02*
D03*
X709D02*
D03*
X-709Y-236D02*
D03*
X-236D02*
D03*
X236D02*
D03*
X709D02*
D03*
X-709Y-709D02*
D03*
X-236D02*
D03*
X236D02*
D03*
X709D02*
D03*
M02*
