G04 Layer_Color=65535*
%FSLAX24Y24*%
%MOIN*%
G70*
G01*
G75*
%ADD28C,0.0060*%
%ADD39C,0.0098*%
%ADD40C,0.0079*%
D28*
X-937Y1489D02*
Y1854D01*
Y2050D02*
Y2415D01*
X-543Y1489D02*
Y1854D01*
Y2050D02*
Y2415D01*
X-937Y1489D02*
X-543Y1489D01*
X-937Y2415D02*
X-543Y2415D01*
X-1078Y2412D02*
X-866Y2589D01*
X-1533Y2955D02*
X-1322Y3132D01*
X-1157Y2936D01*
X-1031Y2785D02*
X-866Y2589D01*
X-1533Y2955D02*
X-1369Y2759D01*
X-1242Y2608D02*
X-1078Y2412D01*
X-783Y2631D02*
X-482Y2884D01*
X-1378Y3340D02*
X-1076Y3593D01*
X-842Y3314D01*
X-716Y3163D02*
X-482Y2884D01*
X-1378Y3340D02*
X-1144Y3061D01*
X-1017Y2910D02*
X-783Y2631D01*
X-2518Y-174D02*
X-2242D01*
X-2518Y534D02*
X-2242D01*
Y278D02*
Y534D01*
Y-174D02*
Y82D01*
X-2518Y278D02*
Y534D01*
Y-174D02*
Y82D01*
X-3294Y-1198D02*
Y-922D01*
X-2586Y-1198D02*
Y-922D01*
X-2842Y-1198D02*
X-2586D01*
X-3294D02*
X-3038D01*
X-2842Y-922D02*
X-2586D01*
X-3294D02*
X-3038D01*
X-2563Y953D02*
Y1347D01*
X-1637Y953D02*
Y1347D01*
X-2002Y953D02*
X-1637D01*
X-2563D02*
X-2198D01*
X-2002Y1347D02*
X-1637D01*
X-2563D02*
X-2198D01*
X2308Y-338D02*
X2564D01*
X1856D02*
X2112D01*
X2308Y-62D02*
X2564D01*
X1856D02*
X2112D01*
X1856Y-338D02*
Y-62D01*
X2564Y-338D02*
Y-62D01*
X1082Y2164D02*
X1358D01*
X1082Y1456D02*
X1358D01*
X1082D02*
Y1712D01*
Y1908D02*
Y2164D01*
X1358Y1456D02*
Y1712D01*
Y1908D02*
Y2164D01*
X2434Y892D02*
Y1168D01*
X1726Y892D02*
Y1168D01*
X1982D01*
X2178D02*
X2434D01*
X1726Y892D02*
X1982D01*
X2178D02*
X2434D01*
X1726Y542D02*
Y818D01*
X2434Y542D02*
Y818D01*
X2178Y542D02*
X2434D01*
X1726D02*
X1982D01*
X2178Y818D02*
X2434D01*
X1726D02*
X1982D01*
X-1474Y-1748D02*
Y-1472D01*
X-766Y-1748D02*
Y-1472D01*
X-1022Y-1748D02*
X-766D01*
X-1474D02*
X-1218D01*
X-1022Y-1472D02*
X-766D01*
X-1474D02*
X-1218D01*
X-2454Y602D02*
Y878D01*
X-1746Y602D02*
Y878D01*
X-2002Y602D02*
X-1746D01*
X-2454D02*
X-2198D01*
X-2002Y878D02*
X-1746D01*
X-2454D02*
X-2198D01*
X1512Y-354D02*
X1788D01*
X1512Y354D02*
X1788D01*
Y98D02*
Y354D01*
Y-354D02*
Y-98D01*
X1512Y98D02*
Y354D01*
Y-354D02*
Y-98D01*
X1432Y2164D02*
X1708D01*
X1432Y1456D02*
X1708D01*
X1432D02*
Y1712D01*
Y1908D02*
Y2164D01*
X1708Y1456D02*
Y1712D01*
Y1908D02*
Y2164D01*
X2832Y1456D02*
X3108D01*
X2832Y2164D02*
X3108D01*
Y1908D02*
Y2164D01*
Y1456D02*
Y1712D01*
X2832Y1908D02*
Y2164D01*
Y1456D02*
Y1712D01*
X2695Y1786D02*
Y1834D01*
X2207Y1464D02*
X2333D01*
X1845Y1786D02*
Y1834D01*
X2207Y2156D02*
X2333D01*
X-2394Y-2438D02*
Y-2162D01*
X-1686Y-2438D02*
Y-2162D01*
X-1942Y-2438D02*
X-1686D01*
X-2394D02*
X-2138D01*
X-1942Y-2162D02*
X-1686D01*
X-2394D02*
X-2138D01*
X-1624Y-2438D02*
Y-2162D01*
X-916Y-2438D02*
Y-2162D01*
X-1172Y-2438D02*
X-916D01*
X-1624D02*
X-1368D01*
X-1172Y-2162D02*
X-916D01*
X-1624D02*
X-1368D01*
X-1300Y1702D02*
X-1030D01*
Y1882D01*
Y2152D02*
Y1972D01*
X-1210Y2152D01*
X-1255D01*
X-1300Y2107D01*
Y2017D01*
X-1255Y1972D01*
X-1543Y2783D02*
X-1750Y2610D01*
X-1634Y2472D01*
X-1404Y2548D02*
X-1341Y2542D01*
X-1283Y2473D01*
X-1289Y2410D01*
X-1323Y2381D01*
X-1386Y2387D01*
X-1415Y2421D01*
X-1386Y2387D01*
X-1392Y2323D01*
X-1426Y2294D01*
X-1490Y2300D01*
X-1548Y2369D01*
X-1542Y2432D01*
X-632Y3547D02*
X-626Y3610D01*
X-684Y3679D01*
X-748Y3685D01*
X-886Y3569D01*
X-891Y3506D01*
X-833Y3437D01*
X-770Y3431D01*
X-746Y3333D02*
X-689Y3264D01*
X-718Y3299D01*
X-511Y3472D01*
X-574Y3478D01*
X-430Y3306D02*
X-366Y3300D01*
X-308Y3231D01*
X-314Y3168D01*
X-452Y3052D01*
X-515Y3058D01*
X-573Y3126D01*
X-567Y3190D01*
X-430Y3306D01*
X-3013Y827D02*
X-3058Y872D01*
X-3148D01*
X-3193Y827D01*
Y647D01*
X-3148Y602D01*
X-3058D01*
X-3013Y647D01*
X-2788Y602D02*
Y872D01*
X-2923Y737D01*
X-2743D01*
X-293Y-1520D02*
X-338Y-1475D01*
X-428D01*
X-472Y-1520D01*
Y-1700D01*
X-428Y-1745D01*
X-338D01*
X-293Y-1700D01*
X-23Y-1475D02*
X-203D01*
Y-1610D01*
X-113Y-1565D01*
X-68D01*
X-23Y-1610D01*
Y-1700D01*
X-68Y-1745D01*
X-158D01*
X-203Y-1700D01*
X2907Y1120D02*
X2862Y1165D01*
X2772D01*
X2728Y1120D01*
Y940D01*
X2772Y895D01*
X2862D01*
X2907Y940D01*
X2997Y1165D02*
X3177D01*
Y1120D01*
X2997Y940D01*
Y895D01*
X2883Y2635D02*
X2838Y2590D01*
Y2500D01*
X2883Y2455D01*
X3063D01*
X3108Y2500D01*
Y2590D01*
X3063Y2635D01*
X3108Y2725D02*
Y2815D01*
Y2770D01*
X2838D01*
X2883Y2725D01*
X2080Y2560D02*
X2260Y2290D01*
Y2560D02*
X2080Y2290D01*
X2350D02*
X2440D01*
X2395D01*
Y2560D01*
X2350Y2515D01*
X1133Y2635D02*
X1088Y2590D01*
Y2500D01*
X1133Y2455D01*
X1313D01*
X1358Y2500D01*
Y2590D01*
X1313Y2635D01*
X1133Y2725D02*
X1088Y2770D01*
Y2860D01*
X1133Y2905D01*
X1178D01*
X1223Y2860D01*
X1268Y2905D01*
X1313D01*
X1358Y2860D01*
Y2770D01*
X1313Y2725D01*
X1268D01*
X1223Y2770D01*
X1178Y2725D01*
X1133D01*
X1223Y2770D02*
Y2860D01*
X-3123Y1237D02*
X-3168Y1282D01*
X-3258D01*
X-3303Y1237D01*
Y1057D01*
X-3258Y1012D01*
X-3168D01*
X-3123Y1057D01*
X-3033D02*
X-2988Y1012D01*
X-2898D01*
X-2853Y1057D01*
Y1237D01*
X-2898Y1282D01*
X-2988D01*
X-3033Y1237D01*
Y1192D01*
X-2988Y1147D01*
X-2853D01*
X2907Y770D02*
X2862Y815D01*
X2772D01*
X2728Y770D01*
Y590D01*
X2772Y545D01*
X2862D01*
X2907Y590D01*
X3177Y815D02*
X3087Y770D01*
X2997Y680D01*
Y590D01*
X3042Y545D01*
X3132D01*
X3177Y590D01*
Y635D01*
X3132Y680D01*
X2997D01*
X1483Y2635D02*
X1438Y2590D01*
Y2500D01*
X1483Y2455D01*
X1663D01*
X1708Y2500D01*
Y2590D01*
X1663Y2635D01*
X1708Y2905D02*
Y2725D01*
X1528Y2905D01*
X1483D01*
X1438Y2860D01*
Y2770D01*
X1483Y2725D01*
X-282Y1965D02*
Y1740D01*
X-238Y1695D01*
X-148D01*
X-103Y1740D01*
Y1965D01*
X-13Y1695D02*
X77D01*
X32D01*
Y1965D01*
X-13Y1920D01*
X2027Y-628D02*
Y-898D01*
X2207D01*
X2297D02*
X2387D01*
X2342D01*
Y-628D01*
X2297Y-673D01*
X1562Y-918D02*
X1518Y-963D01*
Y-1053D01*
X1562Y-1098D01*
X1742D01*
X1787Y-1053D01*
Y-963D01*
X1742Y-918D01*
X1562Y-828D02*
X1518Y-783D01*
Y-693D01*
X1562Y-648D01*
X1607D01*
X1652Y-693D01*
Y-738D01*
Y-693D01*
X1697Y-648D01*
X1742D01*
X1787Y-693D01*
Y-783D01*
X1742Y-828D01*
X-2460Y-510D02*
X-2280Y-780D01*
Y-510D02*
X-2460Y-780D01*
X-2010D02*
X-2190D01*
X-2010Y-600D01*
Y-555D01*
X-2055Y-510D01*
X-2145D01*
X-2190Y-555D01*
X-2113Y-973D02*
X-2158Y-928D01*
X-2248D01*
X-2293Y-973D01*
Y-1153D01*
X-2248Y-1198D01*
X-2158D01*
X-2113Y-1153D01*
X-2023Y-1198D02*
X-1933D01*
X-1978D01*
Y-928D01*
X-2023Y-973D01*
X-1618Y-1198D02*
X-1798D01*
X-1618Y-1018D01*
Y-973D01*
X-1663Y-928D01*
X-1753D01*
X-1798Y-973D01*
X-1908Y72D02*
X-1952Y27D01*
Y-63D01*
X-1908Y-108D01*
X-1728D01*
X-1683Y-63D01*
Y27D01*
X-1728Y72D01*
X-1683Y162D02*
Y252D01*
Y207D01*
X-1952D01*
X-1908Y162D01*
X-1683Y387D02*
Y477D01*
Y432D01*
X-1952D01*
X-1908Y387D01*
X-3183Y-2213D02*
X-3228Y-2168D01*
X-3318D01*
X-3363Y-2213D01*
Y-2393D01*
X-3318Y-2438D01*
X-3228D01*
X-3183Y-2393D01*
X-3093Y-2438D02*
X-3003D01*
X-3048D01*
Y-2168D01*
X-3093Y-2213D01*
X-2868D02*
X-2823Y-2168D01*
X-2733D01*
X-2688Y-2213D01*
Y-2258D01*
X-2733Y-2303D01*
X-2778D01*
X-2733D01*
X-2688Y-2348D01*
Y-2393D01*
X-2733Y-2438D01*
X-2823D01*
X-2868Y-2393D01*
X-443Y-2213D02*
X-488Y-2168D01*
X-578D01*
X-623Y-2213D01*
Y-2393D01*
X-578Y-2438D01*
X-488D01*
X-443Y-2393D01*
X-353Y-2438D02*
X-263D01*
X-308D01*
Y-2168D01*
X-353Y-2213D01*
X7Y-2438D02*
Y-2168D01*
X-128Y-2303D01*
X52D01*
D39*
X-1486Y866D02*
G03*
X-1486Y866I-49J0D01*
G01*
D40*
X-858Y1991D02*
X-858Y1913D01*
X-622Y1913D02*
Y1991D01*
X-865Y3218D02*
X-814Y3158D01*
X-1045Y3066D02*
X-995Y3006D01*
X-3235Y-386D02*
Y86D01*
X-2645Y-386D02*
Y86D01*
X-2139Y1032D02*
X-2061D01*
X-2139Y1268D02*
X-2061D01*
X-1181Y-1181D02*
Y-984D01*
Y-1181D02*
X-984D01*
X984D02*
X1181D01*
Y-984D01*
Y984D02*
Y1181D01*
X984D02*
X1181D01*
X-1181Y984D02*
X-984Y1181D01*
M02*
