G04 Layer_Physical_Order=1*
G04 Layer_Color=255*
%FSLAX24Y24*%
%MOIN*%
G70*
G01*
G75*
%ADD10C,0.0118*%
%ADD11R,0.0315X0.0295*%
G04:AMPARAMS|DCode=12|XSize=19.7mil|YSize=25.6mil|CornerRadius=0mil|HoleSize=0mil|Usage=FLASHONLY|Rotation=40.000|XOffset=0mil|YOffset=0mil|HoleType=Round|Shape=Rectangle|*
%AMROTATEDRECTD12*
4,1,4,0.0007,-0.0161,-0.0158,0.0035,-0.0007,0.0161,0.0158,-0.0035,0.0007,-0.0161,0.0*
%
%ADD12ROTATEDRECTD12*%

G04:AMPARAMS|DCode=13|XSize=31.5mil|YSize=29.5mil|CornerRadius=0mil|HoleSize=0mil|Usage=FLASHONLY|Rotation=40.000|XOffset=0mil|YOffset=0mil|HoleType=Round|Shape=Rectangle|*
%AMROTATEDRECTD13*
4,1,4,-0.0026,-0.0214,-0.0216,0.0012,0.0026,0.0214,0.0216,-0.0012,-0.0026,-0.0214,0.0*
%
%ADD13ROTATEDRECTD13*%

%ADD14C,0.0039*%
%ADD15R,0.0300X0.0300*%
%ADD16R,0.0197X0.0236*%
%ADD17R,0.0236X0.0197*%
%ADD18R,0.0709X0.0394*%
%ADD19R,0.0295X0.0315*%
%ADD20R,0.1850X0.1850*%
%ADD21O,0.0079X0.0256*%
%ADD22O,0.0256X0.0079*%
%ADD23R,0.0256X0.0197*%
%ADD24R,0.0374X0.0335*%
%ADD25C,0.0090*%
%ADD26C,0.0110*%
%ADD27C,0.0197*%
%ADD28C,0.0060*%
%ADD29C,0.0197*%
%ADD30C,0.0118*%
%ADD31C,0.0200*%
%ADD32C,0.0080*%
%ADD33C,0.0150*%
%ADD34C,0.0100*%
%ADD35C,0.0300*%
%ADD36C,0.0240*%
%ADD37C,0.0236*%
%ADD38C,0.0260*%
G36*
X-3087Y-1258D02*
X-2818D01*
X-2799Y-1305D01*
X-2954Y-1460D01*
X-3290D01*
X-3300Y-1450D01*
Y-1258D01*
X-3187D01*
Y-1060D01*
X-3087D01*
Y-1258D01*
D02*
G37*
G36*
X-1025Y-1025D02*
X-1003Y-1075D01*
X-1004Y-1080D01*
X-1006Y-1102D01*
Y-1152D01*
X-1010Y-1168D01*
X-1012Y-1191D01*
Y-1412D01*
X-1267D01*
Y-1610D01*
Y-1808D01*
X-1181D01*
X-1164Y-1825D01*
X-1148Y-1858D01*
X-1153Y-1873D01*
X-1159Y-1901D01*
X-1160Y-1930D01*
X-1159Y-1959D01*
X-1153Y-1987D01*
X-1144Y-2014D01*
X-1131Y-2040D01*
X-1123Y-2052D01*
X-1138Y-2089D01*
X-1149Y-2102D01*
X-1460D01*
X-1467Y-2101D01*
X-1470Y-2099D01*
Y-1808D01*
X-1367D01*
Y-1610D01*
Y-1412D01*
X-1398D01*
Y-1096D01*
X-1305Y-1003D01*
X-1301Y-1004D01*
X-1280Y-1006D01*
X-1102D01*
X-1080Y-1004D01*
X-1075Y-1003D01*
X-1025Y-1025D01*
D02*
G37*
G36*
X-2187Y-2498D02*
X-2042D01*
Y-2676D01*
X-2166Y-2800D01*
X-3300D01*
Y-2486D01*
X-3250Y-2440D01*
X-2600D01*
X-2580Y-2439D01*
X-2560Y-2434D01*
X-2541Y-2426D01*
X-2523Y-2415D01*
X-2508Y-2402D01*
X-2501Y-2396D01*
X-2455Y-2415D01*
Y-2498D01*
X-2287D01*
Y-2300D01*
X-2187D01*
Y-2498D01*
D02*
G37*
G36*
X2323Y-383D02*
X2348Y-391D01*
X2374Y-396D01*
X2400Y-398D01*
X3137D01*
X3144Y-397D01*
X3249D01*
Y-2800D01*
X1939D01*
X1933Y-2797D01*
X1907Y-2768D01*
X1899Y-2750D01*
X1900Y-2738D01*
Y-663D01*
X1944Y-630D01*
X2250D01*
Y-448D01*
X2251Y-398D01*
X2300Y-371D01*
X2323Y-383D01*
D02*
G37*
G36*
X-1023Y-2498D02*
X-855D01*
X-839Y-2542D01*
Y-2740D01*
X-838Y-2750D01*
X-852Y-2775D01*
X-873Y-2798D01*
X-879Y-2800D01*
X-1154D01*
X-1268Y-2686D01*
Y-2498D01*
X-1123D01*
Y-2300D01*
X-1023D01*
Y-2498D01*
D02*
G37*
G36*
X-120Y1474D02*
X-171Y1424D01*
X-184Y1409D01*
X-193Y1412D01*
X-214Y1418D01*
X-236Y1419D01*
X-258Y1418D01*
X-279Y1412D01*
X-300Y1404D01*
X-308Y1399D01*
X-337Y1414D01*
X-346Y1427D01*
X-339Y1450D01*
X-334Y1472D01*
X-332Y1495D01*
Y2627D01*
X-334Y2650D01*
X-339Y2672D01*
X-348Y2693D01*
X-360Y2713D01*
X-375Y2730D01*
X-445Y2800D01*
X-443Y2850D01*
X-402Y2884D01*
X-712Y3253D01*
X-721Y3264D01*
X-744Y3291D01*
X-776Y3330D01*
X-871Y3443D01*
X-1068Y3277D01*
X-1101Y3316D01*
X-1139Y3283D01*
X-1298Y3473D01*
X-1457Y3340D01*
X-1338Y3198D01*
X-1618Y2962D01*
X-1378Y2676D01*
X-1085Y2327D01*
X-1037Y2367D01*
X-997Y2327D01*
Y1970D01*
X-997D01*
Y1934D01*
X-997D01*
Y1439D01*
X-969D01*
X-954Y1405D01*
X-953Y1389D01*
X-965Y1378D01*
X-979Y1362D01*
X-991Y1343D01*
X-998Y1327D01*
X-1587D01*
Y1407D01*
X-1820D01*
X-1879Y1467D01*
X-1880Y1476D01*
X-1885Y1505D01*
X-1895Y1532D01*
X-1908Y1558D01*
X-1924Y1582D01*
X-1943Y1604D01*
X-1964Y1623D01*
X-1988Y1639D01*
X-2014Y1651D01*
X-2041Y1661D01*
X-2070Y1666D01*
X-2098Y1668D01*
X-2127Y1666D01*
X-2155Y1661D01*
X-2183Y1651D01*
X-2209Y1639D01*
X-2233Y1623D01*
X-2254Y1604D01*
X-2273Y1582D01*
X-2289Y1558D01*
X-2302Y1532D01*
X-2311Y1505D01*
X-2317Y1476D01*
X-2319Y1448D01*
X-2363Y1407D01*
X-2613D01*
Y1200D01*
X-2366D01*
Y1100D01*
X-2613D01*
Y893D01*
X-2515D01*
Y790D01*
X-2297D01*
Y690D01*
X-2515D01*
Y639D01*
X-3300D01*
Y3610D01*
X-1208D01*
X-1191Y3563D01*
X-1221Y3537D01*
X-1094Y3386D01*
X-935Y3519D01*
X-973Y3564D01*
X-952Y3610D01*
X-120D01*
Y1474D01*
D02*
G37*
G36*
X3249Y3D02*
X3144D01*
X3137Y3D01*
X2400D01*
X2374Y1D01*
X2348Y-4D01*
X2323Y-12D01*
X2300Y-24D01*
X2258Y-5D01*
X2250Y3D01*
Y482D01*
X2495D01*
Y630D01*
X2277D01*
Y730D01*
X2495D01*
Y832D01*
X2495D01*
Y980D01*
X2277D01*
Y1080D01*
X2495D01*
Y1228D01*
X2403D01*
X2384Y1260D01*
X2380Y1273D01*
X2408Y1316D01*
X2505D01*
Y1584D01*
X2605D01*
Y1316D01*
X2842D01*
Y1395D01*
X2920D01*
Y1613D01*
X2970D01*
Y1663D01*
X3168D01*
Y1789D01*
Y2225D01*
X2842D01*
Y2304D01*
X2035D01*
Y2036D01*
X1935D01*
Y2304D01*
X1698D01*
Y2225D01*
X1620D01*
Y2007D01*
X1520D01*
Y2225D01*
X1270D01*
Y2007D01*
X1220D01*
Y1957D01*
X1022D01*
Y1837D01*
X1017Y1829D01*
X972Y1798D01*
X969Y1799D01*
X940Y1800D01*
X911Y1799D01*
X910Y1798D01*
X860Y1833D01*
Y3610D01*
X3249D01*
Y3D01*
D02*
G37*
G36*
X-2578Y33D02*
X-2380D01*
Y-67D01*
X-2578D01*
Y-235D01*
X-2501D01*
X-2482Y-281D01*
X-2546Y-345D01*
X-3300D01*
Y45D01*
X-2578D01*
Y33D01*
D02*
G37*
%LPC*%
G36*
X1170Y2225D02*
X1022D01*
Y2057D01*
X1170D01*
Y2225D01*
D02*
G37*
G36*
X3168Y1563D02*
X3020D01*
Y1395D01*
X3168D01*
Y1563D01*
D02*
G37*
%LPD*%
D10*
X-5104Y-15385D02*
G03*
X-5498Y-15779I0J-394D01*
G01*
X-4710D02*
G03*
X-5104Y-16173I0J-394D01*
G01*
X-4317Y-16173D02*
G03*
X-4710Y-16566I0J-394D01*
G01*
X-3923D02*
G03*
X-4317Y-16960I0J-394D01*
G01*
X-3529D02*
G03*
X-3923Y-17354I0J-394D01*
G01*
X290Y-23535D02*
G03*
X684Y-23141I0J394D01*
G01*
Y-23929D02*
G03*
X1077Y-23535I0J394D01*
G01*
Y-24322D02*
G03*
X1471Y-23929I0J394D01*
G01*
X1471Y-24716D02*
G03*
X1865Y-24322I0J394D01*
G01*
X1865Y-25110D02*
G03*
X2258Y-24716I0J394D01*
G01*
Y-15779D02*
G03*
X1865Y-15385I-394J0D01*
G01*
X1865Y-16173D02*
G03*
X1471Y-15779I-394J0D01*
G01*
X1471Y-16566D02*
G03*
X1077Y-16173I-394J0D01*
G01*
Y-16960D02*
G03*
X684Y-16566I-394J0D01*
G01*
Y-17354D02*
G03*
X290Y-16960I-394J0D01*
G01*
X-5498Y-24716D02*
G03*
X-5104Y-25110I394J0D01*
G01*
Y-24322D02*
G03*
X-4710Y-24716I394J0D01*
G01*
Y-23929D02*
G03*
X-4317Y-24322I394J0D01*
G01*
Y-23535D02*
G03*
X-3923Y-23929I394J0D01*
G01*
Y-23141D02*
G03*
X-3529Y-23535I394J0D01*
G01*
X-1192Y-15750D02*
G03*
X-1045Y-15779I147J365D01*
G01*
X-1192Y-16144D02*
G03*
X-1045Y-16173I147J365D01*
G01*
X-1192Y-16538D02*
G03*
X-1045Y-16566I147J365D01*
G01*
X-1192Y-16932D02*
G03*
X-1045Y-16960I147J365D01*
G01*
X-1120Y-15208D02*
G03*
X-943Y-15385I177J0D01*
G01*
X-1120Y-14950D02*
G03*
X-1173Y-14821I-183J0D01*
G01*
X-2169Y-13671D02*
G03*
X-2055Y-13946I390J0D01*
G01*
X-1147Y-6271D02*
G03*
X-1262Y-5993I-394J0D01*
G01*
Y-9699D02*
G03*
X-1147Y-9421I-278J278D01*
G01*
X-2063Y-10500D02*
G03*
X-2171Y-10759I259J-259D01*
G01*
Y-4933D02*
G03*
X-2056Y-5211I394J0D01*
G01*
X-5104Y-16173D02*
Y-16173D01*
X1865Y-24322D02*
X1865Y-24322D01*
X1845Y-15385D02*
X1865D01*
X-1120Y-15208D02*
Y-15171D01*
Y-14956D02*
Y-14950D01*
X-2055Y-13946D02*
X-2033Y-13968D01*
X-1147Y-9421D02*
Y-9421D01*
X-2063Y-10500D02*
X-2044Y-10481D01*
D11*
X-740Y1686D02*
D03*
Y2218D02*
D03*
D12*
X-1320Y2915D02*
D03*
X-1080Y2629D02*
D03*
D13*
X-759Y2908D02*
D03*
X-1101Y3316D02*
D03*
D14*
X-1145Y-3090D02*
D03*
X-2175D02*
D03*
D15*
X3137Y-197D02*
D03*
D16*
X-2380Y377D02*
D03*
Y-17D02*
D03*
X1220Y1613D02*
D03*
Y2007D02*
D03*
X1650Y197D02*
D03*
Y-197D02*
D03*
X1570Y1613D02*
D03*
Y2007D02*
D03*
X2970Y2007D02*
D03*
Y1613D02*
D03*
D17*
X-2743Y-1060D02*
D03*
X-3137D02*
D03*
X1883Y1030D02*
D03*
X2277D02*
D03*
X2277Y680D02*
D03*
X1883D02*
D03*
X-923Y-1610D02*
D03*
X-1317D02*
D03*
X-1903Y740D02*
D03*
X-2297D02*
D03*
X-1843Y-2300D02*
D03*
X-2237D02*
D03*
X-1073D02*
D03*
X-1467D02*
D03*
D18*
X-2940Y-642D02*
D03*
Y342D02*
D03*
D19*
X-2366Y1150D02*
D03*
X-1834D02*
D03*
D20*
X0Y0D02*
D03*
D21*
X-866Y1191D02*
D03*
X-709D02*
D03*
X-551D02*
D03*
X-394D02*
D03*
X-236D02*
D03*
X-79D02*
D03*
X79D02*
D03*
X236D02*
D03*
X394D02*
D03*
X551D02*
D03*
X709D02*
D03*
X866D02*
D03*
Y-1191D02*
D03*
X709D02*
D03*
X551D02*
D03*
X394D02*
D03*
X236D02*
D03*
X79D02*
D03*
X-79D02*
D03*
X-236D02*
D03*
X-394D02*
D03*
X-551D02*
D03*
X-709D02*
D03*
X-866D02*
D03*
D22*
X1191Y866D02*
D03*
Y709D02*
D03*
Y551D02*
D03*
Y394D02*
D03*
Y236D02*
D03*
Y79D02*
D03*
Y-79D02*
D03*
Y-236D02*
D03*
Y-394D02*
D03*
Y-551D02*
D03*
Y-709D02*
D03*
Y-866D02*
D03*
X-1191D02*
D03*
Y-709D02*
D03*
Y-551D02*
D03*
Y-394D02*
D03*
Y-236D02*
D03*
Y-79D02*
D03*
Y79D02*
D03*
Y236D02*
D03*
Y394D02*
D03*
Y551D02*
D03*
Y709D02*
D03*
Y866D02*
D03*
D23*
X2397Y-200D02*
D03*
X2023D02*
D03*
D24*
X2555Y1584D02*
D03*
Y2036D02*
D03*
X1985D02*
D03*
Y1584D02*
D03*
D25*
X-709Y1203D02*
Y1655D01*
X-551Y1421D02*
X-478Y1495D01*
Y2627D01*
X-759Y2908D02*
X-478Y2627D01*
X-551Y1203D02*
Y1421D01*
X-1320Y2915D02*
X-766D01*
X-394Y1191D02*
Y1346D01*
X-320Y1420D01*
Y1590D01*
X-1310Y-1940D02*
X-1073Y-2177D01*
Y-2300D02*
Y-2177D01*
X243Y80D02*
X1378D01*
X1491Y193D02*
X1653D01*
X1378Y80D02*
X1491Y193D01*
X1500Y-201D02*
X1653D01*
X1378Y-79D02*
X1500Y-201D01*
X1191Y-79D02*
X1378D01*
X-1833Y1215D02*
X-1799Y1181D01*
X-2066Y1448D02*
X-1833Y1215D01*
X-1799Y1181D02*
X-870D01*
X-2098Y1448D02*
X-2066D01*
X-866Y-1856D02*
Y-1191D01*
X-940Y-1930D02*
X-866Y-1856D01*
X-394Y866D02*
Y1191D01*
D26*
X-1080Y2629D02*
X-740Y2289D01*
Y2218D02*
Y2289D01*
D27*
X-1467Y-2768D02*
Y-2300D01*
Y-2768D02*
X-1145Y-3090D01*
X-2175D02*
X-2171Y-4933D01*
X-1147Y-4539D02*
X-1145Y-3090D01*
D28*
X-1600Y-2167D02*
X-1467Y-2300D01*
X-1840Y-2300D02*
X-1720Y-2180D01*
Y-1600D01*
X-1649Y-1528D01*
X-1844Y342D02*
X-1477Y709D01*
X-2940Y342D02*
X-1844D01*
X-2940Y-642D02*
X-2743Y-839D01*
Y-1060D02*
Y-839D01*
X-1529Y-1042D02*
X-1353Y-866D01*
X-1191D01*
X-551Y-2740D02*
Y-1191D01*
X-79Y-2740D02*
Y-1191D01*
X79Y-2740D02*
Y-1191D01*
X236Y-2740D02*
Y-1191D01*
X394Y-2740D02*
Y-1191D01*
X551Y-2740D02*
Y-1191D01*
X709Y-2740D02*
Y-1191D01*
X1550Y1613D02*
X1927D01*
X2005Y1534D01*
X866Y1191D02*
Y1336D01*
X730Y1472D02*
Y3620D01*
Y1472D02*
X866Y1336D01*
X709Y1191D02*
Y1324D01*
X610Y1423D02*
Y3620D01*
Y1423D02*
X709Y1324D01*
X551Y1191D02*
Y1312D01*
X490Y1373D02*
Y3620D01*
Y1373D02*
X551Y1312D01*
X394Y1191D02*
Y1299D01*
X370Y1323D02*
Y3620D01*
Y1323D02*
X394Y1299D01*
X236Y1307D02*
X250Y1321D01*
X236Y1191D02*
Y1307D01*
X250Y1321D02*
Y3620D01*
X130Y1371D02*
Y3620D01*
X79Y1319D02*
X130Y1371D01*
X79Y1191D02*
Y1319D01*
X10Y1420D02*
Y3620D01*
X-79Y1332D02*
X10Y1420D01*
X-79Y1191D02*
Y1332D01*
X1529Y762D02*
Y1025D01*
X1650Y-2738D02*
Y-713D01*
X1191Y-551D02*
X1319D01*
X1529Y-2738D02*
Y-762D01*
X866Y-2740D02*
Y-1191D01*
X1343Y236D02*
X1787Y680D01*
X1191Y236D02*
X1343D01*
X1650Y713D02*
X1650Y812D01*
X1331Y394D02*
X1650Y713D01*
X1191Y394D02*
X1331D01*
X1319Y551D02*
X1529Y762D01*
X1191Y551D02*
X1319D01*
X1305Y709D02*
X1409Y813D01*
X1191Y709D02*
X1305D01*
X1787Y680D02*
X1890D01*
X1650Y812D02*
X1841Y1002D01*
X1770Y-2738D02*
Y-663D01*
X1191Y-394D02*
X1331D01*
X1191Y-236D02*
X1343D01*
X-394Y-2740D02*
Y-1191D01*
X-236Y-2740D02*
Y-1191D01*
X-709Y-2740D02*
Y-1191D01*
X1343Y-236D02*
X1770Y-663D01*
X1331Y-394D02*
X1650Y-713D01*
X1319Y-551D02*
X1529Y-762D01*
X-1389Y-394D02*
X-1191D01*
X-1401Y-236D02*
X-1191D01*
X-2009Y-843D02*
X-1401Y-236D01*
X-1365Y-709D02*
X-1191D01*
X-1649Y-992D02*
X-1365Y-709D01*
X-1377Y-551D02*
X-1191D01*
X-1414Y-79D02*
X-1191D01*
X-2129Y-794D02*
X-1414Y-79D01*
X-1427Y79D02*
X-1191D01*
X-1440Y236D02*
X-1191D01*
X-1452Y394D02*
X-1191D01*
X-1465Y551D02*
X-1191D01*
X-1477Y709D02*
X-1191D01*
X1191Y-2738D02*
Y-866D01*
X1409Y-2738D02*
Y-813D01*
X1305Y-709D02*
X1409Y-813D01*
X1191Y-709D02*
X1305D01*
X2487Y2007D02*
X2970D01*
X2270Y1350D02*
Y1790D01*
X2487Y2007D01*
X1894Y1560D02*
X1980D01*
X1409Y813D02*
Y1074D01*
X1894Y1560D01*
X1529Y1025D02*
X1784Y1280D01*
X2200D01*
X2270Y1350D01*
X-3290Y-1590D02*
X-2900D01*
X-3290Y-1710D02*
X-2850D01*
X-3290Y-1830D02*
X-2801D01*
X-3290Y-1950D02*
X-2751D01*
X-1769Y-943D02*
X-1377Y-551D01*
X-1889Y-893D02*
X-1389Y-394D01*
X-2940Y-642D02*
X-2658D01*
X-1465Y551D01*
X-2490Y-644D02*
X-1452Y394D01*
X-2370Y-694D02*
X-1440Y236D01*
X-2250Y-910D02*
X-2250Y-910D01*
Y-744D01*
X-1427Y79D01*
X-3290Y-2070D02*
X-2700D01*
X-3290Y-2190D02*
X-2650D01*
X-3290Y-2310D02*
X-2600D01*
X-1649Y-1528D02*
Y-1440D01*
X-1649D02*
Y-992D01*
X-2900Y-1590D02*
X-2490Y-1180D01*
Y-644D01*
X-2850Y-1710D02*
X-2370Y-1230D01*
Y-694D01*
X-2801Y-1830D02*
X-2250Y-1279D01*
Y-910D01*
X-2751Y-1950D02*
X-2130Y-1329D01*
Y-1001D01*
X-2129Y-1000D01*
Y-794D01*
X-2700Y-2070D02*
X-2009Y-1379D01*
Y-843D01*
X-2650Y-2190D02*
X-1889Y-1429D01*
Y-893D01*
X-2600Y-2310D02*
X-1769Y-1479D01*
Y-943D01*
X-1600Y-1650D02*
X-1529Y-1579D01*
X-1600Y-2167D02*
Y-1650D01*
X-1529Y-1579D02*
Y-1042D01*
D29*
X-1843Y-2758D02*
Y-2300D01*
X-2175Y-3090D02*
X-1843Y-2758D01*
D30*
X-2076Y-16585D02*
X-2050Y-16594D01*
X-2102Y-16577D02*
X-2076Y-16585D01*
X-2129Y-16572D02*
X-2102Y-16577D01*
X-2157Y-16568D02*
X-2129Y-16572D01*
X-2184Y-16567D02*
X-2157Y-16568D01*
X-2194Y-16566D02*
X-2184Y-16567D01*
X-2076Y-16191D02*
X-2050Y-16200D01*
X-2102Y-16184D02*
X-2076Y-16191D01*
X-2129Y-16178D02*
X-2102Y-16184D01*
X-2157Y-16175D02*
X-2129Y-16178D01*
X-2184Y-16173D02*
X-2157Y-16175D01*
X-2194Y-16173D02*
X-2184Y-16173D01*
X-2076Y-15797D02*
X-2050Y-15806D01*
X-2102Y-15790D02*
X-2076Y-15797D01*
X-2129Y-15784D02*
X-2102Y-15790D01*
X-2157Y-15781D02*
X-2129Y-15784D01*
X-2184Y-15779D02*
X-2157Y-15781D01*
X-2194Y-15779D02*
X-2184Y-15779D01*
X-2076Y-15404D02*
X-2050Y-15413D01*
X-2102Y-15396D02*
X-2076Y-15404D01*
X-2129Y-15391D02*
X-2102Y-15396D01*
X-2157Y-15387D02*
X-2129Y-15391D01*
X-2184Y-15385D02*
X-2157Y-15387D01*
X-2194Y-15385D02*
X-2184Y-15385D01*
X-2044Y-10481D02*
X-1262Y-9699D01*
X-1147Y-6271D02*
X-1147Y-9421D01*
X-2056Y-5211D02*
X-1262Y-5993D01*
X-2171Y-10759D02*
X-2169Y-13671D01*
X-2050Y-16594D02*
X-1189Y-16933D01*
X-2050Y-16200D02*
X-1189Y-16539D01*
X-4710Y-16566D02*
X-4710Y-23929D01*
X-4317Y-23535D02*
Y-16960D01*
X-3923Y-23141D02*
Y-17354D01*
X-4317Y-24322D02*
X1077D01*
X-3923Y-23929D02*
X684D01*
X-3529Y-23535D02*
X290D01*
X684Y-23141D02*
Y-17354D01*
X1077Y-23535D02*
Y-16960D01*
X1471Y-16566D02*
X1471Y-23929D01*
X-1045Y-16960D02*
X290D01*
X-1045Y-16566D02*
X684D01*
X-3529Y-16960D02*
X-2171D01*
X-3923Y-16566D02*
X-2194D01*
X-4317Y-16173D02*
X-2194D01*
X-1045D02*
X1077D01*
X-2050Y-15806D02*
X-1189Y-16145D01*
X-4710Y-15779D02*
X-2194D01*
X-5104Y-24322D02*
Y-16173D01*
X-4710Y-24716D02*
X1471D01*
X1865Y-16173D02*
X1865Y-24322D01*
X-1045Y-15779D02*
X1471D01*
X-2050Y-15413D02*
X-1189Y-15752D01*
X-5104Y-15385D02*
X-2194D01*
X-5498Y-24716D02*
Y-15779D01*
X-5104Y-25110D02*
X1865Y-25110D01*
X2258Y-24716D02*
Y-15779D01*
X-943Y-15385D02*
X1845D01*
X-1120Y-15171D02*
Y-14956D01*
X-2033Y-13968D02*
X-1173Y-14821D01*
D31*
X1650Y-199D02*
X2003D01*
D32*
X-1902Y748D02*
X-1783Y866D01*
X-1191D01*
D33*
X-1833Y1148D02*
Y1215D01*
X-969Y-1930D02*
X-940D01*
D34*
X947Y1573D02*
X1220D01*
X940Y1580D02*
X947Y1573D01*
X1220Y895D02*
Y1573D01*
X1191Y866D02*
X1220Y895D01*
D35*
X2400Y-197D02*
X3137D01*
D36*
X980Y3490D02*
D03*
X3130D02*
D03*
X-240Y1590D02*
D03*
X-2130Y2920D02*
D03*
X-3160D02*
D03*
X-2070Y1790D02*
D03*
X-270Y2920D02*
D03*
X-240Y3490D02*
D03*
X-1530D02*
D03*
X-3160D02*
D03*
X-1150Y1560D02*
D03*
X-2790Y-80D02*
D03*
X3130Y-1690D02*
D03*
X2030D02*
D03*
X3130Y-530D02*
D03*
X2400D02*
D03*
X3130Y140D02*
D03*
X2950Y1280D02*
D03*
X1940Y2410D02*
D03*
X3130Y2920D02*
D03*
X940Y2010D02*
D03*
X1550Y2340D02*
D03*
X1220D02*
D03*
X980Y2920D02*
D03*
X-3160Y1490D02*
D03*
X-2098Y1448D02*
D03*
X-2720Y1150D02*
D03*
X940Y1580D02*
D03*
X-1310Y-1940D02*
D03*
X2750Y-940D02*
D03*
X-940Y-1930D02*
D03*
X-1180Y-1181D02*
D03*
X-2620Y750D02*
D03*
X2590Y680D02*
D03*
Y1010D02*
D03*
X2372Y138D02*
D03*
X-3160Y-1380D02*
D03*
X-2240Y-2610D02*
D03*
X-1070D02*
D03*
X-3160D02*
D03*
X2020D02*
D03*
X3130D02*
D03*
D37*
X-1147Y-4539D02*
D03*
X-2171Y-16960D02*
D03*
D38*
X709Y-709D02*
D03*
X236D02*
D03*
X-236D02*
D03*
X-709D02*
D03*
X709Y-236D02*
D03*
X236D02*
D03*
X-236D02*
D03*
X-709D02*
D03*
X709Y236D02*
D03*
X236D02*
D03*
X-236D02*
D03*
X-709D02*
D03*
X709Y709D02*
D03*
X236D02*
D03*
X-236D02*
D03*
X-709D02*
D03*
M02*
