%FSLAX24Y24*%
%MOIN*%
G70*
G01*
G75*
G04 Layer_Physical_Order=2*
G04 Layer_Color=16711680*
%ADD10R,0.0197X0.0236*%
%ADD11R,0.0394X0.0709*%
%ADD12R,0.0197X0.0256*%
%ADD13R,0.0236X0.0197*%
%ADD14R,0.0400X0.0370*%
G04:AMPARAMS|DCode=15|XSize=47.2mil|YSize=43.3mil|CornerRadius=0mil|HoleSize=0mil|Usage=FLASHONLY|Rotation=225.000|XOffset=0mil|YOffset=0mil|HoleType=Round|Shape=Rectangle|*
%AMROTATEDRECTD15*
4,1,4,0.0014,0.0320,0.0320,0.0014,-0.0014,-0.0320,-0.0320,-0.0014,0.0014,0.0320,0.0*
%
%ADD15ROTATEDRECTD15*%

%ADD16O,0.0256X0.0079*%
%ADD17O,0.0079X0.0256*%
%ADD18R,0.1850X0.1850*%
G04:AMPARAMS|DCode=19|XSize=19.7mil|YSize=23.6mil|CornerRadius=0mil|HoleSize=0mil|Usage=FLASHONLY|Rotation=225.000|XOffset=0mil|YOffset=0mil|HoleType=Round|Shape=Rectangle|*
%AMROTATEDRECTD19*
4,1,4,-0.0014,0.0153,0.0153,-0.0014,0.0014,-0.0153,-0.0153,0.0014,-0.0014,0.0153,0.0*
%
%ADD19ROTATEDRECTD19*%

%ADD20C,0.0060*%
%ADD21C,0.0370*%
%ADD22C,0.0080*%
%ADD23C,0.0090*%
%ADD24C,0.0240*%
%ADD25C,0.0260*%
G36*
X2668Y-2427D02*
X-2908D01*
Y3767D01*
X2668D01*
Y-2427D01*
D02*
G37*
%LPC*%
G36*
X-2040Y1182D02*
X-2125Y1165D01*
X-2198Y1117D01*
X-2247Y1044D01*
X-2264Y958D01*
X-2247Y872D01*
X-2198Y800D01*
X-2158Y773D01*
Y-754D01*
X-2169Y-761D01*
X-2217Y-834D01*
X-2234Y-920D01*
X-2217Y-1006D01*
X-2169Y-1079D01*
X-2096Y-1127D01*
X-2010Y-1144D01*
X-1924Y-1127D01*
X-1851Y-1079D01*
X-1803Y-1006D01*
X-1786Y-920D01*
X-1803Y-834D01*
X-1851Y-761D01*
X-1862Y-754D01*
Y828D01*
X-1832Y872D01*
X-1815Y958D01*
X-1832Y1044D01*
X-1881Y1117D01*
X-1954Y1165D01*
X-2040Y1182D01*
D02*
G37*
G36*
X100Y2718D02*
X-1478D01*
X-1534Y2707D01*
X-1582Y2675D01*
X-2217Y2040D01*
X-2230Y2042D01*
X-2315Y2025D01*
X-2388Y1977D01*
X-2437Y1904D01*
X-2454Y1818D01*
X-2437Y1732D01*
X-2388Y1660D01*
X-2315Y1611D01*
X-2230Y1594D01*
X-2144Y1611D01*
X-2071Y1660D01*
X-2022Y1732D01*
X-2005Y1818D01*
X-2008Y1831D01*
X-1416Y2422D01*
X39D01*
X798Y1663D01*
X796Y1650D01*
X813Y1564D01*
X861Y1491D01*
X934Y1443D01*
X1020Y1426D01*
X1106Y1443D01*
X1179Y1491D01*
X1227Y1564D01*
X1244Y1650D01*
X1227Y1736D01*
X1179Y1809D01*
X1106Y1857D01*
X1020Y1874D01*
X1007Y1872D01*
X205Y2675D01*
X157Y2707D01*
X100Y2718D01*
D02*
G37*
%LPD*%
D23*
Y2570D02*
X1020Y1650D01*
X-2230Y1818D02*
X-1478Y2570D01*
X-2010Y-910D02*
Y958D01*
X-1478Y2570D02*
X100D01*
D24*
X-2790Y-2310D02*
D03*
X-2790Y-960D02*
D03*
X-1110Y3650D02*
D03*
X-2790D02*
D03*
X2550D02*
D03*
X-130D02*
D03*
X-1950Y3190D02*
D03*
X2550Y-1480D02*
D03*
X1620Y-1480D02*
D03*
X2550Y1550D02*
D03*
Y2290D02*
D03*
Y700D02*
D03*
X1730Y2880D02*
D03*
X-2790Y2320D02*
D03*
X2070Y3400D02*
D03*
X-2020Y-1320D02*
D03*
X1410Y2250D02*
D03*
X-1120Y-1200D02*
D03*
X1020Y1650D02*
D03*
X-70Y2190D02*
D03*
X-2010Y-920D02*
D03*
X-1590Y2130D02*
D03*
X40Y2980D02*
D03*
X-1230Y1208D02*
D03*
X-2040Y958D02*
D03*
X-2230Y1818D02*
D03*
X-1990Y1638D02*
D03*
X-2790Y808D02*
D03*
X-880Y-2310D02*
D03*
X1620D02*
D03*
X2550D02*
D03*
D25*
X-709Y709D02*
D03*
X-236D02*
D03*
X236D02*
D03*
X709D02*
D03*
X-709Y236D02*
D03*
X-236D02*
D03*
X236D02*
D03*
X709D02*
D03*
X-709Y-236D02*
D03*
X-236D02*
D03*
X236D02*
D03*
X709D02*
D03*
X-709Y-709D02*
D03*
X-236D02*
D03*
X236D02*
D03*
X709D02*
D03*
M02*
