%FSLAX24Y24*%
%MOIN*%
G70*
G01*
G75*
G04 Layer_Color=65535*
%ADD10R,0.0394X0.0709*%
%ADD11R,0.0197X0.0236*%
%ADD12R,0.0197X0.0256*%
%ADD13R,0.0236X0.0197*%
%ADD14R,0.0400X0.0370*%
G04:AMPARAMS|DCode=15|XSize=47.2mil|YSize=43.3mil|CornerRadius=0mil|HoleSize=0mil|Usage=FLASHONLY|Rotation=225.000|XOffset=0mil|YOffset=0mil|HoleType=Round|Shape=Rectangle|*
%AMROTATEDRECTD15*
4,1,4,0.0014,0.0320,0.0320,0.0014,-0.0014,-0.0320,-0.0320,-0.0014,0.0014,0.0320,0.0*
%
%ADD15ROTATEDRECTD15*%

%ADD16O,0.0256X0.0079*%
%ADD17O,0.0079X0.0256*%
%ADD18R,0.1850X0.1850*%
G04:AMPARAMS|DCode=19|XSize=19.7mil|YSize=23.6mil|CornerRadius=0mil|HoleSize=0mil|Usage=FLASHONLY|Rotation=225.000|XOffset=0mil|YOffset=0mil|HoleType=Round|Shape=Rectangle|*
%AMROTATEDRECTD19*
4,1,4,-0.0014,0.0153,0.0153,-0.0014,0.0014,-0.0153,-0.0153,0.0014,-0.0014,0.0153,0.0*
%
%ADD19ROTATEDRECTD19*%

%ADD20C,0.0060*%
%ADD21C,0.0080*%
%ADD22C,0.0370*%
%ADD23C,0.0090*%
%ADD24C,0.0240*%
%ADD25C,0.0260*%
%ADD26C,0.0098*%
%ADD27C,0.0079*%
%ADD28C,0.0050*%
D20*
X-2988Y2786D02*
Y3042D01*
Y3238D02*
Y3494D01*
X-2712Y2786D02*
Y3042D01*
Y3238D02*
Y3494D01*
X-2988D02*
X-2712D01*
X-2988Y2786D02*
X-2712D01*
X-1188D02*
Y3042D01*
Y3238D02*
Y3494D01*
X-912Y2786D02*
Y3042D01*
Y3238D02*
Y3494D01*
X-1188D02*
X-912D01*
X-1188Y2786D02*
X-912D01*
X1928Y1678D02*
Y1934D01*
Y1226D02*
Y1482D01*
X1652Y1678D02*
X1652Y1934D01*
Y1226D02*
Y1482D01*
Y1226D02*
X1928Y1226D01*
X1652Y1934D02*
X1928Y1934D01*
X2208Y-192D02*
Y64D01*
Y-644D02*
Y-388D01*
X1932Y-192D02*
Y64D01*
Y-644D02*
Y-388D01*
Y-644D02*
X2208D01*
X1932Y64D02*
X2208D01*
X1928Y258D02*
Y514D01*
Y-194D02*
Y62D01*
X1652Y258D02*
X1652Y514D01*
Y-194D02*
Y62D01*
Y-194D02*
X1928D01*
X1652Y514D02*
X1928D01*
Y2388D02*
Y2644D01*
Y1936D02*
Y2192D01*
X1652Y2388D02*
Y2644D01*
Y1936D02*
Y2192D01*
Y1936D02*
X1928D01*
X1652Y2644D02*
X1928D01*
Y968D02*
Y1224D01*
Y516D02*
Y772D01*
X1652Y968D02*
Y1224D01*
Y516D02*
X1652Y772D01*
X1652Y516D02*
X1928D01*
X1652Y1224D02*
X1928D01*
X2082Y-1354D02*
Y-1098D01*
Y-646D02*
X2082Y-902D01*
X2358Y-1354D02*
Y-1098D01*
Y-902D02*
Y-646D01*
X2082D02*
X2358D01*
X2082Y-1354D02*
X2358D01*
X2398Y952D02*
X2654D01*
X1946D02*
X2202D01*
X2398Y1228D02*
X2654D01*
X1946D02*
X2202D01*
X1946Y952D02*
Y1228D01*
X2654Y952D02*
Y1228D01*
X1702Y-1354D02*
X1978D01*
X1702Y-646D02*
X1978D01*
Y-902D02*
Y-646D01*
Y-1354D02*
Y-1098D01*
X1702Y-902D02*
Y-646D01*
Y-1354D02*
Y-1098D01*
X1173Y3220D02*
X1270Y3123D01*
X212Y2900D02*
X630Y3318D01*
X311Y2370D02*
X414Y2267D01*
X950Y2162D02*
X1365Y2577D01*
X-1858Y-1474D02*
X-1582D01*
X-1858Y-766D02*
X-1582D01*
Y-1022D02*
Y-766D01*
Y-1474D02*
Y-1218D01*
X-1858Y-1022D02*
Y-766D01*
Y-1474D02*
Y-1218D01*
X1152Y2074D02*
X1428D01*
X1152Y1366D02*
X1428D01*
X1152D02*
Y1622D01*
Y1818D02*
Y2074D01*
X1428Y1366D02*
Y1622D01*
Y1818D02*
Y2074D01*
X-58Y1953D02*
X137Y2148D01*
X443Y1452D02*
X638Y1647D01*
X262Y1633D02*
X443Y1452D01*
X-58Y1953D02*
X123Y1772D01*
X457Y1828D02*
X638Y1647D01*
X137Y2148D02*
X318Y1967D01*
X-1858Y1472D02*
X-1582D01*
X-1858Y764D02*
X-1582D01*
X-1858D02*
Y1020D01*
Y1217D02*
Y1472D01*
X-1582Y764D02*
Y1020D01*
Y1217D02*
Y1472D01*
X-78Y2373D02*
X117Y2568D01*
X423Y1872D02*
X618Y2067D01*
X242Y2053D02*
X423Y1872D01*
X-78Y2373D02*
X103Y2192D01*
X437Y2248D02*
X618Y2067D01*
X117Y2568D02*
X298Y2387D01*
X1473Y2922D02*
X1668Y3117D01*
X972Y3423D02*
X1167Y3618D01*
X1348Y3437D01*
X1487Y3298D02*
X1668Y3117D01*
X972Y3423D02*
X1153Y3242D01*
X1292Y3103D02*
X1473Y2922D01*
D26*
X-1486Y866D02*
G03*
X-1486Y866I-49J0D01*
G01*
D27*
X-2186Y2845D02*
X-1714D01*
X-2186Y3435D02*
X-1714D01*
X-1181Y984D02*
X-984Y1181D01*
X984D02*
X1181D01*
Y984D02*
Y1181D01*
Y-1181D02*
Y-984D01*
X984Y-1181D02*
X1181D01*
X-1181D02*
X-984D01*
X-1181D02*
Y-984D01*
D28*
X-2170Y2700D02*
X-2003Y2450D01*
Y2700D02*
X-2170Y2450D01*
X-1753D02*
X-1920D01*
X-1753Y2617D01*
Y2658D01*
X-1795Y2700D01*
X-1878D01*
X-1920Y2658D01*
X-2833Y2638D02*
X-2875Y2680D01*
X-2958D01*
X-3000Y2638D01*
Y2472D01*
X-2958Y2430D01*
X-2875D01*
X-2833Y2472D01*
X-2750Y2430D02*
X-2667D01*
X-2708D01*
Y2680D01*
X-2750Y2638D01*
X-2417Y2430D02*
Y2680D01*
X-2542Y2555D01*
X-2375D01*
X-1173Y2658D02*
X-1215Y2700D01*
X-1298D01*
X-1340Y2658D01*
Y2492D01*
X-1298Y2450D01*
X-1215D01*
X-1173Y2492D01*
X-1090Y2450D02*
X-1007D01*
X-1048D01*
Y2700D01*
X-1090Y2658D01*
X-882D02*
X-840Y2700D01*
X-757D01*
X-715Y2658D01*
Y2617D01*
X-757Y2575D01*
X-799D01*
X-757D01*
X-715Y2533D01*
Y2492D01*
X-757Y2450D01*
X-840D01*
X-882Y2492D01*
X2000Y1900D02*
Y1650D01*
X2167D01*
X2250Y1858D02*
X2292Y1900D01*
X2375D01*
X2417Y1858D01*
Y1817D01*
X2375Y1775D01*
X2333D01*
X2375D01*
X2417Y1733D01*
Y1692D01*
X2375Y1650D01*
X2292D01*
X2250Y1692D01*
X2280Y-500D02*
X2530D01*
Y-333D01*
Y-83D02*
Y-250D01*
X2363Y-83D01*
X2322D01*
X2280Y-125D01*
Y-208D01*
X2322Y-250D01*
X2000Y450D02*
Y200D01*
X2167D01*
X2250D02*
X2333D01*
X2292D01*
Y450D01*
X2250Y408D01*
X2042Y2247D02*
X2000Y2205D01*
Y2122D01*
X2042Y2080D01*
X2208D01*
X2250Y2122D01*
Y2205D01*
X2208Y2247D01*
X2000Y2497D02*
X2042Y2413D01*
X2125Y2330D01*
X2208D01*
X2250Y2372D01*
Y2455D01*
X2208Y2497D01*
X2167D01*
X2125Y2455D01*
Y2330D01*
X2167Y758D02*
X2125Y800D01*
X2042D01*
X2000Y758D01*
Y592D01*
X2042Y550D01*
X2125D01*
X2167Y592D01*
X2417Y800D02*
X2250D01*
Y675D01*
X2333Y717D01*
X2375D01*
X2417Y675D01*
Y592D01*
X2375Y550D01*
X2292D01*
X2250Y592D01*
X2462Y-1043D02*
X2420Y-1085D01*
Y-1168D01*
X2462Y-1210D01*
X2628D01*
X2670Y-1168D01*
Y-1085D01*
X2628Y-1043D01*
X2462Y-960D02*
X2420Y-918D01*
Y-835D01*
X2462Y-793D01*
X2503D01*
X2545Y-835D01*
Y-877D01*
Y-835D01*
X2587Y-793D01*
X2628D01*
X2670Y-835D01*
Y-918D01*
X2628Y-960D01*
X2277Y1498D02*
X2235Y1540D01*
X2152D01*
X2110Y1498D01*
Y1332D01*
X2152Y1290D01*
X2235D01*
X2277Y1332D01*
X2485Y1290D02*
Y1540D01*
X2360Y1415D01*
X2527D01*
X-165Y2769D02*
Y2828D01*
X-224Y2887D01*
X-283D01*
X-401Y2769D01*
Y2711D01*
X-342Y2652D01*
X-283D01*
X-135Y2445D02*
X-253Y2563D01*
X-18D01*
X12Y2593D01*
Y2652D01*
X-47Y2711D01*
X-106D01*
X872Y1787D02*
X830Y1745D01*
Y1662D01*
X872Y1620D01*
X1038D01*
X1080Y1662D01*
Y1745D01*
X1038Y1787D01*
Y1870D02*
X1080Y1912D01*
Y1995D01*
X1038Y2037D01*
X872D01*
X830Y1995D01*
Y1912D01*
X872Y1870D01*
X913D01*
X955Y1912D01*
Y2037D01*
X-1801Y1919D02*
X-1842Y1877D01*
Y1794D01*
X-1801Y1752D01*
X-1634D01*
X-1593Y1794D01*
Y1877D01*
X-1634Y1919D01*
X-1842Y2002D02*
Y2168D01*
X-1801D01*
X-1634Y2002D01*
X-1593D01*
X-25Y1749D02*
Y1808D01*
X-84Y1867D01*
X-143D01*
X-261Y1749D01*
Y1691D01*
X-202Y1632D01*
X-143D01*
X34Y1691D02*
X93D01*
X152Y1632D01*
Y1573D01*
X122Y1543D01*
X63D01*
X63Y1484D01*
X34Y1455D01*
X-25D01*
X-84Y1514D01*
Y1573D01*
X-54Y1602D01*
X5Y1602D01*
Y1661D01*
X34Y1691D01*
X5Y1602D02*
X63Y1543D01*
X-1800Y-513D02*
X-1842Y-555D01*
Y-638D01*
X-1800Y-680D01*
X-1634D01*
X-1592Y-638D01*
Y-555D01*
X-1634Y-513D01*
X-1592Y-430D02*
Y-347D01*
Y-388D01*
X-1842D01*
X-1800Y-430D01*
X-1592Y-222D02*
Y-139D01*
Y-180D01*
X-1842D01*
X-1800Y-222D01*
X-970Y1670D02*
Y1462D01*
X-928Y1420D01*
X-845D01*
X-803Y1462D01*
Y1670D01*
X-720Y1420D02*
X-637D01*
X-678D01*
Y1670D01*
X-720Y1628D01*
X63Y3227D02*
X358Y3168D01*
X181Y3345D02*
X240Y3050D01*
X417Y3227D02*
X476Y3286D01*
X446Y3256D01*
X269Y3433D01*
Y3374D01*
X1745Y3449D02*
Y3508D01*
X1686Y3567D01*
X1627D01*
X1509Y3449D01*
Y3391D01*
X1568Y3332D01*
X1627D01*
X1657Y3243D02*
X1716Y3184D01*
X1686Y3214D01*
X1863Y3391D01*
X1804D01*
X1432Y-1143D02*
X1390Y-1185D01*
Y-1268D01*
X1432Y-1310D01*
X1598D01*
X1640Y-1268D01*
Y-1185D01*
X1598Y-1143D01*
X1640Y-1060D02*
Y-977D01*
Y-1018D01*
X1390D01*
X1432Y-1060D01*
Y-852D02*
X1390Y-810D01*
Y-727D01*
X1432Y-685D01*
X1598D01*
X1640Y-727D01*
Y-810D01*
X1598Y-852D01*
X1432D01*
M02*
