%FSLAX24Y24*%
%MOIN*%
G70*
G01*
G75*
G04 Layer_Physical_Order=2*
G04 Layer_Color=16711680*
%ADD10R,0.0394X0.0709*%
%ADD11R,0.0197X0.0236*%
%ADD12R,0.0315X0.0295*%
%ADD13R,0.0400X0.0370*%
%ADD14R,0.0197X0.0256*%
%ADD15R,0.0295X0.0315*%
G04:AMPARAMS|DCode=16|XSize=19.7mil|YSize=23.6mil|CornerRadius=0mil|HoleSize=0mil|Usage=FLASHONLY|Rotation=45.000|XOffset=0mil|YOffset=0mil|HoleType=Round|Shape=Rectangle|*
%AMROTATEDRECTD16*
4,1,4,0.0014,-0.0153,-0.0153,0.0014,-0.0014,0.0153,0.0153,-0.0014,0.0014,-0.0153,0.0*
%
%ADD16ROTATEDRECTD16*%

G04:AMPARAMS|DCode=17|XSize=47.2mil|YSize=43.3mil|CornerRadius=0mil|HoleSize=0mil|Usage=FLASHONLY|Rotation=225.000|XOffset=0mil|YOffset=0mil|HoleType=Round|Shape=Rectangle|*
%AMROTATEDRECTD17*
4,1,4,0.0014,0.0320,0.0320,0.0014,-0.0014,-0.0320,-0.0320,-0.0014,0.0014,0.0320,0.0*
%
%ADD17ROTATEDRECTD17*%

%ADD18O,0.0256X0.0079*%
%ADD19O,0.0079X0.0256*%
%ADD20R,0.1850X0.1850*%
%ADD21R,0.0236X0.0197*%
%ADD22C,0.0060*%
%ADD23C,0.0090*%
%ADD24C,0.0150*%
%ADD25C,0.0080*%
%ADD26C,0.0370*%
%ADD27C,0.0240*%
%ADD28C,0.0260*%
G36*
X2668Y-2427D02*
X-2908D01*
Y3767D01*
X2668D01*
Y-2427D01*
D02*
G37*
%LPC*%
G36*
X-1950Y1444D02*
X-2036Y1427D01*
X-2109Y1379D01*
X-2157Y1306D01*
X-2174Y1220D01*
X-2158Y1137D01*
Y-754D01*
X-2169Y-761D01*
X-2217Y-834D01*
X-2234Y-920D01*
X-2217Y-1006D01*
X-2169Y-1079D01*
X-2096Y-1127D01*
X-2010Y-1144D01*
X-1924Y-1127D01*
X-1851Y-1079D01*
X-1803Y-1006D01*
X-1786Y-920D01*
X-1803Y-834D01*
X-1851Y-761D01*
X-1862Y-754D01*
Y1014D01*
X-1791Y1061D01*
X-1743Y1134D01*
X-1726Y1220D01*
X-1743Y1306D01*
X-1791Y1379D01*
X-1864Y1427D01*
X-1950Y1444D01*
D02*
G37*
G36*
X100Y2718D02*
X-1870D01*
X-1927Y2707D01*
X-1975Y2675D01*
X-2297Y2352D01*
X-2310Y2354D01*
X-2396Y2337D01*
X-2469Y2289D01*
X-2517Y2216D01*
X-2534Y2130D01*
X-2517Y2044D01*
X-2469Y1971D01*
X-2396Y1923D01*
X-2310Y1906D01*
X-2224Y1923D01*
X-2151Y1971D01*
X-2103Y2044D01*
X-2086Y2130D01*
X-2088Y2143D01*
X-1809Y2422D01*
X39D01*
X798Y1663D01*
X796Y1650D01*
X813Y1564D01*
X861Y1491D01*
X934Y1443D01*
X1020Y1426D01*
X1106Y1443D01*
X1179Y1491D01*
X1227Y1564D01*
X1244Y1650D01*
X1227Y1736D01*
X1179Y1809D01*
X1106Y1857D01*
X1020Y1874D01*
X1007Y1872D01*
X205Y2675D01*
X157Y2707D01*
X100Y2718D01*
D02*
G37*
%LPD*%
D23*
X-2010Y1160D02*
X-1950Y1220D01*
X100Y2570D02*
X1020Y1650D01*
X-1870Y2570D02*
X100D01*
X-2310Y2130D02*
X-1870Y2570D01*
X-2010Y-910D02*
Y1160D01*
D27*
X-1950Y3190D02*
D03*
X2070Y3400D02*
D03*
X-130Y3650D02*
D03*
X2550D02*
D03*
X-2790D02*
D03*
X-1110D02*
D03*
X-1590Y2130D02*
D03*
X-1200Y1290D02*
D03*
X-2790Y-960D02*
D03*
X-2790Y-2310D02*
D03*
X40Y2980D02*
D03*
X-2310Y2130D02*
D03*
X-1950Y1220D02*
D03*
X2550Y-1480D02*
D03*
X1620Y-1480D02*
D03*
X-2010Y-920D02*
D03*
X-70Y2190D02*
D03*
X1020Y1650D02*
D03*
X-1120Y-1200D02*
D03*
X1410Y2250D02*
D03*
X-2020Y-1320D02*
D03*
X-2610Y2130D02*
D03*
X1730Y2880D02*
D03*
X2550Y1550D02*
D03*
Y2290D02*
D03*
Y-2310D02*
D03*
X1620D02*
D03*
X-880D02*
D03*
X2550Y700D02*
D03*
D28*
X-709Y709D02*
D03*
X-236D02*
D03*
X236D02*
D03*
X709D02*
D03*
X-709Y236D02*
D03*
X-236D02*
D03*
X236D02*
D03*
X709D02*
D03*
X-709Y-236D02*
D03*
X-236D02*
D03*
X236D02*
D03*
X709D02*
D03*
X-709Y-709D02*
D03*
X-236D02*
D03*
X236D02*
D03*
X709D02*
D03*
M02*
