%FSLAX24Y24*%
%MOIN*%
G70*
G01*
G75*
G04 Layer_Physical_Order=1*
G04 Layer_Color=255*
%ADD10R,0.0197X0.0236*%
%ADD11R,0.0394X0.0709*%
%ADD12R,0.0197X0.0256*%
%ADD13R,0.0236X0.0197*%
%ADD14R,0.0400X0.0370*%
G04:AMPARAMS|DCode=15|XSize=47.2mil|YSize=43.3mil|CornerRadius=0mil|HoleSize=0mil|Usage=FLASHONLY|Rotation=225.000|XOffset=0mil|YOffset=0mil|HoleType=Round|Shape=Rectangle|*
%AMROTATEDRECTD15*
4,1,4,0.0014,0.0320,0.0320,0.0014,-0.0014,-0.0320,-0.0320,-0.0014,0.0014,0.0320,0.0*
%
%ADD15ROTATEDRECTD15*%

%ADD16O,0.0256X0.0079*%
%ADD17O,0.0079X0.0256*%
%ADD18R,0.1850X0.1850*%
G04:AMPARAMS|DCode=19|XSize=19.7mil|YSize=23.6mil|CornerRadius=0mil|HoleSize=0mil|Usage=FLASHONLY|Rotation=225.000|XOffset=0mil|YOffset=0mil|HoleType=Round|Shape=Rectangle|*
%AMROTATEDRECTD19*
4,1,4,-0.0014,0.0153,0.0153,-0.0014,0.0014,-0.0153,-0.0153,0.0014,-0.0014,0.0153,0.0*
%
%ADD19ROTATEDRECTD19*%

%ADD20C,0.0060*%
%ADD21C,0.0370*%
%ADD22C,0.0080*%
%ADD23C,0.0090*%
%ADD24C,0.0240*%
%ADD25C,0.0260*%
G36*
X2670Y2169D02*
X2517D01*
X2510Y2170D01*
X1948D01*
Y2269D01*
X1988D01*
Y2437D01*
X1592D01*
Y2269D01*
X1632D01*
Y1982D01*
X1631Y1979D01*
X1626Y1952D01*
X1625Y1924D01*
X1626Y1897D01*
X1626Y1897D01*
D01*
X1597Y1860D01*
X1488D01*
Y1867D01*
X1290D01*
Y1967D01*
X1488D01*
Y2135D01*
X1275D01*
X1256Y2181D01*
X1262Y2188D01*
X1276Y2203D01*
X1286Y2221D01*
X1294Y2240D01*
X1294Y2240D01*
X1294Y2240D01*
Y2240D01*
X1299Y2260D01*
X1300Y2280D01*
Y2360D01*
X1299Y2380D01*
X1295Y2396D01*
X1294Y2400D01*
X1292Y2405D01*
X1410Y2523D01*
X1186Y2746D01*
X1257Y2817D01*
X1481Y2593D01*
X1545Y2658D01*
X1592Y2639D01*
Y2537D01*
X1740D01*
Y2705D01*
X1658D01*
X1639Y2751D01*
X1683Y2796D01*
X1558Y2921D01*
X1578Y2941D01*
X1424Y3095D01*
X1459Y3131D01*
X1424Y3166D01*
X1564Y3306D01*
X1445Y3425D01*
X1167Y3704D01*
X971Y3508D01*
X846Y3633D01*
X372Y3160D01*
Y3160D01*
X170Y2957D01*
X394Y2734D01*
X323Y2663D01*
X99Y2887D01*
X-103Y2684D01*
X22Y2559D01*
X12Y2549D01*
X166Y2395D01*
X131Y2359D01*
X166Y2324D01*
X26Y2184D01*
X56Y2153D01*
X32Y2129D01*
X186Y1975D01*
X115Y1904D01*
X-39Y2058D01*
X-47Y2050D01*
X-250Y2252D01*
Y3770D01*
X2670D01*
Y2169D01*
D02*
G37*
G36*
Y1288D02*
X2547D01*
Y1090D01*
Y892D01*
X2670D01*
Y-2430D01*
X1500D01*
Y-1396D01*
X1595Y-1301D01*
X1642Y-1321D01*
Y-1415D01*
X1790D01*
Y-1197D01*
X1890D01*
Y-1415D01*
X2120D01*
Y-1197D01*
X2170D01*
Y-1147D01*
X2368D01*
Y-1070D01*
X2430D01*
Y892D01*
X2447D01*
Y1090D01*
Y1288D01*
X2430D01*
Y1500D01*
X1990D01*
Y1679D01*
X2510D01*
X2517Y1679D01*
X2670D01*
Y1288D01*
D02*
G37*
G36*
X-1902Y2358D02*
X-1887Y2344D01*
X-1869Y2334D01*
X-1850Y2326D01*
X-1830Y2321D01*
X-1810Y2320D01*
X-1574D01*
X-1470Y2216D01*
Y1800D01*
X-1469Y1780D01*
X-1464Y1760D01*
X-1459Y1749D01*
X-1456Y1741D01*
X-1445Y1724D01*
X-1432Y1708D01*
X-1006Y1282D01*
X-1006Y1280D01*
Y1102D01*
X-1004Y1080D01*
X-999Y1059D01*
X-999Y1059D01*
X-999Y1059D01*
X-998Y1025D01*
X-1025D01*
Y998D01*
X-1059Y999D01*
X-1059Y999D01*
X-1059Y999D01*
X-1080Y1004D01*
X-1102Y1006D01*
X-1152D01*
X-1168Y1010D01*
X-1191Y1012D01*
X-1522D01*
Y1097D01*
Y1265D01*
X-1918D01*
Y1236D01*
X-1952Y1168D01*
X-1959Y1163D01*
X-1982Y1171D01*
X-2011Y1177D01*
X-2040Y1179D01*
X-2048Y1178D01*
X-2084Y1212D01*
Y1653D01*
X-2074Y1662D01*
X-2055Y1684D01*
X-2039Y1708D01*
X-2026Y1734D01*
X-2017Y1761D01*
X-2011Y1789D01*
X-2009Y1818D01*
X-2011Y1847D01*
X-2017Y1875D01*
X-2026Y1902D01*
X-2039Y1928D01*
X-2055Y1952D01*
X-2074Y1974D01*
X-2095Y1993D01*
X-2119Y2009D01*
X-2145Y2022D01*
X-2172Y2031D01*
X-2201Y2037D01*
X-2230Y2039D01*
X-2258Y2037D01*
X-2287Y2031D01*
X-2314Y2022D01*
X-2340Y2009D01*
X-2364Y1993D01*
X-2385Y1974D01*
X-2404Y1952D01*
X-2420Y1928D01*
X-2433Y1902D01*
X-2442Y1875D01*
X-2448Y1847D01*
X-2450Y1818D01*
X-2448Y1789D01*
X-2442Y1761D01*
X-2433Y1734D01*
X-2420Y1708D01*
X-2404Y1684D01*
X-2385Y1662D01*
X-2375Y1653D01*
Y1148D01*
X-2373Y1125D01*
X-2368Y1103D01*
X-2359Y1082D01*
X-2347Y1063D01*
X-2332Y1045D01*
X-2259Y972D01*
X-2260Y958D01*
X-2258Y929D01*
X-2252Y901D01*
X-2243Y874D01*
X-2230Y848D01*
X-2214Y824D01*
X-2195Y802D01*
X-2174Y783D01*
X-2150Y767D01*
X-2124Y754D01*
X-2097Y745D01*
X-2068Y740D01*
X-2040Y738D01*
X-2035Y738D01*
X-2002Y700D01*
X-2006Y680D01*
X-2910D01*
Y2440D01*
X-1984D01*
X-1902Y2358D01*
D02*
G37*
G36*
X-2226Y-878D02*
X-2229Y-891D01*
X-2230Y-920D01*
X-2229Y-949D01*
X-2223Y-977D01*
X-2214Y-1004D01*
X-2201Y-1030D01*
X-2185Y-1054D01*
X-2166Y-1076D01*
X-2144Y-1095D01*
X-2120Y-1111D01*
X-2094Y-1124D01*
X-2067Y-1133D01*
X-2039Y-1139D01*
X-2010Y-1140D01*
X-1981Y-1139D01*
X-1957Y-1134D01*
X-1951Y-1139D01*
X-1918Y-1235D01*
Y-1267D01*
X-1522D01*
Y-1141D01*
Y-1012D01*
X-1181D01*
X-1158Y-1010D01*
X-1142Y-1006D01*
X-1102D01*
X-1080Y-1004D01*
X-1059Y-999D01*
X-1059Y-999D01*
X-1059Y-999D01*
X-1025Y-998D01*
Y-1025D01*
X-998D01*
D01*
X-999Y-1059D01*
X-999Y-1059D01*
X-999Y-1059D01*
X-1004Y-1080D01*
X-1006Y-1102D01*
Y-1141D01*
X-866D01*
Y-1191D01*
X-848D01*
Y-1280D01*
X-847Y-1301D01*
X-842Y-1323D01*
X-838Y-1332D01*
X-837Y-1338D01*
X-833Y-1358D01*
X-825Y-1376D01*
X-816Y-1391D01*
Y-1410D01*
X-805Y-1405D01*
X-801Y-1409D01*
X-760Y-1450D01*
Y-2430D01*
X-2910D01*
Y-839D01*
X-2258D01*
X-2226Y-878D01*
D02*
G37*
G36*
X-990Y3555D02*
X-1000D01*
Y3337D01*
X-1100D01*
Y3555D01*
X-1161D01*
Y3594D01*
X-1755D01*
Y2994D01*
X-1801Y2975D01*
X-1861Y3035D01*
X-1876Y3049D01*
X-1894Y3059D01*
X-1902Y3063D01*
X-1913Y3067D01*
X-1933Y3072D01*
X-1953Y3074D01*
X-2145D01*
Y3594D01*
X-2739D01*
Y3555D01*
X-2800D01*
Y3337D01*
X-2900D01*
Y3555D01*
X-2910D01*
Y3770D01*
X-990D01*
Y3555D01*
D02*
G37*
%LPC*%
G36*
X-1770Y-1367D02*
X-1918D01*
Y-1535D01*
X-1770D01*
Y-1367D01*
D02*
G37*
G36*
X2368Y-1247D02*
X2220D01*
Y-1415D01*
X2368D01*
Y-1247D01*
D02*
G37*
G36*
X-1522Y-1367D02*
X-1670D01*
Y-1535D01*
X-1522D01*
Y-1367D01*
D02*
G37*
G36*
X-916Y-1241D02*
X-1006D01*
Y-1280D01*
X-1004Y-1301D01*
X-999Y-1323D01*
X-991Y-1343D01*
X-979Y-1362D01*
X-965Y-1378D01*
X-948Y-1393D01*
X-930Y-1404D01*
X-916Y-1410D01*
Y-1241D01*
D02*
G37*
G36*
X1988Y2705D02*
X1840D01*
Y2537D01*
X1988D01*
Y2705D01*
D02*
G37*
G36*
X1635Y3236D02*
X1530Y3131D01*
X1649Y3012D01*
X1754Y3117D01*
X1635Y3236D01*
D02*
G37*
G36*
X-59Y2478D02*
X-164Y2373D01*
X-45Y2254D01*
X60Y2359D01*
X-59Y2478D01*
D02*
G37*
G36*
X-1770Y1533D02*
X-1918D01*
Y1365D01*
X-1770D01*
Y1533D01*
D02*
G37*
G36*
X-1522D02*
X-1670D01*
Y1365D01*
X-1522D01*
Y1533D01*
D02*
G37*
%LPD*%
D10*
X-1050Y2943D02*
D03*
Y3337D02*
D03*
X-2850Y2943D02*
D03*
Y3337D02*
D03*
X1790Y2487D02*
D03*
Y2093D02*
D03*
Y1067D02*
D03*
Y673D02*
D03*
X2170Y-1197D02*
D03*
Y-803D02*
D03*
X1840D02*
D03*
Y-1197D02*
D03*
X-1720Y-923D02*
D03*
Y-1317D02*
D03*
X1290Y1523D02*
D03*
Y1917D02*
D03*
X-1720Y921D02*
D03*
Y1315D02*
D03*
D11*
X-1458Y3140D02*
D03*
X-2442D02*
D03*
D12*
X1790Y1767D02*
D03*
Y1393D02*
D03*
X2070Y-103D02*
D03*
Y-477D02*
D03*
X1790Y347D02*
D03*
Y-27D02*
D03*
D13*
X2497Y1090D02*
D03*
X2103D02*
D03*
D14*
X2510Y1924D02*
D03*
D15*
X1221Y2782D02*
D03*
X832Y3171D02*
D03*
X748Y2308D02*
D03*
X358Y2698D02*
D03*
D16*
X-1191Y866D02*
D03*
Y709D02*
D03*
Y551D02*
D03*
Y394D02*
D03*
Y236D02*
D03*
Y79D02*
D03*
Y-79D02*
D03*
Y-236D02*
D03*
Y-394D02*
D03*
Y-551D02*
D03*
Y-709D02*
D03*
Y-866D02*
D03*
X1191D02*
D03*
Y-709D02*
D03*
Y-551D02*
D03*
Y-394D02*
D03*
Y-236D02*
D03*
Y-79D02*
D03*
Y79D02*
D03*
Y236D02*
D03*
Y394D02*
D03*
Y551D02*
D03*
Y709D02*
D03*
Y866D02*
D03*
D17*
X-866Y-1191D02*
D03*
X-709D02*
D03*
X-551D02*
D03*
X-394D02*
D03*
X-236D02*
D03*
X-79D02*
D03*
X79D02*
D03*
X236D02*
D03*
X394D02*
D03*
X551D02*
D03*
X709D02*
D03*
X866D02*
D03*
Y1191D02*
D03*
X709D02*
D03*
X551D02*
D03*
X394D02*
D03*
X236D02*
D03*
X79D02*
D03*
X-79D02*
D03*
X-236D02*
D03*
X-394D02*
D03*
X-551D02*
D03*
X-709D02*
D03*
X-866D02*
D03*
D18*
X0Y0D02*
D03*
D19*
X429Y1661D02*
D03*
X151Y1939D02*
D03*
X409Y2081D02*
D03*
X131Y2359D02*
D03*
X1181Y3409D02*
D03*
X1459Y3131D02*
D03*
D20*
X-860Y1999D02*
Y3779D01*
X-740Y2049D02*
Y3779D01*
X-620Y2099D02*
Y3779D01*
X-500Y2148D02*
Y3779D01*
X-380Y2198D02*
Y3779D01*
X-1520Y2450D02*
X-1340Y2270D01*
Y1800D02*
Y2270D01*
X-1470Y2570D02*
X-1220Y2320D01*
Y1850D02*
Y2320D01*
X-1100Y1900D02*
Y2370D01*
X-1420Y2690D02*
X-1100Y2370D01*
X-980Y1949D02*
Y2420D01*
X-1465Y2905D02*
X-980Y2420D01*
X-1261Y2943D02*
X-1050D01*
X-1700Y2690D02*
X-1420D01*
X-1953Y2943D02*
X-1700Y2690D01*
X-2850Y2943D02*
X-1953D01*
X-1870Y2690D02*
X-1750Y2570D01*
X-2920Y2690D02*
X-1870D01*
X-1750Y2570D02*
X-1470D01*
X-1930D02*
X-1810Y2450D01*
X-2920Y2570D02*
X-1930D01*
X-1810Y2450D02*
X-1520D01*
X-2918Y-709D02*
X-1181D01*
X-2918Y-551D02*
X-1181D01*
X-2918Y-394D02*
X-1181D01*
X-2918Y-236D02*
X-1181D01*
X-2918Y-79D02*
X-1181D01*
X-2918Y79D02*
X-1181D01*
X-2918Y236D02*
X-1181D01*
X-2918Y394D02*
X-1181D01*
X1181Y-1022D02*
Y-866D01*
X1010Y-2440D02*
Y-1193D01*
X1181Y-1022D01*
X1130Y-2440D02*
Y-1243D01*
X1250Y-2440D02*
Y-1293D01*
X1370Y-2440D02*
Y-1342D01*
X-709Y1181D02*
Y1339D01*
X-551Y1181D02*
Y1351D01*
X-394Y1181D02*
Y1363D01*
X-236Y1181D02*
Y1375D01*
X-79Y1181D02*
Y1388D01*
X79Y1181D02*
Y1400D01*
X236Y1181D02*
Y1412D01*
X394Y1181D02*
Y1424D01*
X-866Y1181D02*
Y1326D01*
X-1340Y1800D02*
X-866Y1326D01*
X-1220Y1850D02*
X-709Y1339D01*
X-1100Y1900D02*
X-551Y1351D01*
X-980Y1949D02*
X-394Y1363D01*
X-860Y1999D02*
X-236Y1375D01*
X-740Y2049D02*
X-79Y1388D01*
X-620Y2099D02*
X79Y1400D01*
X-500Y2148D02*
X236Y1412D01*
X-380Y2198D02*
X394Y1424D01*
X810Y2720D02*
X1170Y2360D01*
X810Y2720D02*
Y3038D01*
X1181Y3409D01*
X409Y2081D02*
X618Y2290D01*
X1170Y2280D02*
Y2360D01*
X618Y2290D02*
X709D01*
X709Y1191D02*
Y1411D01*
X709Y1181D02*
Y1191D01*
Y2269D02*
Y2290D01*
Y2269D02*
X748Y2308D01*
X681Y2241D02*
X709Y2269D01*
X681Y1439D02*
X709Y1411D01*
X681Y1439D02*
Y2241D01*
X866Y1191D02*
Y1424D01*
X801Y1489D02*
X866Y1424D01*
X801Y1489D02*
Y1911D01*
X1170Y2280D01*
X1181Y-709D02*
X1305D01*
X1409Y-964D02*
Y-813D01*
X1130Y-1243D02*
X1409Y-964D01*
X1305Y-709D02*
X1409Y-813D01*
X1181Y-551D02*
X1317D01*
X1250Y-1293D02*
X1529Y-1014D01*
Y-763D01*
X1317Y-551D02*
X1529Y-763D01*
X1181Y-394D02*
X1329D01*
X1370Y-1342D02*
X1649Y-1064D01*
Y-713D01*
X1329Y-394D02*
X1649Y-713D01*
X1181Y-236D02*
X1342D01*
X1840Y-735D01*
Y-803D02*
Y-735D01*
X-2918Y550D02*
X-1220D01*
X-394Y-1191D02*
Y-1181D01*
X-79Y-1191D02*
Y-1181D01*
X79Y-1321D02*
Y-1191D01*
X79D02*
Y-1181D01*
X236Y-1333D02*
Y-1191D01*
X236D02*
Y-1181D01*
X394Y-1346D02*
Y-1191D01*
X394D02*
Y-1181D01*
X220Y-1519D02*
X394Y-1346D01*
X220Y-2440D02*
Y-1519D01*
X551Y-1358D02*
Y-1191D01*
X340Y-2440D02*
Y-1569D01*
X551Y-1191D02*
Y-1181D01*
X340Y-1569D02*
X551Y-1358D01*
X709Y-1371D02*
Y-1191D01*
X460Y-2440D02*
Y-1619D01*
X709Y-1191D02*
Y-1181D01*
X460Y-1619D02*
X709Y-1371D01*
X866Y-1383D02*
Y-1191D01*
X866D02*
Y-1181D01*
X580Y-2440D02*
Y-1669D01*
X866Y-1383D01*
X-79Y-1308D02*
Y-1191D01*
X91Y-2440D02*
Y-1478D01*
X236Y-1333D01*
X-29Y-2440D02*
Y-1428D01*
X79Y-1321D01*
X-150Y-2440D02*
Y-1379D01*
X-79Y-1308D01*
X-270Y-1329D02*
X-236Y-1296D01*
X-270Y-2440D02*
Y-1329D01*
X-236Y-1296D02*
Y-1191D01*
X-394Y-1278D02*
Y-1191D01*
Y-1278D02*
X-390Y-1282D01*
Y-2440D02*
Y-1282D01*
X-551Y-1305D02*
Y-1191D01*
Y-1305D02*
X-510Y-1347D01*
Y-2440D02*
Y-1347D01*
X-709Y-1317D02*
Y-1191D01*
Y-1317D02*
X-630Y-1396D01*
Y-2440D02*
Y-1396D01*
X-709Y-1191D02*
Y-1181D01*
D21*
X1870Y1924D02*
X2510D01*
D22*
X1766Y-477D02*
X2070D01*
X2120Y-803D02*
Y-527D01*
X2070Y-477D02*
X2120Y-527D01*
X1368Y-79D02*
X1766Y-477D01*
X1181Y-79D02*
X1368D01*
X429Y1661D02*
X551Y1539D01*
Y1181D02*
Y1539D01*
D23*
X1790Y2487D02*
Y2840D01*
X1866Y-103D02*
X2070D01*
X1679Y236D02*
X1790Y347D01*
X1684Y79D02*
X1866Y-103D01*
X1790Y347D02*
Y683D01*
X1181Y236D02*
X1679D01*
X1181Y79D02*
X1684D01*
X1793Y1070D02*
X2133D01*
X1790Y1067D02*
Y1393D01*
X-866Y-866D02*
X0Y0D01*
X-866Y-1181D02*
Y-866D01*
X551Y551D02*
X1181D01*
X394Y394D02*
X1181D01*
X1181Y1414D02*
X1290Y1523D01*
X1181Y709D02*
Y1414D01*
X-1996Y-866D02*
X-1181D01*
X1221Y2782D02*
Y2893D01*
X1459Y3131D01*
X1020Y1650D02*
X1163D01*
X1290Y1523D01*
X1221Y2782D02*
X1410Y2593D01*
X1706Y-1197D02*
X1840D01*
X1590Y-1313D02*
X1706Y-1197D01*
X1590Y-1420D02*
Y-1313D01*
X-2040Y958D02*
X-1948Y866D01*
X-1191D01*
X-2230Y1148D02*
X-2040Y958D01*
X-2230Y1148D02*
Y1818D01*
X-866Y-1438D02*
Y-1191D01*
X-890Y-1462D02*
X-866Y-1438D01*
X1290Y1917D02*
Y2150D01*
X1410Y2250D02*
X1420D01*
X1390D02*
X1410D01*
X1290Y2150D02*
X1390Y2250D01*
X1410D02*
Y2593D01*
D24*
X-2790Y-2310D02*
D03*
X-2790Y-960D02*
D03*
X-1110Y3650D02*
D03*
X-2790D02*
D03*
X2550D02*
D03*
X-130D02*
D03*
X-1950Y3190D02*
D03*
X2550Y-1480D02*
D03*
X1620Y-1480D02*
D03*
X2550Y1550D02*
D03*
Y2290D02*
D03*
Y700D02*
D03*
X1730Y2880D02*
D03*
X-2790Y2320D02*
D03*
X2070Y3400D02*
D03*
X-2020Y-1320D02*
D03*
X1410Y2250D02*
D03*
X-1120Y-1200D02*
D03*
X1020Y1650D02*
D03*
X-70Y2190D02*
D03*
X-2010Y-920D02*
D03*
X-1590Y2130D02*
D03*
X40Y2980D02*
D03*
X-1230Y1208D02*
D03*
X-2040Y958D02*
D03*
X-2230Y1818D02*
D03*
X-1990Y1638D02*
D03*
X-2790Y808D02*
D03*
X-880Y-2310D02*
D03*
X1620D02*
D03*
X2550D02*
D03*
D25*
X-709Y709D02*
D03*
X-236D02*
D03*
X236D02*
D03*
X709D02*
D03*
X-709Y236D02*
D03*
X-236D02*
D03*
X236D02*
D03*
X709D02*
D03*
X-709Y-236D02*
D03*
X-236D02*
D03*
X236D02*
D03*
X709D02*
D03*
X-709Y-709D02*
D03*
X-236D02*
D03*
X236D02*
D03*
X709D02*
D03*
M02*
